G04 #@! TF.GenerationSoftware,KiCad,Pcbnew,(6.0.9)*
G04 #@! TF.CreationDate,2023-02-20T10:33:00+01:00*
G04 #@! TF.ProjectId,FLWSB-SAMDaaNo21,464c5753-422d-4534-914d-4461614e6f32,1.0*
G04 #@! TF.SameCoordinates,Original*
G04 #@! TF.FileFunction,Paste,Top*
G04 #@! TF.FilePolarity,Positive*
%FSLAX46Y46*%
G04 Gerber Fmt 4.6, Leading zero omitted, Abs format (unit mm)*
G04 Created by KiCad (PCBNEW (6.0.9)) date 2023-02-20 10:33:00*
%MOMM*%
%LPD*%
G01*
G04 APERTURE LIST*
G04 Aperture macros list*
%AMRoundRect*
0 Rectangle with rounded corners*
0 $1 Rounding radius*
0 $2 $3 $4 $5 $6 $7 $8 $9 X,Y pos of 4 corners*
0 Add a 4 corners polygon primitive as box body*
4,1,4,$2,$3,$4,$5,$6,$7,$8,$9,$2,$3,0*
0 Add four circle primitives for the rounded corners*
1,1,$1+$1,$2,$3*
1,1,$1+$1,$4,$5*
1,1,$1+$1,$6,$7*
1,1,$1+$1,$8,$9*
0 Add four rect primitives between the rounded corners*
20,1,$1+$1,$2,$3,$4,$5,0*
20,1,$1+$1,$4,$5,$6,$7,0*
20,1,$1+$1,$6,$7,$8,$9,0*
20,1,$1+$1,$8,$9,$2,$3,0*%
%AMRotRect*
0 Rectangle, with rotation*
0 The origin of the aperture is its center*
0 $1 length*
0 $2 width*
0 $3 Rotation angle, in degrees counterclockwise*
0 Add horizontal line*
21,1,$1,$2,0,0,$3*%
G04 Aperture macros list end*
%ADD10RoundRect,0.250000X-0.337500X-0.475000X0.337500X-0.475000X0.337500X0.475000X-0.337500X0.475000X0*%
%ADD11R,1.000000X1.000000*%
%ADD12R,2.200000X1.050000*%
%ADD13R,0.990600X0.889000*%
%ADD14RoundRect,0.250000X-0.325000X-0.450000X0.325000X-0.450000X0.325000X0.450000X-0.325000X0.450000X0*%
%ADD15RoundRect,0.250000X-0.450000X0.350000X-0.450000X-0.350000X0.450000X-0.350000X0.450000X0.350000X0*%
%ADD16RoundRect,0.250000X0.475000X-0.337500X0.475000X0.337500X-0.475000X0.337500X-0.475000X-0.337500X0*%
%ADD17R,1.016000X1.524000*%
%ADD18R,1.524000X1.016000*%
%ADD19RoundRect,0.250000X0.450000X-0.350000X0.450000X0.350000X-0.450000X0.350000X-0.450000X-0.350000X0*%
%ADD20R,0.900000X1.000000*%
%ADD21RoundRect,0.250000X0.450000X-0.325000X0.450000X0.325000X-0.450000X0.325000X-0.450000X-0.325000X0*%
%ADD22RoundRect,0.075000X-0.415425X-0.521491X0.521491X0.415425X0.415425X0.521491X-0.521491X-0.415425X0*%
%ADD23RoundRect,0.075000X0.415425X-0.521491X0.521491X-0.415425X-0.415425X0.521491X-0.521491X0.415425X0*%
%ADD24RoundRect,0.250000X0.337500X0.475000X-0.337500X0.475000X-0.337500X-0.475000X0.337500X-0.475000X0*%
%ADD25RotRect,1.000000X1.800000X315.000000*%
%ADD26RoundRect,0.250000X-0.350000X-0.450000X0.350000X-0.450000X0.350000X0.450000X-0.350000X0.450000X0*%
G04 APERTURE END LIST*
D10*
X102960074Y-76339145D03*
X105035074Y-76339145D03*
D11*
X164749311Y-78725000D03*
D12*
X166249311Y-80200000D03*
X166249311Y-77250000D03*
D11*
X167749311Y-78725000D03*
D13*
X124294999Y-80789998D03*
X124294999Y-76690002D03*
X125895001Y-80789998D03*
X125895001Y-76690002D03*
D14*
X164837000Y-72644000D03*
X166887000Y-72644000D03*
D15*
X133599141Y-79736329D03*
X133599141Y-81736329D03*
D16*
X127847800Y-82317500D03*
X127847800Y-80242500D03*
D17*
X137083000Y-87625000D03*
X138353000Y-87625000D03*
X139623000Y-87625000D03*
X140893000Y-87625000D03*
X142163000Y-87625000D03*
X143433000Y-87625000D03*
X144703000Y-87625000D03*
X145973000Y-87625000D03*
X147243000Y-87625000D03*
X148513000Y-87625000D03*
X149783000Y-87625000D03*
X151053000Y-87625000D03*
X152323000Y-87625000D03*
X153593000Y-87625000D03*
X154863000Y-87625000D03*
X156133000Y-87625000D03*
X157403000Y-87625000D03*
X158673000Y-87625000D03*
X159943000Y-87625000D03*
X161213000Y-87625000D03*
D18*
X162483000Y-82525000D03*
X162483000Y-81255000D03*
X162483000Y-79985000D03*
X162483000Y-78715000D03*
X162483000Y-77445000D03*
X162483000Y-76175000D03*
X162483000Y-74905000D03*
D17*
X161213000Y-69825000D03*
X159943000Y-69825000D03*
X158673000Y-69825000D03*
X157403000Y-69825000D03*
X156133000Y-69825000D03*
X154863000Y-69825000D03*
X153593000Y-69825000D03*
X152323000Y-69825000D03*
X151053000Y-69825000D03*
X149783000Y-69825000D03*
X148513000Y-69825000D03*
X147243000Y-69825000D03*
X145973000Y-69825000D03*
X144703000Y-69825000D03*
X143433000Y-69825000D03*
X142163000Y-69825000D03*
X140893000Y-69825000D03*
X139623000Y-69825000D03*
X138353000Y-69825000D03*
X137083000Y-69825000D03*
D15*
X127847800Y-75200000D03*
X127847800Y-77200000D03*
D19*
X133597705Y-77979754D03*
X133597705Y-75979754D03*
D20*
X99860509Y-74251432D03*
X101560509Y-74251432D03*
D16*
X101092000Y-78275000D03*
X101092000Y-76200000D03*
X99060000Y-78275000D03*
X99060000Y-76200000D03*
D21*
X87630000Y-87385000D03*
X87630000Y-85335000D03*
D10*
X116818500Y-82804000D03*
X118893500Y-82804000D03*
D22*
X106872124Y-79738788D03*
X107225678Y-80092342D03*
X107579231Y-80445895D03*
X107932785Y-80799449D03*
X108286338Y-81153002D03*
X108639891Y-81506555D03*
X108993445Y-81860109D03*
X109346998Y-82213662D03*
X109700551Y-82567215D03*
X110054105Y-82920769D03*
X110407658Y-83274322D03*
X110761212Y-83627876D03*
D23*
X112758788Y-83627876D03*
X113112342Y-83274322D03*
X113465895Y-82920769D03*
X113819449Y-82567215D03*
X114173002Y-82213662D03*
X114526555Y-81860109D03*
X114880109Y-81506555D03*
X115233662Y-81153002D03*
X115587215Y-80799449D03*
X115940769Y-80445895D03*
X116294322Y-80092342D03*
X116647876Y-79738788D03*
D22*
X116647876Y-77741212D03*
X116294322Y-77387658D03*
X115940769Y-77034105D03*
X115587215Y-76680551D03*
X115233662Y-76326998D03*
X114880109Y-75973445D03*
X114526555Y-75619891D03*
X114173002Y-75266338D03*
X113819449Y-74912785D03*
X113465895Y-74559231D03*
X113112342Y-74205678D03*
X112758788Y-73852124D03*
D23*
X110761212Y-73852124D03*
X110407658Y-74205678D03*
X110054105Y-74559231D03*
X109700551Y-74912785D03*
X109346998Y-75266338D03*
X108993445Y-75619891D03*
X108639891Y-75973445D03*
X108286338Y-76326998D03*
X107932785Y-76680551D03*
X107579231Y-77034105D03*
X107225678Y-77387658D03*
X106872124Y-77741212D03*
D24*
X102752564Y-82190734D03*
X100677564Y-82190734D03*
X107209500Y-74168000D03*
X105134500Y-74168000D03*
D25*
X105181177Y-81088430D03*
X103413411Y-79320664D03*
D14*
X165091000Y-84836000D03*
X167141000Y-84836000D03*
D16*
X134620000Y-85619500D03*
X134620000Y-83544500D03*
D24*
X101159739Y-80171673D03*
X99084739Y-80171673D03*
D19*
X89662000Y-87360000D03*
X89662000Y-85360000D03*
D26*
X164862000Y-70612000D03*
X166862000Y-70612000D03*
X165100000Y-86868000D03*
X167100000Y-86868000D03*
M02*
