M48
; DRILL file {KiCad (6.0.9)} date Mon Feb 20 10:33:22 2023
; FORMAT={-:-/ absolute / metric / decimal}
; #@! TF.CreationDate,2023-02-20T10:33:22+01:00
; #@! TF.GenerationSoftware,Kicad,Pcbnew,(6.0.9)
; #@! TF.FileFunction,Plated,1,4,PTH
FMAT,2
METRIC
; #@! TA.AperFunction,Plated,PTH,ViaDrill
T1C0.400
; #@! TA.AperFunction,Plated,PTH,ComponentDrill
T2C0.400
; #@! TA.AperFunction,Plated,PTH,ComponentDrill
T3C0.500
; #@! TA.AperFunction,Plated,PTH,ComponentDrill
T4C0.600
; #@! TA.AperFunction,Plated,PTH,ComponentDrill
T5C1.000
%
G90
G05
T1
X92.202Y-84.836
X96.52Y-82.804
X97.536Y-80.772
X102.671Y-74.731
X105.156Y-72.935
X106.613Y-75.759
X106.834Y-82.958
X107.994Y-78.509
X109.1Y-79.808
X110.236Y-77.216
X110.27Y-81.246
X111.678Y-76.119
X111.765Y-75.123
X112.268Y-81.788
X112.388Y-76.821
X113.512Y-79.276
X114.358Y-77.978
X115.369Y-78.989
X120.523Y-77.941
X122.428Y-79.502
X122.932Y-83.316
X125.222Y-74.422
X126.492Y-82.169
X131.572Y-83.058
X134.62Y-87.63
X134.874Y-69.85
X135.19Y-78.774
X143.256Y-85.09
X144.526Y-86.106
X150.876Y-85.598
X155.956Y-71.882
X160.274Y-78.74
T2
X88.401Y-75.471
X88.401Y-76.321
X88.401Y-77.171
X88.401Y-78.021
X88.401Y-78.871
X88.401Y-79.721
X88.401Y-80.571
X88.401Y-81.421
X89.751Y-75.471
X89.751Y-76.321
X89.751Y-77.171
X89.751Y-78.021
X89.751Y-78.871
X89.751Y-79.721
X89.751Y-80.571
X89.751Y-81.421
T3
X92.202Y-82.296
X92.964Y-71.628
X97.79Y-74.295
T5
X96.52Y-69.85
X96.52Y-87.63
X99.06Y-69.85
X99.06Y-87.63
X101.6Y-69.85
X101.6Y-87.63
X104.14Y-69.85
X104.14Y-87.63
X106.68Y-69.85
X106.68Y-87.63
X109.22Y-69.85
X109.22Y-87.63
X111.76Y-69.85
X111.76Y-87.63
X114.3Y-69.85
X114.3Y-87.63
X116.84Y-69.85
X116.84Y-87.63
X119.38Y-69.85
X119.38Y-87.63
X121.92Y-69.85
X121.92Y-87.63
X124.46Y-69.85
X124.46Y-87.63
X127.0Y-69.85
X127.0Y-87.63
X129.54Y-69.85
X129.54Y-87.63
X130.725Y-76.2
X130.725Y-78.74
X130.725Y-81.28
X132.08Y-69.85
X132.08Y-87.63
T4
X85.791Y-74.121G85X84.991Y-74.121
G05
X85.791Y-82.771G85X84.991Y-82.771
G05
X89.521Y-74.121G85X88.021Y-74.121
G05
X89.521Y-82.771G85X88.021Y-82.771
G05
T0
M30
