G04 #@! TF.GenerationSoftware,KiCad,Pcbnew,(6.0.9)*
G04 #@! TF.CreationDate,2023-02-20T10:33:00+01:00*
G04 #@! TF.ProjectId,FLWSB-SAMDaaNo21,464c5753-422d-4534-914d-4461614e6f32,1.0*
G04 #@! TF.SameCoordinates,Original*
G04 #@! TF.FileFunction,Copper,L2,Inr*
G04 #@! TF.FilePolarity,Positive*
%FSLAX46Y46*%
G04 Gerber Fmt 4.6, Leading zero omitted, Abs format (unit mm)*
G04 Created by KiCad (PCBNEW (6.0.9)) date 2023-02-20 10:33:00*
%MOMM*%
%LPD*%
G01*
G04 APERTURE LIST*
G04 #@! TA.AperFunction,ComponentPad*
%ADD10R,1.700000X1.700000*%
G04 #@! TD*
G04 #@! TA.AperFunction,ComponentPad*
%ADD11O,1.700000X1.700000*%
G04 #@! TD*
G04 #@! TA.AperFunction,ComponentPad*
%ADD12R,1.000000X1.000000*%
G04 #@! TD*
G04 #@! TA.AperFunction,ComponentPad*
%ADD13C,0.650000*%
G04 #@! TD*
G04 #@! TA.AperFunction,ComponentPad*
%ADD14O,2.216000X1.108000*%
G04 #@! TD*
G04 #@! TA.AperFunction,ViaPad*
%ADD15C,0.800000*%
G04 #@! TD*
G04 #@! TA.AperFunction,Conductor*
%ADD16C,0.200000*%
G04 #@! TD*
G04 #@! TA.AperFunction,Conductor*
%ADD17C,0.250000*%
G04 #@! TD*
G04 APERTURE END LIST*
D10*
X132080000Y-87630000D03*
D11*
X129540000Y-87630000D03*
X127000000Y-87630000D03*
X124460000Y-87630000D03*
X121920000Y-87630000D03*
X119380000Y-87630000D03*
X116840000Y-87630000D03*
X114300000Y-87630000D03*
X111760000Y-87630000D03*
X109220000Y-87630000D03*
X106680000Y-87630000D03*
X104140000Y-87630000D03*
X101600000Y-87630000D03*
X99060000Y-87630000D03*
X96520000Y-87630000D03*
D12*
X92202000Y-82296000D03*
D10*
X96520000Y-69850000D03*
D11*
X99060000Y-69850000D03*
X101600000Y-69850000D03*
X104140000Y-69850000D03*
X106680000Y-69850000D03*
X109220000Y-69850000D03*
X111760000Y-69850000D03*
X114300000Y-69850000D03*
X116840000Y-69850000D03*
X119380000Y-69850000D03*
X121920000Y-69850000D03*
X124460000Y-69850000D03*
X127000000Y-69850000D03*
X129540000Y-69850000D03*
X132080000Y-69850000D03*
D12*
X92964000Y-71628000D03*
X97790000Y-74295000D03*
D10*
X130725015Y-76200000D03*
D11*
X130725015Y-78740000D03*
X130725015Y-81280000D03*
D13*
X89750917Y-75471000D03*
X89750917Y-76321000D03*
X89750917Y-77171000D03*
X89750917Y-78021000D03*
X89750917Y-78871000D03*
X89750917Y-79721000D03*
X89750917Y-80571000D03*
X89750917Y-81421000D03*
X88400917Y-81421000D03*
X88400917Y-80571000D03*
X88400917Y-79721000D03*
X88400917Y-78871000D03*
X88400917Y-78021000D03*
X88400917Y-77171000D03*
X88400917Y-76321000D03*
X88400917Y-75471000D03*
D14*
X88770917Y-74121000D03*
X88770917Y-82771000D03*
X85390917Y-82771000D03*
X85390917Y-74121000D03*
D15*
X113512152Y-79276413D03*
X126492000Y-82169000D03*
X97536000Y-80772000D03*
X110236000Y-77216000D03*
X109100320Y-79808143D03*
X111765373Y-75122979D03*
X96520000Y-82804000D03*
X134874000Y-69850000D03*
X106834093Y-82958093D03*
X105156000Y-72935500D03*
X122931700Y-83316300D03*
X160274000Y-78740000D03*
X134620000Y-87630000D03*
X125222000Y-74422000D03*
X106612940Y-75759060D03*
X135189916Y-78773524D03*
X107994420Y-78509246D03*
X92202000Y-84836000D03*
X150876000Y-85598000D03*
X110270070Y-81245930D03*
X102671299Y-74731299D03*
X112388456Y-76821360D03*
X111677700Y-76118629D03*
X114357515Y-77978052D03*
X115368705Y-78989241D03*
X120523000Y-77940500D03*
X122428000Y-79502000D03*
X131572000Y-83058000D03*
X143256000Y-85090000D03*
X144526000Y-86106000D03*
X112268000Y-81788000D03*
X155956000Y-71882000D03*
D16*
X108284370Y-79209246D02*
X108694420Y-78799196D01*
X89950916Y-78671001D02*
X107166225Y-78671001D01*
X110538816Y-78671000D02*
X112388456Y-76821360D01*
X107166225Y-78671001D02*
X107704470Y-79209246D01*
X108694420Y-78799196D02*
X108694420Y-78671000D01*
X89750917Y-78871000D02*
X89950916Y-78671001D01*
X107704470Y-79209246D02*
X108284370Y-79209246D01*
X108694420Y-78671000D02*
X110538816Y-78671000D01*
X89950916Y-78220999D02*
X107292717Y-78220999D01*
X89750917Y-78021000D02*
X89950916Y-78220999D01*
X108694420Y-78219296D02*
X108694420Y-78221000D01*
X108694420Y-78221000D02*
X110352419Y-78221000D01*
X107292717Y-78220999D02*
X107704470Y-77809246D01*
X110352419Y-78221000D02*
X111677700Y-76895719D01*
X107704470Y-77809246D02*
X108284370Y-77809246D01*
X108284370Y-77809246D02*
X108694420Y-78219296D01*
X111677700Y-76895719D02*
X111677700Y-76118629D01*
D17*
X122428000Y-79502000D02*
X132080000Y-69850000D01*
X143256000Y-85090000D02*
X124460000Y-85090000D01*
X124460000Y-85090000D02*
X121920000Y-87630000D01*
X119380000Y-85852000D02*
X119380000Y-87630000D01*
X144526000Y-86106000D02*
X144526000Y-84836000D01*
X143764000Y-84074000D02*
X121158000Y-84074000D01*
X121158000Y-84074000D02*
X119380000Y-85852000D01*
X144526000Y-84836000D02*
X143764000Y-84074000D01*
G04 #@! TA.AperFunction,Conductor*
G36*
X95119836Y-68735609D02*
G01*
X95166329Y-68789265D01*
X95176433Y-68859539D01*
X95172592Y-68874537D01*
X95172856Y-68874600D01*
X95171029Y-68882284D01*
X95168255Y-68889684D01*
X95161500Y-68951866D01*
X95161500Y-70748134D01*
X95168255Y-70810316D01*
X95219385Y-70946705D01*
X95306739Y-71063261D01*
X95423295Y-71150615D01*
X95559684Y-71201745D01*
X95615560Y-71207815D01*
X95617678Y-71208045D01*
X95621866Y-71208500D01*
X97418134Y-71208500D01*
X97422323Y-71208045D01*
X97424440Y-71207815D01*
X97480316Y-71201745D01*
X97616705Y-71150615D01*
X97733261Y-71063261D01*
X97820615Y-70946705D01*
X97842799Y-70887529D01*
X97864598Y-70829382D01*
X97907240Y-70772618D01*
X97973802Y-70747918D01*
X98043150Y-70763126D01*
X98077817Y-70791114D01*
X98106250Y-70823938D01*
X98278126Y-70966632D01*
X98471000Y-71079338D01*
X98475825Y-71081180D01*
X98475826Y-71081181D01*
X98511394Y-71094763D01*
X98679692Y-71159030D01*
X98684760Y-71160061D01*
X98684763Y-71160062D01*
X98779862Y-71179410D01*
X98898597Y-71203567D01*
X98903772Y-71203757D01*
X98903774Y-71203757D01*
X99116673Y-71211564D01*
X99116677Y-71211564D01*
X99121837Y-71211753D01*
X99126957Y-71211097D01*
X99126959Y-71211097D01*
X99338288Y-71184025D01*
X99338289Y-71184025D01*
X99343416Y-71183368D01*
X99348366Y-71181883D01*
X99552429Y-71120661D01*
X99552434Y-71120659D01*
X99557384Y-71119174D01*
X99757994Y-71020896D01*
X99939860Y-70891173D01*
X100098096Y-70733489D01*
X100228453Y-70552077D01*
X100229640Y-70552930D01*
X100276960Y-70509362D01*
X100346897Y-70497145D01*
X100412338Y-70524678D01*
X100440166Y-70556511D01*
X100497694Y-70650388D01*
X100503777Y-70658699D01*
X100643213Y-70819667D01*
X100650580Y-70826883D01*
X100814434Y-70962916D01*
X100822881Y-70968831D01*
X101006756Y-71076279D01*
X101016042Y-71080729D01*
X101215001Y-71156703D01*
X101224899Y-71159579D01*
X101328250Y-71180606D01*
X101342299Y-71179410D01*
X101346000Y-71169065D01*
X101346000Y-69722000D01*
X101366002Y-69653879D01*
X101419658Y-69607386D01*
X101472000Y-69596000D01*
X101728000Y-69596000D01*
X101796121Y-69616002D01*
X101842614Y-69669658D01*
X101854000Y-69722000D01*
X101854000Y-71168517D01*
X101858064Y-71182359D01*
X101871478Y-71184393D01*
X101878184Y-71183534D01*
X101888262Y-71181392D01*
X102092255Y-71120191D01*
X102101842Y-71116433D01*
X102293095Y-71022739D01*
X102301945Y-71017464D01*
X102475328Y-70893792D01*
X102483200Y-70887139D01*
X102634052Y-70736812D01*
X102640730Y-70728965D01*
X102768022Y-70551819D01*
X102769279Y-70552722D01*
X102816373Y-70509362D01*
X102886311Y-70497145D01*
X102951751Y-70524678D01*
X102979579Y-70556511D01*
X103039987Y-70655088D01*
X103186250Y-70823938D01*
X103358126Y-70966632D01*
X103551000Y-71079338D01*
X103555825Y-71081180D01*
X103555826Y-71081181D01*
X103591394Y-71094763D01*
X103759692Y-71159030D01*
X103764760Y-71160061D01*
X103764763Y-71160062D01*
X103859862Y-71179410D01*
X103978597Y-71203567D01*
X103983772Y-71203757D01*
X103983774Y-71203757D01*
X104196673Y-71211564D01*
X104196677Y-71211564D01*
X104201837Y-71211753D01*
X104206957Y-71211097D01*
X104206959Y-71211097D01*
X104418288Y-71184025D01*
X104418289Y-71184025D01*
X104423416Y-71183368D01*
X104428366Y-71181883D01*
X104632429Y-71120661D01*
X104632434Y-71120659D01*
X104637384Y-71119174D01*
X104837994Y-71020896D01*
X105019860Y-70891173D01*
X105178096Y-70733489D01*
X105308453Y-70552077D01*
X105309776Y-70553028D01*
X105356645Y-70509857D01*
X105426580Y-70497625D01*
X105492026Y-70525144D01*
X105519875Y-70556994D01*
X105579987Y-70655088D01*
X105726250Y-70823938D01*
X105898126Y-70966632D01*
X106091000Y-71079338D01*
X106095825Y-71081180D01*
X106095826Y-71081181D01*
X106131394Y-71094763D01*
X106299692Y-71159030D01*
X106304760Y-71160061D01*
X106304763Y-71160062D01*
X106399862Y-71179410D01*
X106518597Y-71203567D01*
X106523772Y-71203757D01*
X106523774Y-71203757D01*
X106736673Y-71211564D01*
X106736677Y-71211564D01*
X106741837Y-71211753D01*
X106746957Y-71211097D01*
X106746959Y-71211097D01*
X106958288Y-71184025D01*
X106958289Y-71184025D01*
X106963416Y-71183368D01*
X106968366Y-71181883D01*
X107172429Y-71120661D01*
X107172434Y-71120659D01*
X107177384Y-71119174D01*
X107377994Y-71020896D01*
X107559860Y-70891173D01*
X107718096Y-70733489D01*
X107848453Y-70552077D01*
X107849776Y-70553028D01*
X107896645Y-70509857D01*
X107966580Y-70497625D01*
X108032026Y-70525144D01*
X108059875Y-70556994D01*
X108119987Y-70655088D01*
X108266250Y-70823938D01*
X108438126Y-70966632D01*
X108631000Y-71079338D01*
X108635825Y-71081180D01*
X108635826Y-71081181D01*
X108671394Y-71094763D01*
X108839692Y-71159030D01*
X108844760Y-71160061D01*
X108844763Y-71160062D01*
X108939862Y-71179410D01*
X109058597Y-71203567D01*
X109063772Y-71203757D01*
X109063774Y-71203757D01*
X109276673Y-71211564D01*
X109276677Y-71211564D01*
X109281837Y-71211753D01*
X109286957Y-71211097D01*
X109286959Y-71211097D01*
X109498288Y-71184025D01*
X109498289Y-71184025D01*
X109503416Y-71183368D01*
X109508366Y-71181883D01*
X109712429Y-71120661D01*
X109712434Y-71120659D01*
X109717384Y-71119174D01*
X109917994Y-71020896D01*
X110099860Y-70891173D01*
X110258096Y-70733489D01*
X110388453Y-70552077D01*
X110389776Y-70553028D01*
X110436645Y-70509857D01*
X110506580Y-70497625D01*
X110572026Y-70525144D01*
X110599875Y-70556994D01*
X110659987Y-70655088D01*
X110806250Y-70823938D01*
X110978126Y-70966632D01*
X111171000Y-71079338D01*
X111175825Y-71081180D01*
X111175826Y-71081181D01*
X111211394Y-71094763D01*
X111379692Y-71159030D01*
X111384760Y-71160061D01*
X111384763Y-71160062D01*
X111479862Y-71179410D01*
X111598597Y-71203567D01*
X111603772Y-71203757D01*
X111603774Y-71203757D01*
X111816673Y-71211564D01*
X111816677Y-71211564D01*
X111821837Y-71211753D01*
X111826957Y-71211097D01*
X111826959Y-71211097D01*
X112038288Y-71184025D01*
X112038289Y-71184025D01*
X112043416Y-71183368D01*
X112048366Y-71181883D01*
X112252429Y-71120661D01*
X112252434Y-71120659D01*
X112257384Y-71119174D01*
X112457994Y-71020896D01*
X112639860Y-70891173D01*
X112798096Y-70733489D01*
X112928453Y-70552077D01*
X112929776Y-70553028D01*
X112976645Y-70509857D01*
X113046580Y-70497625D01*
X113112026Y-70525144D01*
X113139875Y-70556994D01*
X113199987Y-70655088D01*
X113346250Y-70823938D01*
X113518126Y-70966632D01*
X113711000Y-71079338D01*
X113715825Y-71081180D01*
X113715826Y-71081181D01*
X113751394Y-71094763D01*
X113919692Y-71159030D01*
X113924760Y-71160061D01*
X113924763Y-71160062D01*
X114019862Y-71179410D01*
X114138597Y-71203567D01*
X114143772Y-71203757D01*
X114143774Y-71203757D01*
X114356673Y-71211564D01*
X114356677Y-71211564D01*
X114361837Y-71211753D01*
X114366957Y-71211097D01*
X114366959Y-71211097D01*
X114578288Y-71184025D01*
X114578289Y-71184025D01*
X114583416Y-71183368D01*
X114588366Y-71181883D01*
X114792429Y-71120661D01*
X114792434Y-71120659D01*
X114797384Y-71119174D01*
X114997994Y-71020896D01*
X115179860Y-70891173D01*
X115338096Y-70733489D01*
X115468453Y-70552077D01*
X115469776Y-70553028D01*
X115516645Y-70509857D01*
X115586580Y-70497625D01*
X115652026Y-70525144D01*
X115679875Y-70556994D01*
X115739987Y-70655088D01*
X115886250Y-70823938D01*
X116058126Y-70966632D01*
X116251000Y-71079338D01*
X116255825Y-71081180D01*
X116255826Y-71081181D01*
X116291394Y-71094763D01*
X116459692Y-71159030D01*
X116464760Y-71160061D01*
X116464763Y-71160062D01*
X116559862Y-71179410D01*
X116678597Y-71203567D01*
X116683772Y-71203757D01*
X116683774Y-71203757D01*
X116896673Y-71211564D01*
X116896677Y-71211564D01*
X116901837Y-71211753D01*
X116906957Y-71211097D01*
X116906959Y-71211097D01*
X117118288Y-71184025D01*
X117118289Y-71184025D01*
X117123416Y-71183368D01*
X117128366Y-71181883D01*
X117332429Y-71120661D01*
X117332434Y-71120659D01*
X117337384Y-71119174D01*
X117537994Y-71020896D01*
X117719860Y-70891173D01*
X117878096Y-70733489D01*
X118008453Y-70552077D01*
X118009776Y-70553028D01*
X118056645Y-70509857D01*
X118126580Y-70497625D01*
X118192026Y-70525144D01*
X118219875Y-70556994D01*
X118279987Y-70655088D01*
X118426250Y-70823938D01*
X118598126Y-70966632D01*
X118791000Y-71079338D01*
X118795825Y-71081180D01*
X118795826Y-71081181D01*
X118831394Y-71094763D01*
X118999692Y-71159030D01*
X119004760Y-71160061D01*
X119004763Y-71160062D01*
X119099862Y-71179410D01*
X119218597Y-71203567D01*
X119223772Y-71203757D01*
X119223774Y-71203757D01*
X119436673Y-71211564D01*
X119436677Y-71211564D01*
X119441837Y-71211753D01*
X119446957Y-71211097D01*
X119446959Y-71211097D01*
X119658288Y-71184025D01*
X119658289Y-71184025D01*
X119663416Y-71183368D01*
X119668366Y-71181883D01*
X119872429Y-71120661D01*
X119872434Y-71120659D01*
X119877384Y-71119174D01*
X120077994Y-71020896D01*
X120259860Y-70891173D01*
X120418096Y-70733489D01*
X120548453Y-70552077D01*
X120549776Y-70553028D01*
X120596645Y-70509857D01*
X120666580Y-70497625D01*
X120732026Y-70525144D01*
X120759875Y-70556994D01*
X120819987Y-70655088D01*
X120966250Y-70823938D01*
X121138126Y-70966632D01*
X121331000Y-71079338D01*
X121335825Y-71081180D01*
X121335826Y-71081181D01*
X121371394Y-71094763D01*
X121539692Y-71159030D01*
X121544760Y-71160061D01*
X121544763Y-71160062D01*
X121639862Y-71179410D01*
X121758597Y-71203567D01*
X121763772Y-71203757D01*
X121763774Y-71203757D01*
X121976673Y-71211564D01*
X121976677Y-71211564D01*
X121981837Y-71211753D01*
X121986957Y-71211097D01*
X121986959Y-71211097D01*
X122198288Y-71184025D01*
X122198289Y-71184025D01*
X122203416Y-71183368D01*
X122208366Y-71181883D01*
X122412429Y-71120661D01*
X122412434Y-71120659D01*
X122417384Y-71119174D01*
X122617994Y-71020896D01*
X122799860Y-70891173D01*
X122958096Y-70733489D01*
X123088453Y-70552077D01*
X123089776Y-70553028D01*
X123136645Y-70509857D01*
X123206580Y-70497625D01*
X123272026Y-70525144D01*
X123299875Y-70556994D01*
X123359987Y-70655088D01*
X123506250Y-70823938D01*
X123678126Y-70966632D01*
X123871000Y-71079338D01*
X123875825Y-71081180D01*
X123875826Y-71081181D01*
X123911394Y-71094763D01*
X124079692Y-71159030D01*
X124084760Y-71160061D01*
X124084763Y-71160062D01*
X124179862Y-71179410D01*
X124298597Y-71203567D01*
X124303772Y-71203757D01*
X124303774Y-71203757D01*
X124516673Y-71211564D01*
X124516677Y-71211564D01*
X124521837Y-71211753D01*
X124526957Y-71211097D01*
X124526959Y-71211097D01*
X124738288Y-71184025D01*
X124738289Y-71184025D01*
X124743416Y-71183368D01*
X124748366Y-71181883D01*
X124952429Y-71120661D01*
X124952434Y-71120659D01*
X124957384Y-71119174D01*
X125157994Y-71020896D01*
X125339860Y-70891173D01*
X125498096Y-70733489D01*
X125628453Y-70552077D01*
X125629776Y-70553028D01*
X125676645Y-70509857D01*
X125746580Y-70497625D01*
X125812026Y-70525144D01*
X125839875Y-70556994D01*
X125899987Y-70655088D01*
X126046250Y-70823938D01*
X126218126Y-70966632D01*
X126411000Y-71079338D01*
X126415825Y-71081180D01*
X126415826Y-71081181D01*
X126451394Y-71094763D01*
X126619692Y-71159030D01*
X126624760Y-71160061D01*
X126624763Y-71160062D01*
X126719862Y-71179410D01*
X126838597Y-71203567D01*
X126843772Y-71203757D01*
X126843774Y-71203757D01*
X127056673Y-71211564D01*
X127056677Y-71211564D01*
X127061837Y-71211753D01*
X127066957Y-71211097D01*
X127066959Y-71211097D01*
X127278288Y-71184025D01*
X127278289Y-71184025D01*
X127283416Y-71183368D01*
X127288366Y-71181883D01*
X127492429Y-71120661D01*
X127492434Y-71120659D01*
X127497384Y-71119174D01*
X127697994Y-71020896D01*
X127879860Y-70891173D01*
X128038096Y-70733489D01*
X128168453Y-70552077D01*
X128169776Y-70553028D01*
X128216645Y-70509857D01*
X128286580Y-70497625D01*
X128352026Y-70525144D01*
X128379875Y-70556994D01*
X128439987Y-70655088D01*
X128586250Y-70823938D01*
X128758126Y-70966632D01*
X128951000Y-71079338D01*
X128955825Y-71081180D01*
X128955826Y-71081181D01*
X128991394Y-71094763D01*
X129159692Y-71159030D01*
X129164760Y-71160061D01*
X129164763Y-71160062D01*
X129259862Y-71179410D01*
X129378597Y-71203567D01*
X129383771Y-71203757D01*
X129383773Y-71203757D01*
X129451293Y-71206233D01*
X129525649Y-71208959D01*
X129592990Y-71231443D01*
X129637486Y-71286767D01*
X129645008Y-71357364D01*
X129610126Y-71423969D01*
X122477500Y-78556595D01*
X122415188Y-78590621D01*
X122388405Y-78593500D01*
X122332513Y-78593500D01*
X122326061Y-78594872D01*
X122326056Y-78594872D01*
X122239113Y-78613353D01*
X122145712Y-78633206D01*
X122139682Y-78635891D01*
X122139681Y-78635891D01*
X121977278Y-78708197D01*
X121977276Y-78708198D01*
X121971248Y-78710882D01*
X121816747Y-78823134D01*
X121812326Y-78828044D01*
X121812325Y-78828045D01*
X121696314Y-78956889D01*
X121688960Y-78965056D01*
X121593473Y-79130444D01*
X121534458Y-79312072D01*
X121533768Y-79318633D01*
X121533768Y-79318635D01*
X121529337Y-79360797D01*
X121514496Y-79502000D01*
X121515186Y-79508565D01*
X121531914Y-79667720D01*
X121534458Y-79691928D01*
X121593473Y-79873556D01*
X121688960Y-80038944D01*
X121693378Y-80043851D01*
X121693379Y-80043852D01*
X121786974Y-80147800D01*
X121816747Y-80180866D01*
X121855470Y-80209000D01*
X121922266Y-80257530D01*
X121971248Y-80293118D01*
X121977276Y-80295802D01*
X121977278Y-80295803D01*
X122073856Y-80338802D01*
X122145712Y-80370794D01*
X122238270Y-80390468D01*
X122326056Y-80409128D01*
X122326061Y-80409128D01*
X122332513Y-80410500D01*
X122523487Y-80410500D01*
X122529939Y-80409128D01*
X122529944Y-80409128D01*
X122617730Y-80390468D01*
X122710288Y-80370794D01*
X122782144Y-80338802D01*
X122878722Y-80295803D01*
X122878724Y-80295802D01*
X122884752Y-80293118D01*
X122933735Y-80257530D01*
X123000530Y-80209000D01*
X123039253Y-80180866D01*
X123069026Y-80147800D01*
X123162621Y-80043852D01*
X123162622Y-80043851D01*
X123167040Y-80038944D01*
X123262527Y-79873556D01*
X123321542Y-79691928D01*
X123338907Y-79526706D01*
X123365920Y-79461050D01*
X123375122Y-79450782D01*
X130943904Y-71882000D01*
X155042496Y-71882000D01*
X155062458Y-72071928D01*
X155121473Y-72253556D01*
X155216960Y-72418944D01*
X155221378Y-72423851D01*
X155221379Y-72423852D01*
X155340325Y-72555955D01*
X155344747Y-72560866D01*
X155499248Y-72673118D01*
X155505276Y-72675802D01*
X155505278Y-72675803D01*
X155667681Y-72748109D01*
X155673712Y-72750794D01*
X155767113Y-72770647D01*
X155854056Y-72789128D01*
X155854061Y-72789128D01*
X155860513Y-72790500D01*
X156051487Y-72790500D01*
X156057939Y-72789128D01*
X156057944Y-72789128D01*
X156144887Y-72770647D01*
X156238288Y-72750794D01*
X156244319Y-72748109D01*
X156406722Y-72675803D01*
X156406724Y-72675802D01*
X156412752Y-72673118D01*
X156567253Y-72560866D01*
X156571675Y-72555955D01*
X156690621Y-72423852D01*
X156690622Y-72423851D01*
X156695040Y-72418944D01*
X156790527Y-72253556D01*
X156849542Y-72071928D01*
X156869504Y-71882000D01*
X156849542Y-71692072D01*
X156790527Y-71510444D01*
X156695040Y-71345056D01*
X156642557Y-71286767D01*
X156571675Y-71208045D01*
X156571674Y-71208044D01*
X156567253Y-71203134D01*
X156453092Y-71120191D01*
X156418094Y-71094763D01*
X156418093Y-71094762D01*
X156412752Y-71090882D01*
X156406724Y-71088198D01*
X156406722Y-71088197D01*
X156244319Y-71015891D01*
X156244318Y-71015891D01*
X156238288Y-71013206D01*
X156144888Y-70993353D01*
X156057944Y-70974872D01*
X156057939Y-70974872D01*
X156051487Y-70973500D01*
X155860513Y-70973500D01*
X155854061Y-70974872D01*
X155854056Y-70974872D01*
X155767112Y-70993353D01*
X155673712Y-71013206D01*
X155667682Y-71015891D01*
X155667681Y-71015891D01*
X155505278Y-71088197D01*
X155505276Y-71088198D01*
X155499248Y-71090882D01*
X155493907Y-71094762D01*
X155493906Y-71094763D01*
X155458908Y-71120191D01*
X155344747Y-71203134D01*
X155340326Y-71208044D01*
X155340325Y-71208045D01*
X155269444Y-71286767D01*
X155216960Y-71345056D01*
X155121473Y-71510444D01*
X155062458Y-71692072D01*
X155042496Y-71882000D01*
X130943904Y-71882000D01*
X131624549Y-71201355D01*
X131686861Y-71167329D01*
X131738762Y-71166979D01*
X131918597Y-71203567D01*
X131923772Y-71203757D01*
X131923774Y-71203757D01*
X132136673Y-71211564D01*
X132136677Y-71211564D01*
X132141837Y-71211753D01*
X132146957Y-71211097D01*
X132146959Y-71211097D01*
X132358288Y-71184025D01*
X132358289Y-71184025D01*
X132363416Y-71183368D01*
X132368366Y-71181883D01*
X132572429Y-71120661D01*
X132572434Y-71120659D01*
X132577384Y-71119174D01*
X132777994Y-71020896D01*
X132959860Y-70891173D01*
X133118096Y-70733489D01*
X133248453Y-70552077D01*
X133261995Y-70524678D01*
X133345136Y-70356453D01*
X133345137Y-70356451D01*
X133347430Y-70351811D01*
X133412370Y-70138069D01*
X133441529Y-69916590D01*
X133443156Y-69850000D01*
X133424852Y-69627361D01*
X133370431Y-69410702D01*
X133281354Y-69205840D01*
X133160014Y-69018277D01*
X133156540Y-69014459D01*
X133156533Y-69014450D01*
X133076419Y-68926406D01*
X133045367Y-68862561D01*
X133053763Y-68792062D01*
X133098940Y-68737294D01*
X133169613Y-68715607D01*
X168243530Y-68715607D01*
X168262915Y-68717107D01*
X168277748Y-68719417D01*
X168277752Y-68719417D01*
X168286621Y-68720798D01*
X168295646Y-68719618D01*
X168326081Y-68719346D01*
X168388158Y-68726340D01*
X168415664Y-68732618D01*
X168492752Y-68759592D01*
X168518168Y-68771831D01*
X168587325Y-68815286D01*
X168609380Y-68832875D01*
X168667125Y-68890620D01*
X168684711Y-68912670D01*
X168728169Y-68981832D01*
X168740408Y-69007248D01*
X168767382Y-69084336D01*
X168773660Y-69111841D01*
X168777679Y-69147509D01*
X168779912Y-69167325D01*
X168779245Y-69182960D01*
X168780694Y-69182978D01*
X168780584Y-69191951D01*
X168779202Y-69200827D01*
X168781665Y-69219663D01*
X168783329Y-69232386D01*
X168784393Y-69248724D01*
X168784258Y-77345249D01*
X168784078Y-88196660D01*
X168782577Y-88216046D01*
X168778887Y-88239742D01*
X168780051Y-88248645D01*
X168780051Y-88248650D01*
X168780066Y-88248765D01*
X168780337Y-88279215D01*
X168773342Y-88341273D01*
X168767063Y-88368778D01*
X168740089Y-88445859D01*
X168727849Y-88471274D01*
X168690395Y-88530878D01*
X168684398Y-88540422D01*
X168666806Y-88562480D01*
X168609059Y-88620224D01*
X168586999Y-88637815D01*
X168517853Y-88681260D01*
X168492434Y-88693500D01*
X168415355Y-88720469D01*
X168387849Y-88726747D01*
X168331910Y-88733048D01*
X168316268Y-88733831D01*
X168307738Y-88733727D01*
X168298865Y-88732345D01*
X168289962Y-88733509D01*
X168267282Y-88736474D01*
X168250951Y-88737537D01*
X133554977Y-88738478D01*
X133486856Y-88718478D01*
X133440362Y-88664823D01*
X133430256Y-88594550D01*
X133430357Y-88594017D01*
X133431745Y-88590316D01*
X133438500Y-88528134D01*
X133438500Y-86731866D01*
X133431745Y-86669684D01*
X133380615Y-86533295D01*
X133293261Y-86416739D01*
X133176705Y-86329385D01*
X133040316Y-86278255D01*
X132984440Y-86272185D01*
X132981531Y-86271869D01*
X132978134Y-86271500D01*
X131181866Y-86271500D01*
X131178469Y-86271869D01*
X131175560Y-86272185D01*
X131119684Y-86278255D01*
X130983295Y-86329385D01*
X130866739Y-86416739D01*
X130779385Y-86533295D01*
X130776233Y-86541703D01*
X130734919Y-86651907D01*
X130692277Y-86708671D01*
X130625716Y-86733371D01*
X130556367Y-86718163D01*
X130523743Y-86692476D01*
X130473151Y-86636875D01*
X130473142Y-86636866D01*
X130469670Y-86633051D01*
X130465619Y-86629852D01*
X130465615Y-86629848D01*
X130298414Y-86497800D01*
X130298410Y-86497798D01*
X130294359Y-86494598D01*
X130289831Y-86492098D01*
X130173988Y-86428150D01*
X130098789Y-86386638D01*
X130093920Y-86384914D01*
X130093916Y-86384912D01*
X129893087Y-86313795D01*
X129893083Y-86313794D01*
X129888212Y-86312069D01*
X129883119Y-86311162D01*
X129883116Y-86311161D01*
X129673373Y-86273800D01*
X129673367Y-86273799D01*
X129668284Y-86272894D01*
X129594452Y-86271992D01*
X129450081Y-86270228D01*
X129450079Y-86270228D01*
X129444911Y-86270165D01*
X129224091Y-86303955D01*
X129011756Y-86373357D01*
X128976322Y-86391803D01*
X128837975Y-86463822D01*
X128813607Y-86476507D01*
X128809474Y-86479610D01*
X128809471Y-86479612D01*
X128639100Y-86607530D01*
X128634965Y-86610635D01*
X128609554Y-86637226D01*
X128541280Y-86708671D01*
X128480629Y-86772138D01*
X128373201Y-86929621D01*
X128318293Y-86974621D01*
X128247768Y-86982792D01*
X128184021Y-86951538D01*
X128163324Y-86927054D01*
X128082822Y-86802617D01*
X128082820Y-86802614D01*
X128080014Y-86798277D01*
X127929670Y-86633051D01*
X127925619Y-86629852D01*
X127925615Y-86629848D01*
X127758414Y-86497800D01*
X127758410Y-86497798D01*
X127754359Y-86494598D01*
X127749831Y-86492098D01*
X127633988Y-86428150D01*
X127558789Y-86386638D01*
X127553920Y-86384914D01*
X127553916Y-86384912D01*
X127353087Y-86313795D01*
X127353083Y-86313794D01*
X127348212Y-86312069D01*
X127343119Y-86311162D01*
X127343116Y-86311161D01*
X127133373Y-86273800D01*
X127133367Y-86273799D01*
X127128284Y-86272894D01*
X127054452Y-86271992D01*
X126910081Y-86270228D01*
X126910079Y-86270228D01*
X126904911Y-86270165D01*
X126684091Y-86303955D01*
X126471756Y-86373357D01*
X126436322Y-86391803D01*
X126297975Y-86463822D01*
X126273607Y-86476507D01*
X126269474Y-86479610D01*
X126269471Y-86479612D01*
X126099100Y-86607530D01*
X126094965Y-86610635D01*
X126069554Y-86637226D01*
X126001280Y-86708671D01*
X125940629Y-86772138D01*
X125833201Y-86929621D01*
X125778293Y-86974621D01*
X125707768Y-86982792D01*
X125644021Y-86951538D01*
X125623324Y-86927054D01*
X125542822Y-86802617D01*
X125542820Y-86802614D01*
X125540014Y-86798277D01*
X125389670Y-86633051D01*
X125385619Y-86629852D01*
X125385615Y-86629848D01*
X125218414Y-86497800D01*
X125218410Y-86497798D01*
X125214359Y-86494598D01*
X125209831Y-86492098D01*
X125093988Y-86428150D01*
X125018789Y-86386638D01*
X125013920Y-86384914D01*
X125013916Y-86384912D01*
X124813087Y-86313795D01*
X124813083Y-86313794D01*
X124808212Y-86312069D01*
X124803119Y-86311162D01*
X124803116Y-86311161D01*
X124593373Y-86273800D01*
X124593367Y-86273799D01*
X124588284Y-86272894D01*
X124477009Y-86271535D01*
X124409140Y-86250702D01*
X124363306Y-86196483D01*
X124354061Y-86126091D01*
X124384340Y-86061875D01*
X124389455Y-86056449D01*
X124685499Y-85760405D01*
X124747811Y-85726379D01*
X124774594Y-85723500D01*
X142547800Y-85723500D01*
X142615921Y-85743502D01*
X142635147Y-85759843D01*
X142635420Y-85759540D01*
X142640332Y-85763963D01*
X142644747Y-85768866D01*
X142799248Y-85881118D01*
X142805276Y-85883802D01*
X142805278Y-85883803D01*
X142892497Y-85922635D01*
X142973712Y-85958794D01*
X143067112Y-85978647D01*
X143154056Y-85997128D01*
X143154061Y-85997128D01*
X143160513Y-85998500D01*
X143351487Y-85998500D01*
X143369465Y-85994679D01*
X143460990Y-85975225D01*
X143531780Y-85980627D01*
X143588413Y-86023444D01*
X143612906Y-86090082D01*
X143613186Y-86098472D01*
X143613186Y-86099435D01*
X143612496Y-86106000D01*
X143613186Y-86112565D01*
X143630863Y-86280749D01*
X143632458Y-86295928D01*
X143691473Y-86477556D01*
X143694776Y-86483278D01*
X143694777Y-86483279D01*
X143707392Y-86505128D01*
X143786960Y-86642944D01*
X143791378Y-86647851D01*
X143791379Y-86647852D01*
X143910325Y-86779955D01*
X143914747Y-86784866D01*
X144069248Y-86897118D01*
X144075276Y-86899802D01*
X144075278Y-86899803D01*
X144203027Y-86956680D01*
X144243712Y-86974794D01*
X144337112Y-86994647D01*
X144424056Y-87013128D01*
X144424061Y-87013128D01*
X144430513Y-87014500D01*
X144621487Y-87014500D01*
X144627939Y-87013128D01*
X144627944Y-87013128D01*
X144714888Y-86994647D01*
X144808288Y-86974794D01*
X144848973Y-86956680D01*
X144976722Y-86899803D01*
X144976724Y-86899802D01*
X144982752Y-86897118D01*
X145137253Y-86784866D01*
X145141675Y-86779955D01*
X145260621Y-86647852D01*
X145260622Y-86647851D01*
X145265040Y-86642944D01*
X145344608Y-86505128D01*
X145357223Y-86483279D01*
X145357224Y-86483278D01*
X145360527Y-86477556D01*
X145419542Y-86295928D01*
X145421138Y-86280749D01*
X145438814Y-86112565D01*
X145439504Y-86106000D01*
X145430827Y-86023444D01*
X145420232Y-85922635D01*
X145420232Y-85922633D01*
X145419542Y-85916072D01*
X145360527Y-85734444D01*
X145354209Y-85723500D01*
X145314813Y-85655266D01*
X145281751Y-85598000D01*
X149962496Y-85598000D01*
X149963186Y-85604565D01*
X149980455Y-85768866D01*
X149982458Y-85787928D01*
X150041473Y-85969556D01*
X150136960Y-86134944D01*
X150264747Y-86276866D01*
X150419248Y-86389118D01*
X150425276Y-86391802D01*
X150425278Y-86391803D01*
X150587681Y-86464109D01*
X150593712Y-86466794D01*
X150687112Y-86486647D01*
X150774056Y-86505128D01*
X150774061Y-86505128D01*
X150780513Y-86506500D01*
X150971487Y-86506500D01*
X150977939Y-86505128D01*
X150977944Y-86505128D01*
X151064888Y-86486647D01*
X151158288Y-86466794D01*
X151164319Y-86464109D01*
X151326722Y-86391803D01*
X151326724Y-86391802D01*
X151332752Y-86389118D01*
X151487253Y-86276866D01*
X151615040Y-86134944D01*
X151710527Y-85969556D01*
X151769542Y-85787928D01*
X151771546Y-85768866D01*
X151788814Y-85604565D01*
X151789504Y-85598000D01*
X151782037Y-85526959D01*
X151770232Y-85414635D01*
X151770232Y-85414633D01*
X151769542Y-85408072D01*
X151710527Y-85226444D01*
X151615040Y-85061056D01*
X151589064Y-85032206D01*
X151491675Y-84924045D01*
X151491674Y-84924044D01*
X151487253Y-84919134D01*
X151372829Y-84836000D01*
X151338094Y-84810763D01*
X151338093Y-84810762D01*
X151332752Y-84806882D01*
X151326724Y-84804198D01*
X151326722Y-84804197D01*
X151164319Y-84731891D01*
X151164318Y-84731891D01*
X151158288Y-84729206D01*
X151054448Y-84707134D01*
X150977944Y-84690872D01*
X150977939Y-84690872D01*
X150971487Y-84689500D01*
X150780513Y-84689500D01*
X150774061Y-84690872D01*
X150774056Y-84690872D01*
X150697552Y-84707134D01*
X150593712Y-84729206D01*
X150587682Y-84731891D01*
X150587681Y-84731891D01*
X150425278Y-84804197D01*
X150425276Y-84804198D01*
X150419248Y-84806882D01*
X150413907Y-84810762D01*
X150413906Y-84810763D01*
X150379171Y-84836000D01*
X150264747Y-84919134D01*
X150260326Y-84924044D01*
X150260325Y-84924045D01*
X150162937Y-85032206D01*
X150136960Y-85061056D01*
X150041473Y-85226444D01*
X149982458Y-85408072D01*
X149981768Y-85414633D01*
X149981768Y-85414635D01*
X149969963Y-85526959D01*
X149962496Y-85598000D01*
X145281751Y-85598000D01*
X145265040Y-85569056D01*
X145191863Y-85487785D01*
X145161147Y-85423779D01*
X145159500Y-85403476D01*
X145159500Y-84914768D01*
X145160027Y-84903585D01*
X145161702Y-84896092D01*
X145159562Y-84828001D01*
X145159500Y-84824044D01*
X145159500Y-84796144D01*
X145158996Y-84792153D01*
X145158063Y-84780311D01*
X145156923Y-84744036D01*
X145156674Y-84736111D01*
X145154462Y-84728497D01*
X145154461Y-84728492D01*
X145151023Y-84716659D01*
X145147012Y-84697295D01*
X145145467Y-84685064D01*
X145144474Y-84677203D01*
X145141557Y-84669836D01*
X145141556Y-84669831D01*
X145128198Y-84636092D01*
X145124354Y-84624865D01*
X145114230Y-84590022D01*
X145112018Y-84582407D01*
X145101707Y-84564972D01*
X145093012Y-84547224D01*
X145085552Y-84528383D01*
X145059564Y-84492613D01*
X145053048Y-84482693D01*
X145034580Y-84451465D01*
X145034578Y-84451462D01*
X145030542Y-84444638D01*
X145016221Y-84430317D01*
X145003380Y-84415283D01*
X144996132Y-84405307D01*
X144991472Y-84398893D01*
X144957407Y-84370712D01*
X144948626Y-84362722D01*
X144267647Y-83681742D01*
X144260113Y-83673463D01*
X144256000Y-83666982D01*
X144206348Y-83620356D01*
X144203507Y-83617602D01*
X144183770Y-83597865D01*
X144180573Y-83595385D01*
X144171551Y-83587680D01*
X144158122Y-83575069D01*
X144139321Y-83557414D01*
X144132375Y-83553595D01*
X144132372Y-83553593D01*
X144121566Y-83547652D01*
X144105047Y-83536801D01*
X144098994Y-83532106D01*
X144089041Y-83524386D01*
X144081772Y-83521241D01*
X144081768Y-83521238D01*
X144048463Y-83506826D01*
X144037813Y-83501609D01*
X143999060Y-83480305D01*
X143979437Y-83475267D01*
X143960734Y-83468863D01*
X143949420Y-83463967D01*
X143949419Y-83463967D01*
X143942145Y-83460819D01*
X143934322Y-83459580D01*
X143934312Y-83459577D01*
X143898476Y-83453901D01*
X143886856Y-83451495D01*
X143851711Y-83442472D01*
X143851710Y-83442472D01*
X143844030Y-83440500D01*
X143823776Y-83440500D01*
X143804065Y-83438949D01*
X143802203Y-83438654D01*
X143784057Y-83435780D01*
X143753654Y-83438654D01*
X143740039Y-83439941D01*
X143728181Y-83440500D01*
X132576395Y-83440500D01*
X132508274Y-83420498D01*
X132461781Y-83366842D01*
X132451677Y-83296568D01*
X132456563Y-83275562D01*
X132463502Y-83254208D01*
X132463503Y-83254203D01*
X132465542Y-83247928D01*
X132485504Y-83058000D01*
X132465542Y-82868072D01*
X132406527Y-82686444D01*
X132311040Y-82521056D01*
X132305884Y-82515329D01*
X132187675Y-82384045D01*
X132187674Y-82384044D01*
X132183253Y-82379134D01*
X132028752Y-82266882D01*
X132022726Y-82264199D01*
X132022719Y-82264195D01*
X131912598Y-82215167D01*
X131858502Y-82169187D01*
X131837852Y-82101260D01*
X131857204Y-82032952D01*
X131861523Y-82026535D01*
X131890446Y-81986283D01*
X131890448Y-81986280D01*
X131893468Y-81982077D01*
X131938647Y-81890665D01*
X131990151Y-81786453D01*
X131990152Y-81786451D01*
X131992445Y-81781811D01*
X132042371Y-81617486D01*
X132055880Y-81573023D01*
X132055880Y-81573021D01*
X132057385Y-81568069D01*
X132086544Y-81346590D01*
X132086626Y-81343240D01*
X132088089Y-81283365D01*
X132088089Y-81283361D01*
X132088171Y-81280000D01*
X132069867Y-81057361D01*
X132015446Y-80840702D01*
X131926369Y-80635840D01*
X131879364Y-80563181D01*
X131807837Y-80452617D01*
X131807835Y-80452614D01*
X131805029Y-80448277D01*
X131654685Y-80283051D01*
X131650634Y-80279852D01*
X131650630Y-80279848D01*
X131483429Y-80147800D01*
X131483425Y-80147798D01*
X131479374Y-80144598D01*
X131438068Y-80121796D01*
X131388099Y-80071364D01*
X131373327Y-80001921D01*
X131398443Y-79935516D01*
X131425795Y-79908909D01*
X131495194Y-79859407D01*
X131604875Y-79781173D01*
X131609587Y-79776478D01*
X131759450Y-79627137D01*
X131763111Y-79623489D01*
X131822609Y-79540689D01*
X131890450Y-79446277D01*
X131893468Y-79442077D01*
X131926917Y-79374399D01*
X131990151Y-79246453D01*
X131990152Y-79246451D01*
X131992445Y-79241811D01*
X132052165Y-79045249D01*
X132055880Y-79033023D01*
X132055880Y-79033021D01*
X132057385Y-79028069D01*
X132086544Y-78806590D01*
X132087352Y-78773524D01*
X134276412Y-78773524D01*
X134277102Y-78780089D01*
X134288292Y-78886552D01*
X134296374Y-78963452D01*
X134355389Y-79145080D01*
X134358692Y-79150802D01*
X134358693Y-79150803D01*
X134371281Y-79172606D01*
X134450876Y-79310468D01*
X134455294Y-79315375D01*
X134455295Y-79315376D01*
X134486317Y-79349829D01*
X134578663Y-79452390D01*
X134733164Y-79564642D01*
X134739192Y-79567326D01*
X134739194Y-79567327D01*
X134901597Y-79639633D01*
X134907628Y-79642318D01*
X135001028Y-79662171D01*
X135087972Y-79680652D01*
X135087977Y-79680652D01*
X135094429Y-79682024D01*
X135285403Y-79682024D01*
X135291855Y-79680652D01*
X135291860Y-79680652D01*
X135378804Y-79662171D01*
X135472204Y-79642318D01*
X135478235Y-79639633D01*
X135640638Y-79567327D01*
X135640640Y-79567326D01*
X135646668Y-79564642D01*
X135801169Y-79452390D01*
X135893515Y-79349829D01*
X135924537Y-79315376D01*
X135924538Y-79315375D01*
X135928956Y-79310468D01*
X136008551Y-79172606D01*
X136021139Y-79150803D01*
X136021140Y-79150802D01*
X136024443Y-79145080D01*
X136083458Y-78963452D01*
X136091541Y-78886552D01*
X136102730Y-78780089D01*
X136103420Y-78773524D01*
X136096396Y-78706695D01*
X136084148Y-78590159D01*
X136084148Y-78590157D01*
X136083458Y-78583596D01*
X136024443Y-78401968D01*
X135928956Y-78236580D01*
X135891742Y-78195249D01*
X135805591Y-78099569D01*
X135805590Y-78099568D01*
X135801169Y-78094658D01*
X135646668Y-77982406D01*
X135640640Y-77979722D01*
X135640638Y-77979721D01*
X135478235Y-77907415D01*
X135478234Y-77907415D01*
X135472204Y-77904730D01*
X135365918Y-77882138D01*
X135291860Y-77866396D01*
X135291855Y-77866396D01*
X135285403Y-77865024D01*
X135094429Y-77865024D01*
X135087977Y-77866396D01*
X135087972Y-77866396D01*
X135013914Y-77882138D01*
X134907628Y-77904730D01*
X134901598Y-77907415D01*
X134901597Y-77907415D01*
X134739194Y-77979721D01*
X134739192Y-77979722D01*
X134733164Y-77982406D01*
X134578663Y-78094658D01*
X134574242Y-78099568D01*
X134574241Y-78099569D01*
X134488091Y-78195249D01*
X134450876Y-78236580D01*
X134355389Y-78401968D01*
X134296374Y-78583596D01*
X134295684Y-78590157D01*
X134295684Y-78590159D01*
X134283436Y-78706695D01*
X134276412Y-78773524D01*
X132087352Y-78773524D01*
X132088171Y-78740000D01*
X132069867Y-78517361D01*
X132015446Y-78300702D01*
X131926369Y-78095840D01*
X131873706Y-78014435D01*
X131807837Y-77912617D01*
X131807835Y-77912614D01*
X131805029Y-77908277D01*
X131800553Y-77903358D01*
X131657813Y-77746488D01*
X131626761Y-77682642D01*
X131635156Y-77612143D01*
X131680332Y-77557375D01*
X131706776Y-77543706D01*
X131813312Y-77503767D01*
X131821720Y-77500615D01*
X131938276Y-77413261D01*
X132025630Y-77296705D01*
X132076760Y-77160316D01*
X132083515Y-77098134D01*
X132083515Y-75301866D01*
X132076760Y-75239684D01*
X132025630Y-75103295D01*
X131938276Y-74986739D01*
X131821720Y-74899385D01*
X131685331Y-74848255D01*
X131623149Y-74841500D01*
X129826881Y-74841500D01*
X129764699Y-74848255D01*
X129628310Y-74899385D01*
X129511754Y-74986739D01*
X129424400Y-75103295D01*
X129373270Y-75239684D01*
X129366515Y-75301866D01*
X129366515Y-77098134D01*
X129373270Y-77160316D01*
X129424400Y-77296705D01*
X129511754Y-77413261D01*
X129628310Y-77500615D01*
X129636719Y-77503767D01*
X129636720Y-77503768D01*
X129745466Y-77544535D01*
X129802231Y-77587176D01*
X129826931Y-77653738D01*
X129811724Y-77723087D01*
X129792331Y-77749568D01*
X129681999Y-77865024D01*
X129665644Y-77882138D01*
X129539758Y-78066680D01*
X129524018Y-78100590D01*
X129463172Y-78231672D01*
X129445703Y-78269305D01*
X129386004Y-78484570D01*
X129362266Y-78706695D01*
X129362563Y-78711848D01*
X129362563Y-78711851D01*
X129372118Y-78877565D01*
X129375125Y-78929715D01*
X129376262Y-78934761D01*
X129376263Y-78934767D01*
X129384143Y-78969730D01*
X129424237Y-79147639D01*
X129508281Y-79354616D01*
X129625002Y-79545088D01*
X129771265Y-79713938D01*
X129943141Y-79856632D01*
X129947890Y-79859407D01*
X130016460Y-79899476D01*
X130065184Y-79951114D01*
X130078255Y-80020897D01*
X130051524Y-80086669D01*
X130011070Y-80120027D01*
X129998622Y-80126507D01*
X129994489Y-80129610D01*
X129994486Y-80129612D01*
X129824115Y-80257530D01*
X129819980Y-80260635D01*
X129786373Y-80295803D01*
X129676766Y-80410500D01*
X129665644Y-80422138D01*
X129539758Y-80606680D01*
X129445703Y-80809305D01*
X129386004Y-81024570D01*
X129362266Y-81246695D01*
X129362563Y-81251848D01*
X129362563Y-81251851D01*
X129372814Y-81429632D01*
X129375125Y-81469715D01*
X129376262Y-81474761D01*
X129376263Y-81474767D01*
X129394954Y-81557703D01*
X129424237Y-81687639D01*
X129467069Y-81793122D01*
X129505871Y-81888680D01*
X129508281Y-81894616D01*
X129555313Y-81971365D01*
X129597209Y-82039733D01*
X129625002Y-82085088D01*
X129771265Y-82253938D01*
X129943141Y-82396632D01*
X130136015Y-82509338D01*
X130140840Y-82511180D01*
X130140841Y-82511181D01*
X130162624Y-82519499D01*
X130344707Y-82589030D01*
X130349775Y-82590061D01*
X130349778Y-82590062D01*
X130457394Y-82611957D01*
X130563612Y-82633567D01*
X130568787Y-82633757D01*
X130568789Y-82633757D01*
X130585614Y-82634374D01*
X130652956Y-82656859D01*
X130697450Y-82712183D01*
X130704971Y-82782780D01*
X130700829Y-82799221D01*
X130678458Y-82868072D01*
X130658496Y-83058000D01*
X130678458Y-83247928D01*
X130680497Y-83254203D01*
X130680498Y-83254208D01*
X130687437Y-83275562D01*
X130689466Y-83346529D01*
X130652805Y-83407328D01*
X130589093Y-83438654D01*
X130567605Y-83440500D01*
X121236768Y-83440500D01*
X121225585Y-83439973D01*
X121218092Y-83438298D01*
X121210166Y-83438547D01*
X121210165Y-83438547D01*
X121150002Y-83440438D01*
X121146044Y-83440500D01*
X121118144Y-83440500D01*
X121114154Y-83441004D01*
X121102320Y-83441936D01*
X121058111Y-83443326D01*
X121050497Y-83445538D01*
X121050492Y-83445539D01*
X121038659Y-83448977D01*
X121019296Y-83452988D01*
X120999203Y-83455526D01*
X120991836Y-83458443D01*
X120991831Y-83458444D01*
X120958092Y-83471802D01*
X120946865Y-83475646D01*
X120904407Y-83487982D01*
X120897581Y-83492019D01*
X120886972Y-83498293D01*
X120869224Y-83506988D01*
X120850383Y-83514448D01*
X120843967Y-83519110D01*
X120843966Y-83519110D01*
X120814613Y-83540436D01*
X120804693Y-83546952D01*
X120773465Y-83565420D01*
X120773462Y-83565422D01*
X120766638Y-83569458D01*
X120752317Y-83583779D01*
X120737284Y-83596619D01*
X120720893Y-83608528D01*
X120712217Y-83619016D01*
X120692702Y-83642605D01*
X120684712Y-83651384D01*
X118987747Y-85348348D01*
X118979461Y-85355888D01*
X118972982Y-85360000D01*
X118967557Y-85365777D01*
X118926357Y-85409651D01*
X118923602Y-85412493D01*
X118903865Y-85432230D01*
X118901385Y-85435427D01*
X118893682Y-85444447D01*
X118863414Y-85476679D01*
X118859595Y-85483625D01*
X118859593Y-85483628D01*
X118853652Y-85494434D01*
X118842801Y-85510953D01*
X118830386Y-85526959D01*
X118827241Y-85534228D01*
X118827238Y-85534232D01*
X118812826Y-85567537D01*
X118807609Y-85578187D01*
X118786305Y-85616940D01*
X118784334Y-85624615D01*
X118784334Y-85624616D01*
X118781267Y-85636562D01*
X118774863Y-85655266D01*
X118766819Y-85673855D01*
X118765580Y-85681678D01*
X118765577Y-85681688D01*
X118759901Y-85717524D01*
X118757495Y-85729144D01*
X118749469Y-85760405D01*
X118746500Y-85771970D01*
X118746500Y-85792224D01*
X118744949Y-85811934D01*
X118741780Y-85831943D01*
X118742526Y-85839835D01*
X118745941Y-85875961D01*
X118746500Y-85887819D01*
X118746500Y-86351692D01*
X118726498Y-86419813D01*
X118678683Y-86463453D01*
X118653607Y-86476507D01*
X118649474Y-86479610D01*
X118649471Y-86479612D01*
X118479100Y-86607530D01*
X118474965Y-86610635D01*
X118449554Y-86637226D01*
X118381280Y-86708671D01*
X118320629Y-86772138D01*
X118213201Y-86929621D01*
X118158293Y-86974621D01*
X118087768Y-86982792D01*
X118024021Y-86951538D01*
X118003324Y-86927054D01*
X117922822Y-86802617D01*
X117922820Y-86802614D01*
X117920014Y-86798277D01*
X117769670Y-86633051D01*
X117765619Y-86629852D01*
X117765615Y-86629848D01*
X117598414Y-86497800D01*
X117598410Y-86497798D01*
X117594359Y-86494598D01*
X117589831Y-86492098D01*
X117473988Y-86428150D01*
X117398789Y-86386638D01*
X117393920Y-86384914D01*
X117393916Y-86384912D01*
X117193087Y-86313795D01*
X117193083Y-86313794D01*
X117188212Y-86312069D01*
X117183119Y-86311162D01*
X117183116Y-86311161D01*
X116973373Y-86273800D01*
X116973367Y-86273799D01*
X116968284Y-86272894D01*
X116894452Y-86271992D01*
X116750081Y-86270228D01*
X116750079Y-86270228D01*
X116744911Y-86270165D01*
X116524091Y-86303955D01*
X116311756Y-86373357D01*
X116276322Y-86391803D01*
X116137975Y-86463822D01*
X116113607Y-86476507D01*
X116109474Y-86479610D01*
X116109471Y-86479612D01*
X115939100Y-86607530D01*
X115934965Y-86610635D01*
X115909554Y-86637226D01*
X115841280Y-86708671D01*
X115780629Y-86772138D01*
X115673201Y-86929621D01*
X115618293Y-86974621D01*
X115547768Y-86982792D01*
X115484021Y-86951538D01*
X115463324Y-86927054D01*
X115382822Y-86802617D01*
X115382820Y-86802614D01*
X115380014Y-86798277D01*
X115229670Y-86633051D01*
X115225619Y-86629852D01*
X115225615Y-86629848D01*
X115058414Y-86497800D01*
X115058410Y-86497798D01*
X115054359Y-86494598D01*
X115049831Y-86492098D01*
X114933988Y-86428150D01*
X114858789Y-86386638D01*
X114853920Y-86384914D01*
X114853916Y-86384912D01*
X114653087Y-86313795D01*
X114653083Y-86313794D01*
X114648212Y-86312069D01*
X114643119Y-86311162D01*
X114643116Y-86311161D01*
X114433373Y-86273800D01*
X114433367Y-86273799D01*
X114428284Y-86272894D01*
X114354452Y-86271992D01*
X114210081Y-86270228D01*
X114210079Y-86270228D01*
X114204911Y-86270165D01*
X113984091Y-86303955D01*
X113771756Y-86373357D01*
X113736322Y-86391803D01*
X113597975Y-86463822D01*
X113573607Y-86476507D01*
X113569474Y-86479610D01*
X113569471Y-86479612D01*
X113399100Y-86607530D01*
X113394965Y-86610635D01*
X113369554Y-86637226D01*
X113301280Y-86708671D01*
X113240629Y-86772138D01*
X113133201Y-86929621D01*
X113078293Y-86974621D01*
X113007768Y-86982792D01*
X112944021Y-86951538D01*
X112923324Y-86927054D01*
X112842822Y-86802617D01*
X112842820Y-86802614D01*
X112840014Y-86798277D01*
X112689670Y-86633051D01*
X112685619Y-86629852D01*
X112685615Y-86629848D01*
X112518414Y-86497800D01*
X112518410Y-86497798D01*
X112514359Y-86494598D01*
X112509831Y-86492098D01*
X112393988Y-86428150D01*
X112318789Y-86386638D01*
X112313920Y-86384914D01*
X112313916Y-86384912D01*
X112113087Y-86313795D01*
X112113083Y-86313794D01*
X112108212Y-86312069D01*
X112103119Y-86311162D01*
X112103116Y-86311161D01*
X111893373Y-86273800D01*
X111893367Y-86273799D01*
X111888284Y-86272894D01*
X111814452Y-86271992D01*
X111670081Y-86270228D01*
X111670079Y-86270228D01*
X111664911Y-86270165D01*
X111444091Y-86303955D01*
X111231756Y-86373357D01*
X111196322Y-86391803D01*
X111057975Y-86463822D01*
X111033607Y-86476507D01*
X111029474Y-86479610D01*
X111029471Y-86479612D01*
X110859100Y-86607530D01*
X110854965Y-86610635D01*
X110829554Y-86637226D01*
X110761280Y-86708671D01*
X110700629Y-86772138D01*
X110593201Y-86929621D01*
X110538293Y-86974621D01*
X110467768Y-86982792D01*
X110404021Y-86951538D01*
X110383324Y-86927054D01*
X110302822Y-86802617D01*
X110302820Y-86802614D01*
X110300014Y-86798277D01*
X110149670Y-86633051D01*
X110145619Y-86629852D01*
X110145615Y-86629848D01*
X109978414Y-86497800D01*
X109978410Y-86497798D01*
X109974359Y-86494598D01*
X109969831Y-86492098D01*
X109853988Y-86428150D01*
X109778789Y-86386638D01*
X109773920Y-86384914D01*
X109773916Y-86384912D01*
X109573087Y-86313795D01*
X109573083Y-86313794D01*
X109568212Y-86312069D01*
X109563119Y-86311162D01*
X109563116Y-86311161D01*
X109353373Y-86273800D01*
X109353367Y-86273799D01*
X109348284Y-86272894D01*
X109274452Y-86271992D01*
X109130081Y-86270228D01*
X109130079Y-86270228D01*
X109124911Y-86270165D01*
X108904091Y-86303955D01*
X108691756Y-86373357D01*
X108656322Y-86391803D01*
X108517975Y-86463822D01*
X108493607Y-86476507D01*
X108489474Y-86479610D01*
X108489471Y-86479612D01*
X108319100Y-86607530D01*
X108314965Y-86610635D01*
X108289554Y-86637226D01*
X108221280Y-86708671D01*
X108160629Y-86772138D01*
X108053201Y-86929621D01*
X107998293Y-86974621D01*
X107927768Y-86982792D01*
X107864021Y-86951538D01*
X107843324Y-86927054D01*
X107762822Y-86802617D01*
X107762820Y-86802614D01*
X107760014Y-86798277D01*
X107609670Y-86633051D01*
X107605619Y-86629852D01*
X107605615Y-86629848D01*
X107438414Y-86497800D01*
X107438410Y-86497798D01*
X107434359Y-86494598D01*
X107429831Y-86492098D01*
X107313988Y-86428150D01*
X107238789Y-86386638D01*
X107233920Y-86384914D01*
X107233916Y-86384912D01*
X107033087Y-86313795D01*
X107033083Y-86313794D01*
X107028212Y-86312069D01*
X107023119Y-86311162D01*
X107023116Y-86311161D01*
X106813373Y-86273800D01*
X106813367Y-86273799D01*
X106808284Y-86272894D01*
X106734452Y-86271992D01*
X106590081Y-86270228D01*
X106590079Y-86270228D01*
X106584911Y-86270165D01*
X106364091Y-86303955D01*
X106151756Y-86373357D01*
X106116322Y-86391803D01*
X105977975Y-86463822D01*
X105953607Y-86476507D01*
X105949474Y-86479610D01*
X105949471Y-86479612D01*
X105779100Y-86607530D01*
X105774965Y-86610635D01*
X105749554Y-86637226D01*
X105681280Y-86708671D01*
X105620629Y-86772138D01*
X105513201Y-86929621D01*
X105458293Y-86974621D01*
X105387768Y-86982792D01*
X105324021Y-86951538D01*
X105303324Y-86927054D01*
X105222822Y-86802617D01*
X105222820Y-86802614D01*
X105220014Y-86798277D01*
X105069670Y-86633051D01*
X105065619Y-86629852D01*
X105065615Y-86629848D01*
X104898414Y-86497800D01*
X104898410Y-86497798D01*
X104894359Y-86494598D01*
X104889831Y-86492098D01*
X104773988Y-86428150D01*
X104698789Y-86386638D01*
X104693920Y-86384914D01*
X104693916Y-86384912D01*
X104493087Y-86313795D01*
X104493083Y-86313794D01*
X104488212Y-86312069D01*
X104483119Y-86311162D01*
X104483116Y-86311161D01*
X104273373Y-86273800D01*
X104273367Y-86273799D01*
X104268284Y-86272894D01*
X104194452Y-86271992D01*
X104050081Y-86270228D01*
X104050079Y-86270228D01*
X104044911Y-86270165D01*
X103824091Y-86303955D01*
X103611756Y-86373357D01*
X103576322Y-86391803D01*
X103437975Y-86463822D01*
X103413607Y-86476507D01*
X103409474Y-86479610D01*
X103409471Y-86479612D01*
X103239100Y-86607530D01*
X103234965Y-86610635D01*
X103209554Y-86637226D01*
X103141280Y-86708671D01*
X103080629Y-86772138D01*
X102973201Y-86929621D01*
X102918293Y-86974621D01*
X102847768Y-86982792D01*
X102784021Y-86951538D01*
X102763324Y-86927054D01*
X102682822Y-86802617D01*
X102682820Y-86802614D01*
X102680014Y-86798277D01*
X102529670Y-86633051D01*
X102525619Y-86629852D01*
X102525615Y-86629848D01*
X102358414Y-86497800D01*
X102358410Y-86497798D01*
X102354359Y-86494598D01*
X102349831Y-86492098D01*
X102233988Y-86428150D01*
X102158789Y-86386638D01*
X102153920Y-86384914D01*
X102153916Y-86384912D01*
X101953087Y-86313795D01*
X101953083Y-86313794D01*
X101948212Y-86312069D01*
X101943119Y-86311162D01*
X101943116Y-86311161D01*
X101733373Y-86273800D01*
X101733367Y-86273799D01*
X101728284Y-86272894D01*
X101654452Y-86271992D01*
X101510081Y-86270228D01*
X101510079Y-86270228D01*
X101504911Y-86270165D01*
X101284091Y-86303955D01*
X101071756Y-86373357D01*
X101036322Y-86391803D01*
X100897975Y-86463822D01*
X100873607Y-86476507D01*
X100869474Y-86479610D01*
X100869471Y-86479612D01*
X100699100Y-86607530D01*
X100694965Y-86610635D01*
X100669554Y-86637226D01*
X100601280Y-86708671D01*
X100540629Y-86772138D01*
X100433201Y-86929621D01*
X100378293Y-86974621D01*
X100307768Y-86982792D01*
X100244021Y-86951538D01*
X100223324Y-86927054D01*
X100142822Y-86802617D01*
X100142820Y-86802614D01*
X100140014Y-86798277D01*
X99989670Y-86633051D01*
X99985619Y-86629852D01*
X99985615Y-86629848D01*
X99818414Y-86497800D01*
X99818410Y-86497798D01*
X99814359Y-86494598D01*
X99809831Y-86492098D01*
X99693988Y-86428150D01*
X99618789Y-86386638D01*
X99613920Y-86384914D01*
X99613916Y-86384912D01*
X99413087Y-86313795D01*
X99413083Y-86313794D01*
X99408212Y-86312069D01*
X99403119Y-86311162D01*
X99403116Y-86311161D01*
X99193373Y-86273800D01*
X99193367Y-86273799D01*
X99188284Y-86272894D01*
X99114452Y-86271992D01*
X98970081Y-86270228D01*
X98970079Y-86270228D01*
X98964911Y-86270165D01*
X98744091Y-86303955D01*
X98531756Y-86373357D01*
X98496322Y-86391803D01*
X98357975Y-86463822D01*
X98333607Y-86476507D01*
X98329474Y-86479610D01*
X98329471Y-86479612D01*
X98159100Y-86607530D01*
X98154965Y-86610635D01*
X98129554Y-86637226D01*
X98061280Y-86708671D01*
X98000629Y-86772138D01*
X97997720Y-86776403D01*
X97997714Y-86776411D01*
X97989298Y-86788749D01*
X97893204Y-86929618D01*
X97892898Y-86930066D01*
X97837987Y-86975069D01*
X97767462Y-86983240D01*
X97703715Y-86951986D01*
X97683018Y-86927502D01*
X97602426Y-86802926D01*
X97596136Y-86794757D01*
X97452806Y-86637240D01*
X97445273Y-86630215D01*
X97278139Y-86498222D01*
X97269552Y-86492517D01*
X97083117Y-86389599D01*
X97073705Y-86385369D01*
X96872959Y-86314280D01*
X96862988Y-86311646D01*
X96791837Y-86298972D01*
X96778540Y-86300432D01*
X96774000Y-86314989D01*
X96774000Y-87758000D01*
X96753998Y-87826121D01*
X96700342Y-87872614D01*
X96648000Y-87884000D01*
X95203225Y-87884000D01*
X95189694Y-87887973D01*
X95188257Y-87897966D01*
X95218565Y-88032446D01*
X95221645Y-88042275D01*
X95301770Y-88239603D01*
X95306413Y-88248794D01*
X95417694Y-88430388D01*
X95423772Y-88438692D01*
X95503745Y-88531015D01*
X95533228Y-88595601D01*
X95523113Y-88665873D01*
X95476612Y-88719522D01*
X95408512Y-88739513D01*
X84604447Y-88739806D01*
X84585062Y-88738305D01*
X84561371Y-88734616D01*
X84552468Y-88735780D01*
X84552465Y-88735780D01*
X84552351Y-88735795D01*
X84521902Y-88736066D01*
X84459830Y-88729071D01*
X84432325Y-88722793D01*
X84355241Y-88695820D01*
X84329820Y-88683578D01*
X84311587Y-88672121D01*
X84260670Y-88640128D01*
X84238611Y-88622537D01*
X84180861Y-88564786D01*
X84163270Y-88542727D01*
X84119821Y-88473578D01*
X84107579Y-88448157D01*
X84080607Y-88371075D01*
X84074329Y-88343571D01*
X84068073Y-88288060D01*
X84067289Y-88272407D01*
X84067398Y-88263457D01*
X84068781Y-88254579D01*
X84066841Y-88239742D01*
X84064652Y-88223001D01*
X84063588Y-88206671D01*
X84063544Y-87364183D01*
X95184389Y-87364183D01*
X95185912Y-87372607D01*
X95198292Y-87376000D01*
X96247885Y-87376000D01*
X96263124Y-87371525D01*
X96264329Y-87370135D01*
X96266000Y-87362452D01*
X96266000Y-86313102D01*
X96262082Y-86299758D01*
X96247806Y-86297771D01*
X96209324Y-86303660D01*
X96199288Y-86306051D01*
X95996868Y-86372212D01*
X95987359Y-86376209D01*
X95798463Y-86474542D01*
X95789738Y-86480036D01*
X95619433Y-86607905D01*
X95611726Y-86614748D01*
X95464590Y-86768717D01*
X95458104Y-86776727D01*
X95338098Y-86952649D01*
X95333000Y-86961623D01*
X95243338Y-87154783D01*
X95239775Y-87164470D01*
X95184389Y-87364183D01*
X84063544Y-87364183D01*
X84063410Y-84836000D01*
X91288496Y-84836000D01*
X91289186Y-84842565D01*
X91296906Y-84916012D01*
X91308458Y-85025928D01*
X91367473Y-85207556D01*
X91462960Y-85372944D01*
X91467378Y-85377851D01*
X91467379Y-85377852D01*
X91516341Y-85432230D01*
X91590747Y-85514866D01*
X91663242Y-85567537D01*
X91714207Y-85604565D01*
X91745248Y-85627118D01*
X91751276Y-85629802D01*
X91751278Y-85629803D01*
X91913681Y-85702109D01*
X91919712Y-85704794D01*
X91979602Y-85717524D01*
X92100056Y-85743128D01*
X92100061Y-85743128D01*
X92106513Y-85744500D01*
X92297487Y-85744500D01*
X92303939Y-85743128D01*
X92303944Y-85743128D01*
X92424398Y-85717524D01*
X92484288Y-85704794D01*
X92490319Y-85702109D01*
X92652722Y-85629803D01*
X92652724Y-85629802D01*
X92658752Y-85627118D01*
X92689794Y-85604565D01*
X92740758Y-85567537D01*
X92813253Y-85514866D01*
X92887659Y-85432230D01*
X92936621Y-85377852D01*
X92936622Y-85377851D01*
X92941040Y-85372944D01*
X93036527Y-85207556D01*
X93095542Y-85025928D01*
X93107095Y-84916012D01*
X93114814Y-84842565D01*
X93115504Y-84836000D01*
X93104205Y-84728492D01*
X93096232Y-84652635D01*
X93096232Y-84652633D01*
X93095542Y-84646072D01*
X93036527Y-84464444D01*
X93021853Y-84439027D01*
X92944341Y-84304774D01*
X92941040Y-84299056D01*
X92813253Y-84157134D01*
X92658752Y-84044882D01*
X92652724Y-84042198D01*
X92652722Y-84042197D01*
X92490319Y-83969891D01*
X92490318Y-83969891D01*
X92484288Y-83967206D01*
X92390888Y-83947353D01*
X92303944Y-83928872D01*
X92303939Y-83928872D01*
X92297487Y-83927500D01*
X92106513Y-83927500D01*
X92100061Y-83928872D01*
X92100056Y-83928872D01*
X92013112Y-83947353D01*
X91919712Y-83967206D01*
X91913682Y-83969891D01*
X91913681Y-83969891D01*
X91751278Y-84042197D01*
X91751276Y-84042198D01*
X91745248Y-84044882D01*
X91590747Y-84157134D01*
X91462960Y-84299056D01*
X91459659Y-84304774D01*
X91382148Y-84439027D01*
X91367473Y-84464444D01*
X91308458Y-84646072D01*
X91307768Y-84652633D01*
X91307768Y-84652635D01*
X91299795Y-84728492D01*
X91288496Y-84836000D01*
X84063410Y-84836000D01*
X84063354Y-83770749D01*
X84083352Y-83702627D01*
X84137006Y-83656131D01*
X84207279Y-83646024D01*
X84250055Y-83660327D01*
X84411129Y-83748878D01*
X84422399Y-83753708D01*
X84609173Y-83812956D01*
X84621167Y-83815506D01*
X84773630Y-83832607D01*
X84780654Y-83833000D01*
X85118802Y-83833000D01*
X85134041Y-83828525D01*
X85135246Y-83827135D01*
X85136917Y-83819452D01*
X85136917Y-83814885D01*
X85644917Y-83814885D01*
X85649392Y-83830124D01*
X85650782Y-83831329D01*
X85658465Y-83833000D01*
X85994247Y-83833000D01*
X86000395Y-83832699D01*
X86146059Y-83818417D01*
X86158094Y-83816034D01*
X86345671Y-83759400D01*
X86357011Y-83754727D01*
X86530021Y-83662736D01*
X86540239Y-83655947D01*
X86692085Y-83532106D01*
X86700789Y-83523462D01*
X86825686Y-83372487D01*
X86832546Y-83362316D01*
X86925743Y-83189951D01*
X86930495Y-83178646D01*
X86960517Y-83081661D01*
X86999768Y-83022501D01*
X87064772Y-82993954D01*
X87134891Y-83005083D01*
X87187863Y-83052354D01*
X87201755Y-83083345D01*
X87225740Y-83164839D01*
X87230337Y-83176216D01*
X87321119Y-83349866D01*
X87327833Y-83360127D01*
X87450616Y-83512838D01*
X87459194Y-83521597D01*
X87609301Y-83647552D01*
X87619415Y-83654478D01*
X87791129Y-83748878D01*
X87802399Y-83753708D01*
X87989173Y-83812956D01*
X88001167Y-83815506D01*
X88153630Y-83832607D01*
X88160654Y-83833000D01*
X88498802Y-83833000D01*
X88514041Y-83828525D01*
X88515246Y-83827135D01*
X88516917Y-83819452D01*
X88516917Y-83814885D01*
X89024917Y-83814885D01*
X89029392Y-83830124D01*
X89030782Y-83831329D01*
X89038465Y-83833000D01*
X89374247Y-83833000D01*
X89380395Y-83832699D01*
X89526059Y-83818417D01*
X89538094Y-83816034D01*
X89725671Y-83759400D01*
X89737011Y-83754727D01*
X89910021Y-83662736D01*
X89920239Y-83655947D01*
X90072085Y-83532106D01*
X90080789Y-83523462D01*
X90205686Y-83372487D01*
X90212546Y-83362316D01*
X90305743Y-83189951D01*
X90310495Y-83178646D01*
X90352699Y-83042308D01*
X90352905Y-83028205D01*
X90346150Y-83025000D01*
X89043032Y-83025000D01*
X89027793Y-83029475D01*
X89026588Y-83030865D01*
X89024917Y-83038548D01*
X89024917Y-83814885D01*
X88516917Y-83814885D01*
X88516917Y-82844134D01*
X91193500Y-82844134D01*
X91200255Y-82906316D01*
X91251385Y-83042705D01*
X91338739Y-83159261D01*
X91455295Y-83246615D01*
X91591684Y-83297745D01*
X91653866Y-83304500D01*
X92750134Y-83304500D01*
X92812316Y-83297745D01*
X92948705Y-83246615D01*
X93065261Y-83159261D01*
X93152615Y-83042705D01*
X93203745Y-82906316D01*
X93210500Y-82844134D01*
X93210500Y-81747866D01*
X93203745Y-81685684D01*
X93152615Y-81549295D01*
X93065261Y-81432739D01*
X92948705Y-81345385D01*
X92812316Y-81294255D01*
X92750134Y-81287500D01*
X91653866Y-81287500D01*
X91591684Y-81294255D01*
X91455295Y-81345385D01*
X91338739Y-81432739D01*
X91251385Y-81549295D01*
X91200255Y-81685684D01*
X91193500Y-81747866D01*
X91193500Y-82844134D01*
X88516917Y-82844134D01*
X88516917Y-81914325D01*
X88509387Y-81888680D01*
X88240302Y-81619595D01*
X88206276Y-81557283D01*
X88211341Y-81486468D01*
X88253888Y-81429632D01*
X88320408Y-81404821D01*
X88329397Y-81404500D01*
X88488521Y-81404500D01*
X88494974Y-81403128D01*
X88494978Y-81403128D01*
X88564721Y-81388303D01*
X88631993Y-81374004D01*
X88702782Y-81379406D01*
X88747283Y-81408156D01*
X89008127Y-81669000D01*
X89007683Y-81669444D01*
X89022958Y-81682209D01*
X89029693Y-81690566D01*
X89108731Y-81769604D01*
X89142757Y-81831916D01*
X89137692Y-81902731D01*
X89108731Y-81947794D01*
X89037729Y-82018796D01*
X89024917Y-82042258D01*
X89024917Y-82498885D01*
X89029392Y-82514124D01*
X89030782Y-82515329D01*
X89038465Y-82517000D01*
X90339135Y-82517000D01*
X90352666Y-82513027D01*
X90353786Y-82505232D01*
X90316093Y-82377162D01*
X90311494Y-82365778D01*
X90226936Y-82204034D01*
X90215912Y-82192603D01*
X90183294Y-82184887D01*
X90182131Y-82184948D01*
X90122163Y-82151456D01*
X89590302Y-81619595D01*
X89556276Y-81557283D01*
X89561341Y-81486468D01*
X89603888Y-81429632D01*
X89670408Y-81404821D01*
X89679397Y-81404500D01*
X89838521Y-81404500D01*
X89844974Y-81403128D01*
X89844978Y-81403128D01*
X89914721Y-81388303D01*
X89981993Y-81374004D01*
X90052782Y-81379406D01*
X90097283Y-81408156D01*
X90479383Y-81790256D01*
X90491763Y-81797016D01*
X90498678Y-81791840D01*
X90512793Y-81767391D01*
X90518131Y-81755402D01*
X90568162Y-81601422D01*
X90570892Y-81588581D01*
X90587815Y-81427565D01*
X90587815Y-81414435D01*
X90570892Y-81253419D01*
X90569300Y-81245930D01*
X109356566Y-81245930D01*
X109357256Y-81252495D01*
X109375635Y-81427358D01*
X109376528Y-81435858D01*
X109435543Y-81617486D01*
X109531030Y-81782874D01*
X109535448Y-81787781D01*
X109535449Y-81787782D01*
X109649389Y-81914325D01*
X109658817Y-81924796D01*
X109813318Y-82037048D01*
X109819346Y-82039732D01*
X109819348Y-82039733D01*
X109921218Y-82085088D01*
X109987782Y-82114724D01*
X110081182Y-82134577D01*
X110168126Y-82153058D01*
X110168131Y-82153058D01*
X110174583Y-82154430D01*
X110365557Y-82154430D01*
X110372009Y-82153058D01*
X110372014Y-82153058D01*
X110458958Y-82134577D01*
X110552358Y-82114724D01*
X110618922Y-82085088D01*
X110720792Y-82039733D01*
X110720794Y-82039732D01*
X110726822Y-82037048D01*
X110881323Y-81924796D01*
X110890751Y-81914325D01*
X111004495Y-81788000D01*
X111354496Y-81788000D01*
X111355186Y-81794565D01*
X111368358Y-81919885D01*
X111374458Y-81977928D01*
X111433473Y-82159556D01*
X111528960Y-82324944D01*
X111533378Y-82329851D01*
X111533379Y-82329852D01*
X111575976Y-82377161D01*
X111656747Y-82466866D01*
X111811248Y-82579118D01*
X111817276Y-82581802D01*
X111817278Y-82581803D01*
X111979681Y-82654109D01*
X111985712Y-82656794D01*
X112079112Y-82676647D01*
X112166056Y-82695128D01*
X112166061Y-82695128D01*
X112172513Y-82696500D01*
X112363487Y-82696500D01*
X112369939Y-82695128D01*
X112369944Y-82695128D01*
X112456888Y-82676647D01*
X112550288Y-82656794D01*
X112556319Y-82654109D01*
X112718722Y-82581803D01*
X112718724Y-82581802D01*
X112724752Y-82579118D01*
X112879253Y-82466866D01*
X112960024Y-82377161D01*
X113002621Y-82329852D01*
X113002622Y-82329851D01*
X113007040Y-82324944D01*
X113102527Y-82159556D01*
X113161542Y-81977928D01*
X113167643Y-81919885D01*
X113180814Y-81794565D01*
X113181504Y-81788000D01*
X113180333Y-81776857D01*
X113162232Y-81604635D01*
X113162232Y-81604633D01*
X113161542Y-81598072D01*
X113102527Y-81416444D01*
X113095817Y-81404821D01*
X113059681Y-81342233D01*
X113007040Y-81251056D01*
X112996514Y-81239365D01*
X112883675Y-81114045D01*
X112883674Y-81114044D01*
X112879253Y-81109134D01*
X112724752Y-80996882D01*
X112718724Y-80994198D01*
X112718722Y-80994197D01*
X112556319Y-80921891D01*
X112556318Y-80921891D01*
X112550288Y-80919206D01*
X112456888Y-80899353D01*
X112369944Y-80880872D01*
X112369939Y-80880872D01*
X112363487Y-80879500D01*
X112172513Y-80879500D01*
X112166061Y-80880872D01*
X112166056Y-80880872D01*
X112079112Y-80899353D01*
X111985712Y-80919206D01*
X111979682Y-80921891D01*
X111979681Y-80921891D01*
X111817278Y-80994197D01*
X111817276Y-80994198D01*
X111811248Y-80996882D01*
X111656747Y-81109134D01*
X111652326Y-81114044D01*
X111652325Y-81114045D01*
X111539487Y-81239365D01*
X111528960Y-81251056D01*
X111476319Y-81342233D01*
X111440184Y-81404821D01*
X111433473Y-81416444D01*
X111425125Y-81442136D01*
X111405956Y-81501132D01*
X111371599Y-81551377D01*
X111377896Y-81575332D01*
X111375594Y-81594574D01*
X111374458Y-81598072D01*
X111373769Y-81604629D01*
X111373768Y-81604633D01*
X111355667Y-81776857D01*
X111354496Y-81788000D01*
X111004495Y-81788000D01*
X111004691Y-81787782D01*
X111004692Y-81787781D01*
X111009110Y-81782874D01*
X111104597Y-81617486D01*
X111132114Y-81532798D01*
X111166471Y-81482553D01*
X111160174Y-81458598D01*
X111162476Y-81439356D01*
X111163612Y-81435858D01*
X111164506Y-81427358D01*
X111182884Y-81252495D01*
X111183574Y-81245930D01*
X111178097Y-81193823D01*
X111164302Y-81062565D01*
X111164302Y-81062563D01*
X111163612Y-81056002D01*
X111104597Y-80874374D01*
X111085157Y-80840702D01*
X111012411Y-80714704D01*
X111009110Y-80708986D01*
X110916994Y-80606680D01*
X110885745Y-80571975D01*
X110885744Y-80571974D01*
X110881323Y-80567064D01*
X110726822Y-80454812D01*
X110720794Y-80452128D01*
X110720792Y-80452127D01*
X110558389Y-80379821D01*
X110558388Y-80379821D01*
X110552358Y-80377136D01*
X110458957Y-80357283D01*
X110372014Y-80338802D01*
X110372009Y-80338802D01*
X110365557Y-80337430D01*
X110174583Y-80337430D01*
X110168131Y-80338802D01*
X110168126Y-80338802D01*
X110081183Y-80357283D01*
X109987782Y-80377136D01*
X109981752Y-80379821D01*
X109981751Y-80379821D01*
X109819348Y-80452127D01*
X109819346Y-80452128D01*
X109813318Y-80454812D01*
X109658817Y-80567064D01*
X109654396Y-80571974D01*
X109654395Y-80571975D01*
X109623147Y-80606680D01*
X109531030Y-80708986D01*
X109527729Y-80714704D01*
X109454984Y-80840702D01*
X109435543Y-80874374D01*
X109376528Y-81056002D01*
X109375838Y-81062563D01*
X109375838Y-81062565D01*
X109362043Y-81193823D01*
X109356566Y-81245930D01*
X90569300Y-81245930D01*
X90568162Y-81240578D01*
X90518134Y-81086607D01*
X90512789Y-81074601D01*
X90504071Y-81059502D01*
X90487332Y-80990507D01*
X90504069Y-80933501D01*
X90510772Y-80921891D01*
X90516551Y-80911882D01*
X90570694Y-80745249D01*
X90573905Y-80714704D01*
X90588318Y-80577565D01*
X90589008Y-80571000D01*
X90588186Y-80563181D01*
X90571385Y-80403321D01*
X90571384Y-80403317D01*
X90570694Y-80396751D01*
X90533750Y-80283051D01*
X90518591Y-80236395D01*
X90518589Y-80236391D01*
X90516551Y-80230118D01*
X90513253Y-80224405D01*
X90513250Y-80224399D01*
X90504359Y-80209000D01*
X90487621Y-80140004D01*
X90504359Y-80083000D01*
X90513250Y-80067601D01*
X90513253Y-80067595D01*
X90516551Y-80061882D01*
X90522410Y-80043852D01*
X90557610Y-79935516D01*
X90570694Y-79895249D01*
X90572373Y-79879279D01*
X90588318Y-79727565D01*
X90589008Y-79721000D01*
X90586612Y-79698206D01*
X90571385Y-79553321D01*
X90571384Y-79553317D01*
X90570694Y-79546751D01*
X90537450Y-79444438D01*
X90535422Y-79373470D01*
X90572085Y-79312672D01*
X90635797Y-79281347D01*
X90657283Y-79279501D01*
X106861986Y-79279501D01*
X106930107Y-79299503D01*
X106951081Y-79316406D01*
X107240155Y-79605480D01*
X107251022Y-79617871D01*
X107270483Y-79643233D01*
X107277033Y-79648259D01*
X107302391Y-79667717D01*
X107302398Y-79667723D01*
X107343205Y-79699035D01*
X107397595Y-79740770D01*
X107545620Y-79802084D01*
X107664585Y-79817746D01*
X107664590Y-79817746D01*
X107664599Y-79817747D01*
X107696282Y-79821918D01*
X107704470Y-79822996D01*
X107736163Y-79818824D01*
X107752606Y-79817746D01*
X108236234Y-79817746D01*
X108252677Y-79818824D01*
X108284370Y-79822996D01*
X108292559Y-79821918D01*
X108324244Y-79817747D01*
X108324254Y-79817746D01*
X108324255Y-79817746D01*
X108324271Y-79817744D01*
X108423827Y-79804637D01*
X108435034Y-79803162D01*
X108435036Y-79803161D01*
X108443221Y-79802084D01*
X108591246Y-79740770D01*
X108686442Y-79667723D01*
X108686445Y-79667720D01*
X108718357Y-79643233D01*
X108730708Y-79627137D01*
X108737822Y-79617867D01*
X108748689Y-79605476D01*
X109037760Y-79316405D01*
X109100072Y-79282379D01*
X109126855Y-79279500D01*
X110490680Y-79279500D01*
X110507123Y-79280578D01*
X110538816Y-79284750D01*
X110547005Y-79283672D01*
X110578690Y-79279501D01*
X110578700Y-79279500D01*
X110578701Y-79279500D01*
X110678273Y-79266391D01*
X110689480Y-79264916D01*
X110689482Y-79264915D01*
X110697667Y-79263838D01*
X110845692Y-79202524D01*
X110940888Y-79129477D01*
X110940891Y-79129474D01*
X110972803Y-79104987D01*
X110992269Y-79079619D01*
X111003136Y-79067229D01*
X112092313Y-77978052D01*
X113444011Y-77978052D01*
X113444701Y-77984617D01*
X113455859Y-78090775D01*
X113463973Y-78167980D01*
X113522988Y-78349608D01*
X113618475Y-78514996D01*
X113622893Y-78519903D01*
X113622894Y-78519904D01*
X113723676Y-78631834D01*
X113746262Y-78656918D01*
X113843736Y-78727737D01*
X113865246Y-78743365D01*
X113900763Y-78769170D01*
X113906791Y-78771854D01*
X113906793Y-78771855D01*
X114032999Y-78828045D01*
X114075227Y-78846846D01*
X114168627Y-78866699D01*
X114255571Y-78885180D01*
X114255576Y-78885180D01*
X114262028Y-78886552D01*
X114330957Y-78886552D01*
X114399078Y-78906554D01*
X114445571Y-78960210D01*
X114456267Y-78999382D01*
X114472182Y-79150803D01*
X114475163Y-79179169D01*
X114534178Y-79360797D01*
X114629665Y-79526185D01*
X114634083Y-79531092D01*
X114634084Y-79531093D01*
X114753030Y-79663196D01*
X114757452Y-79668107D01*
X114911953Y-79780359D01*
X114917981Y-79783043D01*
X114917983Y-79783044D01*
X115080386Y-79855350D01*
X115086417Y-79858035D01*
X115179818Y-79877888D01*
X115266761Y-79896369D01*
X115266766Y-79896369D01*
X115273218Y-79897741D01*
X115464192Y-79897741D01*
X115470644Y-79896369D01*
X115470649Y-79896369D01*
X115557592Y-79877888D01*
X115650993Y-79858035D01*
X115657024Y-79855350D01*
X115819427Y-79783044D01*
X115819429Y-79783043D01*
X115825457Y-79780359D01*
X115979958Y-79668107D01*
X115984380Y-79663196D01*
X116103326Y-79531093D01*
X116103327Y-79531092D01*
X116107745Y-79526185D01*
X116203232Y-79360797D01*
X116262247Y-79179169D01*
X116265229Y-79150803D01*
X116281519Y-78995806D01*
X116282209Y-78989241D01*
X116279667Y-78965056D01*
X116262937Y-78805876D01*
X116262937Y-78805874D01*
X116262247Y-78799313D01*
X116203232Y-78617685D01*
X116107745Y-78452297D01*
X116031485Y-78367601D01*
X115984380Y-78315286D01*
X115984379Y-78315285D01*
X115979958Y-78310375D01*
X115825457Y-78198123D01*
X115819429Y-78195439D01*
X115819427Y-78195438D01*
X115657024Y-78123132D01*
X115657023Y-78123132D01*
X115650993Y-78120447D01*
X115535227Y-78095840D01*
X115470649Y-78082113D01*
X115470644Y-78082113D01*
X115464192Y-78080741D01*
X115395263Y-78080741D01*
X115327142Y-78060739D01*
X115280649Y-78007083D01*
X115269953Y-77967911D01*
X115267072Y-77940500D01*
X119609496Y-77940500D01*
X119610186Y-77947065D01*
X119626215Y-78099569D01*
X119629458Y-78130428D01*
X119688473Y-78312056D01*
X119783960Y-78477444D01*
X119788378Y-78482351D01*
X119788379Y-78482352D01*
X119905080Y-78611962D01*
X119911747Y-78619366D01*
X119963433Y-78656918D01*
X120031945Y-78706695D01*
X120066248Y-78731618D01*
X120072276Y-78734302D01*
X120072278Y-78734303D01*
X120234681Y-78806609D01*
X120240712Y-78809294D01*
X120305824Y-78823134D01*
X120421056Y-78847628D01*
X120421061Y-78847628D01*
X120427513Y-78849000D01*
X120618487Y-78849000D01*
X120624939Y-78847628D01*
X120624944Y-78847628D01*
X120740176Y-78823134D01*
X120805288Y-78809294D01*
X120811319Y-78806609D01*
X120973722Y-78734303D01*
X120973724Y-78734302D01*
X120979752Y-78731618D01*
X121014056Y-78706695D01*
X121082567Y-78656918D01*
X121134253Y-78619366D01*
X121140920Y-78611962D01*
X121257621Y-78482352D01*
X121257622Y-78482351D01*
X121262040Y-78477444D01*
X121357527Y-78312056D01*
X121416542Y-78130428D01*
X121419786Y-78099569D01*
X121435814Y-77947065D01*
X121436504Y-77940500D01*
X121433027Y-77907415D01*
X121417232Y-77757135D01*
X121417232Y-77757133D01*
X121416542Y-77750572D01*
X121357527Y-77568944D01*
X121343435Y-77544535D01*
X121267643Y-77413261D01*
X121262040Y-77403556D01*
X121242464Y-77381814D01*
X121138675Y-77266545D01*
X121138674Y-77266544D01*
X121134253Y-77261634D01*
X121027742Y-77184249D01*
X120985094Y-77153263D01*
X120985093Y-77153262D01*
X120979752Y-77149382D01*
X120973724Y-77146698D01*
X120973722Y-77146697D01*
X120811319Y-77074391D01*
X120811318Y-77074391D01*
X120805288Y-77071706D01*
X120711887Y-77051853D01*
X120624944Y-77033372D01*
X120624939Y-77033372D01*
X120618487Y-77032000D01*
X120427513Y-77032000D01*
X120421061Y-77033372D01*
X120421056Y-77033372D01*
X120334113Y-77051853D01*
X120240712Y-77071706D01*
X120234682Y-77074391D01*
X120234681Y-77074391D01*
X120072278Y-77146697D01*
X120072276Y-77146698D01*
X120066248Y-77149382D01*
X120060907Y-77153262D01*
X120060906Y-77153263D01*
X120018258Y-77184249D01*
X119911747Y-77261634D01*
X119907326Y-77266544D01*
X119907325Y-77266545D01*
X119803537Y-77381814D01*
X119783960Y-77403556D01*
X119778357Y-77413261D01*
X119702566Y-77544535D01*
X119688473Y-77568944D01*
X119629458Y-77750572D01*
X119628768Y-77757133D01*
X119628768Y-77757135D01*
X119612973Y-77907415D01*
X119609496Y-77940500D01*
X115267072Y-77940500D01*
X115251747Y-77794687D01*
X115251747Y-77794685D01*
X115251057Y-77788124D01*
X115192042Y-77606496D01*
X115096555Y-77441108D01*
X115071482Y-77413261D01*
X114973190Y-77304097D01*
X114973189Y-77304096D01*
X114968768Y-77299186D01*
X114853351Y-77215330D01*
X114819609Y-77190815D01*
X114819608Y-77190814D01*
X114814267Y-77186934D01*
X114808239Y-77184250D01*
X114808237Y-77184249D01*
X114645834Y-77111943D01*
X114645833Y-77111943D01*
X114639803Y-77109258D01*
X114546402Y-77089405D01*
X114459459Y-77070924D01*
X114459454Y-77070924D01*
X114453002Y-77069552D01*
X114262028Y-77069552D01*
X114255576Y-77070924D01*
X114255571Y-77070924D01*
X114168628Y-77089405D01*
X114075227Y-77109258D01*
X114069197Y-77111943D01*
X114069196Y-77111943D01*
X113906793Y-77184249D01*
X113906791Y-77184250D01*
X113900763Y-77186934D01*
X113895422Y-77190814D01*
X113895421Y-77190815D01*
X113861679Y-77215330D01*
X113746262Y-77299186D01*
X113741841Y-77304096D01*
X113741840Y-77304097D01*
X113643549Y-77413261D01*
X113618475Y-77441108D01*
X113522988Y-77606496D01*
X113463973Y-77788124D01*
X113463283Y-77794685D01*
X113463283Y-77794687D01*
X113450888Y-77912617D01*
X113444011Y-77978052D01*
X112092313Y-77978052D01*
X112303600Y-77766765D01*
X112365912Y-77732739D01*
X112392695Y-77729860D01*
X112483943Y-77729860D01*
X112490395Y-77728488D01*
X112490400Y-77728488D01*
X112577343Y-77710007D01*
X112670744Y-77690154D01*
X112679187Y-77686395D01*
X112839178Y-77615163D01*
X112839180Y-77615162D01*
X112845208Y-77612478D01*
X112853442Y-77606496D01*
X112946560Y-77538841D01*
X112999709Y-77500226D01*
X113057358Y-77436200D01*
X113123077Y-77363212D01*
X113123078Y-77363211D01*
X113127496Y-77358304D01*
X113185770Y-77257370D01*
X113219679Y-77198639D01*
X113219680Y-77198638D01*
X113222983Y-77192916D01*
X113281998Y-77011288D01*
X113282836Y-77003321D01*
X113301270Y-76827925D01*
X113301960Y-76821360D01*
X113294670Y-76751996D01*
X113282688Y-76637995D01*
X113282688Y-76637993D01*
X113281998Y-76631432D01*
X113222983Y-76449804D01*
X113127496Y-76284416D01*
X112999709Y-76142494D01*
X112845208Y-76030242D01*
X112839180Y-76027558D01*
X112839178Y-76027557D01*
X112676775Y-75955251D01*
X112676774Y-75955251D01*
X112670744Y-75952566D01*
X112664289Y-75951194D01*
X112664280Y-75951191D01*
X112643344Y-75946741D01*
X112580871Y-75913013D01*
X112549709Y-75862431D01*
X112537553Y-75825017D01*
X112512227Y-75747073D01*
X112416740Y-75581685D01*
X112365793Y-75525102D01*
X112293375Y-75444674D01*
X112293374Y-75444673D01*
X112288953Y-75439763D01*
X112189857Y-75367765D01*
X112139794Y-75331392D01*
X112139793Y-75331391D01*
X112134452Y-75327511D01*
X112128424Y-75324827D01*
X112128422Y-75324826D01*
X111966019Y-75252520D01*
X111966018Y-75252520D01*
X111959988Y-75249835D01*
X111856209Y-75227776D01*
X111779644Y-75211501D01*
X111779639Y-75211501D01*
X111773187Y-75210129D01*
X111582213Y-75210129D01*
X111575761Y-75211501D01*
X111575756Y-75211501D01*
X111499191Y-75227776D01*
X111395412Y-75249835D01*
X111389382Y-75252520D01*
X111389381Y-75252520D01*
X111226978Y-75324826D01*
X111226976Y-75324827D01*
X111220948Y-75327511D01*
X111215607Y-75331391D01*
X111215606Y-75331392D01*
X111165543Y-75367765D01*
X111066447Y-75439763D01*
X111062026Y-75444673D01*
X111062025Y-75444674D01*
X110989608Y-75525102D01*
X110938660Y-75581685D01*
X110843173Y-75747073D01*
X110784158Y-75928701D01*
X110783468Y-75935262D01*
X110783468Y-75935264D01*
X110781366Y-75955266D01*
X110764196Y-76118629D01*
X110764886Y-76125194D01*
X110782839Y-76296004D01*
X110784158Y-76308557D01*
X110843173Y-76490185D01*
X110928512Y-76637995D01*
X110933743Y-76647056D01*
X110950481Y-76716051D01*
X110927261Y-76783143D01*
X110913719Y-76799151D01*
X110137275Y-77575595D01*
X110074963Y-77609621D01*
X110048180Y-77612500D01*
X109000363Y-77612500D01*
X108932242Y-77592498D01*
X108911268Y-77575595D01*
X108748685Y-77413012D01*
X108737818Y-77400621D01*
X108723383Y-77381809D01*
X108718357Y-77375259D01*
X108686445Y-77350772D01*
X108686439Y-77350766D01*
X108597799Y-77282750D01*
X108597797Y-77282749D01*
X108591246Y-77277722D01*
X108443221Y-77216408D01*
X108435034Y-77215330D01*
X108435033Y-77215330D01*
X108423828Y-77213855D01*
X108392632Y-77209748D01*
X108324255Y-77200746D01*
X108324252Y-77200746D01*
X108324244Y-77200745D01*
X108292559Y-77196574D01*
X108284370Y-77195496D01*
X108252677Y-77199668D01*
X108236234Y-77200746D01*
X107752614Y-77200746D01*
X107736168Y-77199668D01*
X107712658Y-77196573D01*
X107704470Y-77195495D01*
X107545619Y-77216408D01*
X107397594Y-77277722D01*
X107372855Y-77296705D01*
X107302407Y-77350761D01*
X107302391Y-77350775D01*
X107277036Y-77370230D01*
X107277033Y-77370233D01*
X107270483Y-77375259D01*
X107265453Y-77381814D01*
X107251018Y-77400625D01*
X107240151Y-77413016D01*
X107077573Y-77575594D01*
X107015261Y-77609620D01*
X106988478Y-77612499D01*
X90657283Y-77612499D01*
X90589162Y-77592497D01*
X90542669Y-77538841D01*
X90532565Y-77468567D01*
X90537450Y-77447562D01*
X90549891Y-77409274D01*
X90570694Y-77345249D01*
X90575020Y-77304097D01*
X90588318Y-77177565D01*
X90589008Y-77171000D01*
X90581350Y-77098134D01*
X90571385Y-77003321D01*
X90571384Y-77003317D01*
X90570694Y-76996751D01*
X90516551Y-76830118D01*
X90513253Y-76824405D01*
X90513250Y-76824399D01*
X90504359Y-76809000D01*
X90487621Y-76740004D01*
X90504359Y-76683000D01*
X90513250Y-76667601D01*
X90513253Y-76667595D01*
X90516551Y-76661882D01*
X90521369Y-76647056D01*
X90554107Y-76546297D01*
X90570694Y-76495249D01*
X90575471Y-76449804D01*
X90588318Y-76327565D01*
X90589008Y-76321000D01*
X90570694Y-76146751D01*
X90516551Y-75980118D01*
X90504069Y-75958498D01*
X90487332Y-75889504D01*
X90504071Y-75832498D01*
X90512789Y-75817399D01*
X90518134Y-75805393D01*
X90533188Y-75759060D01*
X105699436Y-75759060D01*
X105700126Y-75765625D01*
X105717956Y-75935264D01*
X105719398Y-75948988D01*
X105778413Y-76130616D01*
X105781716Y-76136338D01*
X105781717Y-76136339D01*
X105788106Y-76147405D01*
X105873900Y-76296004D01*
X105878318Y-76300911D01*
X105878319Y-76300912D01*
X105997265Y-76433015D01*
X106001687Y-76437926D01*
X106156188Y-76550178D01*
X106162216Y-76552862D01*
X106162218Y-76552863D01*
X106324621Y-76625169D01*
X106330652Y-76627854D01*
X106420990Y-76647056D01*
X106510996Y-76666188D01*
X106511001Y-76666188D01*
X106517453Y-76667560D01*
X106708427Y-76667560D01*
X106714879Y-76666188D01*
X106714884Y-76666188D01*
X106804890Y-76647056D01*
X106895228Y-76627854D01*
X106901259Y-76625169D01*
X107063662Y-76552863D01*
X107063664Y-76552862D01*
X107069692Y-76550178D01*
X107224193Y-76437926D01*
X107228615Y-76433015D01*
X107347561Y-76300912D01*
X107347562Y-76300911D01*
X107351980Y-76296004D01*
X107437774Y-76147405D01*
X107444163Y-76136339D01*
X107444164Y-76136338D01*
X107447467Y-76130616D01*
X107506482Y-75948988D01*
X107507925Y-75935264D01*
X107525754Y-75765625D01*
X107526444Y-75759060D01*
X107509221Y-75595192D01*
X107507172Y-75575695D01*
X107507172Y-75575693D01*
X107506482Y-75569132D01*
X107447467Y-75387504D01*
X107422101Y-75343568D01*
X107398024Y-75301866D01*
X107351980Y-75222116D01*
X107337259Y-75205766D01*
X107228615Y-75085105D01*
X107228614Y-75085104D01*
X107224193Y-75080194D01*
X107093363Y-74985140D01*
X107075034Y-74971823D01*
X107075033Y-74971822D01*
X107069692Y-74967942D01*
X107063664Y-74965258D01*
X107063662Y-74965257D01*
X106901259Y-74892951D01*
X106901258Y-74892951D01*
X106895228Y-74890266D01*
X106801827Y-74870413D01*
X106714884Y-74851932D01*
X106714879Y-74851932D01*
X106708427Y-74850560D01*
X106517453Y-74850560D01*
X106511001Y-74851932D01*
X106510996Y-74851932D01*
X106424053Y-74870413D01*
X106330652Y-74890266D01*
X106324622Y-74892951D01*
X106324621Y-74892951D01*
X106162218Y-74965257D01*
X106162216Y-74965258D01*
X106156188Y-74967942D01*
X106150847Y-74971822D01*
X106150846Y-74971823D01*
X106132517Y-74985140D01*
X106001687Y-75080194D01*
X105997266Y-75085104D01*
X105997265Y-75085105D01*
X105888622Y-75205766D01*
X105873900Y-75222116D01*
X105827856Y-75301866D01*
X105803780Y-75343568D01*
X105778413Y-75387504D01*
X105719398Y-75569132D01*
X105718708Y-75575693D01*
X105718708Y-75575695D01*
X105716659Y-75595192D01*
X105699436Y-75759060D01*
X90533188Y-75759060D01*
X90568162Y-75651422D01*
X90570892Y-75638581D01*
X90587815Y-75477565D01*
X90587815Y-75464435D01*
X90570892Y-75303419D01*
X90568162Y-75290578D01*
X90518131Y-75136598D01*
X90512793Y-75124609D01*
X90501252Y-75104619D01*
X90491048Y-75094889D01*
X90483027Y-75098100D01*
X90097283Y-75483844D01*
X90034971Y-75517870D01*
X89981993Y-75517996D01*
X89914721Y-75503697D01*
X89844978Y-75488872D01*
X89844974Y-75488872D01*
X89838521Y-75487500D01*
X89679397Y-75487500D01*
X89611276Y-75467498D01*
X89564783Y-75413842D01*
X89554679Y-75343568D01*
X89584173Y-75278988D01*
X89590302Y-75272405D01*
X90019573Y-74843134D01*
X96781500Y-74843134D01*
X96788255Y-74905316D01*
X96839385Y-75041705D01*
X96926739Y-75158261D01*
X97043295Y-75245615D01*
X97179684Y-75296745D01*
X97241866Y-75303500D01*
X98338134Y-75303500D01*
X98400316Y-75296745D01*
X98536705Y-75245615D01*
X98653261Y-75158261D01*
X98740615Y-75041705D01*
X98791745Y-74905316D01*
X98798500Y-74843134D01*
X98798500Y-74731299D01*
X101757795Y-74731299D01*
X101777757Y-74921227D01*
X101836772Y-75102855D01*
X101840075Y-75108577D01*
X101840076Y-75108578D01*
X101864615Y-75151081D01*
X101932259Y-75268243D01*
X101936677Y-75273150D01*
X101936678Y-75273151D01*
X102000082Y-75343568D01*
X102060046Y-75410165D01*
X102134742Y-75464435D01*
X102208289Y-75517870D01*
X102214547Y-75522417D01*
X102220575Y-75525101D01*
X102220577Y-75525102D01*
X102378003Y-75595192D01*
X102389011Y-75600093D01*
X102482412Y-75619946D01*
X102569355Y-75638427D01*
X102569360Y-75638427D01*
X102575812Y-75639799D01*
X102766786Y-75639799D01*
X102773238Y-75638427D01*
X102773243Y-75638427D01*
X102860186Y-75619946D01*
X102953587Y-75600093D01*
X102964595Y-75595192D01*
X103122021Y-75525102D01*
X103122023Y-75525101D01*
X103128051Y-75522417D01*
X103134310Y-75517870D01*
X103207856Y-75464435D01*
X103282552Y-75410165D01*
X103342516Y-75343568D01*
X103405920Y-75273151D01*
X103405921Y-75273150D01*
X103410339Y-75268243D01*
X103477983Y-75151081D01*
X103502522Y-75108578D01*
X103502523Y-75108577D01*
X103505826Y-75102855D01*
X103564841Y-74921227D01*
X103584803Y-74731299D01*
X103564841Y-74541371D01*
X103505826Y-74359743D01*
X103410339Y-74194355D01*
X103282552Y-74052433D01*
X103128051Y-73940181D01*
X103122023Y-73937497D01*
X103122021Y-73937496D01*
X102959618Y-73865190D01*
X102959617Y-73865190D01*
X102953587Y-73862505D01*
X102860187Y-73842652D01*
X102773243Y-73824171D01*
X102773238Y-73824171D01*
X102766786Y-73822799D01*
X102575812Y-73822799D01*
X102569360Y-73824171D01*
X102569355Y-73824171D01*
X102482411Y-73842652D01*
X102389011Y-73862505D01*
X102382981Y-73865190D01*
X102382980Y-73865190D01*
X102220577Y-73937496D01*
X102220575Y-73937497D01*
X102214547Y-73940181D01*
X102060046Y-74052433D01*
X101932259Y-74194355D01*
X101836772Y-74359743D01*
X101777757Y-74541371D01*
X101757795Y-74731299D01*
X98798500Y-74731299D01*
X98798500Y-73746866D01*
X98791745Y-73684684D01*
X98740615Y-73548295D01*
X98653261Y-73431739D01*
X98536705Y-73344385D01*
X98400316Y-73293255D01*
X98338134Y-73286500D01*
X97241866Y-73286500D01*
X97179684Y-73293255D01*
X97043295Y-73344385D01*
X96926739Y-73431739D01*
X96839385Y-73548295D01*
X96788255Y-73684684D01*
X96781500Y-73746866D01*
X96781500Y-74843134D01*
X90019573Y-74843134D01*
X90127489Y-74735218D01*
X90189801Y-74701192D01*
X90207596Y-74698634D01*
X90215704Y-74698054D01*
X90223354Y-74692327D01*
X90305743Y-74539953D01*
X90310495Y-74528646D01*
X90352699Y-74392308D01*
X90352905Y-74378205D01*
X90346150Y-74375000D01*
X89043032Y-74375000D01*
X89027793Y-74379475D01*
X89026588Y-74380865D01*
X89024917Y-74388548D01*
X89024917Y-74842277D01*
X89032447Y-74867922D01*
X89108731Y-74944206D01*
X89142757Y-75006518D01*
X89137692Y-75077333D01*
X89108731Y-75122396D01*
X89024917Y-75206210D01*
X89024473Y-75205766D01*
X89011708Y-75221041D01*
X89003351Y-75227776D01*
X88747283Y-75483844D01*
X88684971Y-75517870D01*
X88631993Y-75517996D01*
X88564721Y-75503697D01*
X88494978Y-75488872D01*
X88494974Y-75488872D01*
X88488521Y-75487500D01*
X88329397Y-75487500D01*
X88261276Y-75467498D01*
X88214783Y-75413842D01*
X88204679Y-75343568D01*
X88234173Y-75278988D01*
X88240302Y-75272405D01*
X88504105Y-75008602D01*
X88516917Y-74985140D01*
X88516917Y-73848885D01*
X89024917Y-73848885D01*
X89029392Y-73864124D01*
X89030782Y-73865329D01*
X89038465Y-73867000D01*
X90339135Y-73867000D01*
X90352666Y-73863027D01*
X90353786Y-73855232D01*
X90316093Y-73727162D01*
X90311494Y-73715778D01*
X90220715Y-73542134D01*
X90214001Y-73531873D01*
X90091218Y-73379162D01*
X90082640Y-73370403D01*
X89932533Y-73244448D01*
X89922419Y-73237522D01*
X89750705Y-73143122D01*
X89739435Y-73138292D01*
X89552661Y-73079044D01*
X89540667Y-73076494D01*
X89388204Y-73059393D01*
X89381180Y-73059000D01*
X89043032Y-73059000D01*
X89027793Y-73063475D01*
X89026588Y-73064865D01*
X89024917Y-73072548D01*
X89024917Y-73848885D01*
X88516917Y-73848885D01*
X88516917Y-73077115D01*
X88512442Y-73061876D01*
X88511052Y-73060671D01*
X88503369Y-73059000D01*
X88167587Y-73059000D01*
X88161439Y-73059301D01*
X88015775Y-73073583D01*
X88003740Y-73075966D01*
X87816163Y-73132600D01*
X87804823Y-73137273D01*
X87631813Y-73229264D01*
X87621595Y-73236053D01*
X87469749Y-73359894D01*
X87461045Y-73368538D01*
X87336148Y-73519513D01*
X87329288Y-73529684D01*
X87236091Y-73702049D01*
X87231339Y-73713354D01*
X87201317Y-73810339D01*
X87162066Y-73869499D01*
X87097062Y-73898046D01*
X87026943Y-73886917D01*
X86973971Y-73839646D01*
X86960079Y-73808655D01*
X86936094Y-73727161D01*
X86931497Y-73715784D01*
X86840715Y-73542134D01*
X86834001Y-73531873D01*
X86711218Y-73379162D01*
X86702640Y-73370403D01*
X86552533Y-73244448D01*
X86542419Y-73237522D01*
X86370705Y-73143122D01*
X86359435Y-73138292D01*
X86172661Y-73079044D01*
X86160667Y-73076494D01*
X86008204Y-73059393D01*
X86001180Y-73059000D01*
X85663032Y-73059000D01*
X85647793Y-73063475D01*
X85646588Y-73064865D01*
X85644917Y-73072548D01*
X85644917Y-75164885D01*
X85649392Y-75180124D01*
X85650782Y-75181329D01*
X85658465Y-75183000D01*
X85994247Y-75183000D01*
X86000395Y-75182699D01*
X86146059Y-75168417D01*
X86158094Y-75166034D01*
X86345671Y-75109400D01*
X86357011Y-75104727D01*
X86530021Y-75012736D01*
X86540239Y-75005947D01*
X86692085Y-74882106D01*
X86700789Y-74873462D01*
X86825686Y-74722487D01*
X86832546Y-74712316D01*
X86925743Y-74539951D01*
X86930495Y-74528646D01*
X86960517Y-74431661D01*
X86999768Y-74372501D01*
X87064772Y-74343954D01*
X87134891Y-74355083D01*
X87187863Y-74402354D01*
X87201755Y-74433345D01*
X87225740Y-74514839D01*
X87230337Y-74526216D01*
X87321119Y-74699866D01*
X87327833Y-74710127D01*
X87450616Y-74862838D01*
X87459194Y-74871597D01*
X87599401Y-74989245D01*
X87638728Y-75048355D01*
X87639854Y-75119343D01*
X87634047Y-75135540D01*
X87583672Y-75290578D01*
X87580942Y-75303419D01*
X87564019Y-75464435D01*
X87564019Y-75477565D01*
X87580942Y-75638581D01*
X87583672Y-75651422D01*
X87633700Y-75805393D01*
X87639045Y-75817399D01*
X87647763Y-75832498D01*
X87664502Y-75901493D01*
X87647765Y-75958498D01*
X87635283Y-75980118D01*
X87581140Y-76146751D01*
X87562826Y-76321000D01*
X87563516Y-76327565D01*
X87576364Y-76449804D01*
X87581140Y-76495249D01*
X87597727Y-76546297D01*
X87630466Y-76647056D01*
X87635283Y-76661882D01*
X87638581Y-76667595D01*
X87638584Y-76667601D01*
X87647475Y-76683000D01*
X87664213Y-76751996D01*
X87647475Y-76809000D01*
X87638584Y-76824399D01*
X87638581Y-76824405D01*
X87635283Y-76830118D01*
X87581140Y-76996751D01*
X87580450Y-77003317D01*
X87580449Y-77003321D01*
X87570484Y-77098134D01*
X87562826Y-77171000D01*
X87563516Y-77177565D01*
X87576815Y-77304097D01*
X87581140Y-77345249D01*
X87600906Y-77406081D01*
X87632647Y-77503768D01*
X87635283Y-77511882D01*
X87638581Y-77517595D01*
X87638584Y-77517601D01*
X87647475Y-77533000D01*
X87664213Y-77601996D01*
X87647475Y-77659000D01*
X87638584Y-77674399D01*
X87638581Y-77674405D01*
X87635283Y-77680118D01*
X87633245Y-77686391D01*
X87633243Y-77686395D01*
X87614431Y-77744294D01*
X87581140Y-77846751D01*
X87580450Y-77853317D01*
X87580449Y-77853321D01*
X87566882Y-77982406D01*
X87562826Y-78021000D01*
X87563516Y-78027565D01*
X87578934Y-78174258D01*
X87581140Y-78195249D01*
X87603677Y-78264610D01*
X87631295Y-78349608D01*
X87635283Y-78361882D01*
X87638581Y-78367595D01*
X87638584Y-78367601D01*
X87647475Y-78383000D01*
X87664213Y-78451996D01*
X87647475Y-78509000D01*
X87638584Y-78524399D01*
X87638581Y-78524405D01*
X87635283Y-78530118D01*
X87633245Y-78536391D01*
X87633243Y-78536395D01*
X87617907Y-78583596D01*
X87581140Y-78696751D01*
X87580450Y-78703317D01*
X87580449Y-78703321D01*
X87569311Y-78809294D01*
X87562826Y-78871000D01*
X87563516Y-78877565D01*
X87573203Y-78969730D01*
X87581140Y-79045249D01*
X87600550Y-79104987D01*
X87630609Y-79197496D01*
X87635283Y-79211882D01*
X87638581Y-79217595D01*
X87638584Y-79217601D01*
X87647475Y-79233000D01*
X87664213Y-79301996D01*
X87647475Y-79359000D01*
X87638584Y-79374399D01*
X87638581Y-79374405D01*
X87635283Y-79380118D01*
X87581140Y-79546751D01*
X87580450Y-79553317D01*
X87580449Y-79553321D01*
X87565222Y-79698206D01*
X87562826Y-79721000D01*
X87563516Y-79727565D01*
X87579462Y-79879279D01*
X87581140Y-79895249D01*
X87594224Y-79935516D01*
X87629425Y-80043852D01*
X87635283Y-80061882D01*
X87638581Y-80067595D01*
X87638584Y-80067601D01*
X87647475Y-80083000D01*
X87664213Y-80151996D01*
X87647475Y-80209000D01*
X87638584Y-80224399D01*
X87638581Y-80224405D01*
X87635283Y-80230118D01*
X87633245Y-80236391D01*
X87633243Y-80236395D01*
X87618084Y-80283051D01*
X87581140Y-80396751D01*
X87580450Y-80403317D01*
X87580449Y-80403321D01*
X87563648Y-80563181D01*
X87562826Y-80571000D01*
X87563516Y-80577565D01*
X87577930Y-80714704D01*
X87581140Y-80745249D01*
X87635283Y-80911882D01*
X87641062Y-80921891D01*
X87647765Y-80933501D01*
X87664502Y-81002496D01*
X87647763Y-81059502D01*
X87639045Y-81074601D01*
X87633700Y-81086607D01*
X87583672Y-81240578D01*
X87580942Y-81253419D01*
X87564019Y-81414435D01*
X87564019Y-81427565D01*
X87580942Y-81588581D01*
X87583672Y-81601422D01*
X87633701Y-81755398D01*
X87633970Y-81756001D01*
X87634021Y-81756381D01*
X87635742Y-81761678D01*
X87634773Y-81761993D01*
X87643403Y-81826368D01*
X87613295Y-81890665D01*
X87598497Y-81904890D01*
X87469754Y-82009890D01*
X87461045Y-82018538D01*
X87336148Y-82169513D01*
X87329288Y-82179684D01*
X87236091Y-82352049D01*
X87231339Y-82363354D01*
X87201317Y-82460339D01*
X87162066Y-82519499D01*
X87097062Y-82548046D01*
X87026943Y-82536917D01*
X86973971Y-82489646D01*
X86960079Y-82458655D01*
X86936094Y-82377161D01*
X86931497Y-82365784D01*
X86840715Y-82192134D01*
X86834001Y-82181873D01*
X86711218Y-82029162D01*
X86702640Y-82020403D01*
X86552533Y-81894448D01*
X86542419Y-81887522D01*
X86370705Y-81793122D01*
X86359435Y-81788292D01*
X86172661Y-81729044D01*
X86160667Y-81726494D01*
X86008204Y-81709393D01*
X86001180Y-81709000D01*
X85663032Y-81709000D01*
X85647793Y-81713475D01*
X85646588Y-81714865D01*
X85644917Y-81722548D01*
X85644917Y-83814885D01*
X85136917Y-83814885D01*
X85136917Y-81727115D01*
X85132442Y-81711876D01*
X85131052Y-81710671D01*
X85123369Y-81709000D01*
X84787587Y-81709000D01*
X84781439Y-81709301D01*
X84635775Y-81723583D01*
X84623740Y-81725966D01*
X84436163Y-81782600D01*
X84424823Y-81787273D01*
X84248402Y-81881077D01*
X84178865Y-81895396D01*
X84112624Y-81869848D01*
X84070711Y-81812543D01*
X84063249Y-81769832D01*
X84063049Y-77978052D01*
X84062898Y-75120497D01*
X84082896Y-75052376D01*
X84136550Y-75005880D01*
X84206823Y-74995773D01*
X84249599Y-75010076D01*
X84411129Y-75098878D01*
X84422399Y-75103708D01*
X84609173Y-75162956D01*
X84621167Y-75165506D01*
X84773630Y-75182607D01*
X84780654Y-75183000D01*
X85118802Y-75183000D01*
X85134041Y-75178525D01*
X85135246Y-75177135D01*
X85136917Y-75169452D01*
X85136917Y-73077115D01*
X85132442Y-73061876D01*
X85131052Y-73060671D01*
X85123369Y-73059000D01*
X84787587Y-73059000D01*
X84781439Y-73059301D01*
X84635775Y-73073583D01*
X84623740Y-73075966D01*
X84436163Y-73132600D01*
X84424815Y-73137276D01*
X84247946Y-73231319D01*
X84178409Y-73245639D01*
X84112168Y-73220091D01*
X84070256Y-73162787D01*
X84062793Y-73120075D01*
X84062743Y-72176134D01*
X91955500Y-72176134D01*
X91962255Y-72238316D01*
X92013385Y-72374705D01*
X92100739Y-72491261D01*
X92217295Y-72578615D01*
X92353684Y-72629745D01*
X92415866Y-72636500D01*
X93512134Y-72636500D01*
X93574316Y-72629745D01*
X93710705Y-72578615D01*
X93827261Y-72491261D01*
X93914615Y-72374705D01*
X93965745Y-72238316D01*
X93972500Y-72176134D01*
X93972500Y-71079866D01*
X93965745Y-71017684D01*
X93914615Y-70881295D01*
X93827261Y-70764739D01*
X93710705Y-70677385D01*
X93574316Y-70626255D01*
X93512134Y-70619500D01*
X92415866Y-70619500D01*
X92353684Y-70626255D01*
X92217295Y-70677385D01*
X92100739Y-70764739D01*
X92013385Y-70881295D01*
X91962255Y-71017684D01*
X91955500Y-71079866D01*
X91955500Y-72176134D01*
X84062743Y-72176134D01*
X84062590Y-69256461D01*
X84064090Y-69237072D01*
X84066397Y-69222255D01*
X84066397Y-69222248D01*
X84067778Y-69213379D01*
X84066614Y-69204474D01*
X84066598Y-69204350D01*
X84066327Y-69173911D01*
X84073320Y-69111841D01*
X84079598Y-69084334D01*
X84106571Y-69007245D01*
X84118814Y-68981822D01*
X84162265Y-68912670D01*
X84179856Y-68890611D01*
X84237605Y-68832861D01*
X84259663Y-68815270D01*
X84301048Y-68789265D01*
X84328815Y-68771817D01*
X84354236Y-68759575D01*
X84417910Y-68737294D01*
X84431326Y-68732600D01*
X84458820Y-68726323D01*
X84514246Y-68720077D01*
X84529956Y-68720417D01*
X84529970Y-68719307D01*
X84538945Y-68719416D01*
X84547818Y-68720798D01*
X84579375Y-68716671D01*
X84595714Y-68715607D01*
X95051715Y-68715607D01*
X95119836Y-68735609D01*
G37*
G04 #@! TD.AperFunction*
M02*
