G04 #@! TF.GenerationSoftware,KiCad,Pcbnew,(6.0.9)*
G04 #@! TF.CreationDate,2023-02-20T10:33:00+01:00*
G04 #@! TF.ProjectId,FLWSB-SAMDaaNo21,464c5753-422d-4534-914d-4461614e6f32,1.0*
G04 #@! TF.SameCoordinates,Original*
G04 #@! TF.FileFunction,Legend,Bot*
G04 #@! TF.FilePolarity,Positive*
%FSLAX46Y46*%
G04 Gerber Fmt 4.6, Leading zero omitted, Abs format (unit mm)*
G04 Created by KiCad (PCBNEW (6.0.9)) date 2023-02-20 10:33:00*
%MOMM*%
%LPD*%
G01*
G04 APERTURE LIST*
G04 Aperture macros list*
%AMRoundRect*
0 Rectangle with rounded corners*
0 $1 Rounding radius*
0 $2 $3 $4 $5 $6 $7 $8 $9 X,Y pos of 4 corners*
0 Add a 4 corners polygon primitive as box body*
4,1,4,$2,$3,$4,$5,$6,$7,$8,$9,$2,$3,0*
0 Add four circle primitives for the rounded corners*
1,1,$1+$1,$2,$3*
1,1,$1+$1,$4,$5*
1,1,$1+$1,$6,$7*
1,1,$1+$1,$8,$9*
0 Add four rect primitives between the rounded corners*
20,1,$1+$1,$2,$3,$4,$5,0*
20,1,$1+$1,$4,$5,$6,$7,0*
20,1,$1+$1,$6,$7,$8,$9,0*
20,1,$1+$1,$8,$9,$2,$3,0*%
G04 Aperture macros list end*
%ADD10C,0.100000*%
%ADD11C,0.120000*%
%ADD12R,1.700000X1.700000*%
%ADD13O,1.700000X1.700000*%
%ADD14R,1.000000X1.000000*%
%ADD15C,0.650000*%
%ADD16O,2.216000X1.108000*%
%ADD17R,0.914400X1.219200*%
%ADD18RoundRect,0.250000X-0.450000X0.350000X-0.450000X-0.350000X0.450000X-0.350000X0.450000X0.350000X0*%
%ADD19RoundRect,0.250000X-0.475000X0.337500X-0.475000X-0.337500X0.475000X-0.337500X0.475000X0.337500X0*%
%ADD20R,0.700000X1.000000*%
%ADD21R,0.700000X0.600000*%
%ADD22RoundRect,0.250000X0.097227X-0.574524X0.574524X-0.097227X-0.097227X0.574524X-0.574524X0.097227X0*%
%ADD23R,2.000000X1.500000*%
%ADD24R,2.000000X3.800000*%
G04 APERTURE END LIST*
D10*
X127480190Y-82212666D02*
X127242095Y-82046000D01*
X127480190Y-81926952D02*
X126980190Y-81926952D01*
X126980190Y-82117428D01*
X127004000Y-82165047D01*
X127027809Y-82188857D01*
X127075428Y-82212666D01*
X127146857Y-82212666D01*
X127194476Y-82188857D01*
X127218285Y-82165047D01*
X127242095Y-82117428D01*
X127242095Y-81926952D01*
X126980190Y-82665047D02*
X126980190Y-82426952D01*
X127218285Y-82403142D01*
X127194476Y-82426952D01*
X127170666Y-82474571D01*
X127170666Y-82593619D01*
X127194476Y-82641238D01*
X127218285Y-82665047D01*
X127265904Y-82688857D01*
X127384952Y-82688857D01*
X127432571Y-82665047D01*
X127456380Y-82641238D01*
X127480190Y-82593619D01*
X127480190Y-82474571D01*
X127456380Y-82426952D01*
X127432571Y-82403142D01*
X134139809Y-82379333D02*
X134377904Y-82546000D01*
X134139809Y-82665047D02*
X134639809Y-82665047D01*
X134639809Y-82474571D01*
X134616000Y-82426952D01*
X134592190Y-82403142D01*
X134544571Y-82379333D01*
X134473142Y-82379333D01*
X134425523Y-82403142D01*
X134401714Y-82426952D01*
X134377904Y-82474571D01*
X134377904Y-82665047D01*
X134639809Y-81950761D02*
X134639809Y-82046000D01*
X134616000Y-82093619D01*
X134592190Y-82117428D01*
X134520761Y-82165047D01*
X134425523Y-82188857D01*
X134235047Y-82188857D01*
X134187428Y-82165047D01*
X134163619Y-82141238D01*
X134139809Y-82093619D01*
X134139809Y-81998380D01*
X134163619Y-81950761D01*
X134187428Y-81926952D01*
X134235047Y-81903142D01*
X134354095Y-81903142D01*
X134401714Y-81926952D01*
X134425523Y-81950761D01*
X134449333Y-81998380D01*
X134449333Y-82093619D01*
X134425523Y-82141238D01*
X134401714Y-82165047D01*
X134354095Y-82188857D01*
X92126571Y-79164666D02*
X92150380Y-79140857D01*
X92174190Y-79069428D01*
X92174190Y-79021809D01*
X92150380Y-78950380D01*
X92102761Y-78902761D01*
X92055142Y-78878952D01*
X91959904Y-78855142D01*
X91888476Y-78855142D01*
X91793238Y-78878952D01*
X91745619Y-78902761D01*
X91698000Y-78950380D01*
X91674190Y-79021809D01*
X91674190Y-79069428D01*
X91698000Y-79140857D01*
X91721809Y-79164666D01*
X92174190Y-79640857D02*
X92174190Y-79355142D01*
X92174190Y-79498000D02*
X91674190Y-79498000D01*
X91745619Y-79450380D01*
X91793238Y-79402761D01*
X91817047Y-79355142D01*
X85228952Y-79275809D02*
X85228952Y-79775809D01*
X85348000Y-79775809D01*
X85419428Y-79752000D01*
X85467047Y-79704380D01*
X85490857Y-79656761D01*
X85514666Y-79561523D01*
X85514666Y-79490095D01*
X85490857Y-79394857D01*
X85467047Y-79347238D01*
X85419428Y-79299619D01*
X85348000Y-79275809D01*
X85228952Y-79275809D01*
X85990857Y-79275809D02*
X85705142Y-79275809D01*
X85848000Y-79275809D02*
X85848000Y-79775809D01*
X85800380Y-79704380D01*
X85752761Y-79656761D01*
X85705142Y-79632952D01*
X109913194Y-83887343D02*
X109946866Y-83887343D01*
X110014209Y-83853671D01*
X110047881Y-83820000D01*
X110081553Y-83752656D01*
X110081553Y-83685312D01*
X110064717Y-83634805D01*
X110014209Y-83550625D01*
X109963702Y-83500118D01*
X109879522Y-83449610D01*
X109829015Y-83432774D01*
X109761671Y-83432774D01*
X109694328Y-83466446D01*
X109660656Y-83500118D01*
X109626984Y-83567461D01*
X109626984Y-83601133D01*
X109778507Y-84089374D02*
X109711164Y-84156717D01*
X109660656Y-84173553D01*
X109626984Y-84173553D01*
X109542805Y-84156717D01*
X109458625Y-84106209D01*
X109323938Y-83971522D01*
X109307103Y-83921015D01*
X109307103Y-83887343D01*
X109323938Y-83836835D01*
X109391282Y-83769492D01*
X109441790Y-83752656D01*
X109475461Y-83752656D01*
X109525969Y-83769492D01*
X109610148Y-83853671D01*
X109626984Y-83904179D01*
X109626984Y-83937851D01*
X109610148Y-83988358D01*
X109542805Y-84055702D01*
X109492297Y-84072538D01*
X109458625Y-84072538D01*
X109408118Y-84055702D01*
X100456952Y-82276190D02*
X100456952Y-82680952D01*
X100433142Y-82728571D01*
X100409333Y-82752380D01*
X100361714Y-82776190D01*
X100266476Y-82776190D01*
X100218857Y-82752380D01*
X100195047Y-82728571D01*
X100171238Y-82680952D01*
X100171238Y-82276190D01*
X99671238Y-82776190D02*
X99956952Y-82776190D01*
X99814095Y-82776190D02*
X99814095Y-82276190D01*
X99861714Y-82347619D01*
X99909333Y-82395238D01*
X99956952Y-82419047D01*
X105842571Y-79672666D02*
X105866380Y-79648857D01*
X105890190Y-79577428D01*
X105890190Y-79529809D01*
X105866380Y-79458380D01*
X105818761Y-79410761D01*
X105771142Y-79386952D01*
X105675904Y-79363142D01*
X105604476Y-79363142D01*
X105509238Y-79386952D01*
X105461619Y-79410761D01*
X105414000Y-79458380D01*
X105390190Y-79529809D01*
X105390190Y-79577428D01*
X105414000Y-79648857D01*
X105437809Y-79672666D01*
X105556857Y-80101238D02*
X105890190Y-80101238D01*
X105366380Y-79982190D02*
X105723523Y-79863142D01*
X105723523Y-80172666D01*
D11*
X124676000Y-82943700D02*
G75*
G03*
X124676000Y-82943700I-381000J0D01*
G01*
X129259000Y-82068936D02*
X129259000Y-82523064D01*
X127789000Y-82068936D02*
X127789000Y-82523064D01*
X133831000Y-82068936D02*
X133831000Y-82523064D01*
X132361000Y-82068936D02*
X132361000Y-82523064D01*
X93801000Y-78986748D02*
X93801000Y-79509252D01*
X92331000Y-78986748D02*
X92331000Y-79509252D01*
X84948000Y-75910000D02*
X86948000Y-75910000D01*
X86248000Y-79030000D02*
X84948000Y-79030000D01*
X109046990Y-83508457D02*
X109416457Y-83138990D01*
X108007543Y-82469010D02*
X108377010Y-82099543D01*
X96804000Y-75330000D02*
X100564000Y-75330000D01*
X94554000Y-82150000D02*
X100564000Y-82150000D01*
X100564000Y-82150000D02*
X100564000Y-80890000D01*
X100564000Y-75330000D02*
X100564000Y-76590000D01*
X104977000Y-79494748D02*
X104977000Y-80017252D01*
X103507000Y-79494748D02*
X103507000Y-80017252D01*
%LPC*%
D12*
X132080000Y-87630000D03*
D13*
X129540000Y-87630000D03*
X127000000Y-87630000D03*
X124460000Y-87630000D03*
X121920000Y-87630000D03*
X119380000Y-87630000D03*
X116840000Y-87630000D03*
X114300000Y-87630000D03*
X111760000Y-87630000D03*
X109220000Y-87630000D03*
X106680000Y-87630000D03*
X104140000Y-87630000D03*
X101600000Y-87630000D03*
X99060000Y-87630000D03*
X96520000Y-87630000D03*
D14*
X92202000Y-82296000D03*
D12*
X96520000Y-69850000D03*
D13*
X99060000Y-69850000D03*
X101600000Y-69850000D03*
X104140000Y-69850000D03*
X106680000Y-69850000D03*
X109220000Y-69850000D03*
X111760000Y-69850000D03*
X114300000Y-69850000D03*
X116840000Y-69850000D03*
X119380000Y-69850000D03*
X121920000Y-69850000D03*
X124460000Y-69850000D03*
X127000000Y-69850000D03*
X129540000Y-69850000D03*
X132080000Y-69850000D03*
D14*
X92964000Y-71628000D03*
X97790000Y-74295000D03*
D12*
X130725015Y-76200000D03*
D13*
X130725015Y-78740000D03*
X130725015Y-81280000D03*
D15*
X89750917Y-75471000D03*
X89750917Y-76321000D03*
X89750917Y-77171000D03*
X89750917Y-78021000D03*
X89750917Y-78871000D03*
X89750917Y-79721000D03*
X89750917Y-80571000D03*
X89750917Y-81421000D03*
X88400917Y-81421000D03*
X88400917Y-80571000D03*
X88400917Y-79721000D03*
X88400917Y-78871000D03*
X88400917Y-78021000D03*
X88400917Y-77171000D03*
X88400917Y-76321000D03*
X88400917Y-75471000D03*
D16*
X88770917Y-74121000D03*
X88770917Y-82771000D03*
X85390917Y-82771000D03*
X85390917Y-74121000D03*
D17*
X94437540Y-74175725D03*
X91160940Y-74175725D03*
D18*
X128524000Y-81296000D03*
X128524000Y-83296000D03*
X133096000Y-81296000D03*
X133096000Y-83296000D03*
D19*
X93066000Y-78210500D03*
X93066000Y-80285500D03*
D20*
X86598000Y-76720000D03*
D21*
X86598000Y-78420000D03*
X84598000Y-78420000D03*
X84598000Y-76520000D03*
D22*
X107978377Y-83537623D03*
X109445623Y-82070377D03*
D23*
X95504000Y-81040000D03*
X95504000Y-78740000D03*
D24*
X101804000Y-78740000D03*
D23*
X95504000Y-76440000D03*
D19*
X104242000Y-78718500D03*
X104242000Y-80793500D03*
M02*
