G04 #@! TF.GenerationSoftware,KiCad,Pcbnew,(6.0.9)*
G04 #@! TF.CreationDate,2023-02-20T10:33:00+01:00*
G04 #@! TF.ProjectId,FLWSB-SAMDaaNo21,464c5753-422d-4534-914d-4461614e6f32,1.0*
G04 #@! TF.SameCoordinates,Original*
G04 #@! TF.FileFunction,Copper,L1,Top*
G04 #@! TF.FilePolarity,Positive*
%FSLAX46Y46*%
G04 Gerber Fmt 4.6, Leading zero omitted, Abs format (unit mm)*
G04 Created by KiCad (PCBNEW (6.0.9)) date 2023-02-20 10:33:00*
%MOMM*%
%LPD*%
G01*
G04 APERTURE LIST*
G04 Aperture macros list*
%AMRoundRect*
0 Rectangle with rounded corners*
0 $1 Rounding radius*
0 $2 $3 $4 $5 $6 $7 $8 $9 X,Y pos of 4 corners*
0 Add a 4 corners polygon primitive as box body*
4,1,4,$2,$3,$4,$5,$6,$7,$8,$9,$2,$3,0*
0 Add four circle primitives for the rounded corners*
1,1,$1+$1,$2,$3*
1,1,$1+$1,$4,$5*
1,1,$1+$1,$6,$7*
1,1,$1+$1,$8,$9*
0 Add four rect primitives between the rounded corners*
20,1,$1+$1,$2,$3,$4,$5,0*
20,1,$1+$1,$4,$5,$6,$7,0*
20,1,$1+$1,$6,$7,$8,$9,0*
20,1,$1+$1,$8,$9,$2,$3,0*%
%AMRotRect*
0 Rectangle, with rotation*
0 The origin of the aperture is its center*
0 $1 length*
0 $2 width*
0 $3 Rotation angle, in degrees counterclockwise*
0 Add horizontal line*
21,1,$1,$2,0,0,$3*%
G04 Aperture macros list end*
G04 #@! TA.AperFunction,SMDPad,CuDef*
%ADD10RoundRect,0.250000X-0.337500X-0.475000X0.337500X-0.475000X0.337500X0.475000X-0.337500X0.475000X0*%
G04 #@! TD*
G04 #@! TA.AperFunction,SMDPad,CuDef*
%ADD11R,1.000000X1.000000*%
G04 #@! TD*
G04 #@! TA.AperFunction,SMDPad,CuDef*
%ADD12R,2.200000X1.050000*%
G04 #@! TD*
G04 #@! TA.AperFunction,SMDPad,CuDef*
%ADD13R,0.990600X0.889000*%
G04 #@! TD*
G04 #@! TA.AperFunction,ComponentPad*
%ADD14R,1.700000X1.700000*%
G04 #@! TD*
G04 #@! TA.AperFunction,ComponentPad*
%ADD15O,1.700000X1.700000*%
G04 #@! TD*
G04 #@! TA.AperFunction,SMDPad,CuDef*
%ADD16RoundRect,0.250000X-0.325000X-0.450000X0.325000X-0.450000X0.325000X0.450000X-0.325000X0.450000X0*%
G04 #@! TD*
G04 #@! TA.AperFunction,SMDPad,CuDef*
%ADD17RoundRect,0.250000X-0.450000X0.350000X-0.450000X-0.350000X0.450000X-0.350000X0.450000X0.350000X0*%
G04 #@! TD*
G04 #@! TA.AperFunction,SMDPad,CuDef*
%ADD18RoundRect,0.250000X0.475000X-0.337500X0.475000X0.337500X-0.475000X0.337500X-0.475000X-0.337500X0*%
G04 #@! TD*
G04 #@! TA.AperFunction,SMDPad,CuDef*
%ADD19R,1.016000X1.524000*%
G04 #@! TD*
G04 #@! TA.AperFunction,SMDPad,CuDef*
%ADD20R,1.524000X1.016000*%
G04 #@! TD*
G04 #@! TA.AperFunction,SMDPad,CuDef*
%ADD21RoundRect,0.250000X0.450000X-0.350000X0.450000X0.350000X-0.450000X0.350000X-0.450000X-0.350000X0*%
G04 #@! TD*
G04 #@! TA.AperFunction,ComponentPad*
%ADD22R,1.000000X1.000000*%
G04 #@! TD*
G04 #@! TA.AperFunction,SMDPad,CuDef*
%ADD23R,0.900000X1.000000*%
G04 #@! TD*
G04 #@! TA.AperFunction,SMDPad,CuDef*
%ADD24RoundRect,0.250000X0.450000X-0.325000X0.450000X0.325000X-0.450000X0.325000X-0.450000X-0.325000X0*%
G04 #@! TD*
G04 #@! TA.AperFunction,SMDPad,CuDef*
%ADD25RoundRect,0.075000X-0.415425X-0.521491X0.521491X0.415425X0.415425X0.521491X-0.521491X-0.415425X0*%
G04 #@! TD*
G04 #@! TA.AperFunction,SMDPad,CuDef*
%ADD26RoundRect,0.075000X0.415425X-0.521491X0.521491X-0.415425X-0.415425X0.521491X-0.521491X0.415425X0*%
G04 #@! TD*
G04 #@! TA.AperFunction,SMDPad,CuDef*
%ADD27RoundRect,0.250000X0.337500X0.475000X-0.337500X0.475000X-0.337500X-0.475000X0.337500X-0.475000X0*%
G04 #@! TD*
G04 #@! TA.AperFunction,SMDPad,CuDef*
%ADD28RotRect,1.000000X1.800000X315.000000*%
G04 #@! TD*
G04 #@! TA.AperFunction,ComponentPad*
%ADD29C,0.650000*%
G04 #@! TD*
G04 #@! TA.AperFunction,ComponentPad*
%ADD30O,2.216000X1.108000*%
G04 #@! TD*
G04 #@! TA.AperFunction,SMDPad,CuDef*
%ADD31RoundRect,0.250000X-0.350000X-0.450000X0.350000X-0.450000X0.350000X0.450000X-0.350000X0.450000X0*%
G04 #@! TD*
G04 #@! TA.AperFunction,ViaPad*
%ADD32C,0.800000*%
G04 #@! TD*
G04 #@! TA.AperFunction,Conductor*
%ADD33C,0.250000*%
G04 #@! TD*
G04 #@! TA.AperFunction,Conductor*
%ADD34C,0.200000*%
G04 #@! TD*
G04 APERTURE END LIST*
D10*
X102960074Y-76339145D03*
X105035074Y-76339145D03*
D11*
X164749311Y-78725000D03*
D12*
X166249311Y-80200000D03*
X166249311Y-77250000D03*
D11*
X167749311Y-78725000D03*
D13*
X124294999Y-80789998D03*
X124294999Y-76690002D03*
X125895001Y-80789998D03*
X125895001Y-76690002D03*
D14*
X132080000Y-87630000D03*
D15*
X129540000Y-87630000D03*
X127000000Y-87630000D03*
X124460000Y-87630000D03*
X121920000Y-87630000D03*
X119380000Y-87630000D03*
X116840000Y-87630000D03*
X114300000Y-87630000D03*
X111760000Y-87630000D03*
X109220000Y-87630000D03*
X106680000Y-87630000D03*
X104140000Y-87630000D03*
X101600000Y-87630000D03*
X99060000Y-87630000D03*
X96520000Y-87630000D03*
D16*
X164837000Y-72644000D03*
X166887000Y-72644000D03*
D17*
X133599141Y-79736329D03*
X133599141Y-81736329D03*
D18*
X127847800Y-82317500D03*
X127847800Y-80242500D03*
D19*
X137083000Y-87625000D03*
X138353000Y-87625000D03*
X139623000Y-87625000D03*
X140893000Y-87625000D03*
X142163000Y-87625000D03*
X143433000Y-87625000D03*
X144703000Y-87625000D03*
X145973000Y-87625000D03*
X147243000Y-87625000D03*
X148513000Y-87625000D03*
X149783000Y-87625000D03*
X151053000Y-87625000D03*
X152323000Y-87625000D03*
X153593000Y-87625000D03*
X154863000Y-87625000D03*
X156133000Y-87625000D03*
X157403000Y-87625000D03*
X158673000Y-87625000D03*
X159943000Y-87625000D03*
X161213000Y-87625000D03*
D20*
X162483000Y-82525000D03*
X162483000Y-81255000D03*
X162483000Y-79985000D03*
X162483000Y-78715000D03*
X162483000Y-77445000D03*
X162483000Y-76175000D03*
X162483000Y-74905000D03*
D19*
X161213000Y-69825000D03*
X159943000Y-69825000D03*
X158673000Y-69825000D03*
X157403000Y-69825000D03*
X156133000Y-69825000D03*
X154863000Y-69825000D03*
X153593000Y-69825000D03*
X152323000Y-69825000D03*
X151053000Y-69825000D03*
X149783000Y-69825000D03*
X148513000Y-69825000D03*
X147243000Y-69825000D03*
X145973000Y-69825000D03*
X144703000Y-69825000D03*
X143433000Y-69825000D03*
X142163000Y-69825000D03*
X140893000Y-69825000D03*
X139623000Y-69825000D03*
X138353000Y-69825000D03*
X137083000Y-69825000D03*
D17*
X127847800Y-75200000D03*
X127847800Y-77200000D03*
D21*
X133597705Y-77979754D03*
X133597705Y-75979754D03*
D22*
X92202000Y-82296000D03*
D23*
X99860509Y-74251432D03*
X101560509Y-74251432D03*
D14*
X96520000Y-69850000D03*
D15*
X99060000Y-69850000D03*
X101600000Y-69850000D03*
X104140000Y-69850000D03*
X106680000Y-69850000D03*
X109220000Y-69850000D03*
X111760000Y-69850000D03*
X114300000Y-69850000D03*
X116840000Y-69850000D03*
X119380000Y-69850000D03*
X121920000Y-69850000D03*
X124460000Y-69850000D03*
X127000000Y-69850000D03*
X129540000Y-69850000D03*
X132080000Y-69850000D03*
D22*
X92964000Y-71628000D03*
D18*
X101092000Y-78275000D03*
X101092000Y-76200000D03*
X99060000Y-78275000D03*
X99060000Y-76200000D03*
D24*
X87630000Y-87385000D03*
X87630000Y-85335000D03*
D10*
X116818500Y-82804000D03*
X118893500Y-82804000D03*
D22*
X97790000Y-74295000D03*
D25*
X106872124Y-79738788D03*
X107225678Y-80092342D03*
X107579231Y-80445895D03*
X107932785Y-80799449D03*
X108286338Y-81153002D03*
X108639891Y-81506555D03*
X108993445Y-81860109D03*
X109346998Y-82213662D03*
X109700551Y-82567215D03*
X110054105Y-82920769D03*
X110407658Y-83274322D03*
X110761212Y-83627876D03*
D26*
X112758788Y-83627876D03*
X113112342Y-83274322D03*
X113465895Y-82920769D03*
X113819449Y-82567215D03*
X114173002Y-82213662D03*
X114526555Y-81860109D03*
X114880109Y-81506555D03*
X115233662Y-81153002D03*
X115587215Y-80799449D03*
X115940769Y-80445895D03*
X116294322Y-80092342D03*
X116647876Y-79738788D03*
D25*
X116647876Y-77741212D03*
X116294322Y-77387658D03*
X115940769Y-77034105D03*
X115587215Y-76680551D03*
X115233662Y-76326998D03*
X114880109Y-75973445D03*
X114526555Y-75619891D03*
X114173002Y-75266338D03*
X113819449Y-74912785D03*
X113465895Y-74559231D03*
X113112342Y-74205678D03*
X112758788Y-73852124D03*
D26*
X110761212Y-73852124D03*
X110407658Y-74205678D03*
X110054105Y-74559231D03*
X109700551Y-74912785D03*
X109346998Y-75266338D03*
X108993445Y-75619891D03*
X108639891Y-75973445D03*
X108286338Y-76326998D03*
X107932785Y-76680551D03*
X107579231Y-77034105D03*
X107225678Y-77387658D03*
X106872124Y-77741212D03*
D27*
X102752564Y-82190734D03*
X100677564Y-82190734D03*
X107209500Y-74168000D03*
X105134500Y-74168000D03*
D14*
X130725015Y-76200000D03*
D15*
X130725015Y-78740000D03*
X130725015Y-81280000D03*
D28*
X105181177Y-81088430D03*
X103413411Y-79320664D03*
D16*
X165091000Y-84836000D03*
X167141000Y-84836000D03*
D18*
X134620000Y-85619500D03*
X134620000Y-83544500D03*
D29*
X89750917Y-75471000D03*
X89750917Y-76321000D03*
X89750917Y-77171000D03*
X89750917Y-78021000D03*
X89750917Y-78871000D03*
X89750917Y-79721000D03*
X89750917Y-80571000D03*
X89750917Y-81421000D03*
X88400917Y-81421000D03*
X88400917Y-80571000D03*
X88400917Y-79721000D03*
X88400917Y-78871000D03*
X88400917Y-78021000D03*
X88400917Y-77171000D03*
X88400917Y-76321000D03*
X88400917Y-75471000D03*
D30*
X88770917Y-74121000D03*
X88770917Y-82771000D03*
X85390917Y-82771000D03*
X85390917Y-74121000D03*
D27*
X101159739Y-80171673D03*
X99084739Y-80171673D03*
D21*
X89662000Y-87360000D03*
X89662000Y-85360000D03*
D31*
X164862000Y-70612000D03*
X166862000Y-70612000D03*
X165100000Y-86868000D03*
X167100000Y-86868000D03*
D32*
X113512152Y-79276413D03*
X126492000Y-82169000D03*
X97536000Y-80772000D03*
X110236000Y-77216000D03*
X109100320Y-79808143D03*
X111765373Y-75122979D03*
X96520000Y-82804000D03*
X134874000Y-69850000D03*
X106834093Y-82958093D03*
X105156000Y-72935500D03*
X122931700Y-83316300D03*
X160274000Y-78740000D03*
X134620000Y-87630000D03*
X125222000Y-74422000D03*
X106612940Y-75759060D03*
X135189916Y-78773524D03*
X107994420Y-78509246D03*
X92202000Y-84836000D03*
X150876000Y-85598000D03*
X110270070Y-81245930D03*
X102671299Y-74731299D03*
X112388456Y-76821360D03*
X111677700Y-76118629D03*
X114357515Y-77978052D03*
X115368705Y-78989241D03*
X120523000Y-77940500D03*
X122428000Y-79502000D03*
X131572000Y-83058000D03*
X143256000Y-85090000D03*
X144526000Y-86106000D03*
X112268000Y-81788000D03*
X155956000Y-71882000D03*
D33*
X96520000Y-69850000D02*
X94742000Y-71628000D01*
X94742000Y-71628000D02*
X92964000Y-71628000D01*
X160330000Y-78796000D02*
X160274000Y-78740000D01*
X105134500Y-74168000D02*
X105156000Y-74146500D01*
X103596956Y-71846956D02*
X101600000Y-69850000D01*
X105156000Y-74146500D02*
X105156000Y-72935500D01*
X162483000Y-78796000D02*
X160330000Y-78796000D01*
X108286338Y-81153002D02*
X106834093Y-82605247D01*
X113512152Y-80845706D02*
X114526555Y-81860109D01*
X113112342Y-74205678D02*
X112195041Y-75122979D01*
X166274311Y-80375917D02*
X167749311Y-78900917D01*
X126492000Y-82169000D02*
X127699300Y-82169000D01*
X134620000Y-85619500D02*
X134620000Y-87630000D01*
X108286338Y-81153002D02*
X109100320Y-80339020D01*
X88400917Y-75471000D02*
X89750917Y-75471000D01*
X167724311Y-78900917D02*
X166249311Y-77425917D01*
X109100320Y-80339020D02*
X109100320Y-79808143D01*
X113512152Y-79276413D02*
X113512152Y-80845706D01*
X134930000Y-69906000D02*
X134874000Y-69850000D01*
X110236000Y-76897802D02*
X108993445Y-75655247D01*
X127699300Y-82169000D02*
X127847800Y-82317500D01*
X167749311Y-78900917D02*
X167724311Y-78900917D01*
X125222000Y-74422000D02*
X125222000Y-75763001D01*
X122838400Y-83223000D02*
X121363015Y-83223000D01*
X103596956Y-75702263D02*
X103596956Y-71846956D01*
X85390917Y-74121000D02*
X85390917Y-82771000D01*
X118893500Y-82804000D02*
X119312500Y-83223000D01*
X88770917Y-74121000D02*
X85390917Y-74121000D01*
X137083000Y-69906000D02*
X134930000Y-69906000D01*
X112195041Y-75122979D02*
X111765373Y-75122979D01*
X166249311Y-80375917D02*
X166274311Y-80375917D01*
X106834093Y-82605247D02*
X106834093Y-82958093D01*
X125222000Y-75763001D02*
X124294999Y-76690002D01*
X102960074Y-76339145D02*
X103596956Y-75702263D01*
X110236000Y-77216000D02*
X110236000Y-76897802D01*
X108993445Y-75655247D02*
X108993445Y-75619891D01*
X119312500Y-83223000D02*
X121363015Y-83223000D01*
X85390917Y-82771000D02*
X88770917Y-82771000D01*
X122931700Y-83316300D02*
X122838400Y-83223000D01*
X112045275Y-77546360D02*
X110268489Y-75769574D01*
X117845340Y-77215500D02*
X116398137Y-78662703D01*
X110268489Y-75480723D02*
X109700551Y-74912785D01*
X130725015Y-81280000D02*
X129709015Y-80264000D01*
X110268489Y-75769574D02*
X110268489Y-75480723D01*
X116066765Y-78662703D02*
X114620062Y-77216000D01*
X127323800Y-77724000D02*
X122474805Y-77724000D01*
X114620062Y-77216000D02*
X113019121Y-77216000D01*
X127847800Y-80242500D02*
X127847800Y-77200000D01*
X122474805Y-77724000D02*
X121966305Y-77215500D01*
X127869300Y-80264000D02*
X127847800Y-80242500D01*
X127847800Y-77200000D02*
X127323800Y-77724000D01*
X129709015Y-80264000D02*
X127869300Y-80264000D01*
X121966305Y-77215500D02*
X117845340Y-77215500D01*
X112688761Y-77546360D02*
X112045275Y-77546360D01*
X132654483Y-81280000D02*
X130725015Y-81280000D01*
X113019121Y-77216000D02*
X112688761Y-77546360D01*
X133110812Y-81736329D02*
X132654483Y-81280000D01*
X116398137Y-78662703D02*
X116066765Y-78662703D01*
X105035074Y-76339145D02*
X105615159Y-75759060D01*
X153593000Y-70918000D02*
X153593000Y-69906000D01*
X110910194Y-78915500D02*
X113787347Y-81792653D01*
X97790000Y-74930000D02*
X99060000Y-76200000D01*
X134566805Y-78773524D02*
X133604000Y-79736329D01*
X107718400Y-75759060D02*
X106612940Y-75759060D01*
X108286338Y-76326998D02*
X107718400Y-75759060D01*
X145737476Y-78773524D02*
X153593000Y-70918000D01*
X108400674Y-78915500D02*
X110910194Y-78915500D01*
X134620000Y-83820000D02*
X135189916Y-83250084D01*
X135189916Y-83250084D02*
X135189916Y-78773524D01*
X99060000Y-75051941D02*
X99860509Y-74251432D01*
X107994420Y-78509246D02*
X108400674Y-78915500D01*
X135189916Y-78773524D02*
X134391475Y-78773524D01*
X114763340Y-82804000D02*
X116818500Y-82804000D01*
X91678000Y-85360000D02*
X92202000Y-84836000D01*
X134391475Y-78773524D02*
X133597705Y-77979754D01*
X135189916Y-78773524D02*
X134566805Y-78773524D01*
X150876000Y-87448000D02*
X151053000Y-87625000D01*
X150876000Y-85598000D02*
X150876000Y-87448000D01*
X89662000Y-85360000D02*
X91678000Y-85360000D01*
X97790000Y-74295000D02*
X97790000Y-74930000D01*
X114173002Y-82213662D02*
X114763340Y-82804000D01*
X135189916Y-78773524D02*
X145737476Y-78773524D01*
X99060000Y-76200000D02*
X99060000Y-75051941D01*
X105615159Y-75759060D02*
X106612940Y-75759060D01*
X103413411Y-79320664D02*
X102562402Y-80171673D01*
X106872124Y-79738788D02*
X106454000Y-79320664D01*
X102562402Y-80171673D02*
X101159739Y-80171673D01*
X106454000Y-79320664D02*
X103413411Y-79320664D01*
X105181177Y-81088430D02*
X103823570Y-81088430D01*
X106229590Y-81088430D02*
X105181177Y-81088430D01*
X103823570Y-81088430D02*
X102752564Y-82159436D01*
X107225678Y-80092342D02*
X106229590Y-81088430D01*
X102752564Y-82159436D02*
X102752564Y-82190734D01*
X102671299Y-74731299D02*
X102040376Y-74731299D01*
X102040376Y-74731299D02*
X101560509Y-74251432D01*
X109574556Y-80938618D02*
X109207828Y-80938618D01*
X101560509Y-74251432D02*
X101560509Y-75731491D01*
X110270070Y-81245930D02*
X109881868Y-81245930D01*
X109881868Y-81245930D02*
X109574556Y-80938618D01*
X109207828Y-80938618D02*
X108639891Y-81506555D01*
X101560509Y-75731491D02*
X101092000Y-76200000D01*
X107209500Y-74543054D02*
X107209500Y-74168000D01*
X108639891Y-75973445D02*
X107209500Y-74543054D01*
X90340424Y-80571000D02*
X92065424Y-82296000D01*
X92065424Y-82296000D02*
X92202000Y-82296000D01*
X88400917Y-76321000D02*
X88271000Y-76321000D01*
X88400917Y-76321000D02*
X89750917Y-76321000D01*
X87376000Y-80010000D02*
X87376000Y-77216000D01*
X88400917Y-80571000D02*
X87937000Y-80571000D01*
X88271000Y-76321000D02*
X87376000Y-77216000D01*
X89750917Y-80571000D02*
X90340424Y-80571000D01*
X87937000Y-80571000D02*
X87376000Y-80010000D01*
D34*
X113819449Y-74912785D02*
X113784094Y-74912785D01*
X112596777Y-76100103D02*
X112596777Y-76613039D01*
X112596777Y-76613039D02*
X112388456Y-76821360D01*
X113784094Y-74912785D02*
X112596777Y-76100103D01*
X112278577Y-75781903D02*
X113465895Y-74594586D01*
X111677700Y-76118629D02*
X112014426Y-75781903D01*
X113465895Y-74594586D02*
X113465895Y-74559231D01*
X88434801Y-78871000D02*
X89284801Y-78021000D01*
X112014426Y-75781903D02*
X112278577Y-75781903D01*
X88400917Y-78871000D02*
X88434801Y-78871000D01*
X89284801Y-78021000D02*
X89750917Y-78021000D01*
D33*
X109267734Y-78015500D02*
X107932785Y-76680551D01*
X114357515Y-77978052D02*
X114320067Y-78015500D01*
X114320067Y-78015500D02*
X109267734Y-78015500D01*
X130945261Y-75979754D02*
X130725015Y-76200000D01*
X133109376Y-75979754D02*
X130945261Y-75979754D01*
X113724695Y-78465500D02*
X108975272Y-78465500D01*
X113999695Y-78740500D02*
X113724695Y-78465500D01*
X108975272Y-78465500D02*
X107710886Y-77201114D01*
X115119964Y-78740500D02*
X113999695Y-78740500D01*
X115368705Y-78989241D02*
X115119964Y-78740500D01*
X116840000Y-74720660D02*
X115233662Y-76326998D01*
X116840000Y-69850000D02*
X116840000Y-74720660D01*
X119380000Y-69850000D02*
X119380000Y-72887766D01*
X119380000Y-72887766D02*
X115587215Y-76680551D01*
X118724712Y-79738788D02*
X116647876Y-79738788D01*
X120523000Y-77940500D02*
X118724712Y-79738788D01*
X116897614Y-80695634D02*
X116294322Y-80092342D01*
X121234366Y-80695634D02*
X116897614Y-80695634D01*
X122428000Y-79502000D02*
X121234366Y-80695634D01*
X113819449Y-82567215D02*
X114506234Y-83254000D01*
X114506234Y-83254000D02*
X115301000Y-83254000D01*
X115301000Y-83254000D02*
X116332000Y-84285000D01*
X116332000Y-84285000D02*
X123655000Y-84285000D01*
X123655000Y-84285000D02*
X127000000Y-87630000D01*
X114046000Y-84836000D02*
X116840000Y-87630000D01*
X113284000Y-84836000D02*
X114046000Y-84836000D01*
X110761212Y-83627876D02*
X112075876Y-83627876D01*
X112075876Y-83627876D02*
X113284000Y-84836000D01*
X110407658Y-83274322D02*
X109839721Y-83842259D01*
X110466734Y-84836000D02*
X111506000Y-84836000D01*
X109839721Y-83842259D02*
X109839721Y-84208987D01*
X109839721Y-84208987D02*
X110466734Y-84836000D01*
X111506000Y-84836000D02*
X114300000Y-87630000D01*
X101600000Y-87167588D02*
X107487588Y-81280000D01*
X101600000Y-87630000D02*
X101600000Y-87167588D01*
X104784392Y-83240734D02*
X107579231Y-80445895D01*
X103449266Y-83240734D02*
X104784392Y-83240734D01*
X99060000Y-87630000D02*
X103449266Y-83240734D01*
X104665212Y-77741212D02*
X106872124Y-77741212D01*
X104046956Y-77122956D02*
X104665212Y-77741212D01*
X104046956Y-69943044D02*
X104046956Y-77122956D01*
X104140000Y-69850000D02*
X104046956Y-69943044D01*
X116332000Y-71882000D02*
X116332000Y-74521554D01*
X114300000Y-69850000D02*
X116332000Y-71882000D01*
X116332000Y-74521554D02*
X114880109Y-75973445D01*
X108993445Y-81860109D02*
X104140000Y-86713554D01*
X104140000Y-86713554D02*
X104140000Y-87630000D01*
X109346998Y-82213662D02*
X106680000Y-84880660D01*
X106680000Y-84880660D02*
X106680000Y-87630000D01*
X124460000Y-69850000D02*
X123796624Y-69850000D01*
X123796624Y-69850000D02*
X116294322Y-77352302D01*
X116294322Y-77352302D02*
X116294322Y-77387658D01*
X117681088Y-76708000D02*
X120142000Y-76708000D01*
X120142000Y-76708000D02*
X127000000Y-69850000D01*
X116647876Y-77741212D02*
X117681088Y-76708000D01*
X121920000Y-71090228D02*
X116317114Y-76693114D01*
X121920000Y-69850000D02*
X121920000Y-71090228D01*
X125604396Y-83820000D02*
X130810000Y-83820000D01*
X131572000Y-83058000D02*
X132080000Y-83566000D01*
X132080000Y-83566000D02*
X132080000Y-87630000D01*
X122930030Y-81145634D02*
X125604396Y-83820000D01*
X115940769Y-80445895D02*
X116640508Y-81145634D01*
X116640508Y-81145634D02*
X122930030Y-81145634D01*
X130810000Y-83820000D02*
X131572000Y-83058000D01*
X116383400Y-81595634D02*
X122743634Y-81595634D01*
X122743634Y-81595634D02*
X128778000Y-87630000D01*
X115587215Y-80799449D02*
X116383400Y-81595634D01*
X128778000Y-87630000D02*
X129540000Y-87630000D01*
X114776294Y-73997661D02*
X114776294Y-74663046D01*
X114776294Y-74663046D02*
X114173002Y-75266338D01*
X109220000Y-69850000D02*
X112300633Y-72930633D01*
X112300633Y-72930633D02*
X113709266Y-72930633D01*
X113709266Y-72930633D02*
X114776294Y-73997661D01*
X115316000Y-74830446D02*
X114526555Y-75619891D01*
X111760000Y-69850000D02*
X115316000Y-73406000D01*
X115316000Y-73406000D02*
X115316000Y-74830446D01*
X119025000Y-84735000D02*
X121920000Y-87630000D01*
X147066000Y-81280000D02*
X143256000Y-85090000D01*
X115851396Y-84735000D02*
X119025000Y-84735000D01*
X113112342Y-83274322D02*
X113774020Y-83936000D01*
X152400000Y-81280000D02*
X147066000Y-81280000D01*
X164862000Y-70612000D02*
X163068000Y-70612000D01*
X115052396Y-83936000D02*
X115851396Y-84735000D01*
X143256000Y-85090000D02*
X143433000Y-85267000D01*
X113774020Y-83936000D02*
X115052396Y-83936000D01*
X143433000Y-85267000D02*
X143433000Y-87625000D01*
X163068000Y-70612000D02*
X152400000Y-81280000D01*
X113516912Y-84386000D02*
X114866000Y-84386000D01*
X147066000Y-83566000D02*
X144526000Y-86106000D01*
X112758788Y-83627876D02*
X113516912Y-84386000D01*
X114866000Y-84386000D02*
X115665000Y-85185000D01*
X115665000Y-85185000D02*
X116935000Y-85185000D01*
X144526000Y-87448000D02*
X144703000Y-87625000D01*
X116935000Y-85185000D02*
X119380000Y-87630000D01*
X163830000Y-86868000D02*
X160528000Y-83566000D01*
X160528000Y-83566000D02*
X147066000Y-83566000D01*
X144526000Y-86106000D02*
X144526000Y-87448000D01*
X165100000Y-86868000D02*
X163830000Y-86868000D01*
X109389721Y-83585153D02*
X109389721Y-85259721D01*
X110054105Y-82920769D02*
X109389721Y-83585153D01*
X109389721Y-85259721D02*
X111760000Y-87630000D01*
X108939721Y-83328045D02*
X108939721Y-87349721D01*
X108939721Y-87349721D02*
X109220000Y-87630000D01*
X109700551Y-82567215D02*
X108939721Y-83328045D01*
X125895001Y-76690002D02*
X127385003Y-75200000D01*
X127385003Y-75200000D02*
X127847800Y-75200000D01*
X106759088Y-69850000D02*
X106680000Y-69850000D01*
X110761212Y-73852124D02*
X106759088Y-69850000D01*
X155956000Y-70083000D02*
X156133000Y-69906000D01*
X113465895Y-82920769D02*
X112333126Y-81788000D01*
X112333126Y-81788000D02*
X112268000Y-81788000D01*
X155956000Y-71882000D02*
X155956000Y-70083000D01*
X164749311Y-78900917D02*
X163584228Y-80066000D01*
X163584228Y-80066000D02*
X162483000Y-80066000D01*
X87630000Y-85335000D02*
X87637000Y-85335000D01*
X87637000Y-85335000D02*
X89662000Y-87360000D01*
X167141000Y-86827000D02*
X167100000Y-86868000D01*
X167141000Y-84836000D02*
X167141000Y-86827000D01*
X166862000Y-72619000D02*
X166887000Y-72644000D01*
X166862000Y-70612000D02*
X166862000Y-72619000D01*
G04 #@! TA.AperFunction,Conductor*
G36*
X95119836Y-68735609D02*
G01*
X95166329Y-68789265D01*
X95176433Y-68859539D01*
X95172592Y-68874537D01*
X95172856Y-68874600D01*
X95171029Y-68882284D01*
X95168255Y-68889684D01*
X95161500Y-68951866D01*
X95161500Y-70260405D01*
X95141498Y-70328526D01*
X95124595Y-70349500D01*
X94516500Y-70957595D01*
X94454188Y-70991621D01*
X94427405Y-70994500D01*
X94044382Y-70994500D01*
X93976261Y-70974498D01*
X93929768Y-70920842D01*
X93926401Y-70912731D01*
X93917769Y-70889707D01*
X93917767Y-70889703D01*
X93914615Y-70881295D01*
X93827261Y-70764739D01*
X93710705Y-70677385D01*
X93574316Y-70626255D01*
X93512134Y-70619500D01*
X92415866Y-70619500D01*
X92353684Y-70626255D01*
X92217295Y-70677385D01*
X92100739Y-70764739D01*
X92013385Y-70881295D01*
X91962255Y-71017684D01*
X91955500Y-71079866D01*
X91955500Y-72176134D01*
X91962255Y-72238316D01*
X92013385Y-72374705D01*
X92100739Y-72491261D01*
X92217295Y-72578615D01*
X92353684Y-72629745D01*
X92415866Y-72636500D01*
X93512134Y-72636500D01*
X93574316Y-72629745D01*
X93710705Y-72578615D01*
X93827261Y-72491261D01*
X93914615Y-72374705D01*
X93917769Y-72366293D01*
X93926401Y-72343269D01*
X93969043Y-72286505D01*
X94035605Y-72261806D01*
X94044382Y-72261500D01*
X94663233Y-72261500D01*
X94674416Y-72262027D01*
X94681909Y-72263702D01*
X94689835Y-72263453D01*
X94689836Y-72263453D01*
X94749986Y-72261562D01*
X94753945Y-72261500D01*
X94781856Y-72261500D01*
X94785791Y-72261003D01*
X94785856Y-72260995D01*
X94797693Y-72260062D01*
X94829951Y-72259048D01*
X94833970Y-72258922D01*
X94841889Y-72258673D01*
X94861343Y-72253021D01*
X94880700Y-72249013D01*
X94892930Y-72247468D01*
X94892931Y-72247468D01*
X94900797Y-72246474D01*
X94908168Y-72243555D01*
X94908170Y-72243555D01*
X94941912Y-72230196D01*
X94953142Y-72226351D01*
X94987983Y-72216229D01*
X94987984Y-72216229D01*
X94995593Y-72214018D01*
X95002412Y-72209985D01*
X95002417Y-72209983D01*
X95013028Y-72203707D01*
X95030776Y-72195012D01*
X95049617Y-72187552D01*
X95085387Y-72161564D01*
X95095307Y-72155048D01*
X95126535Y-72136580D01*
X95126538Y-72136578D01*
X95133362Y-72132542D01*
X95147683Y-72118221D01*
X95162717Y-72105380D01*
X95172694Y-72098131D01*
X95179107Y-72093472D01*
X95207298Y-72059395D01*
X95215288Y-72050616D01*
X96020499Y-71245405D01*
X96082811Y-71211379D01*
X96109594Y-71208500D01*
X97418134Y-71208500D01*
X97480316Y-71201745D01*
X97616705Y-71150615D01*
X97733261Y-71063261D01*
X97820615Y-70946705D01*
X97842799Y-70887529D01*
X97864598Y-70829382D01*
X97907240Y-70772618D01*
X97973802Y-70747918D01*
X98043150Y-70763126D01*
X98077817Y-70791114D01*
X98106250Y-70823938D01*
X98278126Y-70966632D01*
X98471000Y-71079338D01*
X98475825Y-71081180D01*
X98475826Y-71081181D01*
X98513324Y-71095500D01*
X98679692Y-71159030D01*
X98684760Y-71160061D01*
X98684763Y-71160062D01*
X98766311Y-71176653D01*
X98898597Y-71203567D01*
X98903772Y-71203757D01*
X98903774Y-71203757D01*
X99116673Y-71211564D01*
X99116677Y-71211564D01*
X99121837Y-71211753D01*
X99126957Y-71211097D01*
X99126959Y-71211097D01*
X99338288Y-71184025D01*
X99338289Y-71184025D01*
X99343416Y-71183368D01*
X99348369Y-71181882D01*
X99552429Y-71120661D01*
X99552434Y-71120659D01*
X99557384Y-71119174D01*
X99757994Y-71020896D01*
X99939860Y-70891173D01*
X100006211Y-70825054D01*
X100059531Y-70771919D01*
X100098096Y-70733489D01*
X100129812Y-70689352D01*
X100228453Y-70552077D01*
X100229640Y-70552930D01*
X100276960Y-70509362D01*
X100346897Y-70497145D01*
X100412338Y-70524678D01*
X100440166Y-70556511D01*
X100497694Y-70650388D01*
X100503777Y-70658699D01*
X100643213Y-70819667D01*
X100650580Y-70826883D01*
X100814434Y-70962916D01*
X100822881Y-70968831D01*
X101006756Y-71076279D01*
X101016042Y-71080729D01*
X101215001Y-71156703D01*
X101224899Y-71159579D01*
X101328250Y-71180606D01*
X101342299Y-71179410D01*
X101346000Y-71169065D01*
X101346000Y-69722000D01*
X101366002Y-69653879D01*
X101419658Y-69607386D01*
X101472000Y-69596000D01*
X101728000Y-69596000D01*
X101796121Y-69616002D01*
X101842614Y-69669658D01*
X101854000Y-69722000D01*
X101854000Y-71168517D01*
X101858064Y-71182359D01*
X101871478Y-71184393D01*
X101878184Y-71183534D01*
X101888262Y-71181392D01*
X102092255Y-71120191D01*
X102101842Y-71116433D01*
X102293095Y-71022739D01*
X102301945Y-71017464D01*
X102475328Y-70893792D01*
X102483200Y-70887139D01*
X102634052Y-70736812D01*
X102640730Y-70728965D01*
X102768022Y-70551819D01*
X102769279Y-70552722D01*
X102816373Y-70509362D01*
X102886311Y-70497145D01*
X102951751Y-70524678D01*
X102979579Y-70556511D01*
X103039987Y-70655088D01*
X103186250Y-70823938D01*
X103267235Y-70891173D01*
X103329329Y-70942724D01*
X103358126Y-70966632D01*
X103360227Y-70967860D01*
X103404057Y-71022697D01*
X103413456Y-71070449D01*
X103413456Y-73900251D01*
X103393454Y-73968372D01*
X103339798Y-74014865D01*
X103269524Y-74024969D01*
X103213395Y-74002187D01*
X103133393Y-73944062D01*
X103133392Y-73944061D01*
X103128051Y-73940181D01*
X103122023Y-73937497D01*
X103122021Y-73937496D01*
X102959618Y-73865190D01*
X102959617Y-73865190D01*
X102953587Y-73862505D01*
X102854889Y-73841526D01*
X102773243Y-73824171D01*
X102773238Y-73824171D01*
X102766786Y-73822799D01*
X102644657Y-73822799D01*
X102576536Y-73802797D01*
X102530043Y-73749141D01*
X102519009Y-73704296D01*
X102519009Y-73703298D01*
X102512254Y-73641116D01*
X102461124Y-73504727D01*
X102373770Y-73388171D01*
X102257214Y-73300817D01*
X102120825Y-73249687D01*
X102058643Y-73242932D01*
X101062375Y-73242932D01*
X101000193Y-73249687D01*
X100863804Y-73300817D01*
X100856619Y-73306202D01*
X100856617Y-73306203D01*
X100786074Y-73359072D01*
X100719567Y-73383920D01*
X100650185Y-73368867D01*
X100634944Y-73359072D01*
X100564401Y-73306203D01*
X100564399Y-73306202D01*
X100557214Y-73300817D01*
X100420825Y-73249687D01*
X100358643Y-73242932D01*
X99362375Y-73242932D01*
X99300193Y-73249687D01*
X99163804Y-73300817D01*
X99047248Y-73388171D01*
X98959894Y-73504727D01*
X98956742Y-73513135D01*
X98956740Y-73513139D01*
X98956679Y-73513301D01*
X98956576Y-73513438D01*
X98952432Y-73521007D01*
X98951339Y-73520409D01*
X98914037Y-73570065D01*
X98847475Y-73594764D01*
X98778127Y-73579556D01*
X98737872Y-73544635D01*
X98658642Y-73438919D01*
X98653261Y-73431739D01*
X98536705Y-73344385D01*
X98400316Y-73293255D01*
X98338134Y-73286500D01*
X97241866Y-73286500D01*
X97179684Y-73293255D01*
X97043295Y-73344385D01*
X96926739Y-73431739D01*
X96839385Y-73548295D01*
X96788255Y-73684684D01*
X96781500Y-73746866D01*
X96781500Y-74843134D01*
X96788255Y-74905316D01*
X96839385Y-75041705D01*
X96926739Y-75158261D01*
X97043295Y-75245615D01*
X97179684Y-75296745D01*
X97210554Y-75300098D01*
X97225929Y-75301769D01*
X97291491Y-75329011D01*
X97314255Y-75352968D01*
X97324528Y-75367107D01*
X97330634Y-75372158D01*
X97358605Y-75395298D01*
X97367384Y-75403288D01*
X97789595Y-75825499D01*
X97823621Y-75887811D01*
X97826500Y-75914594D01*
X97826500Y-76587900D01*
X97826837Y-76591146D01*
X97826837Y-76591150D01*
X97836464Y-76683927D01*
X97837474Y-76693666D01*
X97839655Y-76700202D01*
X97839655Y-76700204D01*
X97878622Y-76817002D01*
X97893450Y-76861446D01*
X97986522Y-77011848D01*
X98111697Y-77136805D01*
X98116235Y-77139602D01*
X98156824Y-77196853D01*
X98160054Y-77267776D01*
X98124428Y-77329187D01*
X98115932Y-77336562D01*
X98105793Y-77344598D01*
X97991261Y-77459329D01*
X97982249Y-77470740D01*
X97897184Y-77608743D01*
X97891037Y-77621924D01*
X97839862Y-77776210D01*
X97836995Y-77789586D01*
X97827328Y-77883938D01*
X97827000Y-77890355D01*
X97827000Y-78002885D01*
X97831475Y-78018124D01*
X97832865Y-78019329D01*
X97840548Y-78021000D01*
X102306884Y-78021000D01*
X102322123Y-78016525D01*
X102323328Y-78015135D01*
X102324999Y-78007452D01*
X102324999Y-77890405D01*
X102324662Y-77883886D01*
X102314743Y-77788294D01*
X102311851Y-77774900D01*
X102292002Y-77715405D01*
X102289418Y-77644456D01*
X102325601Y-77583372D01*
X102389066Y-77551547D01*
X102451194Y-77555936D01*
X102461284Y-77559283D01*
X102474660Y-77562150D01*
X102569012Y-77571817D01*
X102575428Y-77572145D01*
X102687959Y-77572145D01*
X102703198Y-77567670D01*
X102704403Y-77566280D01*
X102706074Y-77558597D01*
X102706074Y-76211145D01*
X102726076Y-76143024D01*
X102779732Y-76096531D01*
X102832074Y-76085145D01*
X103088074Y-76085145D01*
X103156195Y-76105147D01*
X103202688Y-76158803D01*
X103214074Y-76211145D01*
X103214074Y-77554029D01*
X103218549Y-77569268D01*
X103219939Y-77570473D01*
X103227622Y-77572144D01*
X103344669Y-77572144D01*
X103351188Y-77571807D01*
X103446780Y-77561888D01*
X103460177Y-77558995D01*
X103479383Y-77552588D01*
X103550332Y-77550004D01*
X103599575Y-77575029D01*
X103615551Y-77588246D01*
X103624329Y-77596234D01*
X103648324Y-77620229D01*
X103682350Y-77682541D01*
X103677285Y-77753356D01*
X103634738Y-77810192D01*
X103577093Y-77834051D01*
X103572940Y-77834646D01*
X103552068Y-77837635D01*
X103543900Y-77841349D01*
X103543899Y-77841349D01*
X103517568Y-77853321D01*
X103419472Y-77897922D01*
X103413319Y-77902869D01*
X103413316Y-77902871D01*
X103407665Y-77907415D01*
X103370726Y-77937115D01*
X102539028Y-78768813D01*
X102476716Y-78802839D01*
X102405901Y-78797774D01*
X102349065Y-78755227D01*
X102324254Y-78688707D01*
X102324552Y-78669279D01*
X102324508Y-78669277D01*
X102324571Y-78668039D01*
X102324589Y-78666881D01*
X102324672Y-78666075D01*
X102325000Y-78659646D01*
X102325000Y-78547115D01*
X102320525Y-78531876D01*
X102319135Y-78530671D01*
X102311452Y-78529000D01*
X99332115Y-78529000D01*
X99316876Y-78533475D01*
X99315671Y-78534865D01*
X99314000Y-78542548D01*
X99314000Y-78880558D01*
X99327133Y-78925284D01*
X99333637Y-78935406D01*
X99338739Y-78970899D01*
X99338739Y-81386557D01*
X99343214Y-81401796D01*
X99344604Y-81403001D01*
X99352287Y-81404672D01*
X99471159Y-81404672D01*
X99539280Y-81424674D01*
X99585773Y-81478330D01*
X99595877Y-81548604D01*
X99594360Y-81557082D01*
X99592059Y-81567815D01*
X99582392Y-81662172D01*
X99582064Y-81668589D01*
X99582064Y-81918619D01*
X99586539Y-81933858D01*
X99587929Y-81935063D01*
X99595612Y-81936734D01*
X100805564Y-81936734D01*
X100873685Y-81956736D01*
X100920178Y-82010392D01*
X100931564Y-82062734D01*
X100931564Y-83405618D01*
X100936039Y-83420857D01*
X100937429Y-83422062D01*
X100945112Y-83423733D01*
X101062159Y-83423733D01*
X101068678Y-83423396D01*
X101164270Y-83413477D01*
X101177664Y-83410585D01*
X101331848Y-83359146D01*
X101345026Y-83352973D01*
X101482871Y-83267671D01*
X101494272Y-83258635D01*
X101608802Y-83143906D01*
X101615858Y-83134972D01*
X101673776Y-83093911D01*
X101744699Y-83090681D01*
X101806110Y-83126308D01*
X101812910Y-83134141D01*
X101816586Y-83140082D01*
X101821768Y-83145255D01*
X101850334Y-83173771D01*
X101941761Y-83265039D01*
X101947991Y-83268879D01*
X101947992Y-83268880D01*
X102085352Y-83353550D01*
X102092326Y-83357849D01*
X102156758Y-83379220D01*
X102215119Y-83419650D01*
X102242356Y-83485214D01*
X102229823Y-83555096D01*
X102206187Y-83587908D01*
X99517345Y-86276750D01*
X99455033Y-86310776D01*
X99406154Y-86311702D01*
X99193373Y-86273800D01*
X99193367Y-86273799D01*
X99188284Y-86272894D01*
X99114452Y-86271992D01*
X98970081Y-86270228D01*
X98970079Y-86270228D01*
X98964911Y-86270165D01*
X98744091Y-86303955D01*
X98531756Y-86373357D01*
X98458757Y-86411358D01*
X98357975Y-86463822D01*
X98333607Y-86476507D01*
X98329474Y-86479610D01*
X98329471Y-86479612D01*
X98193331Y-86581829D01*
X98154965Y-86610635D01*
X98129541Y-86637240D01*
X98061280Y-86708671D01*
X98000629Y-86772138D01*
X97997720Y-86776403D01*
X97997714Y-86776411D01*
X97973130Y-86812450D01*
X97893204Y-86929618D01*
X97892898Y-86930066D01*
X97837987Y-86975069D01*
X97767462Y-86983240D01*
X97703715Y-86951986D01*
X97683018Y-86927502D01*
X97602426Y-86802926D01*
X97596136Y-86794757D01*
X97452806Y-86637240D01*
X97445273Y-86630215D01*
X97278139Y-86498222D01*
X97269552Y-86492517D01*
X97083117Y-86389599D01*
X97073705Y-86385369D01*
X96872959Y-86314280D01*
X96862988Y-86311646D01*
X96791837Y-86298972D01*
X96778540Y-86300432D01*
X96774000Y-86314989D01*
X96774000Y-87758000D01*
X96753998Y-87826121D01*
X96700342Y-87872614D01*
X96648000Y-87884000D01*
X95203225Y-87884000D01*
X95189694Y-87887973D01*
X95188257Y-87897966D01*
X95218565Y-88032446D01*
X95221645Y-88042275D01*
X95301770Y-88239603D01*
X95306413Y-88248794D01*
X95417694Y-88430388D01*
X95423772Y-88438692D01*
X95503745Y-88531015D01*
X95533228Y-88595601D01*
X95523113Y-88665873D01*
X95476612Y-88719522D01*
X95408512Y-88739513D01*
X84604447Y-88739806D01*
X84585062Y-88738305D01*
X84561371Y-88734616D01*
X84552468Y-88735780D01*
X84552465Y-88735780D01*
X84552351Y-88735795D01*
X84521902Y-88736066D01*
X84459830Y-88729071D01*
X84432325Y-88722793D01*
X84355241Y-88695820D01*
X84329820Y-88683578D01*
X84311587Y-88672121D01*
X84260670Y-88640128D01*
X84238611Y-88622537D01*
X84180861Y-88564786D01*
X84163270Y-88542727D01*
X84119821Y-88473578D01*
X84107579Y-88448157D01*
X84080607Y-88371075D01*
X84074329Y-88343571D01*
X84068073Y-88288060D01*
X84067289Y-88272407D01*
X84067398Y-88263457D01*
X84068781Y-88254579D01*
X84066841Y-88239742D01*
X84064652Y-88223001D01*
X84063588Y-88206671D01*
X84063564Y-87757095D01*
X86422001Y-87757095D01*
X86422338Y-87763614D01*
X86432257Y-87859206D01*
X86435149Y-87872600D01*
X86486588Y-88026784D01*
X86492761Y-88039962D01*
X86578063Y-88177807D01*
X86587099Y-88189208D01*
X86701829Y-88303739D01*
X86713240Y-88312751D01*
X86851243Y-88397816D01*
X86864424Y-88403963D01*
X87018710Y-88455138D01*
X87032086Y-88458005D01*
X87126438Y-88467672D01*
X87132854Y-88468000D01*
X87357885Y-88468000D01*
X87373124Y-88463525D01*
X87374329Y-88462135D01*
X87376000Y-88454452D01*
X87376000Y-87657115D01*
X87371525Y-87641876D01*
X87370135Y-87640671D01*
X87362452Y-87639000D01*
X86440116Y-87639000D01*
X86424877Y-87643475D01*
X86423672Y-87644865D01*
X86422001Y-87652548D01*
X86422001Y-87757095D01*
X84063564Y-87757095D01*
X84063456Y-85710400D01*
X86421500Y-85710400D01*
X86421837Y-85713646D01*
X86421837Y-85713650D01*
X86431131Y-85803218D01*
X86432474Y-85816166D01*
X86434655Y-85822702D01*
X86434655Y-85822704D01*
X86449961Y-85868580D01*
X86488450Y-85983946D01*
X86581522Y-86134348D01*
X86706697Y-86259305D01*
X86711235Y-86262102D01*
X86751824Y-86319353D01*
X86755054Y-86390276D01*
X86719428Y-86451687D01*
X86710932Y-86459062D01*
X86700793Y-86467098D01*
X86586261Y-86581829D01*
X86577249Y-86593240D01*
X86492184Y-86731243D01*
X86486037Y-86744424D01*
X86434862Y-86898710D01*
X86431995Y-86912086D01*
X86422328Y-87006438D01*
X86422000Y-87012855D01*
X86422000Y-87112885D01*
X86426475Y-87128124D01*
X86427865Y-87129329D01*
X86435548Y-87131000D01*
X87758000Y-87131000D01*
X87826121Y-87151002D01*
X87872614Y-87204658D01*
X87884000Y-87257000D01*
X87884000Y-88449884D01*
X87888475Y-88465123D01*
X87889865Y-88466328D01*
X87897548Y-88467999D01*
X88127095Y-88467999D01*
X88133614Y-88467662D01*
X88229206Y-88457743D01*
X88242600Y-88454851D01*
X88396784Y-88403412D01*
X88409962Y-88397239D01*
X88547807Y-88311937D01*
X88564945Y-88298354D01*
X88566384Y-88300169D01*
X88618870Y-88271456D01*
X88689690Y-88276465D01*
X88727094Y-88300459D01*
X88727774Y-88299598D01*
X88733515Y-88304132D01*
X88738697Y-88309305D01*
X88813444Y-88355380D01*
X88882288Y-88397816D01*
X88889262Y-88402115D01*
X88969005Y-88428564D01*
X89050611Y-88455632D01*
X89050613Y-88455632D01*
X89057139Y-88457797D01*
X89063975Y-88458497D01*
X89063978Y-88458498D01*
X89107031Y-88462909D01*
X89161600Y-88468500D01*
X90162400Y-88468500D01*
X90165646Y-88468163D01*
X90165650Y-88468163D01*
X90261308Y-88458238D01*
X90261312Y-88458237D01*
X90268166Y-88457526D01*
X90274702Y-88455345D01*
X90274704Y-88455345D01*
X90406806Y-88411272D01*
X90435946Y-88401550D01*
X90586348Y-88308478D01*
X90711305Y-88183303D01*
X90777342Y-88076172D01*
X90800275Y-88038968D01*
X90800276Y-88038966D01*
X90804115Y-88032738D01*
X90853623Y-87883475D01*
X90857632Y-87871389D01*
X90857632Y-87871387D01*
X90859797Y-87864861D01*
X90870500Y-87760400D01*
X90870500Y-87364183D01*
X95184389Y-87364183D01*
X95185912Y-87372607D01*
X95198292Y-87376000D01*
X96247885Y-87376000D01*
X96263124Y-87371525D01*
X96264329Y-87370135D01*
X96266000Y-87362452D01*
X96266000Y-86313102D01*
X96262082Y-86299758D01*
X96247806Y-86297771D01*
X96209324Y-86303660D01*
X96199288Y-86306051D01*
X95996868Y-86372212D01*
X95987359Y-86376209D01*
X95798463Y-86474542D01*
X95789738Y-86480036D01*
X95619433Y-86607905D01*
X95611726Y-86614748D01*
X95464590Y-86768717D01*
X95458104Y-86776727D01*
X95338098Y-86952649D01*
X95333000Y-86961623D01*
X95243338Y-87154783D01*
X95239775Y-87164470D01*
X95184389Y-87364183D01*
X90870500Y-87364183D01*
X90870500Y-86959600D01*
X90865570Y-86912086D01*
X90860238Y-86860692D01*
X90860237Y-86860688D01*
X90859526Y-86853834D01*
X90843446Y-86805635D01*
X90805868Y-86693002D01*
X90803550Y-86686054D01*
X90710478Y-86535652D01*
X90623891Y-86449216D01*
X90589812Y-86386934D01*
X90594815Y-86316114D01*
X90623736Y-86271025D01*
X90706134Y-86188483D01*
X90711305Y-86183303D01*
X90723241Y-86163940D01*
X90791389Y-86053384D01*
X90844162Y-86005890D01*
X90898649Y-85993500D01*
X91599233Y-85993500D01*
X91610416Y-85994027D01*
X91617909Y-85995702D01*
X91625835Y-85995453D01*
X91625836Y-85995453D01*
X91685986Y-85993562D01*
X91689945Y-85993500D01*
X91717856Y-85993500D01*
X91721791Y-85993003D01*
X91721856Y-85992995D01*
X91733693Y-85992062D01*
X91765951Y-85991048D01*
X91769970Y-85990922D01*
X91777889Y-85990673D01*
X91797343Y-85985021D01*
X91816700Y-85981013D01*
X91828930Y-85979468D01*
X91828931Y-85979468D01*
X91836797Y-85978474D01*
X91844168Y-85975555D01*
X91844170Y-85975555D01*
X91877912Y-85962196D01*
X91889142Y-85958351D01*
X91923983Y-85948229D01*
X91923984Y-85948229D01*
X91931593Y-85946018D01*
X91938412Y-85941985D01*
X91938417Y-85941983D01*
X91949028Y-85935707D01*
X91966776Y-85927012D01*
X91985617Y-85919552D01*
X92011944Y-85900425D01*
X92021387Y-85893564D01*
X92031307Y-85887048D01*
X92062535Y-85868580D01*
X92062538Y-85868578D01*
X92069362Y-85864542D01*
X92083683Y-85850221D01*
X92098717Y-85837380D01*
X92108693Y-85830132D01*
X92115107Y-85825472D01*
X92143293Y-85791401D01*
X92151282Y-85782622D01*
X92152499Y-85781405D01*
X92214811Y-85747379D01*
X92241594Y-85744500D01*
X92297487Y-85744500D01*
X92303939Y-85743128D01*
X92303944Y-85743128D01*
X92390887Y-85724647D01*
X92484288Y-85704794D01*
X92529656Y-85684595D01*
X92652722Y-85629803D01*
X92652724Y-85629802D01*
X92658752Y-85627118D01*
X92689794Y-85604565D01*
X92762875Y-85551468D01*
X92813253Y-85514866D01*
X92854101Y-85469500D01*
X92936621Y-85377852D01*
X92936622Y-85377851D01*
X92941040Y-85372944D01*
X93036527Y-85207556D01*
X93095542Y-85025928D01*
X93102850Y-84956402D01*
X93114814Y-84842565D01*
X93115504Y-84836000D01*
X93104280Y-84729206D01*
X93096232Y-84652635D01*
X93096232Y-84652633D01*
X93095542Y-84646072D01*
X93036527Y-84464444D01*
X93030209Y-84453500D01*
X92976505Y-84360483D01*
X92941040Y-84299056D01*
X92922242Y-84278178D01*
X92817675Y-84162045D01*
X92817674Y-84162044D01*
X92813253Y-84157134D01*
X92706267Y-84079404D01*
X92664094Y-84048763D01*
X92664093Y-84048762D01*
X92658752Y-84044882D01*
X92652724Y-84042198D01*
X92652722Y-84042197D01*
X92490319Y-83969891D01*
X92490318Y-83969891D01*
X92484288Y-83967206D01*
X92390888Y-83947353D01*
X92303944Y-83928872D01*
X92303939Y-83928872D01*
X92297487Y-83927500D01*
X92106513Y-83927500D01*
X92100061Y-83928872D01*
X92100056Y-83928872D01*
X92013112Y-83947353D01*
X91919712Y-83967206D01*
X91913682Y-83969891D01*
X91913681Y-83969891D01*
X91751278Y-84042197D01*
X91751276Y-84042198D01*
X91745248Y-84044882D01*
X91739907Y-84048762D01*
X91739906Y-84048763D01*
X91697733Y-84079404D01*
X91590747Y-84157134D01*
X91586326Y-84162044D01*
X91586325Y-84162045D01*
X91481759Y-84278178D01*
X91462960Y-84299056D01*
X91427495Y-84360483D01*
X91373792Y-84453500D01*
X91367473Y-84464444D01*
X91321386Y-84606283D01*
X91310614Y-84639437D01*
X91270540Y-84698042D01*
X91205143Y-84725679D01*
X91190781Y-84726500D01*
X90898781Y-84726500D01*
X90830660Y-84706498D01*
X90791637Y-84666803D01*
X90714332Y-84541880D01*
X90710478Y-84535652D01*
X90585303Y-84410695D01*
X90552799Y-84390659D01*
X90440968Y-84321725D01*
X90440966Y-84321724D01*
X90434738Y-84317885D01*
X90337015Y-84285472D01*
X90273389Y-84264368D01*
X90273387Y-84264368D01*
X90266861Y-84262203D01*
X90260025Y-84261503D01*
X90260022Y-84261502D01*
X90216969Y-84257091D01*
X90162400Y-84251500D01*
X89161600Y-84251500D01*
X89158354Y-84251837D01*
X89158350Y-84251837D01*
X89062692Y-84261762D01*
X89062688Y-84261763D01*
X89055834Y-84262474D01*
X89049298Y-84264655D01*
X89049296Y-84264655D01*
X88933743Y-84303207D01*
X88888054Y-84318450D01*
X88737652Y-84411522D01*
X88732479Y-84416704D01*
X88726742Y-84421251D01*
X88725314Y-84419449D01*
X88672774Y-84448191D01*
X88601955Y-84443181D01*
X88564976Y-84419458D01*
X88564229Y-84420404D01*
X88558483Y-84415866D01*
X88553303Y-84410695D01*
X88520799Y-84390659D01*
X88408968Y-84321725D01*
X88408966Y-84321724D01*
X88402738Y-84317885D01*
X88305015Y-84285472D01*
X88241389Y-84264368D01*
X88241387Y-84264368D01*
X88234861Y-84262203D01*
X88228025Y-84261503D01*
X88228022Y-84261502D01*
X88184969Y-84257091D01*
X88130400Y-84251500D01*
X87129600Y-84251500D01*
X87126354Y-84251837D01*
X87126350Y-84251837D01*
X87030692Y-84261762D01*
X87030688Y-84261763D01*
X87023834Y-84262474D01*
X87017298Y-84264655D01*
X87017296Y-84264655D01*
X86901743Y-84303207D01*
X86856054Y-84318450D01*
X86705652Y-84411522D01*
X86700479Y-84416704D01*
X86661549Y-84455702D01*
X86580695Y-84536697D01*
X86576855Y-84542927D01*
X86576854Y-84542928D01*
X86499392Y-84668595D01*
X86487885Y-84687262D01*
X86474428Y-84727834D01*
X86436374Y-84842565D01*
X86432203Y-84855139D01*
X86421500Y-84959600D01*
X86421500Y-85710400D01*
X84063456Y-85710400D01*
X84063354Y-83770749D01*
X84083352Y-83702627D01*
X84137006Y-83656131D01*
X84207279Y-83646024D01*
X84250055Y-83660327D01*
X84411129Y-83748878D01*
X84422399Y-83753708D01*
X84609173Y-83812956D01*
X84621167Y-83815506D01*
X84773630Y-83832607D01*
X84780654Y-83833000D01*
X85118802Y-83833000D01*
X85134041Y-83828525D01*
X85135246Y-83827135D01*
X85136917Y-83819452D01*
X85136917Y-83814885D01*
X85644917Y-83814885D01*
X85649392Y-83830124D01*
X85650782Y-83831329D01*
X85658465Y-83833000D01*
X85994247Y-83833000D01*
X86000395Y-83832699D01*
X86146059Y-83818417D01*
X86158094Y-83816034D01*
X86345671Y-83759400D01*
X86357011Y-83754727D01*
X86530021Y-83662736D01*
X86540239Y-83655947D01*
X86692085Y-83532106D01*
X86700789Y-83523462D01*
X86825686Y-83372487D01*
X86832546Y-83362316D01*
X86925743Y-83189951D01*
X86930495Y-83178646D01*
X86960517Y-83081661D01*
X86999768Y-83022501D01*
X87064772Y-82993954D01*
X87134891Y-83005083D01*
X87187863Y-83052354D01*
X87201755Y-83083345D01*
X87225740Y-83164839D01*
X87230337Y-83176216D01*
X87321119Y-83349866D01*
X87327833Y-83360127D01*
X87450616Y-83512838D01*
X87459194Y-83521597D01*
X87609301Y-83647552D01*
X87619415Y-83654478D01*
X87791129Y-83748878D01*
X87802399Y-83753708D01*
X87989173Y-83812956D01*
X88001167Y-83815506D01*
X88153630Y-83832607D01*
X88160654Y-83833000D01*
X88498802Y-83833000D01*
X88514041Y-83828525D01*
X88515246Y-83827135D01*
X88516917Y-83819452D01*
X88516917Y-83814885D01*
X89024917Y-83814885D01*
X89029392Y-83830124D01*
X89030782Y-83831329D01*
X89038465Y-83833000D01*
X89374247Y-83833000D01*
X89380395Y-83832699D01*
X89526059Y-83818417D01*
X89538094Y-83816034D01*
X89725671Y-83759400D01*
X89737011Y-83754727D01*
X89910021Y-83662736D01*
X89920239Y-83655947D01*
X90072085Y-83532106D01*
X90080789Y-83523462D01*
X90205686Y-83372487D01*
X90212546Y-83362316D01*
X90305743Y-83189951D01*
X90310495Y-83178646D01*
X90352699Y-83042308D01*
X90352905Y-83028205D01*
X90346150Y-83025000D01*
X89043032Y-83025000D01*
X89027793Y-83029475D01*
X89026588Y-83030865D01*
X89024917Y-83038548D01*
X89024917Y-83814885D01*
X88516917Y-83814885D01*
X88516917Y-81914325D01*
X88509387Y-81888680D01*
X88240302Y-81619595D01*
X88206276Y-81557283D01*
X88211341Y-81486468D01*
X88253888Y-81429632D01*
X88320408Y-81404821D01*
X88329397Y-81404500D01*
X88488521Y-81404500D01*
X88494974Y-81403128D01*
X88494978Y-81403128D01*
X88574324Y-81386262D01*
X88631993Y-81374004D01*
X88702782Y-81379406D01*
X88747283Y-81408156D01*
X89008127Y-81669000D01*
X89007683Y-81669444D01*
X89022958Y-81682209D01*
X89029693Y-81690566D01*
X89108731Y-81769604D01*
X89142757Y-81831916D01*
X89137692Y-81902731D01*
X89108731Y-81947794D01*
X89037729Y-82018796D01*
X89024917Y-82042258D01*
X89024917Y-82498885D01*
X89029392Y-82514124D01*
X89030782Y-82515329D01*
X89038465Y-82517000D01*
X90339135Y-82517000D01*
X90352666Y-82513027D01*
X90353786Y-82505232D01*
X90316093Y-82377162D01*
X90311494Y-82365778D01*
X90226936Y-82204034D01*
X90215912Y-82192603D01*
X90183294Y-82184887D01*
X90182131Y-82184948D01*
X90122163Y-82151456D01*
X89590302Y-81619595D01*
X89556276Y-81557283D01*
X89561341Y-81486468D01*
X89603888Y-81429632D01*
X89670408Y-81404821D01*
X89679397Y-81404500D01*
X89838521Y-81404500D01*
X89844974Y-81403128D01*
X89844978Y-81403128D01*
X89924324Y-81386262D01*
X89981993Y-81374004D01*
X90052782Y-81379406D01*
X90097283Y-81408156D01*
X90479383Y-81790256D01*
X90491763Y-81797016D01*
X90506599Y-81785910D01*
X90573119Y-81761099D01*
X90642494Y-81776191D01*
X90671203Y-81797683D01*
X91156595Y-82283075D01*
X91190621Y-82345387D01*
X91193500Y-82372170D01*
X91193500Y-82844134D01*
X91200255Y-82906316D01*
X91251385Y-83042705D01*
X91338739Y-83159261D01*
X91455295Y-83246615D01*
X91591684Y-83297745D01*
X91653866Y-83304500D01*
X92750134Y-83304500D01*
X92812316Y-83297745D01*
X92948705Y-83246615D01*
X93065261Y-83159261D01*
X93152615Y-83042705D01*
X93203745Y-82906316D01*
X93210500Y-82844134D01*
X93210500Y-82712829D01*
X99582065Y-82712829D01*
X99582402Y-82719348D01*
X99592321Y-82814940D01*
X99595213Y-82828334D01*
X99646652Y-82982518D01*
X99652825Y-82995696D01*
X99738127Y-83133541D01*
X99747163Y-83144942D01*
X99861893Y-83259473D01*
X99873304Y-83268485D01*
X100011307Y-83353550D01*
X100024488Y-83359697D01*
X100178774Y-83410872D01*
X100192150Y-83413739D01*
X100286502Y-83423406D01*
X100292918Y-83423734D01*
X100405449Y-83423734D01*
X100420688Y-83419259D01*
X100421893Y-83417869D01*
X100423564Y-83410186D01*
X100423564Y-82462849D01*
X100419089Y-82447610D01*
X100417699Y-82446405D01*
X100410016Y-82444734D01*
X99600180Y-82444734D01*
X99584941Y-82449209D01*
X99583736Y-82450599D01*
X99582065Y-82458282D01*
X99582065Y-82712829D01*
X93210500Y-82712829D01*
X93210500Y-81747866D01*
X93203745Y-81685684D01*
X93152615Y-81549295D01*
X93065261Y-81432739D01*
X92948705Y-81345385D01*
X92812316Y-81294255D01*
X92750134Y-81287500D01*
X92005019Y-81287500D01*
X91936898Y-81267498D01*
X91915924Y-81250595D01*
X91359097Y-80693768D01*
X97989240Y-80693768D01*
X97989577Y-80700287D01*
X97999496Y-80795879D01*
X98002388Y-80809273D01*
X98053827Y-80963457D01*
X98060000Y-80976635D01*
X98145302Y-81114480D01*
X98154338Y-81125881D01*
X98269068Y-81240412D01*
X98280479Y-81249424D01*
X98418482Y-81334489D01*
X98431663Y-81340636D01*
X98585949Y-81391811D01*
X98599325Y-81394678D01*
X98693677Y-81404345D01*
X98700093Y-81404673D01*
X98812624Y-81404673D01*
X98827863Y-81400198D01*
X98829068Y-81398808D01*
X98830739Y-81391125D01*
X98830739Y-80443788D01*
X98826264Y-80428549D01*
X98824874Y-80427344D01*
X98817191Y-80425673D01*
X98007355Y-80425673D01*
X97992116Y-80430148D01*
X97990911Y-80431538D01*
X97989240Y-80439221D01*
X97989240Y-80693768D01*
X91359097Y-80693768D01*
X90844076Y-80178747D01*
X90836536Y-80170461D01*
X90832424Y-80163982D01*
X90782772Y-80117356D01*
X90779931Y-80114602D01*
X90760194Y-80094865D01*
X90756997Y-80092385D01*
X90747975Y-80084680D01*
X90721524Y-80059841D01*
X90715745Y-80054414D01*
X90708799Y-80050595D01*
X90708796Y-80050593D01*
X90697990Y-80044652D01*
X90681471Y-80033801D01*
X90681007Y-80033441D01*
X90665465Y-80021386D01*
X90647080Y-80013430D01*
X90592506Y-79968019D01*
X90571146Y-79900311D01*
X90571811Y-79884623D01*
X90588318Y-79727565D01*
X90589008Y-79721000D01*
X90586612Y-79698206D01*
X90571385Y-79553321D01*
X90571384Y-79553317D01*
X90570694Y-79546751D01*
X90532971Y-79430652D01*
X90518591Y-79386395D01*
X90518589Y-79386391D01*
X90516551Y-79380118D01*
X90513253Y-79374405D01*
X90513250Y-79374399D01*
X90504359Y-79359000D01*
X90487621Y-79290004D01*
X90504359Y-79233000D01*
X90513250Y-79217601D01*
X90513253Y-79217595D01*
X90516551Y-79211882D01*
X90518814Y-79204919D01*
X90553229Y-79099000D01*
X90570694Y-79045249D01*
X90572126Y-79031630D01*
X90588318Y-78877565D01*
X90589008Y-78871000D01*
X90582523Y-78809294D01*
X90571385Y-78703321D01*
X90571384Y-78703317D01*
X90570694Y-78696751D01*
X90558621Y-78659595D01*
X97827001Y-78659595D01*
X97827338Y-78666114D01*
X97837257Y-78761706D01*
X97840149Y-78775100D01*
X97891588Y-78929284D01*
X97897761Y-78942462D01*
X97983063Y-79080307D01*
X97992099Y-79091708D01*
X98068626Y-79168102D01*
X98102705Y-79230385D01*
X98097702Y-79301205D01*
X98086868Y-79323391D01*
X98059423Y-79367916D01*
X98053276Y-79381097D01*
X98002101Y-79535383D01*
X97999234Y-79548759D01*
X97989567Y-79643111D01*
X97989239Y-79649528D01*
X97989239Y-79899558D01*
X97993714Y-79914797D01*
X97995104Y-79916002D01*
X98002787Y-79917673D01*
X98812624Y-79917673D01*
X98827863Y-79913198D01*
X98829068Y-79911808D01*
X98830739Y-79904125D01*
X98830739Y-79428615D01*
X98817606Y-79383889D01*
X98811102Y-79373767D01*
X98806000Y-79338274D01*
X98806000Y-78547115D01*
X98801525Y-78531876D01*
X98800135Y-78530671D01*
X98792452Y-78529000D01*
X97845116Y-78529000D01*
X97829877Y-78533475D01*
X97828672Y-78534865D01*
X97827001Y-78542548D01*
X97827001Y-78659595D01*
X90558621Y-78659595D01*
X90521604Y-78545669D01*
X90518591Y-78536395D01*
X90518589Y-78536391D01*
X90516551Y-78530118D01*
X90513253Y-78524405D01*
X90513250Y-78524399D01*
X90504359Y-78509000D01*
X90487621Y-78440004D01*
X90504359Y-78383000D01*
X90513250Y-78367601D01*
X90513253Y-78367595D01*
X90516551Y-78361882D01*
X90518985Y-78354393D01*
X90546631Y-78269305D01*
X90570694Y-78195249D01*
X90572254Y-78180413D01*
X90588318Y-78027565D01*
X90589008Y-78021000D01*
X90584952Y-77982406D01*
X90571385Y-77853321D01*
X90571384Y-77853317D01*
X90570694Y-77846751D01*
X90538116Y-77746488D01*
X90518591Y-77686395D01*
X90518589Y-77686391D01*
X90516551Y-77680118D01*
X90513253Y-77674405D01*
X90513250Y-77674399D01*
X90504359Y-77659000D01*
X90487621Y-77590004D01*
X90504359Y-77533000D01*
X90513250Y-77517601D01*
X90513253Y-77517595D01*
X90516551Y-77511882D01*
X90519188Y-77503768D01*
X90550928Y-77406081D01*
X90570694Y-77345249D01*
X90572383Y-77329187D01*
X90588318Y-77177565D01*
X90589008Y-77171000D01*
X90581350Y-77098134D01*
X90571385Y-77003321D01*
X90571384Y-77003317D01*
X90570694Y-76996751D01*
X90531119Y-76874953D01*
X90518591Y-76836395D01*
X90518589Y-76836391D01*
X90516551Y-76830118D01*
X90513253Y-76824405D01*
X90513250Y-76824399D01*
X90504359Y-76809000D01*
X90487621Y-76740004D01*
X90504359Y-76683000D01*
X90513250Y-76667601D01*
X90513253Y-76667595D01*
X90516551Y-76661882D01*
X90520207Y-76650632D01*
X90542824Y-76581022D01*
X90570694Y-76495249D01*
X90572531Y-76477776D01*
X90588318Y-76327565D01*
X90589008Y-76321000D01*
X90581619Y-76250695D01*
X90571385Y-76153321D01*
X90571384Y-76153317D01*
X90570694Y-76146751D01*
X90516551Y-75980118D01*
X90504069Y-75958498D01*
X90487332Y-75889504D01*
X90504071Y-75832498D01*
X90512789Y-75817399D01*
X90518134Y-75805393D01*
X90568162Y-75651422D01*
X90570892Y-75638581D01*
X90587815Y-75477565D01*
X90587815Y-75464435D01*
X90570892Y-75303419D01*
X90568162Y-75290578D01*
X90518131Y-75136598D01*
X90512793Y-75124609D01*
X90501252Y-75104619D01*
X90491048Y-75094889D01*
X90483027Y-75098100D01*
X90097283Y-75483844D01*
X90034971Y-75517870D01*
X89981993Y-75517996D01*
X89914721Y-75503697D01*
X89844978Y-75488872D01*
X89844974Y-75488872D01*
X89838521Y-75487500D01*
X89679397Y-75487500D01*
X89611276Y-75467498D01*
X89564783Y-75413842D01*
X89554679Y-75343568D01*
X89584173Y-75278988D01*
X89590302Y-75272405D01*
X90127489Y-74735218D01*
X90189801Y-74701192D01*
X90207596Y-74698634D01*
X90215704Y-74698054D01*
X90223354Y-74692327D01*
X90305743Y-74539953D01*
X90310495Y-74528646D01*
X90352699Y-74392308D01*
X90352905Y-74378205D01*
X90346150Y-74375000D01*
X89043032Y-74375000D01*
X89027793Y-74379475D01*
X89026588Y-74380865D01*
X89024917Y-74388548D01*
X89024917Y-74842277D01*
X89032447Y-74867922D01*
X89108731Y-74944206D01*
X89142757Y-75006518D01*
X89137692Y-75077333D01*
X89108731Y-75122396D01*
X89024917Y-75206210D01*
X89024473Y-75205766D01*
X89011708Y-75221041D01*
X89003351Y-75227776D01*
X88747283Y-75483844D01*
X88684971Y-75517870D01*
X88631993Y-75517996D01*
X88564721Y-75503697D01*
X88494978Y-75488872D01*
X88494974Y-75488872D01*
X88488521Y-75487500D01*
X88329397Y-75487500D01*
X88261276Y-75467498D01*
X88214783Y-75413842D01*
X88204679Y-75343568D01*
X88234173Y-75278988D01*
X88240302Y-75272405D01*
X88504105Y-75008602D01*
X88516917Y-74985140D01*
X88516917Y-73848885D01*
X89024917Y-73848885D01*
X89029392Y-73864124D01*
X89030782Y-73865329D01*
X89038465Y-73867000D01*
X90339135Y-73867000D01*
X90352666Y-73863027D01*
X90353786Y-73855232D01*
X90316093Y-73727162D01*
X90311494Y-73715778D01*
X90220715Y-73542134D01*
X90214001Y-73531873D01*
X90091218Y-73379162D01*
X90082640Y-73370403D01*
X89932533Y-73244448D01*
X89922419Y-73237522D01*
X89750705Y-73143122D01*
X89739435Y-73138292D01*
X89552661Y-73079044D01*
X89540667Y-73076494D01*
X89388204Y-73059393D01*
X89381180Y-73059000D01*
X89043032Y-73059000D01*
X89027793Y-73063475D01*
X89026588Y-73064865D01*
X89024917Y-73072548D01*
X89024917Y-73848885D01*
X88516917Y-73848885D01*
X88516917Y-73077115D01*
X88512442Y-73061876D01*
X88511052Y-73060671D01*
X88503369Y-73059000D01*
X88167587Y-73059000D01*
X88161439Y-73059301D01*
X88015775Y-73073583D01*
X88003740Y-73075966D01*
X87816163Y-73132600D01*
X87804823Y-73137273D01*
X87631813Y-73229264D01*
X87621595Y-73236053D01*
X87469749Y-73359894D01*
X87461045Y-73368538D01*
X87336148Y-73519513D01*
X87329288Y-73529684D01*
X87236091Y-73702049D01*
X87231339Y-73713354D01*
X87201317Y-73810339D01*
X87162066Y-73869499D01*
X87097062Y-73898046D01*
X87026943Y-73886917D01*
X86973971Y-73839646D01*
X86960079Y-73808655D01*
X86936094Y-73727161D01*
X86931497Y-73715784D01*
X86840715Y-73542134D01*
X86834001Y-73531873D01*
X86711218Y-73379162D01*
X86702640Y-73370403D01*
X86552533Y-73244448D01*
X86542419Y-73237522D01*
X86370705Y-73143122D01*
X86359435Y-73138292D01*
X86172661Y-73079044D01*
X86160667Y-73076494D01*
X86008204Y-73059393D01*
X86001180Y-73059000D01*
X85663032Y-73059000D01*
X85647793Y-73063475D01*
X85646588Y-73064865D01*
X85644917Y-73072548D01*
X85644917Y-75164885D01*
X85649392Y-75180124D01*
X85650782Y-75181329D01*
X85658465Y-75183000D01*
X85994247Y-75183000D01*
X86000395Y-75182699D01*
X86146059Y-75168417D01*
X86158094Y-75166034D01*
X86345671Y-75109400D01*
X86357011Y-75104727D01*
X86530021Y-75012736D01*
X86540239Y-75005947D01*
X86692085Y-74882106D01*
X86700789Y-74873462D01*
X86825686Y-74722487D01*
X86832546Y-74712316D01*
X86925743Y-74539951D01*
X86930495Y-74528646D01*
X86960517Y-74431661D01*
X86999768Y-74372501D01*
X87064772Y-74343954D01*
X87134891Y-74355083D01*
X87187863Y-74402354D01*
X87201755Y-74433345D01*
X87225740Y-74514839D01*
X87230337Y-74526216D01*
X87321119Y-74699866D01*
X87327833Y-74710127D01*
X87450616Y-74862838D01*
X87459194Y-74871597D01*
X87599401Y-74989245D01*
X87638728Y-75048355D01*
X87639854Y-75119343D01*
X87634047Y-75135540D01*
X87583672Y-75290578D01*
X87580942Y-75303419D01*
X87564019Y-75464435D01*
X87564019Y-75477565D01*
X87580942Y-75638581D01*
X87583672Y-75651422D01*
X87633700Y-75805393D01*
X87639045Y-75817399D01*
X87647763Y-75832498D01*
X87664502Y-75901493D01*
X87647765Y-75958498D01*
X87635283Y-75980118D01*
X87605792Y-76070882D01*
X87575054Y-76121042D01*
X87278208Y-76417887D01*
X86983742Y-76712353D01*
X86975463Y-76719887D01*
X86968982Y-76724000D01*
X86933432Y-76761857D01*
X86922357Y-76773651D01*
X86919602Y-76776493D01*
X86899865Y-76796230D01*
X86897385Y-76799427D01*
X86889682Y-76808447D01*
X86859414Y-76840679D01*
X86855595Y-76847625D01*
X86855593Y-76847628D01*
X86849652Y-76858434D01*
X86838801Y-76874953D01*
X86826386Y-76890959D01*
X86823241Y-76898228D01*
X86823238Y-76898232D01*
X86808826Y-76931537D01*
X86803609Y-76942187D01*
X86782305Y-76980940D01*
X86780334Y-76988615D01*
X86780334Y-76988616D01*
X86777267Y-77000562D01*
X86770863Y-77019266D01*
X86762819Y-77037855D01*
X86761580Y-77045678D01*
X86761577Y-77045688D01*
X86755901Y-77081524D01*
X86753495Y-77093144D01*
X86752214Y-77098134D01*
X86742500Y-77135970D01*
X86742500Y-77156224D01*
X86740949Y-77175934D01*
X86737780Y-77195943D01*
X86738526Y-77203835D01*
X86741941Y-77239961D01*
X86742500Y-77251819D01*
X86742500Y-79931233D01*
X86741973Y-79942416D01*
X86740298Y-79949909D01*
X86740547Y-79957835D01*
X86740547Y-79957836D01*
X86742438Y-80017986D01*
X86742500Y-80021945D01*
X86742500Y-80049856D01*
X86742997Y-80053790D01*
X86742997Y-80053791D01*
X86743005Y-80053856D01*
X86743938Y-80065693D01*
X86745327Y-80109889D01*
X86750978Y-80129339D01*
X86754987Y-80148700D01*
X86757526Y-80168797D01*
X86760445Y-80176168D01*
X86760445Y-80176170D01*
X86773804Y-80209912D01*
X86777649Y-80221142D01*
X86784992Y-80246418D01*
X86789982Y-80263593D01*
X86794015Y-80270412D01*
X86794017Y-80270417D01*
X86800293Y-80281028D01*
X86808988Y-80298776D01*
X86816448Y-80317617D01*
X86821110Y-80324033D01*
X86821110Y-80324034D01*
X86842436Y-80353387D01*
X86848952Y-80363307D01*
X86864410Y-80389444D01*
X86871458Y-80401362D01*
X86885779Y-80415683D01*
X86898619Y-80430716D01*
X86910528Y-80447107D01*
X86935237Y-80467548D01*
X86944593Y-80475288D01*
X86953374Y-80483278D01*
X87433353Y-80963258D01*
X87440887Y-80971537D01*
X87445000Y-80978018D01*
X87470006Y-81001500D01*
X87494651Y-81024643D01*
X87497493Y-81027398D01*
X87517230Y-81047135D01*
X87520427Y-81049615D01*
X87529449Y-81057320D01*
X87558329Y-81084440D01*
X87594294Y-81145652D01*
X87591909Y-81215225D01*
X87583672Y-81240575D01*
X87580942Y-81253419D01*
X87564019Y-81414435D01*
X87564019Y-81427565D01*
X87580942Y-81588581D01*
X87583672Y-81601422D01*
X87633701Y-81755398D01*
X87633970Y-81756001D01*
X87634021Y-81756381D01*
X87635742Y-81761678D01*
X87634773Y-81761993D01*
X87643403Y-81826368D01*
X87613295Y-81890665D01*
X87598497Y-81904890D01*
X87469754Y-82009890D01*
X87461045Y-82018538D01*
X87336148Y-82169513D01*
X87329288Y-82179684D01*
X87236091Y-82352049D01*
X87231339Y-82363354D01*
X87201317Y-82460339D01*
X87162066Y-82519499D01*
X87097062Y-82548046D01*
X87026943Y-82536917D01*
X86973971Y-82489646D01*
X86960079Y-82458655D01*
X86936094Y-82377161D01*
X86931497Y-82365784D01*
X86840715Y-82192134D01*
X86834001Y-82181873D01*
X86711218Y-82029162D01*
X86702640Y-82020403D01*
X86552533Y-81894448D01*
X86542419Y-81887522D01*
X86370705Y-81793122D01*
X86359435Y-81788292D01*
X86172661Y-81729044D01*
X86160667Y-81726494D01*
X86008204Y-81709393D01*
X86001180Y-81709000D01*
X85663032Y-81709000D01*
X85647793Y-81713475D01*
X85646588Y-81714865D01*
X85644917Y-81722548D01*
X85644917Y-83814885D01*
X85136917Y-83814885D01*
X85136917Y-81727115D01*
X85132442Y-81711876D01*
X85131052Y-81710671D01*
X85123369Y-81709000D01*
X84787587Y-81709000D01*
X84781439Y-81709301D01*
X84635775Y-81723583D01*
X84623740Y-81725966D01*
X84436163Y-81782600D01*
X84424823Y-81787273D01*
X84248402Y-81881077D01*
X84178865Y-81895396D01*
X84112624Y-81869848D01*
X84070711Y-81812543D01*
X84063249Y-81769832D01*
X84063041Y-77834051D01*
X84062898Y-75120497D01*
X84082896Y-75052376D01*
X84136550Y-75005880D01*
X84206823Y-74995773D01*
X84249599Y-75010076D01*
X84411129Y-75098878D01*
X84422399Y-75103708D01*
X84609173Y-75162956D01*
X84621167Y-75165506D01*
X84773630Y-75182607D01*
X84780654Y-75183000D01*
X85118802Y-75183000D01*
X85134041Y-75178525D01*
X85135246Y-75177135D01*
X85136917Y-75169452D01*
X85136917Y-73077115D01*
X85132442Y-73061876D01*
X85131052Y-73060671D01*
X85123369Y-73059000D01*
X84787587Y-73059000D01*
X84781439Y-73059301D01*
X84635775Y-73073583D01*
X84623740Y-73075966D01*
X84436163Y-73132600D01*
X84424815Y-73137276D01*
X84247946Y-73231319D01*
X84178409Y-73245639D01*
X84112168Y-73220091D01*
X84070256Y-73162787D01*
X84062793Y-73120075D01*
X84062590Y-69256461D01*
X84064090Y-69237072D01*
X84066397Y-69222255D01*
X84066397Y-69222248D01*
X84067778Y-69213379D01*
X84066614Y-69204474D01*
X84066598Y-69204350D01*
X84066327Y-69173911D01*
X84073320Y-69111841D01*
X84079598Y-69084334D01*
X84106571Y-69007245D01*
X84118814Y-68981822D01*
X84162265Y-68912670D01*
X84179856Y-68890611D01*
X84237605Y-68832861D01*
X84259663Y-68815270D01*
X84301048Y-68789265D01*
X84328815Y-68771817D01*
X84354236Y-68759575D01*
X84417910Y-68737294D01*
X84431326Y-68732600D01*
X84458820Y-68726323D01*
X84514246Y-68720077D01*
X84529956Y-68720417D01*
X84529970Y-68719307D01*
X84538945Y-68719416D01*
X84547818Y-68720798D01*
X84579375Y-68716671D01*
X84595714Y-68715607D01*
X95051715Y-68715607D01*
X95119836Y-68735609D01*
G37*
G04 #@! TD.AperFunction*
G04 #@! TA.AperFunction,Conductor*
G36*
X168262915Y-68717107D02*
G01*
X168277748Y-68719417D01*
X168277752Y-68719417D01*
X168286621Y-68720798D01*
X168295646Y-68719618D01*
X168326081Y-68719346D01*
X168388158Y-68726340D01*
X168415664Y-68732618D01*
X168492752Y-68759592D01*
X168518168Y-68771831D01*
X168587325Y-68815286D01*
X168609380Y-68832875D01*
X168667125Y-68890620D01*
X168684711Y-68912670D01*
X168728169Y-68981832D01*
X168740408Y-69007248D01*
X168767382Y-69084336D01*
X168773660Y-69111841D01*
X168777679Y-69147509D01*
X168779912Y-69167325D01*
X168779245Y-69182960D01*
X168780694Y-69182978D01*
X168780584Y-69191951D01*
X168779202Y-69200827D01*
X168781665Y-69219663D01*
X168783329Y-69232386D01*
X168784393Y-69248724D01*
X168784253Y-77705114D01*
X168784252Y-77739142D01*
X168764249Y-77807263D01*
X168710592Y-77853755D01*
X168640318Y-77863857D01*
X168582687Y-77839966D01*
X168502960Y-77780214D01*
X168487365Y-77771676D01*
X168366917Y-77726522D01*
X168351662Y-77722895D01*
X168300797Y-77717369D01*
X168293983Y-77717000D01*
X167983311Y-77717000D01*
X167915190Y-77696998D01*
X167868697Y-77643342D01*
X167857311Y-77591000D01*
X167857311Y-77522115D01*
X167852836Y-77506876D01*
X167851446Y-77505671D01*
X167843763Y-77504000D01*
X166521426Y-77504000D01*
X166506187Y-77508475D01*
X166504982Y-77509865D01*
X166503311Y-77517548D01*
X166503311Y-78264884D01*
X166507786Y-78280123D01*
X166509176Y-78281328D01*
X166516859Y-78282999D01*
X166615311Y-78282999D01*
X166683432Y-78303001D01*
X166729925Y-78356657D01*
X166741311Y-78408999D01*
X166741311Y-78452885D01*
X166745786Y-78468124D01*
X166747176Y-78469329D01*
X166754859Y-78471000D01*
X167877311Y-78471000D01*
X167945432Y-78491002D01*
X167991925Y-78544658D01*
X168003311Y-78597000D01*
X168003311Y-78853000D01*
X167983309Y-78921121D01*
X167929653Y-78967614D01*
X167877311Y-78979000D01*
X166759427Y-78979000D01*
X166744188Y-78983475D01*
X166742983Y-78984865D01*
X166741312Y-78992548D01*
X166741312Y-79041000D01*
X166721310Y-79109121D01*
X166667654Y-79155614D01*
X166615312Y-79167000D01*
X166521426Y-79167000D01*
X166506187Y-79171475D01*
X166504982Y-79172865D01*
X166503311Y-79180548D01*
X166503311Y-79927885D01*
X166507786Y-79943124D01*
X166509176Y-79944329D01*
X166516859Y-79946000D01*
X167839195Y-79946000D01*
X167854434Y-79941525D01*
X167855639Y-79940135D01*
X167857310Y-79932452D01*
X167857310Y-79858999D01*
X167877312Y-79790878D01*
X167930968Y-79744385D01*
X167983310Y-79732999D01*
X168293980Y-79732999D01*
X168300801Y-79732629D01*
X168351663Y-79727105D01*
X168366915Y-79723479D01*
X168487365Y-79678324D01*
X168502955Y-79669789D01*
X168582654Y-79610058D01*
X168649161Y-79585211D01*
X168718543Y-79600264D01*
X168768773Y-79650439D01*
X168784219Y-79710887D01*
X168784078Y-88196660D01*
X168782577Y-88216046D01*
X168778887Y-88239742D01*
X168780051Y-88248645D01*
X168780051Y-88248650D01*
X168780066Y-88248765D01*
X168780337Y-88279213D01*
X168774627Y-88329874D01*
X168773342Y-88341273D01*
X168767063Y-88368778D01*
X168740089Y-88445859D01*
X168727849Y-88471274D01*
X168690395Y-88530878D01*
X168684398Y-88540422D01*
X168666806Y-88562480D01*
X168609059Y-88620224D01*
X168586999Y-88637815D01*
X168517853Y-88681260D01*
X168492434Y-88693500D01*
X168415355Y-88720469D01*
X168387849Y-88726747D01*
X168331910Y-88733048D01*
X168316268Y-88733831D01*
X168307738Y-88733727D01*
X168298865Y-88732345D01*
X168289962Y-88733509D01*
X168267282Y-88736474D01*
X168250951Y-88737537D01*
X166383283Y-88737588D01*
X162313895Y-88737699D01*
X162245776Y-88717699D01*
X162199282Y-88664044D01*
X162189176Y-88593771D01*
X162195912Y-88567470D01*
X162219478Y-88504609D01*
X162223105Y-88489351D01*
X162228631Y-88438486D01*
X162229000Y-88431672D01*
X162229000Y-87897115D01*
X162224525Y-87881876D01*
X162223135Y-87880671D01*
X162215452Y-87879000D01*
X161085500Y-87879000D01*
X161017379Y-87858998D01*
X160970886Y-87805342D01*
X160959500Y-87753000D01*
X160959500Y-87352885D01*
X161467000Y-87352885D01*
X161471475Y-87368124D01*
X161472865Y-87369329D01*
X161480548Y-87371000D01*
X162210884Y-87371000D01*
X162226123Y-87366525D01*
X162227328Y-87365135D01*
X162228999Y-87357452D01*
X162228999Y-86818331D01*
X162228629Y-86811510D01*
X162223105Y-86760648D01*
X162219479Y-86745396D01*
X162174324Y-86624946D01*
X162165786Y-86609351D01*
X162089285Y-86507276D01*
X162076724Y-86494715D01*
X161974649Y-86418214D01*
X161959054Y-86409676D01*
X161838606Y-86364522D01*
X161823351Y-86360895D01*
X161772486Y-86355369D01*
X161765672Y-86355000D01*
X161485115Y-86355000D01*
X161469876Y-86359475D01*
X161468671Y-86360865D01*
X161467000Y-86368548D01*
X161467000Y-87352885D01*
X160959500Y-87352885D01*
X160959500Y-86814866D01*
X160959166Y-86811794D01*
X160959000Y-86805635D01*
X160959000Y-86373116D01*
X160954525Y-86357877D01*
X160953135Y-86356672D01*
X160945452Y-86355001D01*
X160660331Y-86355001D01*
X160653510Y-86355371D01*
X160594793Y-86361748D01*
X160594556Y-86359567D01*
X160561499Y-86359567D01*
X160561316Y-86361255D01*
X160502531Y-86354869D01*
X160499134Y-86354500D01*
X159386866Y-86354500D01*
X159383469Y-86354869D01*
X159341069Y-86359475D01*
X159324684Y-86361255D01*
X159324473Y-86359309D01*
X159291527Y-86359309D01*
X159291316Y-86361255D01*
X159232531Y-86354869D01*
X159229134Y-86354500D01*
X158116866Y-86354500D01*
X158113469Y-86354869D01*
X158071069Y-86359475D01*
X158054684Y-86361255D01*
X158054473Y-86359309D01*
X158021527Y-86359309D01*
X158021316Y-86361255D01*
X157962531Y-86354869D01*
X157959134Y-86354500D01*
X156846866Y-86354500D01*
X156843469Y-86354869D01*
X156801069Y-86359475D01*
X156784684Y-86361255D01*
X156784473Y-86359309D01*
X156751527Y-86359309D01*
X156751316Y-86361255D01*
X156692531Y-86354869D01*
X156689134Y-86354500D01*
X155576866Y-86354500D01*
X155573469Y-86354869D01*
X155531069Y-86359475D01*
X155514684Y-86361255D01*
X155514473Y-86359309D01*
X155481527Y-86359309D01*
X155481316Y-86361255D01*
X155422531Y-86354869D01*
X155419134Y-86354500D01*
X154306866Y-86354500D01*
X154303469Y-86354869D01*
X154261069Y-86359475D01*
X154244684Y-86361255D01*
X154244473Y-86359309D01*
X154211527Y-86359309D01*
X154211316Y-86361255D01*
X154152531Y-86354869D01*
X154149134Y-86354500D01*
X153036866Y-86354500D01*
X153033469Y-86354869D01*
X152991069Y-86359475D01*
X152974684Y-86361255D01*
X152974473Y-86359309D01*
X152941527Y-86359309D01*
X152941316Y-86361255D01*
X152882531Y-86354869D01*
X152879134Y-86354500D01*
X151766866Y-86354500D01*
X151763471Y-86354869D01*
X151763467Y-86354869D01*
X151707486Y-86360950D01*
X151637603Y-86348421D01*
X151585588Y-86300100D01*
X151567954Y-86231328D01*
X151590301Y-86163940D01*
X151600235Y-86151386D01*
X151615040Y-86134944D01*
X151689550Y-86005890D01*
X151707223Y-85975279D01*
X151707224Y-85975278D01*
X151710527Y-85969556D01*
X151769542Y-85787928D01*
X151771138Y-85772749D01*
X151788814Y-85604565D01*
X151789504Y-85598000D01*
X151781441Y-85521283D01*
X151770232Y-85414635D01*
X151770232Y-85414633D01*
X151769542Y-85408072D01*
X151710527Y-85226444D01*
X151692520Y-85195254D01*
X151635137Y-85095865D01*
X151615040Y-85061056D01*
X151589064Y-85032206D01*
X151491675Y-84924045D01*
X151491674Y-84924044D01*
X151487253Y-84919134D01*
X151372829Y-84836000D01*
X151338094Y-84810763D01*
X151338093Y-84810762D01*
X151332752Y-84806882D01*
X151326724Y-84804198D01*
X151326722Y-84804197D01*
X151164319Y-84731891D01*
X151164318Y-84731891D01*
X151158288Y-84729206D01*
X151051456Y-84706498D01*
X150977944Y-84690872D01*
X150977939Y-84690872D01*
X150971487Y-84689500D01*
X150780513Y-84689500D01*
X150774061Y-84690872D01*
X150774056Y-84690872D01*
X150700544Y-84706498D01*
X150593712Y-84729206D01*
X150587682Y-84731891D01*
X150587681Y-84731891D01*
X150425278Y-84804197D01*
X150425276Y-84804198D01*
X150419248Y-84806882D01*
X150413907Y-84810762D01*
X150413906Y-84810763D01*
X150379171Y-84836000D01*
X150264747Y-84919134D01*
X150260326Y-84924044D01*
X150260325Y-84924045D01*
X150162937Y-85032206D01*
X150136960Y-85061056D01*
X150116863Y-85095865D01*
X150059481Y-85195254D01*
X150041473Y-85226444D01*
X149982458Y-85408072D01*
X149981768Y-85414633D01*
X149981768Y-85414635D01*
X149970559Y-85521283D01*
X149962496Y-85598000D01*
X149963186Y-85604565D01*
X149980863Y-85772749D01*
X149982458Y-85787928D01*
X150041473Y-85969556D01*
X150044776Y-85975278D01*
X150044777Y-85975279D01*
X150062450Y-86005890D01*
X150136960Y-86134944D01*
X150145738Y-86144693D01*
X150176453Y-86208699D01*
X150167687Y-86279153D01*
X150122223Y-86333683D01*
X150072202Y-86348889D01*
X150072498Y-86349896D01*
X150039876Y-86359475D01*
X150038671Y-86360865D01*
X150037000Y-86368548D01*
X150037000Y-86805635D01*
X150036834Y-86811794D01*
X150036500Y-86814866D01*
X150036500Y-87753000D01*
X150016498Y-87821121D01*
X149962842Y-87867614D01*
X149910500Y-87879000D01*
X149655500Y-87879000D01*
X149587379Y-87858998D01*
X149540886Y-87805342D01*
X149529500Y-87753000D01*
X149529500Y-86814866D01*
X149529166Y-86811794D01*
X149529000Y-86805635D01*
X149529000Y-86373116D01*
X149524525Y-86357877D01*
X149523135Y-86356672D01*
X149515452Y-86355001D01*
X149230331Y-86355001D01*
X149223510Y-86355371D01*
X149164793Y-86361748D01*
X149164556Y-86359567D01*
X149131499Y-86359567D01*
X149131316Y-86361255D01*
X149072531Y-86354869D01*
X149069134Y-86354500D01*
X147956866Y-86354500D01*
X147953469Y-86354869D01*
X147911069Y-86359475D01*
X147894684Y-86361255D01*
X147894473Y-86359309D01*
X147861527Y-86359309D01*
X147861316Y-86361255D01*
X147802531Y-86354869D01*
X147799134Y-86354500D01*
X146686866Y-86354500D01*
X146683469Y-86354869D01*
X146641069Y-86359475D01*
X146624684Y-86361255D01*
X146624500Y-86359564D01*
X146591444Y-86359564D01*
X146591207Y-86361748D01*
X146532486Y-86355369D01*
X146525672Y-86355000D01*
X146245115Y-86355000D01*
X146229876Y-86359475D01*
X146228671Y-86360865D01*
X146227000Y-86368548D01*
X146227000Y-86805635D01*
X146226834Y-86811794D01*
X146226500Y-86814866D01*
X146226500Y-87753000D01*
X146206498Y-87821121D01*
X146152842Y-87867614D01*
X146100500Y-87879000D01*
X145845500Y-87879000D01*
X145777379Y-87858998D01*
X145730886Y-87805342D01*
X145719500Y-87753000D01*
X145719500Y-86814866D01*
X145719166Y-86811794D01*
X145719000Y-86805635D01*
X145719000Y-86373116D01*
X145714525Y-86357877D01*
X145713135Y-86356672D01*
X145705452Y-86355001D01*
X145553270Y-86355001D01*
X145485149Y-86334999D01*
X145438656Y-86281343D01*
X145427960Y-86215832D01*
X145436907Y-86130705D01*
X145463920Y-86065050D01*
X145473122Y-86054782D01*
X147291499Y-84236405D01*
X147353811Y-84202379D01*
X147380594Y-84199500D01*
X160213406Y-84199500D01*
X160281527Y-84219502D01*
X160302501Y-84236405D01*
X163326343Y-87260247D01*
X163333887Y-87268537D01*
X163338000Y-87275018D01*
X163343777Y-87280443D01*
X163387667Y-87321658D01*
X163390509Y-87324413D01*
X163410230Y-87344134D01*
X163413425Y-87346612D01*
X163422447Y-87354318D01*
X163454679Y-87384586D01*
X163461628Y-87388406D01*
X163472432Y-87394346D01*
X163488956Y-87405199D01*
X163504959Y-87417613D01*
X163545543Y-87435176D01*
X163556173Y-87440383D01*
X163594940Y-87461695D01*
X163602617Y-87463666D01*
X163602622Y-87463668D01*
X163614558Y-87466732D01*
X163633266Y-87473137D01*
X163651855Y-87481181D01*
X163659683Y-87482421D01*
X163659690Y-87482423D01*
X163695524Y-87488099D01*
X163707144Y-87490505D01*
X163742289Y-87499528D01*
X163749970Y-87501500D01*
X163770224Y-87501500D01*
X163789934Y-87503051D01*
X163809943Y-87506220D01*
X163817835Y-87505474D01*
X163853961Y-87502059D01*
X163865819Y-87501500D01*
X163920803Y-87501500D01*
X163988924Y-87521502D01*
X164035417Y-87575158D01*
X164040326Y-87587623D01*
X164058450Y-87641946D01*
X164151522Y-87792348D01*
X164276697Y-87917305D01*
X164282927Y-87921145D01*
X164282928Y-87921146D01*
X164420090Y-88005694D01*
X164427262Y-88010115D01*
X164474524Y-88025791D01*
X164588611Y-88063632D01*
X164588613Y-88063632D01*
X164595139Y-88065797D01*
X164601975Y-88066497D01*
X164601978Y-88066498D01*
X164645031Y-88070909D01*
X164699600Y-88076500D01*
X165500400Y-88076500D01*
X165503646Y-88076163D01*
X165503650Y-88076163D01*
X165599308Y-88066238D01*
X165599312Y-88066237D01*
X165606166Y-88065526D01*
X165612702Y-88063345D01*
X165612704Y-88063345D01*
X165744806Y-88019272D01*
X165773946Y-88009550D01*
X165924348Y-87916478D01*
X166010784Y-87829891D01*
X166073066Y-87795812D01*
X166143886Y-87800815D01*
X166188975Y-87829736D01*
X166225469Y-87866166D01*
X166276697Y-87917305D01*
X166282927Y-87921145D01*
X166282928Y-87921146D01*
X166420090Y-88005694D01*
X166427262Y-88010115D01*
X166474524Y-88025791D01*
X166588611Y-88063632D01*
X166588613Y-88063632D01*
X166595139Y-88065797D01*
X166601975Y-88066497D01*
X166601978Y-88066498D01*
X166645031Y-88070909D01*
X166699600Y-88076500D01*
X167500400Y-88076500D01*
X167503646Y-88076163D01*
X167503650Y-88076163D01*
X167599308Y-88066238D01*
X167599312Y-88066237D01*
X167606166Y-88065526D01*
X167612702Y-88063345D01*
X167612704Y-88063345D01*
X167744806Y-88019272D01*
X167773946Y-88009550D01*
X167924348Y-87916478D01*
X168049305Y-87791303D01*
X168068354Y-87760400D01*
X168138275Y-87646968D01*
X168138276Y-87646966D01*
X168142115Y-87640738D01*
X168181664Y-87521502D01*
X168195632Y-87479389D01*
X168195632Y-87479387D01*
X168197797Y-87472861D01*
X168199333Y-87457876D01*
X168203956Y-87412753D01*
X168208500Y-87368400D01*
X168208500Y-86367600D01*
X168207810Y-86360950D01*
X168198238Y-86268692D01*
X168198237Y-86268688D01*
X168197526Y-86261834D01*
X168187349Y-86231328D01*
X168145604Y-86106206D01*
X168141550Y-86094054D01*
X168085913Y-86004146D01*
X168052329Y-85949874D01*
X168052326Y-85949870D01*
X168048478Y-85943652D01*
X168043501Y-85938684D01*
X168016908Y-85872982D01*
X168030079Y-85803218D01*
X168053119Y-85771510D01*
X168055759Y-85768866D01*
X168065305Y-85759303D01*
X168074430Y-85744500D01*
X168154275Y-85614968D01*
X168154276Y-85614966D01*
X168158115Y-85608738D01*
X168202733Y-85474219D01*
X168211632Y-85447389D01*
X168211632Y-85447387D01*
X168213797Y-85440861D01*
X168224500Y-85336400D01*
X168224500Y-84335600D01*
X168224163Y-84332350D01*
X168214238Y-84236692D01*
X168214237Y-84236688D01*
X168213526Y-84229834D01*
X168210648Y-84221206D01*
X168159868Y-84069002D01*
X168157550Y-84062054D01*
X168064478Y-83911652D01*
X167939303Y-83786695D01*
X167895023Y-83759400D01*
X167794968Y-83697725D01*
X167794966Y-83697724D01*
X167788738Y-83693885D01*
X167669929Y-83654478D01*
X167627389Y-83640368D01*
X167627387Y-83640368D01*
X167620861Y-83638203D01*
X167614025Y-83637503D01*
X167614022Y-83637502D01*
X167569162Y-83632906D01*
X167516400Y-83627500D01*
X166765600Y-83627500D01*
X166762354Y-83627837D01*
X166762350Y-83627837D01*
X166666692Y-83637762D01*
X166666688Y-83637763D01*
X166659834Y-83638474D01*
X166653298Y-83640655D01*
X166653296Y-83640655D01*
X166587112Y-83662736D01*
X166492054Y-83694450D01*
X166341652Y-83787522D01*
X166216695Y-83912697D01*
X166213898Y-83917235D01*
X166156647Y-83957824D01*
X166085724Y-83961054D01*
X166024313Y-83925428D01*
X166016938Y-83916932D01*
X166008902Y-83906793D01*
X165894171Y-83792261D01*
X165882760Y-83783249D01*
X165744757Y-83698184D01*
X165731576Y-83692037D01*
X165577290Y-83640862D01*
X165563914Y-83637995D01*
X165469562Y-83628328D01*
X165463145Y-83628000D01*
X165363115Y-83628000D01*
X165347876Y-83632475D01*
X165346671Y-83633865D01*
X165345000Y-83641548D01*
X165345000Y-84964000D01*
X165324998Y-85032121D01*
X165271342Y-85078614D01*
X165219000Y-85090000D01*
X164026116Y-85090000D01*
X164010877Y-85094475D01*
X164009672Y-85095865D01*
X164008001Y-85103548D01*
X164008001Y-85333095D01*
X164008338Y-85339614D01*
X164018257Y-85435206D01*
X164021149Y-85448600D01*
X164072588Y-85602784D01*
X164078761Y-85615962D01*
X164164066Y-85753811D01*
X164172815Y-85764851D01*
X164199450Y-85830662D01*
X164186277Y-85900425D01*
X164163240Y-85932129D01*
X164155870Y-85939512D01*
X164155866Y-85939517D01*
X164150695Y-85944697D01*
X164146853Y-85950929D01*
X164146852Y-85950931D01*
X164101592Y-86024355D01*
X164048820Y-86071848D01*
X163978748Y-86083270D01*
X163913625Y-86054996D01*
X163905238Y-86047333D01*
X162421790Y-84563885D01*
X164008000Y-84563885D01*
X164012475Y-84579124D01*
X164013865Y-84580329D01*
X164021548Y-84582000D01*
X164818885Y-84582000D01*
X164834124Y-84577525D01*
X164835329Y-84576135D01*
X164837000Y-84568452D01*
X164837000Y-83646116D01*
X164832525Y-83630877D01*
X164831135Y-83629672D01*
X164823452Y-83628001D01*
X164718905Y-83628001D01*
X164712386Y-83628338D01*
X164616794Y-83638257D01*
X164603400Y-83641149D01*
X164449216Y-83692588D01*
X164436038Y-83698761D01*
X164298193Y-83784063D01*
X164286792Y-83793099D01*
X164172261Y-83907829D01*
X164163249Y-83919240D01*
X164078184Y-84057243D01*
X164072037Y-84070424D01*
X164020862Y-84224710D01*
X164017995Y-84238086D01*
X164008328Y-84332438D01*
X164008000Y-84338855D01*
X164008000Y-84563885D01*
X162421790Y-84563885D01*
X161614000Y-83756095D01*
X161579974Y-83693783D01*
X161585039Y-83622968D01*
X161627586Y-83566132D01*
X161694106Y-83541321D01*
X161703095Y-83541000D01*
X162210885Y-83541000D01*
X162226124Y-83536525D01*
X162227329Y-83535135D01*
X162229000Y-83527452D01*
X162229000Y-83522884D01*
X162737000Y-83522884D01*
X162741475Y-83538123D01*
X162742865Y-83539328D01*
X162750548Y-83540999D01*
X163289669Y-83540999D01*
X163296490Y-83540629D01*
X163347352Y-83535105D01*
X163362604Y-83531479D01*
X163483054Y-83486324D01*
X163498649Y-83477786D01*
X163600724Y-83401285D01*
X163613285Y-83388724D01*
X163689786Y-83286649D01*
X163698324Y-83271054D01*
X163743478Y-83150606D01*
X163747105Y-83135351D01*
X163752631Y-83084486D01*
X163753000Y-83077672D01*
X163753000Y-82797115D01*
X163748525Y-82781876D01*
X163747135Y-82780671D01*
X163739452Y-82779000D01*
X162755115Y-82779000D01*
X162739876Y-82783475D01*
X162738671Y-82784865D01*
X162737000Y-82792548D01*
X162737000Y-83522884D01*
X162229000Y-83522884D01*
X162229000Y-82797115D01*
X162224525Y-82781876D01*
X162223135Y-82780671D01*
X162215452Y-82779000D01*
X161231116Y-82779000D01*
X161215877Y-82783475D01*
X161214672Y-82784865D01*
X161213001Y-82792548D01*
X161213001Y-83049053D01*
X161192999Y-83117174D01*
X161139343Y-83163667D01*
X161069069Y-83173771D01*
X161000749Y-83140904D01*
X160972192Y-83114088D01*
X160970347Y-83112355D01*
X160967507Y-83109602D01*
X160947770Y-83089865D01*
X160944573Y-83087385D01*
X160935551Y-83079680D01*
X160917415Y-83062649D01*
X160903321Y-83049414D01*
X160896375Y-83045595D01*
X160896372Y-83045593D01*
X160885566Y-83039652D01*
X160869047Y-83028801D01*
X160868279Y-83028205D01*
X160853041Y-83016386D01*
X160845772Y-83013241D01*
X160845768Y-83013238D01*
X160812463Y-82998826D01*
X160801813Y-82993609D01*
X160763060Y-82972305D01*
X160743437Y-82967267D01*
X160724734Y-82960863D01*
X160713420Y-82955967D01*
X160713419Y-82955967D01*
X160706145Y-82952819D01*
X160698322Y-82951580D01*
X160698312Y-82951577D01*
X160662476Y-82945901D01*
X160650856Y-82943495D01*
X160615711Y-82934472D01*
X160615710Y-82934472D01*
X160608030Y-82932500D01*
X160587776Y-82932500D01*
X160568065Y-82930949D01*
X160565534Y-82930548D01*
X160548057Y-82927780D01*
X160540165Y-82928526D01*
X160504039Y-82931941D01*
X160492181Y-82932500D01*
X147144763Y-82932500D01*
X147133579Y-82931973D01*
X147126091Y-82930299D01*
X147118168Y-82930548D01*
X147058033Y-82932438D01*
X147054075Y-82932500D01*
X147026144Y-82932500D01*
X147022229Y-82932995D01*
X147022225Y-82932995D01*
X147022167Y-82933003D01*
X147022138Y-82933006D01*
X147010296Y-82933939D01*
X146966110Y-82935327D01*
X146948744Y-82940372D01*
X146946658Y-82940978D01*
X146927306Y-82944986D01*
X146915068Y-82946532D01*
X146915066Y-82946533D01*
X146907203Y-82947526D01*
X146866086Y-82963806D01*
X146854885Y-82967641D01*
X146812406Y-82979982D01*
X146805587Y-82984015D01*
X146805582Y-82984017D01*
X146794971Y-82990293D01*
X146777221Y-82998990D01*
X146758383Y-83006448D01*
X146751967Y-83011109D01*
X146751966Y-83011110D01*
X146722625Y-83032428D01*
X146712701Y-83038947D01*
X146681460Y-83057422D01*
X146681455Y-83057426D01*
X146674637Y-83061458D01*
X146660313Y-83075782D01*
X146645281Y-83088621D01*
X146628893Y-83100528D01*
X146604165Y-83130419D01*
X146600712Y-83134593D01*
X146592722Y-83143373D01*
X144575500Y-85160595D01*
X144513188Y-85194621D01*
X144486405Y-85197500D01*
X144430513Y-85197500D01*
X144424053Y-85198873D01*
X144424054Y-85198873D01*
X144356253Y-85213284D01*
X144285463Y-85207882D01*
X144228830Y-85165065D01*
X144204337Y-85098427D01*
X144219758Y-85029126D01*
X144240962Y-85000942D01*
X146989019Y-82252885D01*
X161213000Y-82252885D01*
X161217475Y-82268124D01*
X161218865Y-82269329D01*
X161226548Y-82271000D01*
X162210885Y-82271000D01*
X162226124Y-82266525D01*
X162227329Y-82265135D01*
X162229000Y-82257452D01*
X162229000Y-82252885D01*
X162737000Y-82252885D01*
X162741475Y-82268124D01*
X162742865Y-82269329D01*
X162750548Y-82271000D01*
X163734884Y-82271000D01*
X163750123Y-82266525D01*
X163751328Y-82265135D01*
X163752999Y-82257452D01*
X163752999Y-81972331D01*
X163752629Y-81965510D01*
X163746252Y-81906793D01*
X163748176Y-81906584D01*
X163748178Y-81873416D01*
X163746252Y-81873207D01*
X163752631Y-81814486D01*
X163753000Y-81807672D01*
X163753000Y-81527115D01*
X163748525Y-81511876D01*
X163747135Y-81510671D01*
X163739452Y-81509000D01*
X162755115Y-81509000D01*
X162739876Y-81513475D01*
X162738671Y-81514865D01*
X162737000Y-81522548D01*
X162737000Y-82252885D01*
X162229000Y-82252885D01*
X162229000Y-81527115D01*
X162224525Y-81511876D01*
X162223135Y-81510671D01*
X162215452Y-81509000D01*
X161231116Y-81509000D01*
X161215877Y-81513475D01*
X161214672Y-81514865D01*
X161213001Y-81522548D01*
X161213001Y-81807669D01*
X161213371Y-81814490D01*
X161219748Y-81873207D01*
X161217824Y-81873416D01*
X161217822Y-81906584D01*
X161219748Y-81906793D01*
X161213369Y-81965514D01*
X161213000Y-81972328D01*
X161213000Y-82252885D01*
X146989019Y-82252885D01*
X147291499Y-81950405D01*
X147353811Y-81916379D01*
X147380594Y-81913500D01*
X152321233Y-81913500D01*
X152332416Y-81914027D01*
X152339909Y-81915702D01*
X152347835Y-81915453D01*
X152347836Y-81915453D01*
X152407986Y-81913562D01*
X152411945Y-81913500D01*
X152439856Y-81913500D01*
X152443791Y-81913003D01*
X152443856Y-81912995D01*
X152455693Y-81912062D01*
X152487951Y-81911048D01*
X152491970Y-81910922D01*
X152499889Y-81910673D01*
X152519343Y-81905021D01*
X152538700Y-81901013D01*
X152550930Y-81899468D01*
X152550931Y-81899468D01*
X152558797Y-81898474D01*
X152566168Y-81895555D01*
X152566170Y-81895555D01*
X152599912Y-81882196D01*
X152611142Y-81878351D01*
X152645983Y-81868229D01*
X152645984Y-81868229D01*
X152653593Y-81866018D01*
X152660412Y-81861985D01*
X152660417Y-81861983D01*
X152671028Y-81855707D01*
X152688776Y-81847012D01*
X152707617Y-81839552D01*
X152743387Y-81813564D01*
X152753307Y-81807048D01*
X152784535Y-81788580D01*
X152784538Y-81788578D01*
X152791362Y-81784542D01*
X152805683Y-81770221D01*
X152820717Y-81757380D01*
X152823445Y-81755398D01*
X152837107Y-81745472D01*
X152865298Y-81711395D01*
X152873288Y-81702616D01*
X154034770Y-80541134D01*
X161212500Y-80541134D01*
X161212869Y-80544531D01*
X161219255Y-80603316D01*
X161217564Y-80603500D01*
X161217564Y-80636556D01*
X161219748Y-80636793D01*
X161213369Y-80695514D01*
X161213000Y-80702328D01*
X161213000Y-80982885D01*
X161217475Y-80998124D01*
X161218865Y-80999329D01*
X161226548Y-81001000D01*
X161663635Y-81001000D01*
X161669794Y-81001166D01*
X161672866Y-81001500D01*
X163293134Y-81001500D01*
X163296206Y-81001166D01*
X163302365Y-81001000D01*
X163734884Y-81001000D01*
X163750123Y-80996525D01*
X163751328Y-80995135D01*
X163752999Y-80987452D01*
X163752999Y-80770407D01*
X163753216Y-80769669D01*
X164641312Y-80769669D01*
X164641682Y-80776490D01*
X164647206Y-80827352D01*
X164650832Y-80842604D01*
X164695987Y-80963054D01*
X164704525Y-80978649D01*
X164781026Y-81080724D01*
X164793587Y-81093285D01*
X164895662Y-81169786D01*
X164911257Y-81178324D01*
X165031705Y-81223478D01*
X165046960Y-81227105D01*
X165097825Y-81232631D01*
X165104639Y-81233000D01*
X165977196Y-81233000D01*
X165992435Y-81228525D01*
X165993640Y-81227135D01*
X165995311Y-81219452D01*
X165995311Y-81214884D01*
X166503311Y-81214884D01*
X166507786Y-81230123D01*
X166509176Y-81231328D01*
X166516859Y-81232999D01*
X167393980Y-81232999D01*
X167400801Y-81232629D01*
X167451663Y-81227105D01*
X167466915Y-81223479D01*
X167587365Y-81178324D01*
X167602960Y-81169786D01*
X167705035Y-81093285D01*
X167717596Y-81080724D01*
X167794097Y-80978649D01*
X167802635Y-80963054D01*
X167847789Y-80842606D01*
X167851416Y-80827351D01*
X167856942Y-80776486D01*
X167857311Y-80769672D01*
X167857311Y-80472115D01*
X167852836Y-80456876D01*
X167851446Y-80455671D01*
X167843763Y-80454000D01*
X166521426Y-80454000D01*
X166506187Y-80458475D01*
X166504982Y-80459865D01*
X166503311Y-80467548D01*
X166503311Y-81214884D01*
X165995311Y-81214884D01*
X165995311Y-80472115D01*
X165990836Y-80456876D01*
X165989446Y-80455671D01*
X165981763Y-80454000D01*
X164659427Y-80454000D01*
X164644188Y-80458475D01*
X164642983Y-80459865D01*
X164641312Y-80467548D01*
X164641312Y-80769669D01*
X163753216Y-80769669D01*
X163773001Y-80702286D01*
X163828961Y-80654769D01*
X163830206Y-80654230D01*
X163837821Y-80652018D01*
X163844641Y-80647985D01*
X163844647Y-80647982D01*
X163855256Y-80641707D01*
X163873004Y-80633012D01*
X163891845Y-80625552D01*
X163922198Y-80603500D01*
X163927615Y-80599564D01*
X163937535Y-80593048D01*
X163968763Y-80574580D01*
X163968766Y-80574578D01*
X163975590Y-80570542D01*
X163989911Y-80556221D01*
X164004945Y-80543380D01*
X164008036Y-80541134D01*
X164021335Y-80531472D01*
X164049526Y-80497395D01*
X164057516Y-80488616D01*
X164563227Y-79982905D01*
X164625539Y-79948879D01*
X164652322Y-79946000D01*
X165977196Y-79946000D01*
X165992435Y-79941525D01*
X165993640Y-79940135D01*
X165995311Y-79932452D01*
X165995311Y-79185115D01*
X165990836Y-79169876D01*
X165989446Y-79168671D01*
X165981763Y-79167000D01*
X165883811Y-79167000D01*
X165815690Y-79146998D01*
X165769197Y-79093342D01*
X165757811Y-79041000D01*
X165757811Y-78408999D01*
X165777813Y-78340878D01*
X165831469Y-78294385D01*
X165883811Y-78282999D01*
X165977195Y-78282999D01*
X165992435Y-78278524D01*
X165993640Y-78277134D01*
X165995311Y-78269451D01*
X165995311Y-77522115D01*
X165990836Y-77506876D01*
X165989446Y-77505671D01*
X165981763Y-77504000D01*
X164659427Y-77504000D01*
X164644188Y-77508475D01*
X164642983Y-77509865D01*
X164641312Y-77517548D01*
X164641312Y-77590500D01*
X164621310Y-77658621D01*
X164567654Y-77705114D01*
X164515312Y-77716500D01*
X164201177Y-77716500D01*
X164138995Y-77723255D01*
X164002606Y-77774385D01*
X163959997Y-77806319D01*
X163955065Y-77810015D01*
X163888559Y-77834863D01*
X163819176Y-77819810D01*
X163768946Y-77769636D01*
X163753500Y-77709189D01*
X163753500Y-76977885D01*
X164641311Y-76977885D01*
X164645786Y-76993124D01*
X164647176Y-76994329D01*
X164654859Y-76996000D01*
X165977196Y-76996000D01*
X165992435Y-76991525D01*
X165993640Y-76990135D01*
X165995311Y-76982452D01*
X165995311Y-76977885D01*
X166503311Y-76977885D01*
X166507786Y-76993124D01*
X166509176Y-76994329D01*
X166516859Y-76996000D01*
X167839195Y-76996000D01*
X167854434Y-76991525D01*
X167855639Y-76990135D01*
X167857310Y-76982452D01*
X167857310Y-76680331D01*
X167856940Y-76673510D01*
X167851416Y-76622648D01*
X167847790Y-76607396D01*
X167802635Y-76486946D01*
X167794097Y-76471351D01*
X167717596Y-76369276D01*
X167705035Y-76356715D01*
X167602960Y-76280214D01*
X167587365Y-76271676D01*
X167466917Y-76226522D01*
X167451662Y-76222895D01*
X167400797Y-76217369D01*
X167393983Y-76217000D01*
X166521426Y-76217000D01*
X166506187Y-76221475D01*
X166504982Y-76222865D01*
X166503311Y-76230548D01*
X166503311Y-76977885D01*
X165995311Y-76977885D01*
X165995311Y-76235116D01*
X165990836Y-76219877D01*
X165989446Y-76218672D01*
X165981763Y-76217001D01*
X165104642Y-76217001D01*
X165097821Y-76217371D01*
X165046959Y-76222895D01*
X165031707Y-76226521D01*
X164911257Y-76271676D01*
X164895662Y-76280214D01*
X164793587Y-76356715D01*
X164781026Y-76369276D01*
X164704525Y-76471351D01*
X164695987Y-76486946D01*
X164650833Y-76607394D01*
X164647206Y-76622649D01*
X164641680Y-76673514D01*
X164641311Y-76680328D01*
X164641311Y-76977885D01*
X163753500Y-76977885D01*
X163753500Y-76888866D01*
X163746745Y-76826684D01*
X163748436Y-76826500D01*
X163748436Y-76793444D01*
X163746252Y-76793207D01*
X163752631Y-76734486D01*
X163753000Y-76727672D01*
X163753000Y-76447115D01*
X163748525Y-76431876D01*
X163747135Y-76430671D01*
X163739452Y-76429000D01*
X163302365Y-76429000D01*
X163296206Y-76428834D01*
X163293134Y-76428500D01*
X161672866Y-76428500D01*
X161669794Y-76428834D01*
X161663635Y-76429000D01*
X161231116Y-76429000D01*
X161215877Y-76433475D01*
X161214672Y-76434865D01*
X161213001Y-76442548D01*
X161213001Y-76727669D01*
X161213371Y-76734490D01*
X161219748Y-76793207D01*
X161217567Y-76793444D01*
X161217567Y-76826501D01*
X161219255Y-76826684D01*
X161212500Y-76888866D01*
X161212500Y-78001134D01*
X161212869Y-78004531D01*
X161219255Y-78063316D01*
X161217564Y-78063500D01*
X161217564Y-78096556D01*
X161219748Y-78096793D01*
X161213369Y-78155514D01*
X161213000Y-78162328D01*
X161213000Y-78442885D01*
X161217475Y-78458124D01*
X161218865Y-78459329D01*
X161226548Y-78461000D01*
X161663635Y-78461000D01*
X161669794Y-78461166D01*
X161672866Y-78461500D01*
X162611000Y-78461500D01*
X162679121Y-78481502D01*
X162725614Y-78535158D01*
X162737000Y-78587500D01*
X162737000Y-78842500D01*
X162716998Y-78910621D01*
X162663342Y-78957114D01*
X162611000Y-78968500D01*
X161672866Y-78968500D01*
X161669794Y-78968834D01*
X161663635Y-78969000D01*
X161231116Y-78969000D01*
X161215877Y-78973475D01*
X161214672Y-78974865D01*
X161213001Y-78982548D01*
X161213001Y-79267669D01*
X161213371Y-79274490D01*
X161219748Y-79333207D01*
X161217567Y-79333444D01*
X161217567Y-79366501D01*
X161219255Y-79366684D01*
X161212500Y-79428866D01*
X161212500Y-80541134D01*
X154034770Y-80541134D01*
X158673019Y-75902885D01*
X161213000Y-75902885D01*
X161217475Y-75918124D01*
X161218865Y-75919329D01*
X161226548Y-75921000D01*
X162210885Y-75921000D01*
X162226124Y-75916525D01*
X162227329Y-75915135D01*
X162229000Y-75907452D01*
X162229000Y-75902885D01*
X162737000Y-75902885D01*
X162741475Y-75918124D01*
X162742865Y-75919329D01*
X162750548Y-75921000D01*
X163734884Y-75921000D01*
X163750123Y-75916525D01*
X163751328Y-75915135D01*
X163752999Y-75907452D01*
X163752999Y-75622331D01*
X163752629Y-75615510D01*
X163746252Y-75556793D01*
X163748176Y-75556584D01*
X163748178Y-75523416D01*
X163746252Y-75523207D01*
X163752631Y-75464486D01*
X163753000Y-75457672D01*
X163753000Y-75177115D01*
X163748525Y-75161876D01*
X163747135Y-75160671D01*
X163739452Y-75159000D01*
X162755115Y-75159000D01*
X162739876Y-75163475D01*
X162738671Y-75164865D01*
X162737000Y-75172548D01*
X162737000Y-75902885D01*
X162229000Y-75902885D01*
X162229000Y-75177115D01*
X162224525Y-75161876D01*
X162223135Y-75160671D01*
X162215452Y-75159000D01*
X161231116Y-75159000D01*
X161215877Y-75163475D01*
X161214672Y-75164865D01*
X161213001Y-75172548D01*
X161213001Y-75457669D01*
X161213371Y-75464490D01*
X161219748Y-75523207D01*
X161217824Y-75523416D01*
X161217822Y-75556584D01*
X161219748Y-75556793D01*
X161213369Y-75615514D01*
X161213000Y-75622328D01*
X161213000Y-75902885D01*
X158673019Y-75902885D01*
X159943019Y-74632885D01*
X161213000Y-74632885D01*
X161217475Y-74648124D01*
X161218865Y-74649329D01*
X161226548Y-74651000D01*
X162210885Y-74651000D01*
X162226124Y-74646525D01*
X162227329Y-74645135D01*
X162229000Y-74637452D01*
X162229000Y-74632885D01*
X162737000Y-74632885D01*
X162741475Y-74648124D01*
X162742865Y-74649329D01*
X162750548Y-74651000D01*
X163734884Y-74651000D01*
X163750123Y-74646525D01*
X163751328Y-74645135D01*
X163752999Y-74637452D01*
X163752999Y-74352331D01*
X163752629Y-74345510D01*
X163747105Y-74294648D01*
X163743479Y-74279396D01*
X163698324Y-74158946D01*
X163689786Y-74143351D01*
X163613285Y-74041276D01*
X163600724Y-74028715D01*
X163498649Y-73952214D01*
X163483054Y-73943676D01*
X163362606Y-73898522D01*
X163347351Y-73894895D01*
X163296486Y-73889369D01*
X163289672Y-73889000D01*
X162755115Y-73889000D01*
X162739876Y-73893475D01*
X162738671Y-73894865D01*
X162737000Y-73902548D01*
X162737000Y-74632885D01*
X162229000Y-74632885D01*
X162229000Y-73907116D01*
X162224525Y-73891877D01*
X162223135Y-73890672D01*
X162215452Y-73889001D01*
X161676331Y-73889001D01*
X161669510Y-73889371D01*
X161618648Y-73894895D01*
X161603396Y-73898521D01*
X161482946Y-73943676D01*
X161467351Y-73952214D01*
X161365276Y-74028715D01*
X161352715Y-74041276D01*
X161276214Y-74143351D01*
X161267676Y-74158946D01*
X161222522Y-74279394D01*
X161218895Y-74294649D01*
X161213369Y-74345514D01*
X161213000Y-74352328D01*
X161213000Y-74632885D01*
X159943019Y-74632885D01*
X161434809Y-73141095D01*
X163754001Y-73141095D01*
X163754338Y-73147614D01*
X163764257Y-73243206D01*
X163767149Y-73256600D01*
X163818588Y-73410784D01*
X163824761Y-73423962D01*
X163910063Y-73561807D01*
X163919099Y-73573208D01*
X164033829Y-73687739D01*
X164045240Y-73696751D01*
X164183243Y-73781816D01*
X164196424Y-73787963D01*
X164350710Y-73839138D01*
X164364086Y-73842005D01*
X164458438Y-73851672D01*
X164464854Y-73852000D01*
X164564885Y-73852000D01*
X164580124Y-73847525D01*
X164581329Y-73846135D01*
X164583000Y-73838452D01*
X164583000Y-72916115D01*
X164578525Y-72900876D01*
X164577135Y-72899671D01*
X164569452Y-72898000D01*
X163772116Y-72898000D01*
X163756877Y-72902475D01*
X163755672Y-72903865D01*
X163754001Y-72911548D01*
X163754001Y-73141095D01*
X161434809Y-73141095D01*
X163293499Y-71282405D01*
X163355811Y-71248379D01*
X163382594Y-71245500D01*
X163682803Y-71245500D01*
X163750924Y-71265502D01*
X163797417Y-71319158D01*
X163802326Y-71331623D01*
X163811905Y-71360333D01*
X163820450Y-71385946D01*
X163913522Y-71536348D01*
X163918704Y-71541521D01*
X163923251Y-71547258D01*
X163921560Y-71548598D01*
X163950543Y-71601569D01*
X163945538Y-71672389D01*
X163921843Y-71709328D01*
X163922799Y-71710083D01*
X163909249Y-71727240D01*
X163824184Y-71865243D01*
X163818037Y-71878424D01*
X163766862Y-72032710D01*
X163763995Y-72046086D01*
X163754328Y-72140438D01*
X163754000Y-72146855D01*
X163754000Y-72371885D01*
X163758475Y-72387124D01*
X163759865Y-72388329D01*
X163767548Y-72390000D01*
X164965000Y-72390000D01*
X165033121Y-72410002D01*
X165079614Y-72463658D01*
X165091000Y-72516000D01*
X165091000Y-73833884D01*
X165095475Y-73849123D01*
X165096865Y-73850328D01*
X165104548Y-73851999D01*
X165209095Y-73851999D01*
X165215614Y-73851662D01*
X165311206Y-73841743D01*
X165324600Y-73838851D01*
X165478784Y-73787412D01*
X165491962Y-73781239D01*
X165629807Y-73695937D01*
X165641208Y-73686901D01*
X165755738Y-73572172D01*
X165762794Y-73563238D01*
X165820712Y-73522177D01*
X165891635Y-73518947D01*
X165953046Y-73554574D01*
X165959846Y-73562407D01*
X165963522Y-73568348D01*
X165968704Y-73573521D01*
X165993326Y-73598100D01*
X166088697Y-73693305D01*
X166094927Y-73697145D01*
X166094928Y-73697146D01*
X166232288Y-73781816D01*
X166239262Y-73786115D01*
X166289557Y-73802797D01*
X166400611Y-73839632D01*
X166400613Y-73839632D01*
X166407139Y-73841797D01*
X166413975Y-73842497D01*
X166413978Y-73842498D01*
X166457031Y-73846909D01*
X166511600Y-73852500D01*
X167262400Y-73852500D01*
X167265646Y-73852163D01*
X167265650Y-73852163D01*
X167361308Y-73842238D01*
X167361312Y-73842237D01*
X167368166Y-73841526D01*
X167374702Y-73839345D01*
X167374704Y-73839345D01*
X167506806Y-73795272D01*
X167535946Y-73785550D01*
X167686348Y-73692478D01*
X167811305Y-73567303D01*
X167825859Y-73543692D01*
X167900275Y-73422968D01*
X167900276Y-73422966D01*
X167904115Y-73416738D01*
X167945355Y-73292402D01*
X167957632Y-73255389D01*
X167957632Y-73255387D01*
X167959797Y-73248861D01*
X167961110Y-73236053D01*
X167968616Y-73162787D01*
X167970500Y-73144400D01*
X167970500Y-72143600D01*
X167969353Y-72132542D01*
X167960238Y-72044692D01*
X167960237Y-72044688D01*
X167959526Y-72037834D01*
X167903550Y-71870054D01*
X167810478Y-71719652D01*
X167805296Y-71714479D01*
X167800749Y-71708742D01*
X167802551Y-71707314D01*
X167773809Y-71654774D01*
X167778819Y-71583955D01*
X167802542Y-71546976D01*
X167801596Y-71546229D01*
X167806134Y-71540483D01*
X167811305Y-71535303D01*
X167822754Y-71516729D01*
X167900275Y-71390968D01*
X167900276Y-71390966D01*
X167904115Y-71384738D01*
X167932520Y-71299100D01*
X167957632Y-71223389D01*
X167957632Y-71223387D01*
X167959797Y-71216861D01*
X167960692Y-71208131D01*
X167965961Y-71156703D01*
X167970500Y-71112400D01*
X167970500Y-70111600D01*
X167963210Y-70041341D01*
X167960238Y-70012692D01*
X167960237Y-70012688D01*
X167959526Y-70005834D01*
X167955089Y-69992533D01*
X167908658Y-69853365D01*
X167903550Y-69838054D01*
X167810478Y-69687652D01*
X167685303Y-69562695D01*
X167679072Y-69558854D01*
X167540968Y-69473725D01*
X167540966Y-69473724D01*
X167534738Y-69469885D01*
X167374254Y-69416655D01*
X167373389Y-69416368D01*
X167373387Y-69416368D01*
X167366861Y-69414203D01*
X167360025Y-69413503D01*
X167360022Y-69413502D01*
X167316969Y-69409091D01*
X167262400Y-69403500D01*
X166461600Y-69403500D01*
X166458354Y-69403837D01*
X166458350Y-69403837D01*
X166362692Y-69413762D01*
X166362688Y-69413763D01*
X166355834Y-69414474D01*
X166349298Y-69416655D01*
X166349296Y-69416655D01*
X166217194Y-69460728D01*
X166188054Y-69470450D01*
X166037652Y-69563522D01*
X165978935Y-69622342D01*
X165951216Y-69650109D01*
X165888934Y-69684188D01*
X165818114Y-69679185D01*
X165773025Y-69650264D01*
X165690483Y-69567866D01*
X165685303Y-69562695D01*
X165679072Y-69558854D01*
X165540968Y-69473725D01*
X165540966Y-69473724D01*
X165534738Y-69469885D01*
X165374254Y-69416655D01*
X165373389Y-69416368D01*
X165373387Y-69416368D01*
X165366861Y-69414203D01*
X165360025Y-69413503D01*
X165360022Y-69413502D01*
X165316969Y-69409091D01*
X165262400Y-69403500D01*
X164461600Y-69403500D01*
X164458354Y-69403837D01*
X164458350Y-69403837D01*
X164362692Y-69413762D01*
X164362688Y-69413763D01*
X164355834Y-69414474D01*
X164349298Y-69416655D01*
X164349296Y-69416655D01*
X164217194Y-69460728D01*
X164188054Y-69470450D01*
X164037652Y-69563522D01*
X163912695Y-69688697D01*
X163908855Y-69694927D01*
X163908854Y-69694928D01*
X163833796Y-69816695D01*
X163819885Y-69839262D01*
X163802337Y-69892168D01*
X163761906Y-69950527D01*
X163696342Y-69977764D01*
X163682744Y-69978500D01*
X163146767Y-69978500D01*
X163135584Y-69977973D01*
X163128091Y-69976298D01*
X163120165Y-69976547D01*
X163120164Y-69976547D01*
X163060014Y-69978438D01*
X163056055Y-69978500D01*
X163028144Y-69978500D01*
X163024210Y-69978997D01*
X163024209Y-69978997D01*
X163024144Y-69979005D01*
X163012307Y-69979938D01*
X162980490Y-69980938D01*
X162976029Y-69981078D01*
X162968110Y-69981327D01*
X162950454Y-69986456D01*
X162948658Y-69986978D01*
X162929306Y-69990986D01*
X162922235Y-69991880D01*
X162909203Y-69993526D01*
X162901834Y-69996443D01*
X162901832Y-69996444D01*
X162868097Y-70009800D01*
X162856869Y-70013645D01*
X162814407Y-70025982D01*
X162807585Y-70030016D01*
X162807579Y-70030019D01*
X162796968Y-70036294D01*
X162779218Y-70044990D01*
X162767756Y-70049528D01*
X162767751Y-70049531D01*
X162760383Y-70052448D01*
X162753968Y-70057109D01*
X162724625Y-70078427D01*
X162714707Y-70084943D01*
X162701848Y-70092548D01*
X162676637Y-70107458D01*
X162662313Y-70121782D01*
X162647281Y-70134621D01*
X162630893Y-70146528D01*
X162602712Y-70180593D01*
X162594722Y-70189373D01*
X162444095Y-70340000D01*
X162381783Y-70374026D01*
X162310968Y-70368961D01*
X162254132Y-70326414D01*
X162229321Y-70259894D01*
X162229000Y-70250905D01*
X162229000Y-70097115D01*
X162224525Y-70081876D01*
X162223135Y-70080671D01*
X162215452Y-70079000D01*
X161485115Y-70079000D01*
X161469876Y-70083475D01*
X161468671Y-70084865D01*
X161467000Y-70092548D01*
X161467000Y-71076884D01*
X161471475Y-71092123D01*
X161487331Y-71105863D01*
X161525714Y-71165589D01*
X161525714Y-71236586D01*
X161493913Y-71290182D01*
X152174500Y-80609595D01*
X152112188Y-80643621D01*
X152085405Y-80646500D01*
X147144768Y-80646500D01*
X147133585Y-80645973D01*
X147126092Y-80644298D01*
X147118166Y-80644547D01*
X147118165Y-80644547D01*
X147058002Y-80646438D01*
X147054044Y-80646500D01*
X147026144Y-80646500D01*
X147022154Y-80647004D01*
X147010320Y-80647936D01*
X146966111Y-80649326D01*
X146958495Y-80651539D01*
X146958493Y-80651539D01*
X146946652Y-80654979D01*
X146927293Y-80658988D01*
X146925983Y-80659154D01*
X146907203Y-80661526D01*
X146899837Y-80664442D01*
X146899831Y-80664444D01*
X146866098Y-80677800D01*
X146854868Y-80681645D01*
X146832942Y-80688015D01*
X146812407Y-80693981D01*
X146805584Y-80698016D01*
X146794966Y-80704295D01*
X146777213Y-80712992D01*
X146772890Y-80714704D01*
X146758383Y-80720448D01*
X146751968Y-80725109D01*
X146722612Y-80746437D01*
X146712695Y-80752951D01*
X146674638Y-80775458D01*
X146660317Y-80789779D01*
X146645284Y-80802619D01*
X146628893Y-80814528D01*
X146605665Y-80842606D01*
X146600702Y-80848605D01*
X146592712Y-80857384D01*
X143305500Y-84144595D01*
X143243188Y-84178621D01*
X143216405Y-84181500D01*
X143160513Y-84181500D01*
X143154061Y-84182872D01*
X143154056Y-84182872D01*
X143083870Y-84197791D01*
X142973712Y-84221206D01*
X142967682Y-84223891D01*
X142967681Y-84223891D01*
X142805278Y-84296197D01*
X142805276Y-84296198D01*
X142799248Y-84298882D01*
X142793907Y-84302762D01*
X142793906Y-84302763D01*
X142773093Y-84317885D01*
X142644747Y-84411134D01*
X142640326Y-84416044D01*
X142640325Y-84416045D01*
X142532631Y-84535652D01*
X142516960Y-84553056D01*
X142467088Y-84639437D01*
X142443056Y-84681062D01*
X142421473Y-84718444D01*
X142362458Y-84900072D01*
X142361768Y-84906633D01*
X142361768Y-84906635D01*
X142356201Y-84959600D01*
X142342496Y-85090000D01*
X142343186Y-85096565D01*
X142355454Y-85213284D01*
X142362458Y-85279928D01*
X142421473Y-85461556D01*
X142424776Y-85467278D01*
X142424777Y-85467279D01*
X142426245Y-85469821D01*
X142516960Y-85626944D01*
X142521378Y-85631851D01*
X142521379Y-85631852D01*
X142621572Y-85743128D01*
X142644747Y-85768866D01*
X142722658Y-85825472D01*
X142747561Y-85843565D01*
X142790915Y-85899787D01*
X142799500Y-85945501D01*
X142799500Y-86228500D01*
X142779498Y-86296621D01*
X142725842Y-86343114D01*
X142673500Y-86354500D01*
X141606866Y-86354500D01*
X141603469Y-86354869D01*
X141561069Y-86359475D01*
X141544684Y-86361255D01*
X141544473Y-86359309D01*
X141511527Y-86359309D01*
X141511316Y-86361255D01*
X141452531Y-86354869D01*
X141449134Y-86354500D01*
X140336866Y-86354500D01*
X140333469Y-86354869D01*
X140291069Y-86359475D01*
X140274684Y-86361255D01*
X140274473Y-86359309D01*
X140241527Y-86359309D01*
X140241316Y-86361255D01*
X140182531Y-86354869D01*
X140179134Y-86354500D01*
X139066866Y-86354500D01*
X139063469Y-86354869D01*
X139021069Y-86359475D01*
X139004684Y-86361255D01*
X139004473Y-86359309D01*
X138971527Y-86359309D01*
X138971316Y-86361255D01*
X138912531Y-86354869D01*
X138909134Y-86354500D01*
X137796866Y-86354500D01*
X137793469Y-86354869D01*
X137751069Y-86359475D01*
X137734684Y-86361255D01*
X137734500Y-86359564D01*
X137701444Y-86359564D01*
X137701207Y-86361748D01*
X137642486Y-86355369D01*
X137635672Y-86355000D01*
X137355115Y-86355000D01*
X137339876Y-86359475D01*
X137338671Y-86360865D01*
X137337000Y-86368548D01*
X137337000Y-86805635D01*
X137336834Y-86811794D01*
X137336500Y-86814866D01*
X137336500Y-87753000D01*
X137316498Y-87821121D01*
X137262842Y-87867614D01*
X137210500Y-87879000D01*
X136085116Y-87879000D01*
X136069877Y-87883475D01*
X136068672Y-87884865D01*
X136067001Y-87892548D01*
X136067001Y-88431669D01*
X136067371Y-88438490D01*
X136072895Y-88489352D01*
X136076522Y-88504607D01*
X136100355Y-88568183D01*
X136105538Y-88638990D01*
X136071617Y-88701359D01*
X136009361Y-88735488D01*
X135982376Y-88738412D01*
X133554977Y-88738478D01*
X133486856Y-88718478D01*
X133440362Y-88664823D01*
X133430256Y-88594550D01*
X133430357Y-88594017D01*
X133431745Y-88590316D01*
X133438500Y-88528134D01*
X133438500Y-87352885D01*
X136067000Y-87352885D01*
X136071475Y-87368124D01*
X136072865Y-87369329D01*
X136080548Y-87371000D01*
X136810885Y-87371000D01*
X136826124Y-87366525D01*
X136827329Y-87365135D01*
X136829000Y-87357452D01*
X136829000Y-86373116D01*
X136824525Y-86357877D01*
X136823135Y-86356672D01*
X136815452Y-86355001D01*
X136530331Y-86355001D01*
X136523510Y-86355371D01*
X136472648Y-86360895D01*
X136457396Y-86364521D01*
X136336946Y-86409676D01*
X136321351Y-86418214D01*
X136219276Y-86494715D01*
X136206715Y-86507276D01*
X136130214Y-86609351D01*
X136121676Y-86624946D01*
X136076522Y-86745394D01*
X136072895Y-86760649D01*
X136067369Y-86811514D01*
X136067000Y-86818328D01*
X136067000Y-87352885D01*
X133438500Y-87352885D01*
X133438500Y-86731866D01*
X133431745Y-86669684D01*
X133423611Y-86647987D01*
X133418428Y-86577180D01*
X133452348Y-86514811D01*
X133514604Y-86480682D01*
X133585428Y-86485628D01*
X133630611Y-86514584D01*
X133666829Y-86550739D01*
X133678240Y-86559751D01*
X133816243Y-86644816D01*
X133829424Y-86650963D01*
X133983710Y-86702138D01*
X133997086Y-86705005D01*
X134091438Y-86714672D01*
X134097854Y-86715000D01*
X134347885Y-86715000D01*
X134363124Y-86710525D01*
X134364329Y-86709135D01*
X134366000Y-86701450D01*
X134366000Y-86696884D01*
X134874000Y-86696884D01*
X134878475Y-86712123D01*
X134879865Y-86713328D01*
X134887548Y-86714999D01*
X135142095Y-86714999D01*
X135148614Y-86714662D01*
X135244206Y-86704743D01*
X135257600Y-86701851D01*
X135411784Y-86650412D01*
X135424962Y-86644239D01*
X135562807Y-86558937D01*
X135574208Y-86549901D01*
X135688739Y-86435171D01*
X135697751Y-86423760D01*
X135782816Y-86285757D01*
X135788963Y-86272576D01*
X135840138Y-86118290D01*
X135843005Y-86104914D01*
X135852672Y-86010562D01*
X135853000Y-86004146D01*
X135853000Y-85891615D01*
X135848525Y-85876376D01*
X135847135Y-85875171D01*
X135839452Y-85873500D01*
X134892115Y-85873500D01*
X134876876Y-85877975D01*
X134875671Y-85879365D01*
X134874000Y-85887048D01*
X134874000Y-86696884D01*
X134366000Y-86696884D01*
X134366000Y-85891615D01*
X134361525Y-85876376D01*
X134360135Y-85875171D01*
X134352452Y-85873500D01*
X133405116Y-85873500D01*
X133389877Y-85877975D01*
X133388672Y-85879365D01*
X133387001Y-85887048D01*
X133387001Y-86004095D01*
X133387338Y-86010614D01*
X133397257Y-86106206D01*
X133400149Y-86119600D01*
X133440334Y-86240051D01*
X133442918Y-86311001D01*
X133406734Y-86372085D01*
X133343270Y-86403909D01*
X133272675Y-86396370D01*
X133245245Y-86380753D01*
X133238564Y-86375746D01*
X133176705Y-86329385D01*
X133040316Y-86278255D01*
X132978134Y-86271500D01*
X132839500Y-86271500D01*
X132771379Y-86251498D01*
X132724886Y-86197842D01*
X132713500Y-86145500D01*
X132713500Y-83644763D01*
X132714027Y-83633579D01*
X132715701Y-83626091D01*
X132713562Y-83558032D01*
X132713500Y-83554075D01*
X132713500Y-83526144D01*
X132712994Y-83522138D01*
X132712061Y-83510292D01*
X132711976Y-83507568D01*
X132710673Y-83466110D01*
X132705022Y-83446658D01*
X132701014Y-83427306D01*
X132699468Y-83415068D01*
X132699467Y-83415066D01*
X132698474Y-83407203D01*
X132682194Y-83366086D01*
X132678359Y-83354885D01*
X132666018Y-83312406D01*
X132661985Y-83305587D01*
X132661983Y-83305582D01*
X132655707Y-83294971D01*
X132647010Y-83277221D01*
X132639552Y-83258383D01*
X132613571Y-83222623D01*
X132607053Y-83212701D01*
X132588578Y-83181460D01*
X132588574Y-83181455D01*
X132584542Y-83174637D01*
X132570218Y-83160313D01*
X132557376Y-83145278D01*
X132545472Y-83128893D01*
X132527574Y-83114086D01*
X132487836Y-83055255D01*
X132482579Y-83030172D01*
X132482036Y-83025000D01*
X132471896Y-82928526D01*
X132466232Y-82874635D01*
X132466232Y-82874633D01*
X132465542Y-82868072D01*
X132438721Y-82785526D01*
X132436693Y-82714559D01*
X132473356Y-82653761D01*
X132537068Y-82622435D01*
X132607602Y-82630528D01*
X132647571Y-82657417D01*
X132675838Y-82685634D01*
X132682068Y-82689474D01*
X132682069Y-82689475D01*
X132702543Y-82702095D01*
X132826403Y-82778444D01*
X132882695Y-82797115D01*
X132987752Y-82831961D01*
X132987754Y-82831961D01*
X132994280Y-82834126D01*
X133001116Y-82834826D01*
X133001119Y-82834827D01*
X133044172Y-82839238D01*
X133098741Y-82844829D01*
X133291422Y-82844829D01*
X133359543Y-82864831D01*
X133406036Y-82918487D01*
X133416140Y-82988761D01*
X133411015Y-83010495D01*
X133400332Y-83042705D01*
X133397203Y-83052139D01*
X133396503Y-83058975D01*
X133396502Y-83058978D01*
X133394746Y-83076115D01*
X133386500Y-83156600D01*
X133386500Y-83932400D01*
X133397474Y-84038166D01*
X133399655Y-84044702D01*
X133399655Y-84044704D01*
X133437165Y-84157134D01*
X133453450Y-84205946D01*
X133546522Y-84356348D01*
X133671697Y-84481305D01*
X133676235Y-84484102D01*
X133716824Y-84541353D01*
X133720054Y-84612276D01*
X133684428Y-84673687D01*
X133675932Y-84681062D01*
X133665793Y-84689098D01*
X133551261Y-84803829D01*
X133542249Y-84815240D01*
X133457184Y-84953243D01*
X133451037Y-84966424D01*
X133399862Y-85120710D01*
X133396995Y-85134086D01*
X133387328Y-85228438D01*
X133387000Y-85234855D01*
X133387000Y-85347385D01*
X133391475Y-85362624D01*
X133392865Y-85363829D01*
X133400548Y-85365500D01*
X135834884Y-85365500D01*
X135850123Y-85361025D01*
X135851328Y-85359635D01*
X135852999Y-85351952D01*
X135852999Y-85234905D01*
X135852662Y-85228386D01*
X135842743Y-85132794D01*
X135839851Y-85119400D01*
X135788412Y-84965216D01*
X135782239Y-84952038D01*
X135696937Y-84814193D01*
X135687901Y-84802792D01*
X135573172Y-84688262D01*
X135564238Y-84681206D01*
X135523177Y-84623288D01*
X135519947Y-84552365D01*
X135555574Y-84490954D01*
X135563407Y-84484154D01*
X135569348Y-84480478D01*
X135627529Y-84422196D01*
X135689134Y-84360483D01*
X135694305Y-84355303D01*
X135698146Y-84349072D01*
X135783275Y-84210968D01*
X135783276Y-84210966D01*
X135787115Y-84204738D01*
X135831665Y-84070424D01*
X135840632Y-84043389D01*
X135840632Y-84043387D01*
X135842797Y-84036861D01*
X135853500Y-83932400D01*
X135853500Y-83156600D01*
X135853158Y-83153299D01*
X135848960Y-83112842D01*
X135842526Y-83050834D01*
X135829893Y-83012968D01*
X135823416Y-82973092D01*
X135823416Y-79533024D01*
X135843418Y-79464903D01*
X135897074Y-79418410D01*
X135949416Y-79407024D01*
X145658709Y-79407024D01*
X145669892Y-79407551D01*
X145677385Y-79409226D01*
X145685311Y-79408977D01*
X145685312Y-79408977D01*
X145745462Y-79407086D01*
X145749421Y-79407024D01*
X145777332Y-79407024D01*
X145781267Y-79406527D01*
X145781332Y-79406519D01*
X145793169Y-79405586D01*
X145825427Y-79404572D01*
X145829446Y-79404446D01*
X145837365Y-79404197D01*
X145856819Y-79398545D01*
X145876176Y-79394537D01*
X145888406Y-79392992D01*
X145888407Y-79392992D01*
X145896273Y-79391998D01*
X145903644Y-79389079D01*
X145903646Y-79389079D01*
X145937388Y-79375720D01*
X145948618Y-79371875D01*
X145983459Y-79361753D01*
X145983460Y-79361753D01*
X145991069Y-79359542D01*
X145997888Y-79355509D01*
X145997893Y-79355507D01*
X146008504Y-79349231D01*
X146026252Y-79340536D01*
X146045093Y-79333076D01*
X146058424Y-79323391D01*
X146080863Y-79307088D01*
X146090783Y-79300572D01*
X146122011Y-79282104D01*
X146122014Y-79282102D01*
X146128838Y-79278066D01*
X146143159Y-79263745D01*
X146158193Y-79250904D01*
X146168170Y-79243655D01*
X146174583Y-79238996D01*
X146202774Y-79204919D01*
X146210764Y-79196140D01*
X153985247Y-71421657D01*
X153993537Y-71414113D01*
X154000018Y-71410000D01*
X154046659Y-71360332D01*
X154049413Y-71357491D01*
X154069135Y-71337769D01*
X154071612Y-71334576D01*
X154079317Y-71325555D01*
X154098329Y-71305309D01*
X154109586Y-71293321D01*
X154115587Y-71282405D01*
X154119346Y-71275568D01*
X154130202Y-71259041D01*
X154137757Y-71249302D01*
X154137758Y-71249300D01*
X154142614Y-71243040D01*
X154160174Y-71202460D01*
X154165391Y-71191812D01*
X154183115Y-71159573D01*
X154233461Y-71109515D01*
X154300345Y-71094460D01*
X154310312Y-71095000D01*
X154590885Y-71095000D01*
X154606124Y-71090525D01*
X154607329Y-71089135D01*
X154609000Y-71081452D01*
X154609000Y-70644365D01*
X154609166Y-70638206D01*
X154609500Y-70635134D01*
X154609500Y-69697000D01*
X154629502Y-69628879D01*
X154683158Y-69582386D01*
X154735500Y-69571000D01*
X154990500Y-69571000D01*
X155058621Y-69591002D01*
X155105114Y-69644658D01*
X155116500Y-69697000D01*
X155116500Y-70635134D01*
X155116834Y-70638206D01*
X155117000Y-70644365D01*
X155117000Y-71076884D01*
X155121475Y-71092123D01*
X155122865Y-71093328D01*
X155130548Y-71094999D01*
X155159112Y-71094999D01*
X155227233Y-71115001D01*
X155273726Y-71168657D01*
X155283830Y-71238931D01*
X155252750Y-71305308D01*
X155216960Y-71345056D01*
X155121473Y-71510444D01*
X155062458Y-71692072D01*
X155061768Y-71698633D01*
X155061768Y-71698635D01*
X155050113Y-71809526D01*
X155042496Y-71882000D01*
X155043186Y-71888565D01*
X155060661Y-72054827D01*
X155062458Y-72071928D01*
X155121473Y-72253556D01*
X155124776Y-72259278D01*
X155124777Y-72259279D01*
X155126059Y-72261500D01*
X155216960Y-72418944D01*
X155221378Y-72423851D01*
X155221379Y-72423852D01*
X155340325Y-72555955D01*
X155344747Y-72560866D01*
X155499248Y-72673118D01*
X155505276Y-72675802D01*
X155505278Y-72675803D01*
X155509090Y-72677500D01*
X155673712Y-72750794D01*
X155767113Y-72770647D01*
X155854056Y-72789128D01*
X155854061Y-72789128D01*
X155860513Y-72790500D01*
X156051487Y-72790500D01*
X156057939Y-72789128D01*
X156057944Y-72789128D01*
X156144887Y-72770647D01*
X156238288Y-72750794D01*
X156402910Y-72677500D01*
X156406722Y-72675803D01*
X156406724Y-72675802D01*
X156412752Y-72673118D01*
X156567253Y-72560866D01*
X156571675Y-72555955D01*
X156690621Y-72423852D01*
X156690622Y-72423851D01*
X156695040Y-72418944D01*
X156785941Y-72261500D01*
X156787223Y-72259279D01*
X156787224Y-72259278D01*
X156790527Y-72253556D01*
X156849542Y-72071928D01*
X156851340Y-72054827D01*
X156868814Y-71888565D01*
X156869504Y-71882000D01*
X156861887Y-71809526D01*
X156850232Y-71698635D01*
X156850232Y-71698633D01*
X156849542Y-71692072D01*
X156790527Y-71510444D01*
X156695040Y-71345056D01*
X156654589Y-71300130D01*
X156623873Y-71236125D01*
X156632636Y-71165672D01*
X156678099Y-71111140D01*
X156734618Y-71090559D01*
X156751316Y-71088745D01*
X156751527Y-71090691D01*
X156784473Y-71090691D01*
X156784684Y-71088745D01*
X156838867Y-71094631D01*
X156846866Y-71095500D01*
X157959134Y-71095500D01*
X157967134Y-71094631D01*
X158021316Y-71088745D01*
X158021527Y-71090691D01*
X158054473Y-71090691D01*
X158054684Y-71088745D01*
X158108867Y-71094631D01*
X158116866Y-71095500D01*
X159229134Y-71095500D01*
X159237134Y-71094631D01*
X159291316Y-71088745D01*
X159291527Y-71090691D01*
X159324473Y-71090691D01*
X159324684Y-71088745D01*
X159378867Y-71094631D01*
X159386866Y-71095500D01*
X160499134Y-71095500D01*
X160507134Y-71094631D01*
X160561316Y-71088745D01*
X160561500Y-71090436D01*
X160594556Y-71090436D01*
X160594793Y-71088252D01*
X160653514Y-71094631D01*
X160660328Y-71095000D01*
X160940885Y-71095000D01*
X160956124Y-71090525D01*
X160957329Y-71089135D01*
X160959000Y-71081452D01*
X160959000Y-70644365D01*
X160959166Y-70638206D01*
X160959500Y-70635134D01*
X160959500Y-69697000D01*
X160979502Y-69628879D01*
X161033158Y-69582386D01*
X161085500Y-69571000D01*
X162210884Y-69571000D01*
X162226123Y-69566525D01*
X162227328Y-69565135D01*
X162228999Y-69557452D01*
X162228999Y-69018331D01*
X162228629Y-69011510D01*
X162223105Y-68960648D01*
X162219479Y-68945397D01*
X162197151Y-68885837D01*
X162191968Y-68815030D01*
X162225889Y-68752661D01*
X162288144Y-68718531D01*
X162315133Y-68715607D01*
X168243530Y-68715607D01*
X168262915Y-68717107D01*
G37*
G04 #@! TD.AperFunction*
G04 #@! TA.AperFunction,Conductor*
G36*
X122497161Y-82249136D02*
G01*
X122518135Y-82266039D01*
X123688501Y-83436405D01*
X123722527Y-83498717D01*
X123717462Y-83569532D01*
X123674915Y-83626368D01*
X123608395Y-83651179D01*
X123599406Y-83651500D01*
X120080625Y-83651500D01*
X120012504Y-83631498D01*
X119966011Y-83577842D01*
X119955907Y-83507568D01*
X119961032Y-83485832D01*
X119976138Y-83440290D01*
X119979005Y-83426914D01*
X119988672Y-83332562D01*
X119989000Y-83326146D01*
X119989000Y-83076115D01*
X119984525Y-83060876D01*
X119983135Y-83059671D01*
X119975452Y-83058000D01*
X118765500Y-83058000D01*
X118697379Y-83037998D01*
X118650886Y-82984342D01*
X118639500Y-82932000D01*
X118639500Y-82676000D01*
X118659502Y-82607879D01*
X118713158Y-82561386D01*
X118765500Y-82550000D01*
X119970884Y-82550000D01*
X119986123Y-82545525D01*
X119987328Y-82544135D01*
X119988999Y-82536452D01*
X119988999Y-82355134D01*
X120009001Y-82287013D01*
X120062657Y-82240520D01*
X120114999Y-82229134D01*
X122429040Y-82229134D01*
X122497161Y-82249136D01*
G37*
G04 #@! TD.AperFunction*
G04 #@! TA.AperFunction,Conductor*
G36*
X129327521Y-80917502D02*
G01*
X129374014Y-80971158D01*
X129384687Y-81036889D01*
X129375740Y-81120614D01*
X129362266Y-81246695D01*
X129362563Y-81251848D01*
X129362563Y-81251851D01*
X129372814Y-81429632D01*
X129375125Y-81469715D01*
X129376262Y-81474761D01*
X129376263Y-81474767D01*
X129394954Y-81557703D01*
X129424237Y-81687639D01*
X129476927Y-81817400D01*
X129505871Y-81888680D01*
X129508281Y-81894616D01*
X129543160Y-81951534D01*
X129609031Y-82059025D01*
X129625002Y-82085088D01*
X129771265Y-82253938D01*
X129943141Y-82396632D01*
X130136015Y-82509338D01*
X130140840Y-82511180D01*
X130140841Y-82511181D01*
X130162624Y-82519499D01*
X130344707Y-82589030D01*
X130349775Y-82590061D01*
X130349778Y-82590062D01*
X130432604Y-82606913D01*
X130563612Y-82633567D01*
X130568787Y-82633757D01*
X130568789Y-82633757D01*
X130585614Y-82634374D01*
X130652956Y-82656859D01*
X130697450Y-82712183D01*
X130704971Y-82782780D01*
X130700829Y-82799221D01*
X130678458Y-82868072D01*
X130677768Y-82874633D01*
X130677768Y-82874635D01*
X130661093Y-83033292D01*
X130634080Y-83098949D01*
X130624877Y-83109219D01*
X130584498Y-83149597D01*
X130522186Y-83183621D01*
X130495404Y-83186500D01*
X129111326Y-83186500D01*
X129043205Y-83166498D01*
X128996712Y-83112842D01*
X128986608Y-83042568D01*
X129004066Y-82994384D01*
X129010616Y-82983757D01*
X129016763Y-82970576D01*
X129067938Y-82816290D01*
X129070805Y-82802914D01*
X129080472Y-82708562D01*
X129080800Y-82702146D01*
X129080800Y-82589615D01*
X129076325Y-82574376D01*
X129074935Y-82573171D01*
X129067252Y-82571500D01*
X126632916Y-82571500D01*
X126617677Y-82575975D01*
X126616472Y-82577365D01*
X126614801Y-82585048D01*
X126614801Y-82702095D01*
X126615138Y-82708614D01*
X126625057Y-82804206D01*
X126627949Y-82817600D01*
X126679388Y-82971784D01*
X126685562Y-82984963D01*
X126691276Y-82994197D01*
X126710114Y-83062649D01*
X126688953Y-83130419D01*
X126634512Y-83175990D01*
X126584132Y-83186500D01*
X125918990Y-83186500D01*
X125850869Y-83166498D01*
X125829895Y-83149595D01*
X124638394Y-81958093D01*
X124604368Y-81895781D01*
X124609433Y-81824965D01*
X124651980Y-81768130D01*
X124718500Y-81743319D01*
X124727489Y-81742998D01*
X124838433Y-81742998D01*
X124900615Y-81736243D01*
X125014525Y-81693540D01*
X125028602Y-81688263D01*
X125028603Y-81688262D01*
X125037004Y-81685113D01*
X125038179Y-81684232D01*
X125103847Y-81669869D01*
X125151214Y-81683778D01*
X125152996Y-81685113D01*
X125161397Y-81688262D01*
X125161398Y-81688263D01*
X125175475Y-81693540D01*
X125289385Y-81736243D01*
X125351567Y-81742998D01*
X126438435Y-81742998D01*
X126441830Y-81742629D01*
X126441834Y-81742629D01*
X126481299Y-81738342D01*
X126551182Y-81750871D01*
X126603197Y-81799192D01*
X126620831Y-81867964D01*
X126620250Y-81876448D01*
X126615128Y-81926440D01*
X126614800Y-81932855D01*
X126614800Y-82045385D01*
X126619275Y-82060624D01*
X126620665Y-82061829D01*
X126628348Y-82063500D01*
X129062684Y-82063500D01*
X129077923Y-82059025D01*
X129079128Y-82057635D01*
X129080799Y-82049952D01*
X129080799Y-81932905D01*
X129080462Y-81926386D01*
X129070543Y-81830794D01*
X129067651Y-81817400D01*
X129016212Y-81663216D01*
X129010039Y-81650038D01*
X128924737Y-81512193D01*
X128915701Y-81500792D01*
X128800972Y-81386262D01*
X128792038Y-81379206D01*
X128750977Y-81321288D01*
X128747747Y-81250365D01*
X128783374Y-81188954D01*
X128791207Y-81182154D01*
X128797148Y-81178478D01*
X128922105Y-81053303D01*
X128925946Y-81047072D01*
X128981231Y-80957384D01*
X129034004Y-80909890D01*
X129088491Y-80897500D01*
X129259400Y-80897500D01*
X129327521Y-80917502D01*
G37*
G04 #@! TD.AperFunction*
G04 #@! TA.AperFunction,Conductor*
G36*
X110663721Y-79569002D02*
G01*
X110684695Y-79585905D01*
X111878415Y-80779626D01*
X111912441Y-80841938D01*
X111907376Y-80912754D01*
X111864829Y-80969589D01*
X111840571Y-80983827D01*
X111811248Y-80996882D01*
X111656747Y-81109134D01*
X111652326Y-81114044D01*
X111652325Y-81114045D01*
X111539487Y-81239365D01*
X111528960Y-81251056D01*
X111480790Y-81334489D01*
X111440184Y-81404821D01*
X111433473Y-81416444D01*
X111419776Y-81458598D01*
X111405956Y-81501132D01*
X111371599Y-81551377D01*
X111377896Y-81575332D01*
X111375594Y-81594574D01*
X111374458Y-81598072D01*
X111373769Y-81604629D01*
X111373768Y-81604633D01*
X111356365Y-81770221D01*
X111354496Y-81788000D01*
X111355186Y-81794565D01*
X111372536Y-81959638D01*
X111374458Y-81977928D01*
X111433473Y-82159556D01*
X111436776Y-82165278D01*
X111436777Y-82165279D01*
X111471943Y-82226188D01*
X111488681Y-82295183D01*
X111465461Y-82362275D01*
X111409653Y-82406162D01*
X111338978Y-82412911D01*
X111273729Y-82378283D01*
X111208637Y-82313191D01*
X111117351Y-82243145D01*
X111118300Y-82241909D01*
X111086518Y-82210127D01*
X111085282Y-82211076D01*
X111065233Y-82184948D01*
X111015236Y-82119790D01*
X110936931Y-82041485D01*
X110902905Y-81979173D01*
X110907970Y-81908358D01*
X110932388Y-81868083D01*
X111009110Y-81782874D01*
X111078195Y-81663216D01*
X111101293Y-81623209D01*
X111101294Y-81623208D01*
X111104597Y-81617486D01*
X111132114Y-81532798D01*
X111166471Y-81482553D01*
X111160174Y-81458598D01*
X111162476Y-81439356D01*
X111163612Y-81435858D01*
X111164506Y-81427358D01*
X111182884Y-81252495D01*
X111183574Y-81245930D01*
X111176572Y-81179305D01*
X111164302Y-81062565D01*
X111164302Y-81062563D01*
X111163612Y-81056002D01*
X111104597Y-80874374D01*
X111094140Y-80856261D01*
X111049894Y-80779626D01*
X111009110Y-80708986D01*
X111001278Y-80700287D01*
X110885745Y-80571975D01*
X110885744Y-80571974D01*
X110881323Y-80567064D01*
X110766002Y-80483278D01*
X110732164Y-80458693D01*
X110732163Y-80458692D01*
X110726822Y-80454812D01*
X110720794Y-80452128D01*
X110720792Y-80452127D01*
X110558389Y-80379821D01*
X110558388Y-80379821D01*
X110552358Y-80377136D01*
X110449633Y-80355301D01*
X110372014Y-80338802D01*
X110372009Y-80338802D01*
X110365557Y-80337430D01*
X110174583Y-80337430D01*
X110168131Y-80338802D01*
X110168126Y-80338802D01*
X110052842Y-80363307D01*
X109987782Y-80377136D01*
X109981749Y-80379822D01*
X109981746Y-80379823D01*
X109981329Y-80380009D01*
X109981066Y-80380044D01*
X109975472Y-80381862D01*
X109975140Y-80380839D01*
X109910962Y-80389444D01*
X109880039Y-80380540D01*
X109859019Y-80371444D01*
X109848369Y-80366227D01*
X109809616Y-80344923D01*
X109789993Y-80339885D01*
X109771290Y-80333481D01*
X109759976Y-80328585D01*
X109759975Y-80328585D01*
X109752701Y-80325437D01*
X109744878Y-80324198D01*
X109744868Y-80324195D01*
X109709032Y-80318519D01*
X109697412Y-80316113D01*
X109662267Y-80307090D01*
X109662266Y-80307090D01*
X109654586Y-80305118D01*
X109634332Y-80305118D01*
X109614621Y-80303567D01*
X109602442Y-80301638D01*
X109594613Y-80300398D01*
X109565342Y-80303165D01*
X109550595Y-80304559D01*
X109538737Y-80305118D01*
X109286595Y-80305118D01*
X109275412Y-80304591D01*
X109267919Y-80302916D01*
X109259993Y-80303165D01*
X109259992Y-80303165D01*
X109199842Y-80305056D01*
X109195883Y-80305118D01*
X109179431Y-80305118D01*
X109111310Y-80285116D01*
X109064817Y-80231460D01*
X109053752Y-80188107D01*
X109052536Y-80171113D01*
X109043480Y-80158864D01*
X108995778Y-80122261D01*
X108996866Y-80120843D01*
X108964991Y-80088967D01*
X108963962Y-80089756D01*
X108930304Y-80045892D01*
X108893916Y-79998470D01*
X108733764Y-79838318D01*
X108651198Y-79774963D01*
X108609331Y-79717625D01*
X108605109Y-79646754D01*
X108639873Y-79584851D01*
X108702586Y-79551570D01*
X108727902Y-79549000D01*
X110595600Y-79549000D01*
X110663721Y-79569002D01*
G37*
G04 #@! TD.AperFunction*
G04 #@! TA.AperFunction,Conductor*
G36*
X113477677Y-79119002D02*
G01*
X113504941Y-79143179D01*
X113507695Y-79147518D01*
X113513470Y-79152941D01*
X113557347Y-79194144D01*
X113560189Y-79196899D01*
X113579925Y-79216635D01*
X113583120Y-79219113D01*
X113592140Y-79226817D01*
X113624374Y-79257086D01*
X113631320Y-79260905D01*
X113631323Y-79260907D01*
X113642129Y-79266848D01*
X113658648Y-79277699D01*
X113674654Y-79290114D01*
X113681923Y-79293259D01*
X113681927Y-79293262D01*
X113715232Y-79307674D01*
X113725882Y-79312891D01*
X113764635Y-79334195D01*
X113772310Y-79336166D01*
X113772311Y-79336166D01*
X113784257Y-79339233D01*
X113802961Y-79345637D01*
X113811267Y-79349231D01*
X113821550Y-79353681D01*
X113829373Y-79354920D01*
X113829383Y-79354923D01*
X113865219Y-79360599D01*
X113876839Y-79363005D01*
X113895968Y-79367916D01*
X113919665Y-79374000D01*
X113939919Y-79374000D01*
X113959629Y-79375551D01*
X113979638Y-79378720D01*
X113987530Y-79377974D01*
X114023656Y-79374559D01*
X114035514Y-79374000D01*
X114469055Y-79374000D01*
X114537176Y-79394002D01*
X114578174Y-79437000D01*
X114629665Y-79526185D01*
X114634083Y-79531092D01*
X114634084Y-79531093D01*
X114644759Y-79542949D01*
X114757452Y-79668107D01*
X114762786Y-79671982D01*
X114763987Y-79673064D01*
X114801222Y-79733512D01*
X114799866Y-79804496D01*
X114768765Y-79855789D01*
X114626084Y-79998470D01*
X114556038Y-80089756D01*
X114554802Y-80088807D01*
X114523020Y-80120589D01*
X114523969Y-80121825D01*
X114432683Y-80191871D01*
X114272531Y-80352023D01*
X114202485Y-80443309D01*
X114201249Y-80442360D01*
X114169467Y-80474142D01*
X114170416Y-80475378D01*
X114079130Y-80545424D01*
X113918978Y-80705576D01*
X113866289Y-80774242D01*
X113808951Y-80816109D01*
X113738080Y-80820331D01*
X113677231Y-80786633D01*
X112204694Y-79314095D01*
X112170668Y-79251783D01*
X112175733Y-79180967D01*
X112218280Y-79124132D01*
X112284800Y-79099321D01*
X112293789Y-79099000D01*
X113409556Y-79099000D01*
X113477677Y-79119002D01*
G37*
G04 #@! TD.AperFunction*
G04 #@! TA.AperFunction,Conductor*
G36*
X136048988Y-68735609D02*
G01*
X136095481Y-68789265D01*
X136105585Y-68859539D01*
X136098849Y-68885837D01*
X136076522Y-68945394D01*
X136072895Y-68960649D01*
X136067369Y-69011514D01*
X136067000Y-69018328D01*
X136067000Y-69552885D01*
X136071475Y-69568124D01*
X136072865Y-69569329D01*
X136080548Y-69571000D01*
X137210500Y-69571000D01*
X137278621Y-69591002D01*
X137325114Y-69644658D01*
X137336500Y-69697000D01*
X137336500Y-70635134D01*
X137336834Y-70638206D01*
X137337000Y-70644365D01*
X137337000Y-71076884D01*
X137341475Y-71092123D01*
X137342865Y-71093328D01*
X137350548Y-71094999D01*
X137635669Y-71094999D01*
X137642490Y-71094629D01*
X137701207Y-71088252D01*
X137701444Y-71090433D01*
X137734501Y-71090433D01*
X137734684Y-71088745D01*
X137788867Y-71094631D01*
X137796866Y-71095500D01*
X138909134Y-71095500D01*
X138917134Y-71094631D01*
X138971316Y-71088745D01*
X138971527Y-71090691D01*
X139004473Y-71090691D01*
X139004684Y-71088745D01*
X139058867Y-71094631D01*
X139066866Y-71095500D01*
X140179134Y-71095500D01*
X140187134Y-71094631D01*
X140241316Y-71088745D01*
X140241527Y-71090691D01*
X140274473Y-71090691D01*
X140274684Y-71088745D01*
X140328867Y-71094631D01*
X140336866Y-71095500D01*
X141449134Y-71095500D01*
X141457134Y-71094631D01*
X141511316Y-71088745D01*
X141511527Y-71090691D01*
X141544473Y-71090691D01*
X141544684Y-71088745D01*
X141598867Y-71094631D01*
X141606866Y-71095500D01*
X142719134Y-71095500D01*
X142727134Y-71094631D01*
X142781316Y-71088745D01*
X142781527Y-71090691D01*
X142814473Y-71090691D01*
X142814684Y-71088745D01*
X142868867Y-71094631D01*
X142876866Y-71095500D01*
X143989134Y-71095500D01*
X143997134Y-71094631D01*
X144051316Y-71088745D01*
X144051500Y-71090436D01*
X144084556Y-71090436D01*
X144084793Y-71088252D01*
X144143514Y-71094631D01*
X144150328Y-71095000D01*
X144430885Y-71095000D01*
X144446124Y-71090525D01*
X144447329Y-71089135D01*
X144449000Y-71081452D01*
X144449000Y-70644365D01*
X144449166Y-70638206D01*
X144449500Y-70635134D01*
X144449500Y-69697000D01*
X144469502Y-69628879D01*
X144523158Y-69582386D01*
X144575500Y-69571000D01*
X144830500Y-69571000D01*
X144898621Y-69591002D01*
X144945114Y-69644658D01*
X144956500Y-69697000D01*
X144956500Y-70635134D01*
X144956834Y-70638206D01*
X144957000Y-70644365D01*
X144957000Y-71076884D01*
X144961475Y-71092123D01*
X144962865Y-71093328D01*
X144970548Y-71094999D01*
X145255669Y-71094999D01*
X145262490Y-71094629D01*
X145321207Y-71088252D01*
X145321444Y-71090433D01*
X145354501Y-71090433D01*
X145354684Y-71088745D01*
X145408867Y-71094631D01*
X145416866Y-71095500D01*
X146529134Y-71095500D01*
X146537134Y-71094631D01*
X146591316Y-71088745D01*
X146591527Y-71090691D01*
X146624473Y-71090691D01*
X146624684Y-71088745D01*
X146678867Y-71094631D01*
X146686866Y-71095500D01*
X147799134Y-71095500D01*
X147807134Y-71094631D01*
X147861316Y-71088745D01*
X147861527Y-71090691D01*
X147894473Y-71090691D01*
X147894684Y-71088745D01*
X147948867Y-71094631D01*
X147956866Y-71095500D01*
X149069134Y-71095500D01*
X149077134Y-71094631D01*
X149131316Y-71088745D01*
X149131527Y-71090691D01*
X149164473Y-71090691D01*
X149164684Y-71088745D01*
X149218867Y-71094631D01*
X149226866Y-71095500D01*
X150339134Y-71095500D01*
X150347134Y-71094631D01*
X150401316Y-71088745D01*
X150401527Y-71090691D01*
X150434473Y-71090691D01*
X150434684Y-71088745D01*
X150488867Y-71094631D01*
X150496866Y-71095500D01*
X151609134Y-71095500D01*
X151617134Y-71094631D01*
X151671316Y-71088745D01*
X151671527Y-71090691D01*
X151704473Y-71090691D01*
X151704684Y-71088745D01*
X151758867Y-71094631D01*
X151766866Y-71095500D01*
X152215406Y-71095500D01*
X152283527Y-71115502D01*
X152330020Y-71169158D01*
X152340124Y-71239432D01*
X152310630Y-71304012D01*
X152304501Y-71310595D01*
X148904968Y-74710127D01*
X145511976Y-78103119D01*
X145449664Y-78137145D01*
X145422881Y-78140024D01*
X135898116Y-78140024D01*
X135829995Y-78120022D01*
X135810769Y-78103681D01*
X135810496Y-78103984D01*
X135805584Y-78099561D01*
X135801169Y-78094658D01*
X135697488Y-78019329D01*
X135652010Y-77986287D01*
X135652009Y-77986286D01*
X135646668Y-77982406D01*
X135640640Y-77979722D01*
X135640638Y-77979721D01*
X135478235Y-77907415D01*
X135478234Y-77907415D01*
X135472204Y-77904730D01*
X135365918Y-77882138D01*
X135291860Y-77866396D01*
X135291855Y-77866396D01*
X135285403Y-77865024D01*
X135094429Y-77865024D01*
X135087976Y-77866396D01*
X135087963Y-77866397D01*
X134958402Y-77893937D01*
X134887612Y-77888536D01*
X134830979Y-77845719D01*
X134806485Y-77779082D01*
X134806205Y-77770691D01*
X134806205Y-77579354D01*
X134804993Y-77567670D01*
X134795943Y-77480446D01*
X134795942Y-77480442D01*
X134795231Y-77473588D01*
X134771521Y-77402519D01*
X134741573Y-77312756D01*
X134739255Y-77305808D01*
X134646183Y-77155406D01*
X134559596Y-77068970D01*
X134525517Y-77006688D01*
X134530520Y-76935868D01*
X134559441Y-76890779D01*
X134641839Y-76808237D01*
X134647010Y-76803057D01*
X134653082Y-76793207D01*
X134735980Y-76658722D01*
X134735981Y-76658720D01*
X134739820Y-76652492D01*
X134779808Y-76531932D01*
X134793337Y-76491143D01*
X134793337Y-76491141D01*
X134795502Y-76484615D01*
X134806205Y-76380154D01*
X134806205Y-75579354D01*
X134803864Y-75556793D01*
X134795943Y-75480446D01*
X134795942Y-75480442D01*
X134795231Y-75473588D01*
X134792195Y-75464486D01*
X134741573Y-75312756D01*
X134739255Y-75305808D01*
X134646183Y-75155406D01*
X134521008Y-75030449D01*
X134507110Y-75021882D01*
X134376673Y-74941479D01*
X134376671Y-74941478D01*
X134370443Y-74937639D01*
X134272992Y-74905316D01*
X134209094Y-74884122D01*
X134209092Y-74884122D01*
X134202566Y-74881957D01*
X134195730Y-74881257D01*
X134195727Y-74881256D01*
X134152674Y-74876845D01*
X134098105Y-74871254D01*
X133097305Y-74871254D01*
X133094059Y-74871591D01*
X133094055Y-74871591D01*
X132998397Y-74881516D01*
X132998393Y-74881517D01*
X132991539Y-74882228D01*
X132985003Y-74884409D01*
X132985001Y-74884409D01*
X132889692Y-74916207D01*
X132823759Y-74938204D01*
X132673357Y-75031276D01*
X132548400Y-75156451D01*
X132544560Y-75162681D01*
X132544559Y-75162682D01*
X132468316Y-75286370D01*
X132415543Y-75333864D01*
X132361056Y-75346254D01*
X132200639Y-75346254D01*
X132132518Y-75326252D01*
X132086025Y-75272596D01*
X132078057Y-75249402D01*
X132077613Y-75247534D01*
X132076760Y-75239684D01*
X132025630Y-75103295D01*
X131938276Y-74986739D01*
X131821720Y-74899385D01*
X131685331Y-74848255D01*
X131623149Y-74841500D01*
X129826881Y-74841500D01*
X129764699Y-74848255D01*
X129628310Y-74899385D01*
X129511754Y-74986739D01*
X129424400Y-75103295D01*
X129373270Y-75239684D01*
X129366515Y-75301866D01*
X129366515Y-77098134D01*
X129373270Y-77160316D01*
X129424400Y-77296705D01*
X129511754Y-77413261D01*
X129628310Y-77500615D01*
X129636719Y-77503767D01*
X129636720Y-77503768D01*
X129745466Y-77544535D01*
X129802231Y-77587176D01*
X129826931Y-77653738D01*
X129811724Y-77723087D01*
X129792331Y-77749568D01*
X129681266Y-77865791D01*
X129665644Y-77882138D01*
X129662730Y-77886410D01*
X129662729Y-77886411D01*
X129657595Y-77893937D01*
X129539758Y-78066680D01*
X129507375Y-78136443D01*
X129450174Y-78259674D01*
X129445703Y-78269305D01*
X129386004Y-78484570D01*
X129362266Y-78706695D01*
X129362563Y-78711848D01*
X129362563Y-78711851D01*
X129372118Y-78877565D01*
X129375125Y-78929715D01*
X129376262Y-78934761D01*
X129376263Y-78934767D01*
X129389285Y-78992548D01*
X129424237Y-79147639D01*
X129477198Y-79278066D01*
X129504045Y-79344183D01*
X129508281Y-79354616D01*
X129527755Y-79386395D01*
X129559786Y-79438665D01*
X129578324Y-79507199D01*
X129556867Y-79574876D01*
X129502228Y-79620209D01*
X129452353Y-79630500D01*
X129115150Y-79630500D01*
X129047029Y-79610498D01*
X129008006Y-79570803D01*
X128997124Y-79553217D01*
X128921278Y-79430652D01*
X128796103Y-79305695D01*
X128762948Y-79285258D01*
X128651768Y-79216725D01*
X128651766Y-79216724D01*
X128645538Y-79212885D01*
X128587851Y-79193751D01*
X128567633Y-79187045D01*
X128509273Y-79146614D01*
X128482036Y-79081050D01*
X128481300Y-79067452D01*
X128481300Y-78379197D01*
X128501302Y-78311076D01*
X128554958Y-78264583D01*
X128567423Y-78259674D01*
X128614802Y-78243867D01*
X128614804Y-78243866D01*
X128621746Y-78241550D01*
X128689367Y-78199705D01*
X128765920Y-78152332D01*
X128772148Y-78148478D01*
X128783900Y-78136706D01*
X128891934Y-78028483D01*
X128897105Y-78023303D01*
X128919922Y-77986287D01*
X128986075Y-77878968D01*
X128986076Y-77878966D01*
X128989915Y-77872738D01*
X129029512Y-77753356D01*
X129043432Y-77711389D01*
X129043432Y-77711387D01*
X129045597Y-77704861D01*
X129056300Y-77600400D01*
X129056300Y-76799600D01*
X129055963Y-76796350D01*
X129046038Y-76700692D01*
X129046037Y-76700688D01*
X129045326Y-76693834D01*
X129041712Y-76683000D01*
X128991668Y-76533002D01*
X128989350Y-76526054D01*
X128896278Y-76375652D01*
X128809691Y-76289216D01*
X128775612Y-76226934D01*
X128780615Y-76156114D01*
X128809536Y-76111025D01*
X128891934Y-76028483D01*
X128897105Y-76023303D01*
X128923725Y-75980118D01*
X128986075Y-75878968D01*
X128986076Y-75878966D01*
X128989915Y-75872738D01*
X129034216Y-75739174D01*
X129043432Y-75711389D01*
X129043432Y-75711387D01*
X129045597Y-75704861D01*
X129056300Y-75600400D01*
X129056300Y-74799600D01*
X129046171Y-74701978D01*
X129046038Y-74700692D01*
X129046037Y-74700688D01*
X129045326Y-74693834D01*
X129031036Y-74651000D01*
X128991668Y-74533002D01*
X128989350Y-74526054D01*
X128896278Y-74375652D01*
X128771103Y-74250695D01*
X128764872Y-74246854D01*
X128626768Y-74161725D01*
X128626766Y-74161724D01*
X128620538Y-74157885D01*
X128540795Y-74131436D01*
X128459189Y-74104368D01*
X128459187Y-74104368D01*
X128452661Y-74102203D01*
X128445825Y-74101503D01*
X128445822Y-74101502D01*
X128402769Y-74097091D01*
X128348200Y-74091500D01*
X127347400Y-74091500D01*
X127344154Y-74091837D01*
X127344150Y-74091837D01*
X127248492Y-74101762D01*
X127248488Y-74101763D01*
X127241634Y-74102474D01*
X127235098Y-74104655D01*
X127235096Y-74104655D01*
X127203837Y-74115084D01*
X127073854Y-74158450D01*
X126923452Y-74251522D01*
X126798495Y-74376697D01*
X126794655Y-74382927D01*
X126794654Y-74382928D01*
X126713343Y-74514839D01*
X126705685Y-74527262D01*
X126650003Y-74695139D01*
X126649303Y-74701975D01*
X126649302Y-74701978D01*
X126644891Y-74745031D01*
X126639300Y-74799600D01*
X126639300Y-74997608D01*
X126619298Y-75065729D01*
X126602395Y-75086704D01*
X125989000Y-75700098D01*
X125926688Y-75734123D01*
X125899905Y-75737002D01*
X125351567Y-75737002D01*
X125289385Y-75743757D01*
X125269931Y-75751050D01*
X125161398Y-75791737D01*
X125161397Y-75791738D01*
X125152996Y-75794887D01*
X125151495Y-75796012D01*
X125085627Y-75810419D01*
X125033964Y-75795249D01*
X125028359Y-75792180D01*
X124907905Y-75747024D01*
X124892650Y-75743397D01*
X124841785Y-75737871D01*
X124834971Y-75737502D01*
X124567114Y-75737502D01*
X124551875Y-75741977D01*
X124550670Y-75743367D01*
X124548999Y-75751050D01*
X124548999Y-76818002D01*
X124528997Y-76886123D01*
X124475341Y-76932616D01*
X124422999Y-76944002D01*
X123309815Y-76944002D01*
X123294576Y-76948477D01*
X123293371Y-76949867D01*
X123291700Y-76957550D01*
X123291700Y-76964500D01*
X123271698Y-77032621D01*
X123218042Y-77079114D01*
X123165700Y-77090500D01*
X122789400Y-77090500D01*
X122721279Y-77070498D01*
X122700304Y-77053595D01*
X122599530Y-76952820D01*
X122469952Y-76823242D01*
X122462418Y-76814963D01*
X122458305Y-76808482D01*
X122408653Y-76761856D01*
X122405812Y-76759102D01*
X122386075Y-76739365D01*
X122382878Y-76736885D01*
X122373856Y-76729180D01*
X122368340Y-76724000D01*
X122341626Y-76698914D01*
X122334680Y-76695095D01*
X122334677Y-76695093D01*
X122323871Y-76689152D01*
X122307352Y-76678301D01*
X122301175Y-76673510D01*
X122291346Y-76665886D01*
X122284077Y-76662741D01*
X122284073Y-76662738D01*
X122250768Y-76648326D01*
X122240118Y-76643109D01*
X122201365Y-76621805D01*
X122181742Y-76616767D01*
X122163039Y-76610363D01*
X122151725Y-76605467D01*
X122151724Y-76605467D01*
X122144450Y-76602319D01*
X122136627Y-76601080D01*
X122136617Y-76601077D01*
X122100781Y-76595401D01*
X122089161Y-76592995D01*
X122054016Y-76583972D01*
X122054015Y-76583972D01*
X122046335Y-76582000D01*
X122026081Y-76582000D01*
X122006370Y-76580449D01*
X121994191Y-76578520D01*
X121986362Y-76577280D01*
X121978470Y-76578026D01*
X121942344Y-76581441D01*
X121930486Y-76582000D01*
X121468094Y-76582000D01*
X121399973Y-76561998D01*
X121353480Y-76508342D01*
X121343376Y-76438068D01*
X121352593Y-76417887D01*
X123291699Y-76417887D01*
X123296174Y-76433126D01*
X123297564Y-76434331D01*
X123305247Y-76436002D01*
X124022884Y-76436002D01*
X124038123Y-76431527D01*
X124039328Y-76430137D01*
X124040999Y-76422454D01*
X124040999Y-75755618D01*
X124036524Y-75740379D01*
X124035134Y-75739174D01*
X124027451Y-75737503D01*
X123755030Y-75737503D01*
X123748209Y-75737873D01*
X123697347Y-75743397D01*
X123682095Y-75747023D01*
X123561645Y-75792178D01*
X123546050Y-75800716D01*
X123443975Y-75877217D01*
X123431414Y-75889778D01*
X123354913Y-75991853D01*
X123346375Y-76007448D01*
X123301221Y-76127896D01*
X123297594Y-76143151D01*
X123292068Y-76194016D01*
X123291699Y-76200830D01*
X123291699Y-76417887D01*
X121352593Y-76417887D01*
X121372870Y-76373488D01*
X121378999Y-76366905D01*
X126544549Y-71201355D01*
X126606861Y-71167329D01*
X126658762Y-71166979D01*
X126838597Y-71203567D01*
X126843772Y-71203757D01*
X126843774Y-71203757D01*
X127056673Y-71211564D01*
X127056677Y-71211564D01*
X127061837Y-71211753D01*
X127066957Y-71211097D01*
X127066959Y-71211097D01*
X127278288Y-71184025D01*
X127278289Y-71184025D01*
X127283416Y-71183368D01*
X127288369Y-71181882D01*
X127492429Y-71120661D01*
X127492434Y-71120659D01*
X127497384Y-71119174D01*
X127697994Y-71020896D01*
X127879860Y-70891173D01*
X127946211Y-70825054D01*
X127999531Y-70771919D01*
X128038096Y-70733489D01*
X128069812Y-70689352D01*
X128168453Y-70552077D01*
X128169776Y-70553028D01*
X128216645Y-70509857D01*
X128286580Y-70497625D01*
X128352026Y-70525144D01*
X128379875Y-70556994D01*
X128439987Y-70655088D01*
X128586250Y-70823938D01*
X128758126Y-70966632D01*
X128951000Y-71079338D01*
X128955825Y-71081180D01*
X128955826Y-71081181D01*
X128993324Y-71095500D01*
X129159692Y-71159030D01*
X129164760Y-71160061D01*
X129164763Y-71160062D01*
X129246311Y-71176653D01*
X129378597Y-71203567D01*
X129383772Y-71203757D01*
X129383774Y-71203757D01*
X129596673Y-71211564D01*
X129596677Y-71211564D01*
X129601837Y-71211753D01*
X129606957Y-71211097D01*
X129606959Y-71211097D01*
X129818288Y-71184025D01*
X129818289Y-71184025D01*
X129823416Y-71183368D01*
X129828369Y-71181882D01*
X130032429Y-71120661D01*
X130032434Y-71120659D01*
X130037384Y-71119174D01*
X130237994Y-71020896D01*
X130419860Y-70891173D01*
X130486211Y-70825054D01*
X130539531Y-70771919D01*
X130578096Y-70733489D01*
X130609812Y-70689352D01*
X130708453Y-70552077D01*
X130709776Y-70553028D01*
X130756645Y-70509857D01*
X130826580Y-70497625D01*
X130892026Y-70525144D01*
X130919875Y-70556994D01*
X130979987Y-70655088D01*
X131126250Y-70823938D01*
X131298126Y-70966632D01*
X131491000Y-71079338D01*
X131495825Y-71081180D01*
X131495826Y-71081181D01*
X131533324Y-71095500D01*
X131699692Y-71159030D01*
X131704760Y-71160061D01*
X131704763Y-71160062D01*
X131786311Y-71176653D01*
X131918597Y-71203567D01*
X131923772Y-71203757D01*
X131923774Y-71203757D01*
X132136673Y-71211564D01*
X132136677Y-71211564D01*
X132141837Y-71211753D01*
X132146957Y-71211097D01*
X132146959Y-71211097D01*
X132358288Y-71184025D01*
X132358289Y-71184025D01*
X132363416Y-71183368D01*
X132368369Y-71181882D01*
X132572429Y-71120661D01*
X132572434Y-71120659D01*
X132577384Y-71119174D01*
X132777994Y-71020896D01*
X132959860Y-70891173D01*
X133026211Y-70825054D01*
X133079531Y-70771919D01*
X133118096Y-70733489D01*
X133149812Y-70689352D01*
X133191261Y-70631669D01*
X136067001Y-70631669D01*
X136067371Y-70638490D01*
X136072895Y-70689352D01*
X136076521Y-70704604D01*
X136121676Y-70825054D01*
X136130214Y-70840649D01*
X136206715Y-70942724D01*
X136219276Y-70955285D01*
X136321351Y-71031786D01*
X136336946Y-71040324D01*
X136457394Y-71085478D01*
X136472649Y-71089105D01*
X136523514Y-71094631D01*
X136530328Y-71095000D01*
X136810885Y-71095000D01*
X136826124Y-71090525D01*
X136827329Y-71089135D01*
X136829000Y-71081452D01*
X136829000Y-70097115D01*
X136824525Y-70081876D01*
X136823135Y-70080671D01*
X136815452Y-70079000D01*
X136085116Y-70079000D01*
X136069877Y-70083475D01*
X136068672Y-70084865D01*
X136067001Y-70092548D01*
X136067001Y-70631669D01*
X133191261Y-70631669D01*
X133245435Y-70556277D01*
X133248453Y-70552077D01*
X133261995Y-70524678D01*
X133345136Y-70356453D01*
X133345137Y-70356451D01*
X133347430Y-70351811D01*
X133396783Y-70189373D01*
X133410865Y-70143023D01*
X133410865Y-70143021D01*
X133412370Y-70138069D01*
X133441529Y-69916590D01*
X133443156Y-69850000D01*
X133424852Y-69627361D01*
X133370431Y-69410702D01*
X133281354Y-69205840D01*
X133160014Y-69018277D01*
X133156540Y-69014459D01*
X133156533Y-69014450D01*
X133076419Y-68926406D01*
X133045367Y-68862561D01*
X133053763Y-68792062D01*
X133098940Y-68737294D01*
X133169613Y-68715607D01*
X135980867Y-68715607D01*
X136048988Y-68735609D01*
G37*
G04 #@! TD.AperFunction*
G04 #@! TA.AperFunction,Conductor*
G36*
X109951372Y-76371662D02*
G01*
X109958060Y-76375059D01*
X109986248Y-76390452D01*
X110014951Y-76411940D01*
X110769917Y-77166907D01*
X110803941Y-77229217D01*
X110798876Y-77300033D01*
X110756329Y-77356868D01*
X110689809Y-77381679D01*
X110680820Y-77382000D01*
X109582328Y-77382000D01*
X109514207Y-77361998D01*
X109493233Y-77345095D01*
X109339810Y-77191672D01*
X109305784Y-77129360D01*
X109310849Y-77058545D01*
X109352201Y-77002614D01*
X109401872Y-76964500D01*
X109440870Y-76934576D01*
X109601022Y-76774424D01*
X109671068Y-76683138D01*
X109672096Y-76683927D01*
X109703973Y-76652050D01*
X109702885Y-76650632D01*
X109750283Y-76614263D01*
X109758748Y-76602670D01*
X109748988Y-76585047D01*
X109733484Y-76515764D01*
X109734292Y-76507557D01*
X109735913Y-76495249D01*
X109737079Y-76486385D01*
X109738753Y-76473674D01*
X109767476Y-76408747D01*
X109826741Y-76369656D01*
X109847224Y-76365200D01*
X109881225Y-76360723D01*
X109951372Y-76371662D01*
G37*
G04 #@! TD.AperFunction*
G04 #@! TA.AperFunction,Conductor*
G36*
X111804032Y-74675580D02*
G01*
X111849095Y-74704541D01*
X111957809Y-74813255D01*
X112033834Y-74871591D01*
X112049095Y-74883301D01*
X112048306Y-74884330D01*
X112080183Y-74916207D01*
X112081602Y-74915119D01*
X112102564Y-74942438D01*
X112128163Y-75008659D01*
X112113897Y-75078208D01*
X112091695Y-75108236D01*
X112064653Y-75135278D01*
X112002341Y-75169304D01*
X111992003Y-75171105D01*
X111974554Y-75173402D01*
X111974542Y-75173403D01*
X111974539Y-75173403D01*
X111974530Y-75173404D01*
X111863764Y-75187987D01*
X111855576Y-75189065D01*
X111847947Y-75192225D01*
X111826567Y-75201081D01*
X111773187Y-75208819D01*
X111773187Y-75210129D01*
X111582213Y-75210129D01*
X111575761Y-75211501D01*
X111575756Y-75211501D01*
X111468856Y-75234224D01*
X111398065Y-75228822D01*
X111341433Y-75186005D01*
X111316939Y-75119368D01*
X111332360Y-75050066D01*
X111353564Y-75021882D01*
X111368789Y-75006657D01*
X111438835Y-74915371D01*
X111440072Y-74916321D01*
X111471855Y-74884538D01*
X111470905Y-74883301D01*
X111486166Y-74871591D01*
X111562191Y-74813255D01*
X111670905Y-74704541D01*
X111733217Y-74670515D01*
X111804032Y-74675580D01*
G37*
G04 #@! TD.AperFunction*
G04 #@! TA.AperFunction,Conductor*
G36*
X105492026Y-70525144D02*
G01*
X105519875Y-70556994D01*
X105579987Y-70655088D01*
X105726250Y-70823938D01*
X105898126Y-70966632D01*
X106091000Y-71079338D01*
X106095825Y-71081180D01*
X106095826Y-71081181D01*
X106133324Y-71095500D01*
X106299692Y-71159030D01*
X106304760Y-71160061D01*
X106304763Y-71160062D01*
X106386311Y-71176653D01*
X106518597Y-71203567D01*
X106523772Y-71203757D01*
X106523774Y-71203757D01*
X106736673Y-71211564D01*
X106736677Y-71211564D01*
X106741837Y-71211753D01*
X106746957Y-71211097D01*
X106746959Y-71211097D01*
X106958288Y-71184025D01*
X106958289Y-71184025D01*
X106963416Y-71183368D01*
X106968367Y-71181883D01*
X106968370Y-71181882D01*
X107070665Y-71151192D01*
X107141660Y-71150776D01*
X107195967Y-71182783D01*
X109354187Y-73341004D01*
X109388213Y-73403316D01*
X109383148Y-73474132D01*
X109341795Y-73530062D01*
X109257474Y-73594764D01*
X109253126Y-73598100D01*
X109092974Y-73758252D01*
X109022928Y-73849538D01*
X109021691Y-73848588D01*
X108989908Y-73880371D01*
X108990858Y-73881608D01*
X108899572Y-73951654D01*
X108739420Y-74111806D01*
X108669374Y-74203092D01*
X108668138Y-74202143D01*
X108636356Y-74233925D01*
X108637305Y-74235161D01*
X108546019Y-74305207D01*
X108520595Y-74330631D01*
X108458283Y-74364657D01*
X108387468Y-74359592D01*
X108330632Y-74317045D01*
X108305821Y-74250525D01*
X108305500Y-74241536D01*
X108305500Y-73642600D01*
X108305163Y-73639350D01*
X108295238Y-73543692D01*
X108295237Y-73543688D01*
X108294526Y-73536834D01*
X108288559Y-73518947D01*
X108240868Y-73376002D01*
X108238550Y-73369054D01*
X108145478Y-73218652D01*
X108020303Y-73093695D01*
X107996535Y-73079044D01*
X107875968Y-73004725D01*
X107875966Y-73004724D01*
X107869738Y-73000885D01*
X107789995Y-72974436D01*
X107708389Y-72947368D01*
X107708387Y-72947368D01*
X107701861Y-72945203D01*
X107695025Y-72944503D01*
X107695022Y-72944502D01*
X107651969Y-72940091D01*
X107597400Y-72934500D01*
X106821600Y-72934500D01*
X106818354Y-72934837D01*
X106818350Y-72934837D01*
X106722692Y-72944762D01*
X106722688Y-72944763D01*
X106715834Y-72945474D01*
X106709298Y-72947655D01*
X106709296Y-72947655D01*
X106692928Y-72953116D01*
X106548054Y-73001450D01*
X106397652Y-73094522D01*
X106392479Y-73099704D01*
X106359640Y-73132600D01*
X106272695Y-73219697D01*
X106269898Y-73224235D01*
X106212647Y-73264824D01*
X106141724Y-73268054D01*
X106080313Y-73232428D01*
X106072938Y-73223932D01*
X106064902Y-73213793D01*
X105950171Y-73099261D01*
X105938760Y-73090249D01*
X105800757Y-73005184D01*
X105787576Y-72999037D01*
X105633290Y-72947862D01*
X105619914Y-72944995D01*
X105525562Y-72935328D01*
X105519145Y-72935000D01*
X105406615Y-72935000D01*
X105391376Y-72939475D01*
X105390171Y-72940865D01*
X105388500Y-72948548D01*
X105388500Y-74296000D01*
X105368498Y-74364121D01*
X105314842Y-74410614D01*
X105262500Y-74422000D01*
X105006500Y-74422000D01*
X104938379Y-74401998D01*
X104891886Y-74348342D01*
X104880500Y-74296000D01*
X104880500Y-72953116D01*
X104876025Y-72937877D01*
X104874635Y-72936672D01*
X104866952Y-72935001D01*
X104806456Y-72935001D01*
X104738335Y-72914999D01*
X104691842Y-72861343D01*
X104680456Y-72809001D01*
X104680456Y-71176653D01*
X104700458Y-71108532D01*
X104751021Y-71063504D01*
X104837994Y-71020896D01*
X105019860Y-70891173D01*
X105086211Y-70825054D01*
X105139531Y-70771919D01*
X105178096Y-70733489D01*
X105209812Y-70689352D01*
X105308453Y-70552077D01*
X105309776Y-70553028D01*
X105356645Y-70509857D01*
X105426580Y-70497625D01*
X105492026Y-70525144D01*
G37*
G04 #@! TD.AperFunction*
M02*
