G04 #@! TF.GenerationSoftware,KiCad,Pcbnew,(6.0.9)*
G04 #@! TF.CreationDate,2023-02-20T10:33:00+01:00*
G04 #@! TF.ProjectId,FLWSB-SAMDaaNo21,464c5753-422d-4534-914d-4461614e6f32,1.0*
G04 #@! TF.SameCoordinates,Original*
G04 #@! TF.FileFunction,Copper,L3,Inr*
G04 #@! TF.FilePolarity,Positive*
%FSLAX46Y46*%
G04 Gerber Fmt 4.6, Leading zero omitted, Abs format (unit mm)*
G04 Created by KiCad (PCBNEW (6.0.9)) date 2023-02-20 10:33:00*
%MOMM*%
%LPD*%
G01*
G04 APERTURE LIST*
G04 #@! TA.AperFunction,ComponentPad*
%ADD10R,1.700000X1.700000*%
G04 #@! TD*
G04 #@! TA.AperFunction,ComponentPad*
%ADD11O,1.700000X1.700000*%
G04 #@! TD*
G04 #@! TA.AperFunction,ComponentPad*
%ADD12R,1.000000X1.000000*%
G04 #@! TD*
G04 #@! TA.AperFunction,ComponentPad*
%ADD13C,0.650000*%
G04 #@! TD*
G04 #@! TA.AperFunction,ComponentPad*
%ADD14O,2.216000X1.108000*%
G04 #@! TD*
G04 #@! TA.AperFunction,ViaPad*
%ADD15C,0.800000*%
G04 #@! TD*
G04 #@! TA.AperFunction,Conductor*
%ADD16C,0.250000*%
G04 #@! TD*
G04 APERTURE END LIST*
D10*
X132080000Y-87630000D03*
D11*
X129540000Y-87630000D03*
X127000000Y-87630000D03*
X124460000Y-87630000D03*
X121920000Y-87630000D03*
X119380000Y-87630000D03*
X116840000Y-87630000D03*
X114300000Y-87630000D03*
X111760000Y-87630000D03*
X109220000Y-87630000D03*
X106680000Y-87630000D03*
X104140000Y-87630000D03*
X101600000Y-87630000D03*
X99060000Y-87630000D03*
X96520000Y-87630000D03*
D12*
X92202000Y-82296000D03*
D10*
X96520000Y-69850000D03*
D11*
X99060000Y-69850000D03*
X101600000Y-69850000D03*
X104140000Y-69850000D03*
X106680000Y-69850000D03*
X109220000Y-69850000D03*
X111760000Y-69850000D03*
X114300000Y-69850000D03*
X116840000Y-69850000D03*
X119380000Y-69850000D03*
X121920000Y-69850000D03*
X124460000Y-69850000D03*
X127000000Y-69850000D03*
X129540000Y-69850000D03*
X132080000Y-69850000D03*
D12*
X92964000Y-71628000D03*
X97790000Y-74295000D03*
D10*
X130725015Y-76200000D03*
D11*
X130725015Y-78740000D03*
X130725015Y-81280000D03*
D13*
X89750917Y-75471000D03*
X89750917Y-76321000D03*
X89750917Y-77171000D03*
X89750917Y-78021000D03*
X89750917Y-78871000D03*
X89750917Y-79721000D03*
X89750917Y-80571000D03*
X89750917Y-81421000D03*
X88400917Y-81421000D03*
X88400917Y-80571000D03*
X88400917Y-79721000D03*
X88400917Y-78871000D03*
X88400917Y-78021000D03*
X88400917Y-77171000D03*
X88400917Y-76321000D03*
X88400917Y-75471000D03*
D14*
X88770917Y-74121000D03*
X88770917Y-82771000D03*
X85390917Y-82771000D03*
X85390917Y-74121000D03*
D15*
X113512152Y-79276413D03*
X126492000Y-82169000D03*
X97536000Y-80772000D03*
X110236000Y-77216000D03*
X109100320Y-79808143D03*
X111765373Y-75122979D03*
X96520000Y-82804000D03*
X134874000Y-69850000D03*
X106834093Y-82958093D03*
X105156000Y-72935500D03*
X122931700Y-83316300D03*
X160274000Y-78740000D03*
X134620000Y-87630000D03*
X125222000Y-74422000D03*
X106612940Y-75759060D03*
X135189916Y-78773524D03*
X107994420Y-78509246D03*
X92202000Y-84836000D03*
X150876000Y-85598000D03*
X110270070Y-81245930D03*
X102671299Y-74731299D03*
X112388456Y-76821360D03*
X111677700Y-76118629D03*
X114357515Y-77978052D03*
X115368705Y-78989241D03*
X120523000Y-77940500D03*
X122428000Y-79502000D03*
X131572000Y-83058000D03*
X143256000Y-85090000D03*
X144526000Y-86106000D03*
X112268000Y-81788000D03*
X155956000Y-71882000D03*
D16*
X126581500Y-71882000D02*
X127508000Y-71882000D01*
X120523000Y-77940500D02*
X126581500Y-71882000D01*
X127508000Y-71882000D02*
X129540000Y-69850000D01*
X124460000Y-87630000D02*
X128307000Y-83783000D01*
X128307000Y-83783000D02*
X144055000Y-83783000D01*
X144055000Y-83783000D02*
X155956000Y-71882000D01*
G04 #@! TA.AperFunction,Conductor*
G36*
X95119836Y-68735609D02*
G01*
X95166329Y-68789265D01*
X95176433Y-68859539D01*
X95172592Y-68874537D01*
X95172856Y-68874600D01*
X95171029Y-68882284D01*
X95168255Y-68889684D01*
X95161500Y-68951866D01*
X95161500Y-70748134D01*
X95168255Y-70810316D01*
X95219385Y-70946705D01*
X95306739Y-71063261D01*
X95423295Y-71150615D01*
X95559684Y-71201745D01*
X95615560Y-71207815D01*
X95617678Y-71208045D01*
X95621866Y-71208500D01*
X97418134Y-71208500D01*
X97422323Y-71208045D01*
X97424440Y-71207815D01*
X97480316Y-71201745D01*
X97616705Y-71150615D01*
X97733261Y-71063261D01*
X97820615Y-70946705D01*
X97864798Y-70828848D01*
X97907440Y-70772084D01*
X97974001Y-70747384D01*
X98043350Y-70762592D01*
X98078017Y-70790580D01*
X98103218Y-70819673D01*
X98110580Y-70826883D01*
X98274434Y-70962916D01*
X98282881Y-70968831D01*
X98466756Y-71076279D01*
X98476042Y-71080729D01*
X98675001Y-71156703D01*
X98684899Y-71159579D01*
X98788250Y-71180606D01*
X98802299Y-71179410D01*
X98806000Y-71169065D01*
X98806000Y-69722000D01*
X98826002Y-69653879D01*
X98879658Y-69607386D01*
X98932000Y-69596000D01*
X99188000Y-69596000D01*
X99256121Y-69616002D01*
X99302614Y-69669658D01*
X99314000Y-69722000D01*
X99314000Y-71168517D01*
X99318064Y-71182359D01*
X99331478Y-71184393D01*
X99338184Y-71183534D01*
X99348262Y-71181392D01*
X99552255Y-71120191D01*
X99561842Y-71116433D01*
X99753095Y-71022739D01*
X99761945Y-71017464D01*
X99935328Y-70893792D01*
X99943200Y-70887139D01*
X100094052Y-70736812D01*
X100100730Y-70728965D01*
X100228022Y-70551819D01*
X100229279Y-70552722D01*
X100276373Y-70509362D01*
X100346311Y-70497145D01*
X100411751Y-70524678D01*
X100439579Y-70556511D01*
X100499987Y-70655088D01*
X100646250Y-70823938D01*
X100818126Y-70966632D01*
X101011000Y-71079338D01*
X101015825Y-71081180D01*
X101015826Y-71081181D01*
X101051394Y-71094763D01*
X101219692Y-71159030D01*
X101224760Y-71160061D01*
X101224763Y-71160062D01*
X101319862Y-71179410D01*
X101438597Y-71203567D01*
X101443772Y-71203757D01*
X101443774Y-71203757D01*
X101656673Y-71211564D01*
X101656677Y-71211564D01*
X101661837Y-71211753D01*
X101666957Y-71211097D01*
X101666959Y-71211097D01*
X101878288Y-71184025D01*
X101878289Y-71184025D01*
X101883416Y-71183368D01*
X101888366Y-71181883D01*
X102092429Y-71120661D01*
X102092434Y-71120659D01*
X102097384Y-71119174D01*
X102297994Y-71020896D01*
X102479860Y-70891173D01*
X102638096Y-70733489D01*
X102647670Y-70720166D01*
X102768453Y-70552077D01*
X102769776Y-70553028D01*
X102816645Y-70509857D01*
X102886580Y-70497625D01*
X102952026Y-70525144D01*
X102979875Y-70556994D01*
X103039987Y-70655088D01*
X103186250Y-70823938D01*
X103358126Y-70966632D01*
X103551000Y-71079338D01*
X103555825Y-71081180D01*
X103555826Y-71081181D01*
X103591394Y-71094763D01*
X103759692Y-71159030D01*
X103764760Y-71160061D01*
X103764763Y-71160062D01*
X103859862Y-71179410D01*
X103978597Y-71203567D01*
X103983772Y-71203757D01*
X103983774Y-71203757D01*
X104196673Y-71211564D01*
X104196677Y-71211564D01*
X104201837Y-71211753D01*
X104206957Y-71211097D01*
X104206959Y-71211097D01*
X104418288Y-71184025D01*
X104418289Y-71184025D01*
X104423416Y-71183368D01*
X104428366Y-71181883D01*
X104632429Y-71120661D01*
X104632434Y-71120659D01*
X104637384Y-71119174D01*
X104837994Y-71020896D01*
X105019860Y-70891173D01*
X105178096Y-70733489D01*
X105187670Y-70720166D01*
X105308453Y-70552077D01*
X105309776Y-70553028D01*
X105356645Y-70509857D01*
X105426580Y-70497625D01*
X105492026Y-70525144D01*
X105519875Y-70556994D01*
X105579987Y-70655088D01*
X105726250Y-70823938D01*
X105898126Y-70966632D01*
X106091000Y-71079338D01*
X106095825Y-71081180D01*
X106095826Y-71081181D01*
X106131394Y-71094763D01*
X106299692Y-71159030D01*
X106304760Y-71160061D01*
X106304763Y-71160062D01*
X106399862Y-71179410D01*
X106518597Y-71203567D01*
X106523772Y-71203757D01*
X106523774Y-71203757D01*
X106736673Y-71211564D01*
X106736677Y-71211564D01*
X106741837Y-71211753D01*
X106746957Y-71211097D01*
X106746959Y-71211097D01*
X106958288Y-71184025D01*
X106958289Y-71184025D01*
X106963416Y-71183368D01*
X106968366Y-71181883D01*
X107172429Y-71120661D01*
X107172434Y-71120659D01*
X107177384Y-71119174D01*
X107377994Y-71020896D01*
X107559860Y-70891173D01*
X107718096Y-70733489D01*
X107727670Y-70720166D01*
X107848453Y-70552077D01*
X107849776Y-70553028D01*
X107896645Y-70509857D01*
X107966580Y-70497625D01*
X108032026Y-70525144D01*
X108059875Y-70556994D01*
X108119987Y-70655088D01*
X108266250Y-70823938D01*
X108438126Y-70966632D01*
X108631000Y-71079338D01*
X108635825Y-71081180D01*
X108635826Y-71081181D01*
X108671394Y-71094763D01*
X108839692Y-71159030D01*
X108844760Y-71160061D01*
X108844763Y-71160062D01*
X108939862Y-71179410D01*
X109058597Y-71203567D01*
X109063772Y-71203757D01*
X109063774Y-71203757D01*
X109276673Y-71211564D01*
X109276677Y-71211564D01*
X109281837Y-71211753D01*
X109286957Y-71211097D01*
X109286959Y-71211097D01*
X109498288Y-71184025D01*
X109498289Y-71184025D01*
X109503416Y-71183368D01*
X109508366Y-71181883D01*
X109712429Y-71120661D01*
X109712434Y-71120659D01*
X109717384Y-71119174D01*
X109917994Y-71020896D01*
X110099860Y-70891173D01*
X110258096Y-70733489D01*
X110267670Y-70720166D01*
X110388453Y-70552077D01*
X110389776Y-70553028D01*
X110436645Y-70509857D01*
X110506580Y-70497625D01*
X110572026Y-70525144D01*
X110599875Y-70556994D01*
X110659987Y-70655088D01*
X110806250Y-70823938D01*
X110978126Y-70966632D01*
X111171000Y-71079338D01*
X111175825Y-71081180D01*
X111175826Y-71081181D01*
X111211394Y-71094763D01*
X111379692Y-71159030D01*
X111384760Y-71160061D01*
X111384763Y-71160062D01*
X111479862Y-71179410D01*
X111598597Y-71203567D01*
X111603772Y-71203757D01*
X111603774Y-71203757D01*
X111816673Y-71211564D01*
X111816677Y-71211564D01*
X111821837Y-71211753D01*
X111826957Y-71211097D01*
X111826959Y-71211097D01*
X112038288Y-71184025D01*
X112038289Y-71184025D01*
X112043416Y-71183368D01*
X112048366Y-71181883D01*
X112252429Y-71120661D01*
X112252434Y-71120659D01*
X112257384Y-71119174D01*
X112457994Y-71020896D01*
X112639860Y-70891173D01*
X112798096Y-70733489D01*
X112807670Y-70720166D01*
X112928453Y-70552077D01*
X112929776Y-70553028D01*
X112976645Y-70509857D01*
X113046580Y-70497625D01*
X113112026Y-70525144D01*
X113139875Y-70556994D01*
X113199987Y-70655088D01*
X113346250Y-70823938D01*
X113518126Y-70966632D01*
X113711000Y-71079338D01*
X113715825Y-71081180D01*
X113715826Y-71081181D01*
X113751394Y-71094763D01*
X113919692Y-71159030D01*
X113924760Y-71160061D01*
X113924763Y-71160062D01*
X114019862Y-71179410D01*
X114138597Y-71203567D01*
X114143772Y-71203757D01*
X114143774Y-71203757D01*
X114356673Y-71211564D01*
X114356677Y-71211564D01*
X114361837Y-71211753D01*
X114366957Y-71211097D01*
X114366959Y-71211097D01*
X114578288Y-71184025D01*
X114578289Y-71184025D01*
X114583416Y-71183368D01*
X114588366Y-71181883D01*
X114792429Y-71120661D01*
X114792434Y-71120659D01*
X114797384Y-71119174D01*
X114997994Y-71020896D01*
X115179860Y-70891173D01*
X115338096Y-70733489D01*
X115347670Y-70720166D01*
X115468453Y-70552077D01*
X115469776Y-70553028D01*
X115516645Y-70509857D01*
X115586580Y-70497625D01*
X115652026Y-70525144D01*
X115679875Y-70556994D01*
X115739987Y-70655088D01*
X115886250Y-70823938D01*
X116058126Y-70966632D01*
X116251000Y-71079338D01*
X116255825Y-71081180D01*
X116255826Y-71081181D01*
X116291394Y-71094763D01*
X116459692Y-71159030D01*
X116464760Y-71160061D01*
X116464763Y-71160062D01*
X116559862Y-71179410D01*
X116678597Y-71203567D01*
X116683772Y-71203757D01*
X116683774Y-71203757D01*
X116896673Y-71211564D01*
X116896677Y-71211564D01*
X116901837Y-71211753D01*
X116906957Y-71211097D01*
X116906959Y-71211097D01*
X117118288Y-71184025D01*
X117118289Y-71184025D01*
X117123416Y-71183368D01*
X117128366Y-71181883D01*
X117332429Y-71120661D01*
X117332434Y-71120659D01*
X117337384Y-71119174D01*
X117537994Y-71020896D01*
X117719860Y-70891173D01*
X117878096Y-70733489D01*
X117887670Y-70720166D01*
X118008453Y-70552077D01*
X118009776Y-70553028D01*
X118056645Y-70509857D01*
X118126580Y-70497625D01*
X118192026Y-70525144D01*
X118219875Y-70556994D01*
X118279987Y-70655088D01*
X118426250Y-70823938D01*
X118598126Y-70966632D01*
X118791000Y-71079338D01*
X118795825Y-71081180D01*
X118795826Y-71081181D01*
X118831394Y-71094763D01*
X118999692Y-71159030D01*
X119004760Y-71160061D01*
X119004763Y-71160062D01*
X119099862Y-71179410D01*
X119218597Y-71203567D01*
X119223772Y-71203757D01*
X119223774Y-71203757D01*
X119436673Y-71211564D01*
X119436677Y-71211564D01*
X119441837Y-71211753D01*
X119446957Y-71211097D01*
X119446959Y-71211097D01*
X119658288Y-71184025D01*
X119658289Y-71184025D01*
X119663416Y-71183368D01*
X119668366Y-71181883D01*
X119872429Y-71120661D01*
X119872434Y-71120659D01*
X119877384Y-71119174D01*
X120077994Y-71020896D01*
X120259860Y-70891173D01*
X120418096Y-70733489D01*
X120427670Y-70720166D01*
X120548453Y-70552077D01*
X120549776Y-70553028D01*
X120596645Y-70509857D01*
X120666580Y-70497625D01*
X120732026Y-70525144D01*
X120759875Y-70556994D01*
X120819987Y-70655088D01*
X120966250Y-70823938D01*
X121138126Y-70966632D01*
X121331000Y-71079338D01*
X121335825Y-71081180D01*
X121335826Y-71081181D01*
X121371394Y-71094763D01*
X121539692Y-71159030D01*
X121544760Y-71160061D01*
X121544763Y-71160062D01*
X121639862Y-71179410D01*
X121758597Y-71203567D01*
X121763772Y-71203757D01*
X121763774Y-71203757D01*
X121976673Y-71211564D01*
X121976677Y-71211564D01*
X121981837Y-71211753D01*
X121986957Y-71211097D01*
X121986959Y-71211097D01*
X122198288Y-71184025D01*
X122198289Y-71184025D01*
X122203416Y-71183368D01*
X122208366Y-71181883D01*
X122412429Y-71120661D01*
X122412434Y-71120659D01*
X122417384Y-71119174D01*
X122617994Y-71020896D01*
X122799860Y-70891173D01*
X122958096Y-70733489D01*
X122967670Y-70720166D01*
X123088453Y-70552077D01*
X123089776Y-70553028D01*
X123136645Y-70509857D01*
X123206580Y-70497625D01*
X123272026Y-70525144D01*
X123299875Y-70556994D01*
X123359987Y-70655088D01*
X123506250Y-70823938D01*
X123678126Y-70966632D01*
X123871000Y-71079338D01*
X123875825Y-71081180D01*
X123875826Y-71081181D01*
X123911394Y-71094763D01*
X124079692Y-71159030D01*
X124084760Y-71160061D01*
X124084763Y-71160062D01*
X124179862Y-71179410D01*
X124298597Y-71203567D01*
X124303772Y-71203757D01*
X124303774Y-71203757D01*
X124516673Y-71211564D01*
X124516677Y-71211564D01*
X124521837Y-71211753D01*
X124526957Y-71211097D01*
X124526959Y-71211097D01*
X124738288Y-71184025D01*
X124738289Y-71184025D01*
X124743416Y-71183368D01*
X124748366Y-71181883D01*
X124952429Y-71120661D01*
X124952434Y-71120659D01*
X124957384Y-71119174D01*
X125157994Y-71020896D01*
X125339860Y-70891173D01*
X125498096Y-70733489D01*
X125507670Y-70720166D01*
X125628453Y-70552077D01*
X125629776Y-70553028D01*
X125676645Y-70509857D01*
X125746580Y-70497625D01*
X125812026Y-70525144D01*
X125839875Y-70556994D01*
X125899987Y-70655088D01*
X126046250Y-70823938D01*
X126218126Y-70966632D01*
X126371200Y-71056081D01*
X126377823Y-71059951D01*
X126426547Y-71111589D01*
X126439618Y-71181372D01*
X126412887Y-71247144D01*
X126349408Y-71289735D01*
X126327907Y-71295982D01*
X126321081Y-71300019D01*
X126310472Y-71306293D01*
X126292724Y-71314988D01*
X126273883Y-71322448D01*
X126267467Y-71327110D01*
X126267466Y-71327110D01*
X126238113Y-71348436D01*
X126228193Y-71354952D01*
X126196965Y-71373420D01*
X126196962Y-71373422D01*
X126190138Y-71377458D01*
X126175817Y-71391779D01*
X126160784Y-71404619D01*
X126144393Y-71416528D01*
X126139342Y-71422634D01*
X126116202Y-71450605D01*
X126108212Y-71459384D01*
X120572500Y-76995095D01*
X120510188Y-77029121D01*
X120483405Y-77032000D01*
X120427513Y-77032000D01*
X120421061Y-77033372D01*
X120421056Y-77033372D01*
X120334113Y-77051853D01*
X120240712Y-77071706D01*
X120234682Y-77074391D01*
X120234681Y-77074391D01*
X120072278Y-77146697D01*
X120072276Y-77146698D01*
X120066248Y-77149382D01*
X120060907Y-77153262D01*
X120060906Y-77153263D01*
X120018258Y-77184249D01*
X119911747Y-77261634D01*
X119907326Y-77266544D01*
X119907325Y-77266545D01*
X119829854Y-77352586D01*
X119783960Y-77403556D01*
X119780659Y-77409274D01*
X119702566Y-77544535D01*
X119688473Y-77568944D01*
X119629458Y-77750572D01*
X119609496Y-77940500D01*
X119610186Y-77947065D01*
X119624380Y-78082109D01*
X119629458Y-78130428D01*
X119688473Y-78312056D01*
X119691776Y-78317778D01*
X119691777Y-78317779D01*
X119720542Y-78367601D01*
X119783960Y-78477444D01*
X119788378Y-78482351D01*
X119788379Y-78482352D01*
X119892101Y-78597547D01*
X119911747Y-78619366D01*
X119934492Y-78635891D01*
X120031945Y-78706695D01*
X120066248Y-78731618D01*
X120072276Y-78734302D01*
X120072278Y-78734303D01*
X120234681Y-78806609D01*
X120240712Y-78809294D01*
X120305824Y-78823134D01*
X120421056Y-78847628D01*
X120421061Y-78847628D01*
X120427513Y-78849000D01*
X120618487Y-78849000D01*
X120624939Y-78847628D01*
X120624944Y-78847628D01*
X120740176Y-78823134D01*
X120805288Y-78809294D01*
X120811319Y-78806609D01*
X120973722Y-78734303D01*
X120973724Y-78734302D01*
X120979752Y-78731618D01*
X121014056Y-78706695D01*
X121111508Y-78635891D01*
X121134253Y-78619366D01*
X121153899Y-78597547D01*
X121257621Y-78482352D01*
X121257622Y-78482351D01*
X121262040Y-78477444D01*
X121325458Y-78367601D01*
X121354223Y-78317779D01*
X121354224Y-78317778D01*
X121357527Y-78312056D01*
X121416542Y-78130428D01*
X121421621Y-78082109D01*
X121433907Y-77965207D01*
X121460920Y-77899550D01*
X121470122Y-77889282D01*
X124349985Y-75009419D01*
X124412297Y-74975393D01*
X124483112Y-74980458D01*
X124532714Y-75014202D01*
X124610747Y-75100866D01*
X124696659Y-75163285D01*
X124723942Y-75183107D01*
X124765248Y-75213118D01*
X124771276Y-75215802D01*
X124771278Y-75215803D01*
X124933681Y-75288109D01*
X124939712Y-75290794D01*
X125012869Y-75306344D01*
X125120056Y-75329128D01*
X125120061Y-75329128D01*
X125126513Y-75330500D01*
X125317487Y-75330500D01*
X125323939Y-75329128D01*
X125323944Y-75329128D01*
X125431131Y-75306344D01*
X125504288Y-75290794D01*
X125510319Y-75288109D01*
X125672722Y-75215803D01*
X125672724Y-75215802D01*
X125678752Y-75213118D01*
X125720059Y-75183107D01*
X125747341Y-75163285D01*
X125833253Y-75100866D01*
X125912229Y-75013154D01*
X125956621Y-74963852D01*
X125956622Y-74963851D01*
X125961040Y-74958944D01*
X126024946Y-74848255D01*
X126053223Y-74799279D01*
X126053224Y-74799278D01*
X126056527Y-74793556D01*
X126115542Y-74611928D01*
X126117663Y-74591753D01*
X126134814Y-74428565D01*
X126135504Y-74422000D01*
X126126438Y-74335742D01*
X126116232Y-74238635D01*
X126116232Y-74238633D01*
X126115542Y-74232072D01*
X126056527Y-74050444D01*
X126051075Y-74041000D01*
X125991316Y-73937496D01*
X125961040Y-73885056D01*
X125945478Y-73867772D01*
X125837675Y-73748045D01*
X125837674Y-73748044D01*
X125833253Y-73743134D01*
X125826928Y-73738538D01*
X125826498Y-73737981D01*
X125823002Y-73734833D01*
X125823578Y-73734194D01*
X125783576Y-73682317D01*
X125777501Y-73611581D01*
X125811896Y-73547509D01*
X126807000Y-72552405D01*
X126869312Y-72518379D01*
X126896095Y-72515500D01*
X127429233Y-72515500D01*
X127440416Y-72516027D01*
X127447909Y-72517702D01*
X127455835Y-72517453D01*
X127455836Y-72517453D01*
X127515986Y-72515562D01*
X127519945Y-72515500D01*
X127547856Y-72515500D01*
X127551791Y-72515003D01*
X127551856Y-72514995D01*
X127563693Y-72514062D01*
X127595951Y-72513048D01*
X127599970Y-72512922D01*
X127607889Y-72512673D01*
X127627343Y-72507021D01*
X127646700Y-72503013D01*
X127658930Y-72501468D01*
X127658931Y-72501468D01*
X127666797Y-72500474D01*
X127674168Y-72497555D01*
X127674170Y-72497555D01*
X127707912Y-72484196D01*
X127719142Y-72480351D01*
X127753983Y-72470229D01*
X127753984Y-72470229D01*
X127761593Y-72468018D01*
X127768412Y-72463985D01*
X127768417Y-72463983D01*
X127779028Y-72457707D01*
X127796776Y-72449012D01*
X127815617Y-72441552D01*
X127851387Y-72415564D01*
X127861307Y-72409048D01*
X127892535Y-72390580D01*
X127892538Y-72390578D01*
X127899362Y-72386542D01*
X127913683Y-72372221D01*
X127928717Y-72359380D01*
X127938694Y-72352131D01*
X127945107Y-72347472D01*
X127973298Y-72313395D01*
X127981288Y-72304616D01*
X129084549Y-71201355D01*
X129146861Y-71167329D01*
X129198762Y-71166979D01*
X129378597Y-71203567D01*
X129383772Y-71203757D01*
X129383774Y-71203757D01*
X129596673Y-71211564D01*
X129596677Y-71211564D01*
X129601837Y-71211753D01*
X129606957Y-71211097D01*
X129606959Y-71211097D01*
X129818288Y-71184025D01*
X129818289Y-71184025D01*
X129823416Y-71183368D01*
X129828366Y-71181883D01*
X130032429Y-71120661D01*
X130032434Y-71120659D01*
X130037384Y-71119174D01*
X130237994Y-71020896D01*
X130419860Y-70891173D01*
X130578096Y-70733489D01*
X130587670Y-70720166D01*
X130708453Y-70552077D01*
X130709776Y-70553028D01*
X130756645Y-70509857D01*
X130826580Y-70497625D01*
X130892026Y-70525144D01*
X130919875Y-70556994D01*
X130979987Y-70655088D01*
X131126250Y-70823938D01*
X131298126Y-70966632D01*
X131491000Y-71079338D01*
X131495825Y-71081180D01*
X131495826Y-71081181D01*
X131531394Y-71094763D01*
X131699692Y-71159030D01*
X131704760Y-71160061D01*
X131704763Y-71160062D01*
X131799862Y-71179410D01*
X131918597Y-71203567D01*
X131923772Y-71203757D01*
X131923774Y-71203757D01*
X132136673Y-71211564D01*
X132136677Y-71211564D01*
X132141837Y-71211753D01*
X132146957Y-71211097D01*
X132146959Y-71211097D01*
X132358288Y-71184025D01*
X132358289Y-71184025D01*
X132363416Y-71183368D01*
X132368366Y-71181883D01*
X132572429Y-71120661D01*
X132572434Y-71120659D01*
X132577384Y-71119174D01*
X132777994Y-71020896D01*
X132959860Y-70891173D01*
X133118096Y-70733489D01*
X133127670Y-70720166D01*
X133245435Y-70556277D01*
X133248453Y-70552077D01*
X133258006Y-70532749D01*
X133345136Y-70356453D01*
X133345137Y-70356451D01*
X133347430Y-70351811D01*
X133412370Y-70138069D01*
X133441529Y-69916590D01*
X133443156Y-69850000D01*
X133424852Y-69627361D01*
X133370431Y-69410702D01*
X133281354Y-69205840D01*
X133202748Y-69084334D01*
X133162822Y-69022617D01*
X133162820Y-69022614D01*
X133160014Y-69018277D01*
X133156540Y-69014459D01*
X133156533Y-69014450D01*
X133076419Y-68926406D01*
X133045367Y-68862561D01*
X133053763Y-68792062D01*
X133098940Y-68737294D01*
X133169613Y-68715607D01*
X134642445Y-68715607D01*
X134710566Y-68735609D01*
X134757059Y-68789265D01*
X134767163Y-68859539D01*
X134737669Y-68924119D01*
X134677943Y-68962503D01*
X134668644Y-68964854D01*
X134591712Y-68981206D01*
X134585682Y-68983891D01*
X134585681Y-68983891D01*
X134423278Y-69056197D01*
X134423276Y-69056198D01*
X134417248Y-69058882D01*
X134262747Y-69171134D01*
X134258326Y-69176044D01*
X134258325Y-69176045D01*
X134207596Y-69232386D01*
X134134960Y-69313056D01*
X134039473Y-69478444D01*
X133980458Y-69660072D01*
X133960496Y-69850000D01*
X133961186Y-69856565D01*
X133967844Y-69919908D01*
X133980458Y-70039928D01*
X134039473Y-70221556D01*
X134042776Y-70227278D01*
X134042777Y-70227279D01*
X134076686Y-70286010D01*
X134134960Y-70386944D01*
X134139378Y-70391851D01*
X134139379Y-70391852D01*
X134245631Y-70509857D01*
X134262747Y-70528866D01*
X134417248Y-70641118D01*
X134423276Y-70643802D01*
X134423278Y-70643803D01*
X134585681Y-70716109D01*
X134591712Y-70718794D01*
X134676480Y-70736812D01*
X134772056Y-70757128D01*
X134772061Y-70757128D01*
X134778513Y-70758500D01*
X134969487Y-70758500D01*
X134975939Y-70757128D01*
X134975944Y-70757128D01*
X135071520Y-70736812D01*
X135156288Y-70718794D01*
X135162319Y-70716109D01*
X135324722Y-70643803D01*
X135324724Y-70643802D01*
X135330752Y-70641118D01*
X135485253Y-70528866D01*
X135502369Y-70509857D01*
X135608621Y-70391852D01*
X135608622Y-70391851D01*
X135613040Y-70386944D01*
X135671314Y-70286010D01*
X135705223Y-70227279D01*
X135705224Y-70227278D01*
X135708527Y-70221556D01*
X135767542Y-70039928D01*
X135780157Y-69919908D01*
X135786814Y-69856565D01*
X135787504Y-69850000D01*
X135767542Y-69660072D01*
X135708527Y-69478444D01*
X135613040Y-69313056D01*
X135540405Y-69232386D01*
X135489675Y-69176045D01*
X135489674Y-69176044D01*
X135485253Y-69171134D01*
X135330752Y-69058882D01*
X135324724Y-69056198D01*
X135324722Y-69056197D01*
X135162319Y-68983891D01*
X135162318Y-68983891D01*
X135156288Y-68981206D01*
X135079358Y-68964854D01*
X135016885Y-68931126D01*
X134982563Y-68868976D01*
X134987291Y-68798137D01*
X135029567Y-68741099D01*
X135095968Y-68715972D01*
X135105555Y-68715607D01*
X168243530Y-68715607D01*
X168262915Y-68717107D01*
X168277748Y-68719417D01*
X168277752Y-68719417D01*
X168286621Y-68720798D01*
X168295646Y-68719618D01*
X168326081Y-68719346D01*
X168388158Y-68726340D01*
X168415664Y-68732618D01*
X168492752Y-68759592D01*
X168518168Y-68771831D01*
X168587325Y-68815286D01*
X168609380Y-68832875D01*
X168667125Y-68890620D01*
X168684711Y-68912670D01*
X168728169Y-68981832D01*
X168740408Y-69007248D01*
X168767382Y-69084336D01*
X168773660Y-69111841D01*
X168779912Y-69167325D01*
X168779245Y-69182960D01*
X168780694Y-69182978D01*
X168780584Y-69191951D01*
X168779202Y-69200827D01*
X168781665Y-69219663D01*
X168783329Y-69232386D01*
X168784393Y-69248724D01*
X168784258Y-77345249D01*
X168784078Y-88196660D01*
X168782577Y-88216046D01*
X168778887Y-88239742D01*
X168780051Y-88248645D01*
X168780051Y-88248650D01*
X168780066Y-88248765D01*
X168780337Y-88279215D01*
X168773342Y-88341273D01*
X168767063Y-88368778D01*
X168740089Y-88445859D01*
X168727849Y-88471274D01*
X168690395Y-88530878D01*
X168684398Y-88540422D01*
X168666806Y-88562480D01*
X168609059Y-88620224D01*
X168586999Y-88637815D01*
X168517853Y-88681260D01*
X168492434Y-88693500D01*
X168415355Y-88720469D01*
X168387849Y-88726747D01*
X168331910Y-88733048D01*
X168316268Y-88733831D01*
X168307738Y-88733727D01*
X168298865Y-88732345D01*
X168289962Y-88733509D01*
X168267282Y-88736474D01*
X168250951Y-88737537D01*
X134956821Y-88738440D01*
X134888700Y-88718440D01*
X134842206Y-88664785D01*
X134832100Y-88594512D01*
X134861591Y-88529930D01*
X134905570Y-88497333D01*
X135070719Y-88423805D01*
X135070726Y-88423801D01*
X135076752Y-88421118D01*
X135231253Y-88308866D01*
X135249987Y-88288060D01*
X135354621Y-88171852D01*
X135354622Y-88171851D01*
X135359040Y-88166944D01*
X135430931Y-88042425D01*
X135451223Y-88007279D01*
X135451224Y-88007278D01*
X135454527Y-88001556D01*
X135513542Y-87819928D01*
X135533504Y-87630000D01*
X135513542Y-87440072D01*
X135454527Y-87258444D01*
X135359040Y-87093056D01*
X135262503Y-86985840D01*
X135235675Y-86956045D01*
X135235674Y-86956044D01*
X135231253Y-86951134D01*
X135076752Y-86838882D01*
X135070724Y-86836198D01*
X135070722Y-86836197D01*
X134908319Y-86763891D01*
X134908318Y-86763891D01*
X134902288Y-86761206D01*
X134780331Y-86735283D01*
X134721944Y-86722872D01*
X134721939Y-86722872D01*
X134715487Y-86721500D01*
X134524513Y-86721500D01*
X134518061Y-86722872D01*
X134518056Y-86722872D01*
X134459669Y-86735283D01*
X134337712Y-86761206D01*
X134331682Y-86763891D01*
X134331681Y-86763891D01*
X134169278Y-86836197D01*
X134169276Y-86836198D01*
X134163248Y-86838882D01*
X134008747Y-86951134D01*
X134004326Y-86956044D01*
X134004325Y-86956045D01*
X133977498Y-86985840D01*
X133880960Y-87093056D01*
X133785473Y-87258444D01*
X133726458Y-87440072D01*
X133706496Y-87630000D01*
X133726458Y-87819928D01*
X133785473Y-88001556D01*
X133788776Y-88007278D01*
X133788777Y-88007279D01*
X133809069Y-88042425D01*
X133880960Y-88166944D01*
X133885378Y-88171851D01*
X133885379Y-88171852D01*
X133990013Y-88288060D01*
X134008747Y-88308866D01*
X134163248Y-88421118D01*
X134169274Y-88423801D01*
X134169281Y-88423805D01*
X134334471Y-88497351D01*
X134388567Y-88543331D01*
X134409217Y-88611258D01*
X134389865Y-88679566D01*
X134336654Y-88726568D01*
X134283226Y-88738458D01*
X133554977Y-88738478D01*
X133486856Y-88718478D01*
X133440362Y-88664823D01*
X133430256Y-88594550D01*
X133430357Y-88594017D01*
X133431745Y-88590316D01*
X133438500Y-88528134D01*
X133438500Y-86731866D01*
X133431745Y-86669684D01*
X133380615Y-86533295D01*
X133293261Y-86416739D01*
X133176705Y-86329385D01*
X133040316Y-86278255D01*
X132978134Y-86271500D01*
X131181866Y-86271500D01*
X131119684Y-86278255D01*
X130983295Y-86329385D01*
X130866739Y-86416739D01*
X130779385Y-86533295D01*
X130776233Y-86541703D01*
X130734919Y-86651907D01*
X130692277Y-86708671D01*
X130625716Y-86733371D01*
X130556367Y-86718163D01*
X130523743Y-86692476D01*
X130473151Y-86636875D01*
X130473142Y-86636866D01*
X130469670Y-86633051D01*
X130465619Y-86629852D01*
X130465615Y-86629848D01*
X130298414Y-86497800D01*
X130298410Y-86497798D01*
X130294359Y-86494598D01*
X130098789Y-86386638D01*
X130093920Y-86384914D01*
X130093916Y-86384912D01*
X129893087Y-86313795D01*
X129893083Y-86313794D01*
X129888212Y-86312069D01*
X129883119Y-86311162D01*
X129883116Y-86311161D01*
X129673373Y-86273800D01*
X129673367Y-86273799D01*
X129668284Y-86272894D01*
X129594452Y-86271992D01*
X129450081Y-86270228D01*
X129450079Y-86270228D01*
X129444911Y-86270165D01*
X129224091Y-86303955D01*
X129011756Y-86373357D01*
X128813607Y-86476507D01*
X128809474Y-86479610D01*
X128809471Y-86479612D01*
X128639100Y-86607530D01*
X128634965Y-86610635D01*
X128609554Y-86637226D01*
X128541280Y-86708671D01*
X128480629Y-86772138D01*
X128373201Y-86929621D01*
X128318293Y-86974621D01*
X128247768Y-86982792D01*
X128184021Y-86951538D01*
X128163324Y-86927054D01*
X128082822Y-86802617D01*
X128082820Y-86802614D01*
X128080014Y-86798277D01*
X127929670Y-86633051D01*
X127925619Y-86629852D01*
X127925615Y-86629848D01*
X127758414Y-86497800D01*
X127758410Y-86497798D01*
X127754359Y-86494598D01*
X127558789Y-86386638D01*
X127553920Y-86384914D01*
X127553916Y-86384912D01*
X127353087Y-86313795D01*
X127353083Y-86313794D01*
X127348212Y-86312069D01*
X127343119Y-86311162D01*
X127343116Y-86311161D01*
X127133373Y-86273800D01*
X127133367Y-86273799D01*
X127128284Y-86272894D01*
X127017009Y-86271535D01*
X126949140Y-86250702D01*
X126903306Y-86196483D01*
X126894061Y-86126091D01*
X126924340Y-86061875D01*
X126929455Y-86056449D01*
X128532499Y-84453405D01*
X128594811Y-84419379D01*
X128621594Y-84416500D01*
X142377562Y-84416500D01*
X142445683Y-84436502D01*
X142492176Y-84490158D01*
X142502280Y-84560432D01*
X142486681Y-84605500D01*
X142421473Y-84718444D01*
X142362458Y-84900072D01*
X142342496Y-85090000D01*
X142343186Y-85096565D01*
X142357824Y-85235834D01*
X142362458Y-85279928D01*
X142421473Y-85461556D01*
X142516960Y-85626944D01*
X142644747Y-85768866D01*
X142799248Y-85881118D01*
X142805276Y-85883802D01*
X142805278Y-85883803D01*
X142892497Y-85922635D01*
X142973712Y-85958794D01*
X143067112Y-85978647D01*
X143154056Y-85997128D01*
X143154061Y-85997128D01*
X143160513Y-85998500D01*
X143351487Y-85998500D01*
X143369465Y-85994679D01*
X143460990Y-85975225D01*
X143531780Y-85980627D01*
X143588413Y-86023444D01*
X143612906Y-86090082D01*
X143613186Y-86098472D01*
X143613186Y-86099435D01*
X143612496Y-86106000D01*
X143613186Y-86112565D01*
X143630601Y-86278255D01*
X143632458Y-86295928D01*
X143691473Y-86477556D01*
X143694776Y-86483278D01*
X143694777Y-86483279D01*
X143701312Y-86494598D01*
X143786960Y-86642944D01*
X143791378Y-86647851D01*
X143791379Y-86647852D01*
X143868381Y-86733371D01*
X143914747Y-86784866D01*
X144069248Y-86897118D01*
X144075276Y-86899802D01*
X144075278Y-86899803D01*
X144203027Y-86956680D01*
X144243712Y-86974794D01*
X144337112Y-86994647D01*
X144424056Y-87013128D01*
X144424061Y-87013128D01*
X144430513Y-87014500D01*
X144621487Y-87014500D01*
X144627939Y-87013128D01*
X144627944Y-87013128D01*
X144714888Y-86994647D01*
X144808288Y-86974794D01*
X144848973Y-86956680D01*
X144976722Y-86899803D01*
X144976724Y-86899802D01*
X144982752Y-86897118D01*
X145137253Y-86784866D01*
X145183619Y-86733371D01*
X145260621Y-86647852D01*
X145260622Y-86647851D01*
X145265040Y-86642944D01*
X145350688Y-86494598D01*
X145357223Y-86483279D01*
X145357224Y-86483278D01*
X145360527Y-86477556D01*
X145419542Y-86295928D01*
X145421400Y-86278255D01*
X145438814Y-86112565D01*
X145439504Y-86106000D01*
X145430827Y-86023444D01*
X145420232Y-85922635D01*
X145420232Y-85922633D01*
X145419542Y-85916072D01*
X145360527Y-85734444D01*
X145265040Y-85569056D01*
X145137253Y-85427134D01*
X144982752Y-85314882D01*
X144976724Y-85312198D01*
X144976722Y-85312197D01*
X144814319Y-85239891D01*
X144814318Y-85239891D01*
X144808288Y-85237206D01*
X144714888Y-85217353D01*
X144627944Y-85198872D01*
X144627939Y-85198872D01*
X144621487Y-85197500D01*
X144430513Y-85197500D01*
X144424053Y-85198873D01*
X144424054Y-85198873D01*
X144321010Y-85220775D01*
X144250220Y-85215373D01*
X144193587Y-85172556D01*
X144169094Y-85105918D01*
X144168814Y-85097528D01*
X144168814Y-85096565D01*
X144169504Y-85090000D01*
X144149542Y-84900072D01*
X144090527Y-84718444D01*
X144025319Y-84605500D01*
X144024116Y-84603416D01*
X144007378Y-84534420D01*
X144030599Y-84467329D01*
X144086406Y-84423442D01*
X144129276Y-84414478D01*
X144144443Y-84414001D01*
X144146970Y-84413922D01*
X144154889Y-84413673D01*
X144174343Y-84408021D01*
X144193700Y-84404013D01*
X144205930Y-84402468D01*
X144205931Y-84402468D01*
X144213797Y-84401474D01*
X144221168Y-84398555D01*
X144221170Y-84398555D01*
X144254912Y-84385196D01*
X144266142Y-84381351D01*
X144300983Y-84371229D01*
X144300984Y-84371229D01*
X144308593Y-84369018D01*
X144315412Y-84364985D01*
X144315417Y-84364983D01*
X144326028Y-84358707D01*
X144343776Y-84350012D01*
X144362617Y-84342552D01*
X144398387Y-84316564D01*
X144408307Y-84310048D01*
X144439535Y-84291580D01*
X144439538Y-84291578D01*
X144446362Y-84287542D01*
X144460683Y-84273221D01*
X144475717Y-84260380D01*
X144485694Y-84253131D01*
X144492107Y-84248472D01*
X144520298Y-84214395D01*
X144528288Y-84205616D01*
X149993904Y-78740000D01*
X159360496Y-78740000D01*
X159361186Y-78746565D01*
X159378484Y-78911142D01*
X159380458Y-78929928D01*
X159439473Y-79111556D01*
X159442776Y-79117278D01*
X159442777Y-79117279D01*
X159463069Y-79152425D01*
X159534960Y-79276944D01*
X159539378Y-79281851D01*
X159539379Y-79281852D01*
X159622709Y-79374399D01*
X159662747Y-79418866D01*
X159761843Y-79490864D01*
X159786207Y-79508565D01*
X159817248Y-79531118D01*
X159823276Y-79533802D01*
X159823278Y-79533803D01*
X159985681Y-79606109D01*
X159991712Y-79608794D01*
X160078009Y-79627137D01*
X160172056Y-79647128D01*
X160172061Y-79647128D01*
X160178513Y-79648500D01*
X160369487Y-79648500D01*
X160375939Y-79647128D01*
X160375944Y-79647128D01*
X160469991Y-79627137D01*
X160556288Y-79608794D01*
X160562319Y-79606109D01*
X160724722Y-79533803D01*
X160724724Y-79533802D01*
X160730752Y-79531118D01*
X160761794Y-79508565D01*
X160786157Y-79490864D01*
X160885253Y-79418866D01*
X160925291Y-79374399D01*
X161008621Y-79281852D01*
X161008622Y-79281851D01*
X161013040Y-79276944D01*
X161084931Y-79152425D01*
X161105223Y-79117279D01*
X161105224Y-79117278D01*
X161108527Y-79111556D01*
X161167542Y-78929928D01*
X161169517Y-78911142D01*
X161186814Y-78746565D01*
X161187504Y-78740000D01*
X161176280Y-78633206D01*
X161168232Y-78556635D01*
X161168232Y-78556633D01*
X161167542Y-78550072D01*
X161108527Y-78368444D01*
X161104739Y-78361882D01*
X161048578Y-78264610D01*
X161013040Y-78203056D01*
X160981458Y-78167980D01*
X160889675Y-78066045D01*
X160889674Y-78066044D01*
X160885253Y-78061134D01*
X160756943Y-77967911D01*
X160736094Y-77952763D01*
X160736093Y-77952762D01*
X160730752Y-77948882D01*
X160724724Y-77946198D01*
X160724722Y-77946197D01*
X160562319Y-77873891D01*
X160562318Y-77873891D01*
X160556288Y-77871206D01*
X160441237Y-77846751D01*
X160375944Y-77832872D01*
X160375939Y-77832872D01*
X160369487Y-77831500D01*
X160178513Y-77831500D01*
X160172061Y-77832872D01*
X160172056Y-77832872D01*
X160106763Y-77846751D01*
X159991712Y-77871206D01*
X159985682Y-77873891D01*
X159985681Y-77873891D01*
X159823278Y-77946197D01*
X159823276Y-77946198D01*
X159817248Y-77948882D01*
X159811907Y-77952762D01*
X159811906Y-77952763D01*
X159791057Y-77967911D01*
X159662747Y-78061134D01*
X159658326Y-78066044D01*
X159658325Y-78066045D01*
X159566543Y-78167980D01*
X159534960Y-78203056D01*
X159499422Y-78264610D01*
X159443262Y-78361882D01*
X159439473Y-78368444D01*
X159380458Y-78550072D01*
X159379768Y-78556633D01*
X159379768Y-78556635D01*
X159371720Y-78633206D01*
X159360496Y-78740000D01*
X149993904Y-78740000D01*
X155906499Y-72827405D01*
X155968811Y-72793379D01*
X155995594Y-72790500D01*
X156051487Y-72790500D01*
X156057939Y-72789128D01*
X156057944Y-72789128D01*
X156144887Y-72770647D01*
X156238288Y-72750794D01*
X156264118Y-72739294D01*
X156406722Y-72675803D01*
X156406724Y-72675802D01*
X156412752Y-72673118D01*
X156567253Y-72560866D01*
X156574871Y-72552405D01*
X156690621Y-72423852D01*
X156690622Y-72423851D01*
X156695040Y-72418944D01*
X156790527Y-72253556D01*
X156849542Y-72071928D01*
X156869504Y-71882000D01*
X156849542Y-71692072D01*
X156790527Y-71510444D01*
X156695040Y-71345056D01*
X156678882Y-71327110D01*
X156571675Y-71208045D01*
X156571674Y-71208044D01*
X156567253Y-71203134D01*
X156453092Y-71120191D01*
X156418094Y-71094763D01*
X156418093Y-71094762D01*
X156412752Y-71090882D01*
X156406724Y-71088198D01*
X156406722Y-71088197D01*
X156244319Y-71015891D01*
X156244318Y-71015891D01*
X156238288Y-71013206D01*
X156144888Y-70993353D01*
X156057944Y-70974872D01*
X156057939Y-70974872D01*
X156051487Y-70973500D01*
X155860513Y-70973500D01*
X155854061Y-70974872D01*
X155854056Y-70974872D01*
X155767112Y-70993353D01*
X155673712Y-71013206D01*
X155667682Y-71015891D01*
X155667681Y-71015891D01*
X155505278Y-71088197D01*
X155505276Y-71088198D01*
X155499248Y-71090882D01*
X155493907Y-71094762D01*
X155493906Y-71094763D01*
X155458908Y-71120191D01*
X155344747Y-71203134D01*
X155340326Y-71208044D01*
X155340325Y-71208045D01*
X155233119Y-71327110D01*
X155216960Y-71345056D01*
X155121473Y-71510444D01*
X155062458Y-71692072D01*
X155061768Y-71698633D01*
X155061768Y-71698635D01*
X155045093Y-71857293D01*
X155018080Y-71922950D01*
X155008878Y-71933218D01*
X143829500Y-83112595D01*
X143767188Y-83146621D01*
X143740405Y-83149500D01*
X132608572Y-83149500D01*
X132540451Y-83129498D01*
X132493958Y-83075842D01*
X132483262Y-83036670D01*
X132466232Y-82874635D01*
X132466232Y-82874633D01*
X132465542Y-82868072D01*
X132406527Y-82686444D01*
X132311040Y-82521056D01*
X132281204Y-82487919D01*
X132187675Y-82384045D01*
X132187674Y-82384044D01*
X132183253Y-82379134D01*
X132052503Y-82284138D01*
X132034094Y-82270763D01*
X132034093Y-82270762D01*
X132028752Y-82266882D01*
X132022726Y-82264199D01*
X132022719Y-82264195D01*
X131912598Y-82215167D01*
X131858502Y-82169187D01*
X131837852Y-82101260D01*
X131857204Y-82032952D01*
X131861523Y-82026535D01*
X131890446Y-81986283D01*
X131890448Y-81986280D01*
X131893468Y-81982077D01*
X131927303Y-81913618D01*
X131990151Y-81786453D01*
X131990152Y-81786451D01*
X131992445Y-81781811D01*
X132042371Y-81617486D01*
X132055880Y-81573023D01*
X132055880Y-81573021D01*
X132057385Y-81568069D01*
X132086544Y-81346590D01*
X132086626Y-81343240D01*
X132088089Y-81283365D01*
X132088089Y-81283361D01*
X132088171Y-81280000D01*
X132069867Y-81057361D01*
X132015446Y-80840702D01*
X131926369Y-80635840D01*
X131826909Y-80482098D01*
X131807837Y-80452617D01*
X131807835Y-80452614D01*
X131805029Y-80448277D01*
X131654685Y-80283051D01*
X131650634Y-80279852D01*
X131650630Y-80279848D01*
X131483429Y-80147800D01*
X131483425Y-80147798D01*
X131479374Y-80144598D01*
X131438068Y-80121796D01*
X131388099Y-80071364D01*
X131373327Y-80001921D01*
X131398443Y-79935516D01*
X131425795Y-79908909D01*
X131495194Y-79859407D01*
X131604875Y-79781173D01*
X131609587Y-79776478D01*
X131759450Y-79627137D01*
X131763111Y-79623489D01*
X131772685Y-79610166D01*
X131890450Y-79446277D01*
X131893468Y-79442077D01*
X131896182Y-79436587D01*
X131990151Y-79246453D01*
X131990152Y-79246451D01*
X131992445Y-79241811D01*
X132052165Y-79045249D01*
X132055880Y-79033023D01*
X132055880Y-79033021D01*
X132057385Y-79028069D01*
X132086544Y-78806590D01*
X132088171Y-78740000D01*
X132069867Y-78517361D01*
X132015446Y-78300702D01*
X131926369Y-78095840D01*
X131868972Y-78007118D01*
X131807837Y-77912617D01*
X131807835Y-77912614D01*
X131805029Y-77908277D01*
X131797088Y-77899550D01*
X131657813Y-77746488D01*
X131626761Y-77682642D01*
X131635156Y-77612143D01*
X131680332Y-77557375D01*
X131706776Y-77543706D01*
X131813312Y-77503767D01*
X131821720Y-77500615D01*
X131938276Y-77413261D01*
X132025630Y-77296705D01*
X132076760Y-77160316D01*
X132083515Y-77098134D01*
X132083515Y-75301866D01*
X132076760Y-75239684D01*
X132025630Y-75103295D01*
X131938276Y-74986739D01*
X131821720Y-74899385D01*
X131685331Y-74848255D01*
X131623149Y-74841500D01*
X129826881Y-74841500D01*
X129764699Y-74848255D01*
X129628310Y-74899385D01*
X129511754Y-74986739D01*
X129424400Y-75103295D01*
X129373270Y-75239684D01*
X129366515Y-75301866D01*
X129366515Y-77098134D01*
X129373270Y-77160316D01*
X129424400Y-77296705D01*
X129511754Y-77413261D01*
X129628310Y-77500615D01*
X129636719Y-77503767D01*
X129636720Y-77503768D01*
X129745466Y-77544535D01*
X129802231Y-77587176D01*
X129826931Y-77653738D01*
X129811724Y-77723087D01*
X129792331Y-77749568D01*
X129665644Y-77882138D01*
X129662730Y-77886410D01*
X129662729Y-77886411D01*
X129654313Y-77898749D01*
X129539758Y-78066680D01*
X129524018Y-78100590D01*
X129480079Y-78195249D01*
X129445703Y-78269305D01*
X129386004Y-78484570D01*
X129362266Y-78706695D01*
X129362563Y-78711848D01*
X129362563Y-78711851D01*
X129372118Y-78877565D01*
X129375125Y-78929715D01*
X129376262Y-78934761D01*
X129376263Y-78934767D01*
X129384378Y-78970774D01*
X129424237Y-79147639D01*
X129508281Y-79354616D01*
X129510980Y-79359020D01*
X129618087Y-79533803D01*
X129625002Y-79545088D01*
X129771265Y-79713938D01*
X129943141Y-79856632D01*
X129961348Y-79867271D01*
X130016460Y-79899476D01*
X130065184Y-79951114D01*
X130078255Y-80020897D01*
X130051524Y-80086669D01*
X130011070Y-80120027D01*
X129998622Y-80126507D01*
X129994489Y-80129610D01*
X129994486Y-80129612D01*
X129824115Y-80257530D01*
X129819980Y-80260635D01*
X129786373Y-80295803D01*
X129676766Y-80410500D01*
X129665644Y-80422138D01*
X129539758Y-80606680D01*
X129524018Y-80640590D01*
X129466067Y-80765435D01*
X129445703Y-80809305D01*
X129386004Y-81024570D01*
X129362266Y-81246695D01*
X129362563Y-81251848D01*
X129362563Y-81251851D01*
X129372993Y-81432739D01*
X129375125Y-81469715D01*
X129376262Y-81474761D01*
X129376263Y-81474767D01*
X129396780Y-81565803D01*
X129424237Y-81687639D01*
X129464901Y-81787782D01*
X129502554Y-81880511D01*
X129508281Y-81894616D01*
X129522933Y-81918526D01*
X129614738Y-82068338D01*
X129625002Y-82085088D01*
X129771265Y-82253938D01*
X129943141Y-82396632D01*
X130136015Y-82509338D01*
X130140840Y-82511180D01*
X130140841Y-82511181D01*
X130158101Y-82517772D01*
X130344707Y-82589030D01*
X130349775Y-82590061D01*
X130349778Y-82590062D01*
X130436934Y-82607794D01*
X130563612Y-82633567D01*
X130568787Y-82633757D01*
X130568789Y-82633757D01*
X130585614Y-82634374D01*
X130652956Y-82656859D01*
X130697450Y-82712183D01*
X130704971Y-82782780D01*
X130700829Y-82799221D01*
X130678458Y-82868072D01*
X130677768Y-82874633D01*
X130677768Y-82874635D01*
X130660738Y-83036670D01*
X130633725Y-83102327D01*
X130575503Y-83142957D01*
X130535428Y-83149500D01*
X128385768Y-83149500D01*
X128374585Y-83148973D01*
X128367092Y-83147298D01*
X128359166Y-83147547D01*
X128359165Y-83147547D01*
X128299002Y-83149438D01*
X128295044Y-83149500D01*
X128267144Y-83149500D01*
X128263154Y-83150004D01*
X128251320Y-83150936D01*
X128207111Y-83152326D01*
X128199495Y-83154539D01*
X128199493Y-83154539D01*
X128187652Y-83157979D01*
X128168293Y-83161988D01*
X128166983Y-83162154D01*
X128148203Y-83164526D01*
X128140837Y-83167442D01*
X128140831Y-83167444D01*
X128107098Y-83180800D01*
X128095868Y-83184645D01*
X128061017Y-83194770D01*
X128053407Y-83196981D01*
X128046584Y-83201016D01*
X128035966Y-83207295D01*
X128018213Y-83215992D01*
X128010568Y-83219019D01*
X127999383Y-83223448D01*
X127992968Y-83228109D01*
X127963612Y-83249437D01*
X127953695Y-83255951D01*
X127915638Y-83278458D01*
X127901317Y-83292779D01*
X127886284Y-83305619D01*
X127869893Y-83317528D01*
X127864842Y-83323634D01*
X127841702Y-83351605D01*
X127833712Y-83360384D01*
X124917345Y-86276750D01*
X124855033Y-86310776D01*
X124806154Y-86311702D01*
X124593373Y-86273800D01*
X124593367Y-86273799D01*
X124588284Y-86272894D01*
X124514452Y-86271992D01*
X124370081Y-86270228D01*
X124370079Y-86270228D01*
X124364911Y-86270165D01*
X124144091Y-86303955D01*
X123931756Y-86373357D01*
X123733607Y-86476507D01*
X123729474Y-86479610D01*
X123729471Y-86479612D01*
X123559100Y-86607530D01*
X123554965Y-86610635D01*
X123529554Y-86637226D01*
X123461280Y-86708671D01*
X123400629Y-86772138D01*
X123293201Y-86929621D01*
X123238293Y-86974621D01*
X123167768Y-86982792D01*
X123104021Y-86951538D01*
X123083324Y-86927054D01*
X123002822Y-86802617D01*
X123002820Y-86802614D01*
X123000014Y-86798277D01*
X122849670Y-86633051D01*
X122845619Y-86629852D01*
X122845615Y-86629848D01*
X122678414Y-86497800D01*
X122678410Y-86497798D01*
X122674359Y-86494598D01*
X122478789Y-86386638D01*
X122473920Y-86384914D01*
X122473916Y-86384912D01*
X122273087Y-86313795D01*
X122273083Y-86313794D01*
X122268212Y-86312069D01*
X122263119Y-86311162D01*
X122263116Y-86311161D01*
X122053373Y-86273800D01*
X122053367Y-86273799D01*
X122048284Y-86272894D01*
X121974452Y-86271992D01*
X121830081Y-86270228D01*
X121830079Y-86270228D01*
X121824911Y-86270165D01*
X121604091Y-86303955D01*
X121391756Y-86373357D01*
X121193607Y-86476507D01*
X121189474Y-86479610D01*
X121189471Y-86479612D01*
X121019100Y-86607530D01*
X121014965Y-86610635D01*
X120989554Y-86637226D01*
X120921280Y-86708671D01*
X120860629Y-86772138D01*
X120753201Y-86929621D01*
X120698293Y-86974621D01*
X120627768Y-86982792D01*
X120564021Y-86951538D01*
X120543324Y-86927054D01*
X120462822Y-86802617D01*
X120462820Y-86802614D01*
X120460014Y-86798277D01*
X120309670Y-86633051D01*
X120305619Y-86629852D01*
X120305615Y-86629848D01*
X120138414Y-86497800D01*
X120138410Y-86497798D01*
X120134359Y-86494598D01*
X119938789Y-86386638D01*
X119933920Y-86384914D01*
X119933916Y-86384912D01*
X119733087Y-86313795D01*
X119733083Y-86313794D01*
X119728212Y-86312069D01*
X119723119Y-86311162D01*
X119723116Y-86311161D01*
X119513373Y-86273800D01*
X119513367Y-86273799D01*
X119508284Y-86272894D01*
X119434452Y-86271992D01*
X119290081Y-86270228D01*
X119290079Y-86270228D01*
X119284911Y-86270165D01*
X119064091Y-86303955D01*
X118851756Y-86373357D01*
X118653607Y-86476507D01*
X118649474Y-86479610D01*
X118649471Y-86479612D01*
X118479100Y-86607530D01*
X118474965Y-86610635D01*
X118449554Y-86637226D01*
X118381280Y-86708671D01*
X118320629Y-86772138D01*
X118213201Y-86929621D01*
X118158293Y-86974621D01*
X118087768Y-86982792D01*
X118024021Y-86951538D01*
X118003324Y-86927054D01*
X117922822Y-86802617D01*
X117922820Y-86802614D01*
X117920014Y-86798277D01*
X117769670Y-86633051D01*
X117765619Y-86629852D01*
X117765615Y-86629848D01*
X117598414Y-86497800D01*
X117598410Y-86497798D01*
X117594359Y-86494598D01*
X117398789Y-86386638D01*
X117393920Y-86384914D01*
X117393916Y-86384912D01*
X117193087Y-86313795D01*
X117193083Y-86313794D01*
X117188212Y-86312069D01*
X117183119Y-86311162D01*
X117183116Y-86311161D01*
X116973373Y-86273800D01*
X116973367Y-86273799D01*
X116968284Y-86272894D01*
X116894452Y-86271992D01*
X116750081Y-86270228D01*
X116750079Y-86270228D01*
X116744911Y-86270165D01*
X116524091Y-86303955D01*
X116311756Y-86373357D01*
X116113607Y-86476507D01*
X116109474Y-86479610D01*
X116109471Y-86479612D01*
X115939100Y-86607530D01*
X115934965Y-86610635D01*
X115909554Y-86637226D01*
X115841280Y-86708671D01*
X115780629Y-86772138D01*
X115673201Y-86929621D01*
X115618293Y-86974621D01*
X115547768Y-86982792D01*
X115484021Y-86951538D01*
X115463324Y-86927054D01*
X115382822Y-86802617D01*
X115382820Y-86802614D01*
X115380014Y-86798277D01*
X115229670Y-86633051D01*
X115225619Y-86629852D01*
X115225615Y-86629848D01*
X115058414Y-86497800D01*
X115058410Y-86497798D01*
X115054359Y-86494598D01*
X114858789Y-86386638D01*
X114853920Y-86384914D01*
X114853916Y-86384912D01*
X114653087Y-86313795D01*
X114653083Y-86313794D01*
X114648212Y-86312069D01*
X114643119Y-86311162D01*
X114643116Y-86311161D01*
X114433373Y-86273800D01*
X114433367Y-86273799D01*
X114428284Y-86272894D01*
X114354452Y-86271992D01*
X114210081Y-86270228D01*
X114210079Y-86270228D01*
X114204911Y-86270165D01*
X113984091Y-86303955D01*
X113771756Y-86373357D01*
X113573607Y-86476507D01*
X113569474Y-86479610D01*
X113569471Y-86479612D01*
X113399100Y-86607530D01*
X113394965Y-86610635D01*
X113369554Y-86637226D01*
X113301280Y-86708671D01*
X113240629Y-86772138D01*
X113133201Y-86929621D01*
X113078293Y-86974621D01*
X113007768Y-86982792D01*
X112944021Y-86951538D01*
X112923324Y-86927054D01*
X112842822Y-86802617D01*
X112842820Y-86802614D01*
X112840014Y-86798277D01*
X112689670Y-86633051D01*
X112685619Y-86629852D01*
X112685615Y-86629848D01*
X112518414Y-86497800D01*
X112518410Y-86497798D01*
X112514359Y-86494598D01*
X112318789Y-86386638D01*
X112313920Y-86384914D01*
X112313916Y-86384912D01*
X112113087Y-86313795D01*
X112113083Y-86313794D01*
X112108212Y-86312069D01*
X112103119Y-86311162D01*
X112103116Y-86311161D01*
X111893373Y-86273800D01*
X111893367Y-86273799D01*
X111888284Y-86272894D01*
X111814452Y-86271992D01*
X111670081Y-86270228D01*
X111670079Y-86270228D01*
X111664911Y-86270165D01*
X111444091Y-86303955D01*
X111231756Y-86373357D01*
X111033607Y-86476507D01*
X111029474Y-86479610D01*
X111029471Y-86479612D01*
X110859100Y-86607530D01*
X110854965Y-86610635D01*
X110829554Y-86637226D01*
X110761280Y-86708671D01*
X110700629Y-86772138D01*
X110593201Y-86929621D01*
X110538293Y-86974621D01*
X110467768Y-86982792D01*
X110404021Y-86951538D01*
X110383324Y-86927054D01*
X110302822Y-86802617D01*
X110302820Y-86802614D01*
X110300014Y-86798277D01*
X110149670Y-86633051D01*
X110145619Y-86629852D01*
X110145615Y-86629848D01*
X109978414Y-86497800D01*
X109978410Y-86497798D01*
X109974359Y-86494598D01*
X109778789Y-86386638D01*
X109773920Y-86384914D01*
X109773916Y-86384912D01*
X109573087Y-86313795D01*
X109573083Y-86313794D01*
X109568212Y-86312069D01*
X109563119Y-86311162D01*
X109563116Y-86311161D01*
X109353373Y-86273800D01*
X109353367Y-86273799D01*
X109348284Y-86272894D01*
X109274452Y-86271992D01*
X109130081Y-86270228D01*
X109130079Y-86270228D01*
X109124911Y-86270165D01*
X108904091Y-86303955D01*
X108691756Y-86373357D01*
X108493607Y-86476507D01*
X108489474Y-86479610D01*
X108489471Y-86479612D01*
X108319100Y-86607530D01*
X108314965Y-86610635D01*
X108289554Y-86637226D01*
X108221280Y-86708671D01*
X108160629Y-86772138D01*
X108053201Y-86929621D01*
X107998293Y-86974621D01*
X107927768Y-86982792D01*
X107864021Y-86951538D01*
X107843324Y-86927054D01*
X107762822Y-86802617D01*
X107762820Y-86802614D01*
X107760014Y-86798277D01*
X107609670Y-86633051D01*
X107605619Y-86629852D01*
X107605615Y-86629848D01*
X107438414Y-86497800D01*
X107438410Y-86497798D01*
X107434359Y-86494598D01*
X107238789Y-86386638D01*
X107233920Y-86384914D01*
X107233916Y-86384912D01*
X107033087Y-86313795D01*
X107033083Y-86313794D01*
X107028212Y-86312069D01*
X107023119Y-86311162D01*
X107023116Y-86311161D01*
X106813373Y-86273800D01*
X106813367Y-86273799D01*
X106808284Y-86272894D01*
X106734452Y-86271992D01*
X106590081Y-86270228D01*
X106590079Y-86270228D01*
X106584911Y-86270165D01*
X106364091Y-86303955D01*
X106151756Y-86373357D01*
X105953607Y-86476507D01*
X105949474Y-86479610D01*
X105949471Y-86479612D01*
X105779100Y-86607530D01*
X105774965Y-86610635D01*
X105749554Y-86637226D01*
X105681280Y-86708671D01*
X105620629Y-86772138D01*
X105513201Y-86929621D01*
X105458293Y-86974621D01*
X105387768Y-86982792D01*
X105324021Y-86951538D01*
X105303324Y-86927054D01*
X105222822Y-86802617D01*
X105222820Y-86802614D01*
X105220014Y-86798277D01*
X105069670Y-86633051D01*
X105065619Y-86629852D01*
X105065615Y-86629848D01*
X104898414Y-86497800D01*
X104898410Y-86497798D01*
X104894359Y-86494598D01*
X104698789Y-86386638D01*
X104693920Y-86384914D01*
X104693916Y-86384912D01*
X104493087Y-86313795D01*
X104493083Y-86313794D01*
X104488212Y-86312069D01*
X104483119Y-86311162D01*
X104483116Y-86311161D01*
X104273373Y-86273800D01*
X104273367Y-86273799D01*
X104268284Y-86272894D01*
X104194452Y-86271992D01*
X104050081Y-86270228D01*
X104050079Y-86270228D01*
X104044911Y-86270165D01*
X103824091Y-86303955D01*
X103611756Y-86373357D01*
X103413607Y-86476507D01*
X103409474Y-86479610D01*
X103409471Y-86479612D01*
X103239100Y-86607530D01*
X103234965Y-86610635D01*
X103209554Y-86637226D01*
X103141280Y-86708671D01*
X103080629Y-86772138D01*
X102973201Y-86929621D01*
X102918293Y-86974621D01*
X102847768Y-86982792D01*
X102784021Y-86951538D01*
X102763324Y-86927054D01*
X102682822Y-86802617D01*
X102682820Y-86802614D01*
X102680014Y-86798277D01*
X102529670Y-86633051D01*
X102525619Y-86629852D01*
X102525615Y-86629848D01*
X102358414Y-86497800D01*
X102358410Y-86497798D01*
X102354359Y-86494598D01*
X102158789Y-86386638D01*
X102153920Y-86384914D01*
X102153916Y-86384912D01*
X101953087Y-86313795D01*
X101953083Y-86313794D01*
X101948212Y-86312069D01*
X101943119Y-86311162D01*
X101943116Y-86311161D01*
X101733373Y-86273800D01*
X101733367Y-86273799D01*
X101728284Y-86272894D01*
X101654452Y-86271992D01*
X101510081Y-86270228D01*
X101510079Y-86270228D01*
X101504911Y-86270165D01*
X101284091Y-86303955D01*
X101071756Y-86373357D01*
X100873607Y-86476507D01*
X100869474Y-86479610D01*
X100869471Y-86479612D01*
X100699100Y-86607530D01*
X100694965Y-86610635D01*
X100669554Y-86637226D01*
X100601280Y-86708671D01*
X100540629Y-86772138D01*
X100433201Y-86929621D01*
X100378293Y-86974621D01*
X100307768Y-86982792D01*
X100244021Y-86951538D01*
X100223324Y-86927054D01*
X100142822Y-86802617D01*
X100142820Y-86802614D01*
X100140014Y-86798277D01*
X99989670Y-86633051D01*
X99985619Y-86629852D01*
X99985615Y-86629848D01*
X99818414Y-86497800D01*
X99818410Y-86497798D01*
X99814359Y-86494598D01*
X99618789Y-86386638D01*
X99613920Y-86384914D01*
X99613916Y-86384912D01*
X99413087Y-86313795D01*
X99413083Y-86313794D01*
X99408212Y-86312069D01*
X99403119Y-86311162D01*
X99403116Y-86311161D01*
X99193373Y-86273800D01*
X99193367Y-86273799D01*
X99188284Y-86272894D01*
X99114452Y-86271992D01*
X98970081Y-86270228D01*
X98970079Y-86270228D01*
X98964911Y-86270165D01*
X98744091Y-86303955D01*
X98531756Y-86373357D01*
X98333607Y-86476507D01*
X98329474Y-86479610D01*
X98329471Y-86479612D01*
X98159100Y-86607530D01*
X98154965Y-86610635D01*
X98129554Y-86637226D01*
X98061280Y-86708671D01*
X98000629Y-86772138D01*
X97893201Y-86929621D01*
X97838293Y-86974621D01*
X97767768Y-86982792D01*
X97704021Y-86951538D01*
X97683324Y-86927054D01*
X97602822Y-86802617D01*
X97602820Y-86802614D01*
X97600014Y-86798277D01*
X97449670Y-86633051D01*
X97445619Y-86629852D01*
X97445615Y-86629848D01*
X97278414Y-86497800D01*
X97278410Y-86497798D01*
X97274359Y-86494598D01*
X97078789Y-86386638D01*
X97073920Y-86384914D01*
X97073916Y-86384912D01*
X96873087Y-86313795D01*
X96873083Y-86313794D01*
X96868212Y-86312069D01*
X96863119Y-86311162D01*
X96863116Y-86311161D01*
X96653373Y-86273800D01*
X96653367Y-86273799D01*
X96648284Y-86272894D01*
X96574452Y-86271992D01*
X96430081Y-86270228D01*
X96430079Y-86270228D01*
X96424911Y-86270165D01*
X96204091Y-86303955D01*
X95991756Y-86373357D01*
X95793607Y-86476507D01*
X95789474Y-86479610D01*
X95789471Y-86479612D01*
X95619100Y-86607530D01*
X95614965Y-86610635D01*
X95589554Y-86637226D01*
X95521280Y-86708671D01*
X95460629Y-86772138D01*
X95457720Y-86776403D01*
X95457714Y-86776411D01*
X95449298Y-86788749D01*
X95334743Y-86956680D01*
X95240688Y-87159305D01*
X95180989Y-87374570D01*
X95157251Y-87596695D01*
X95170110Y-87819715D01*
X95171247Y-87824761D01*
X95171248Y-87824767D01*
X95195304Y-87931508D01*
X95219222Y-88037639D01*
X95251723Y-88117680D01*
X95299670Y-88235759D01*
X95303266Y-88244616D01*
X95340685Y-88305678D01*
X95417291Y-88430688D01*
X95419987Y-88435088D01*
X95502904Y-88530809D01*
X95503082Y-88531015D01*
X95532565Y-88595601D01*
X95522450Y-88665873D01*
X95475949Y-88719522D01*
X95407849Y-88739513D01*
X84604447Y-88739806D01*
X84585062Y-88738305D01*
X84561371Y-88734616D01*
X84552468Y-88735780D01*
X84552465Y-88735780D01*
X84552351Y-88735795D01*
X84521902Y-88736066D01*
X84459830Y-88729071D01*
X84432325Y-88722793D01*
X84355241Y-88695820D01*
X84329820Y-88683578D01*
X84311587Y-88672121D01*
X84260670Y-88640128D01*
X84238611Y-88622537D01*
X84180861Y-88564786D01*
X84163270Y-88542727D01*
X84119821Y-88473578D01*
X84107579Y-88448157D01*
X84080607Y-88371075D01*
X84074329Y-88343571D01*
X84068073Y-88288060D01*
X84067289Y-88272407D01*
X84067398Y-88263457D01*
X84068781Y-88254579D01*
X84065680Y-88230866D01*
X84064652Y-88223001D01*
X84063588Y-88206671D01*
X84063357Y-83818909D01*
X84063354Y-83771318D01*
X84083352Y-83703196D01*
X84137006Y-83656700D01*
X84207279Y-83646593D01*
X84250055Y-83660897D01*
X84416328Y-83752307D01*
X84614942Y-83815310D01*
X84621059Y-83815996D01*
X84621063Y-83815997D01*
X84694214Y-83824202D01*
X84777105Y-83833500D01*
X85997349Y-83833500D01*
X86152290Y-83818308D01*
X86351763Y-83758083D01*
X86535741Y-83660261D01*
X86697213Y-83528567D01*
X86830032Y-83368017D01*
X86929136Y-83184728D01*
X86960506Y-83083388D01*
X86999757Y-83024228D01*
X87064762Y-82995681D01*
X87134881Y-83006810D01*
X87187852Y-83054081D01*
X87201744Y-83085072D01*
X87227018Y-83170945D01*
X87229875Y-83176410D01*
X87315891Y-83340944D01*
X87323553Y-83355601D01*
X87454117Y-83517989D01*
X87613735Y-83651925D01*
X87619138Y-83654895D01*
X87619139Y-83654896D01*
X87628898Y-83660261D01*
X87796328Y-83752307D01*
X87994942Y-83815310D01*
X88001059Y-83815996D01*
X88001063Y-83815997D01*
X88074214Y-83824202D01*
X88157105Y-83833500D01*
X89377349Y-83833500D01*
X89532290Y-83818308D01*
X89731763Y-83758083D01*
X89915741Y-83660261D01*
X90077213Y-83528567D01*
X90210032Y-83368017D01*
X90309136Y-83184728D01*
X90370752Y-82985679D01*
X90372289Y-82971056D01*
X90385629Y-82844134D01*
X91193500Y-82844134D01*
X91200255Y-82906316D01*
X91251385Y-83042705D01*
X91338739Y-83159261D01*
X91455295Y-83246615D01*
X91591684Y-83297745D01*
X91653866Y-83304500D01*
X92750134Y-83304500D01*
X92812316Y-83297745D01*
X92948705Y-83246615D01*
X93065261Y-83159261D01*
X93152615Y-83042705D01*
X93203745Y-82906316D01*
X93210500Y-82844134D01*
X93210500Y-82804000D01*
X95606496Y-82804000D01*
X95607186Y-82810565D01*
X95623382Y-82964658D01*
X95626458Y-82993928D01*
X95685473Y-83175556D01*
X95688776Y-83181278D01*
X95688777Y-83181279D01*
X95715815Y-83228109D01*
X95780960Y-83340944D01*
X95785378Y-83345851D01*
X95785379Y-83345852D01*
X95809608Y-83372761D01*
X95908747Y-83482866D01*
X96063248Y-83595118D01*
X96069276Y-83597802D01*
X96069278Y-83597803D01*
X96216060Y-83663154D01*
X96237712Y-83672794D01*
X96308573Y-83687856D01*
X96418056Y-83711128D01*
X96418061Y-83711128D01*
X96424513Y-83712500D01*
X96615487Y-83712500D01*
X96621939Y-83711128D01*
X96621944Y-83711128D01*
X96731427Y-83687856D01*
X96802288Y-83672794D01*
X96823940Y-83663154D01*
X96970722Y-83597803D01*
X96970724Y-83597802D01*
X96976752Y-83595118D01*
X97131253Y-83482866D01*
X97230392Y-83372761D01*
X97254621Y-83345852D01*
X97254622Y-83345851D01*
X97259040Y-83340944D01*
X97324185Y-83228109D01*
X97351223Y-83181279D01*
X97351224Y-83181278D01*
X97354527Y-83175556D01*
X97413542Y-82993928D01*
X97416619Y-82964658D01*
X97417309Y-82958093D01*
X105920589Y-82958093D01*
X105921279Y-82964658D01*
X105938276Y-83126372D01*
X105940551Y-83148021D01*
X105999566Y-83329649D01*
X106095053Y-83495037D01*
X106099471Y-83499944D01*
X106099472Y-83499945D01*
X106128745Y-83532456D01*
X106222840Y-83636959D01*
X106377341Y-83749211D01*
X106383369Y-83751895D01*
X106383371Y-83751896D01*
X106532536Y-83818308D01*
X106551805Y-83826887D01*
X106645205Y-83846740D01*
X106732149Y-83865221D01*
X106732154Y-83865221D01*
X106738606Y-83866593D01*
X106929580Y-83866593D01*
X106936032Y-83865221D01*
X106936037Y-83865221D01*
X107022981Y-83846740D01*
X107116381Y-83826887D01*
X107135650Y-83818308D01*
X107284815Y-83751896D01*
X107284817Y-83751895D01*
X107290845Y-83749211D01*
X107445346Y-83636959D01*
X107539441Y-83532456D01*
X107568714Y-83499945D01*
X107568715Y-83499944D01*
X107573133Y-83495037D01*
X107668620Y-83329649D01*
X107672957Y-83316300D01*
X122018196Y-83316300D01*
X122018886Y-83322865D01*
X122035703Y-83482866D01*
X122038158Y-83506228D01*
X122097173Y-83687856D01*
X122100476Y-83693578D01*
X122100477Y-83693579D01*
X122110609Y-83711128D01*
X122192660Y-83853244D01*
X122320447Y-83995166D01*
X122474948Y-84107418D01*
X122480976Y-84110102D01*
X122480978Y-84110103D01*
X122643381Y-84182409D01*
X122649412Y-84185094D01*
X122742812Y-84204947D01*
X122829756Y-84223428D01*
X122829761Y-84223428D01*
X122836213Y-84224800D01*
X123027187Y-84224800D01*
X123033639Y-84223428D01*
X123033644Y-84223428D01*
X123120588Y-84204947D01*
X123213988Y-84185094D01*
X123220019Y-84182409D01*
X123382422Y-84110103D01*
X123382424Y-84110102D01*
X123388452Y-84107418D01*
X123542953Y-83995166D01*
X123670740Y-83853244D01*
X123752791Y-83711128D01*
X123762923Y-83693579D01*
X123762924Y-83693578D01*
X123766227Y-83687856D01*
X123825242Y-83506228D01*
X123827698Y-83482866D01*
X123844514Y-83322865D01*
X123845204Y-83316300D01*
X123841227Y-83278458D01*
X123825932Y-83132935D01*
X123825932Y-83132933D01*
X123825242Y-83126372D01*
X123766227Y-82944744D01*
X123670740Y-82779356D01*
X123664399Y-82772313D01*
X123547375Y-82642345D01*
X123547374Y-82642344D01*
X123542953Y-82637434D01*
X123431311Y-82556321D01*
X123393794Y-82529063D01*
X123393793Y-82529062D01*
X123388452Y-82525182D01*
X123382424Y-82522498D01*
X123382422Y-82522497D01*
X123220019Y-82450191D01*
X123220018Y-82450191D01*
X123213988Y-82447506D01*
X123116203Y-82426721D01*
X123033644Y-82409172D01*
X123033639Y-82409172D01*
X123027187Y-82407800D01*
X122836213Y-82407800D01*
X122829761Y-82409172D01*
X122829756Y-82409172D01*
X122747197Y-82426721D01*
X122649412Y-82447506D01*
X122643382Y-82450191D01*
X122643381Y-82450191D01*
X122480978Y-82522497D01*
X122480976Y-82522498D01*
X122474948Y-82525182D01*
X122469607Y-82529062D01*
X122469606Y-82529063D01*
X122432089Y-82556321D01*
X122320447Y-82637434D01*
X122316026Y-82642344D01*
X122316025Y-82642345D01*
X122199002Y-82772313D01*
X122192660Y-82779356D01*
X122097173Y-82944744D01*
X122038158Y-83126372D01*
X122037468Y-83132933D01*
X122037468Y-83132935D01*
X122022173Y-83278458D01*
X122018196Y-83316300D01*
X107672957Y-83316300D01*
X107727635Y-83148021D01*
X107729911Y-83126372D01*
X107746907Y-82964658D01*
X107747597Y-82958093D01*
X107735496Y-82842955D01*
X107728325Y-82774728D01*
X107728325Y-82774726D01*
X107727635Y-82768165D01*
X107668620Y-82586537D01*
X107659618Y-82570944D01*
X107611683Y-82487919D01*
X107573133Y-82421149D01*
X107539725Y-82384045D01*
X107449768Y-82284138D01*
X107449767Y-82284137D01*
X107445346Y-82279227D01*
X107310969Y-82181596D01*
X107296187Y-82170856D01*
X107296186Y-82170855D01*
X107290845Y-82166975D01*
X107284817Y-82164291D01*
X107284815Y-82164290D01*
X107122412Y-82091984D01*
X107122411Y-82091984D01*
X107116381Y-82089299D01*
X107017768Y-82068338D01*
X106936037Y-82050965D01*
X106936032Y-82050965D01*
X106929580Y-82049593D01*
X106738606Y-82049593D01*
X106732154Y-82050965D01*
X106732149Y-82050965D01*
X106650418Y-82068338D01*
X106551805Y-82089299D01*
X106545775Y-82091984D01*
X106545774Y-82091984D01*
X106383371Y-82164290D01*
X106383369Y-82164291D01*
X106377341Y-82166975D01*
X106372000Y-82170855D01*
X106371999Y-82170856D01*
X106357217Y-82181596D01*
X106222840Y-82279227D01*
X106218419Y-82284137D01*
X106218418Y-82284138D01*
X106128462Y-82384045D01*
X106095053Y-82421149D01*
X106056503Y-82487919D01*
X106008569Y-82570944D01*
X105999566Y-82586537D01*
X105940551Y-82768165D01*
X105939861Y-82774726D01*
X105939861Y-82774728D01*
X105932690Y-82842955D01*
X105920589Y-82958093D01*
X97417309Y-82958093D01*
X97432814Y-82810565D01*
X97433504Y-82804000D01*
X97422597Y-82700226D01*
X97414232Y-82620635D01*
X97414232Y-82620633D01*
X97413542Y-82614072D01*
X97354527Y-82432444D01*
X97259040Y-82267056D01*
X97191332Y-82191858D01*
X97135675Y-82130045D01*
X97135674Y-82130044D01*
X97131253Y-82125134D01*
X97024680Y-82047704D01*
X96982094Y-82016763D01*
X96982093Y-82016762D01*
X96976752Y-82012882D01*
X96970724Y-82010198D01*
X96970722Y-82010197D01*
X96808319Y-81937891D01*
X96808318Y-81937891D01*
X96802288Y-81935206D01*
X96700725Y-81913618D01*
X96621944Y-81896872D01*
X96621939Y-81896872D01*
X96615487Y-81895500D01*
X96424513Y-81895500D01*
X96418061Y-81896872D01*
X96418056Y-81896872D01*
X96339275Y-81913618D01*
X96237712Y-81935206D01*
X96231682Y-81937891D01*
X96231681Y-81937891D01*
X96069278Y-82010197D01*
X96069276Y-82010198D01*
X96063248Y-82012882D01*
X96057907Y-82016762D01*
X96057906Y-82016763D01*
X96015320Y-82047704D01*
X95908747Y-82125134D01*
X95904326Y-82130044D01*
X95904325Y-82130045D01*
X95848669Y-82191858D01*
X95780960Y-82267056D01*
X95685473Y-82432444D01*
X95626458Y-82614072D01*
X95625768Y-82620633D01*
X95625768Y-82620635D01*
X95617403Y-82700226D01*
X95606496Y-82804000D01*
X93210500Y-82804000D01*
X93210500Y-81747866D01*
X93203745Y-81685684D01*
X93152615Y-81549295D01*
X93065261Y-81432739D01*
X92948705Y-81345385D01*
X92812316Y-81294255D01*
X92750134Y-81287500D01*
X91653866Y-81287500D01*
X91591684Y-81294255D01*
X91455295Y-81345385D01*
X91338739Y-81432739D01*
X91251385Y-81549295D01*
X91200255Y-81685684D01*
X91193500Y-81747866D01*
X91193500Y-82844134D01*
X90385629Y-82844134D01*
X90391888Y-82784582D01*
X90391888Y-82784580D01*
X90392532Y-82778453D01*
X90379420Y-82634374D01*
X90374206Y-82577085D01*
X90374206Y-82577084D01*
X90373647Y-82570944D01*
X90366400Y-82546319D01*
X90316558Y-82376974D01*
X90314816Y-82371055D01*
X90240368Y-82228648D01*
X90226534Y-82159012D01*
X90252544Y-82092952D01*
X90277968Y-82068338D01*
X90306368Y-82047704D01*
X90306371Y-82047701D01*
X90311709Y-82043823D01*
X90317810Y-82037048D01*
X90424528Y-81918526D01*
X90424529Y-81918525D01*
X90428947Y-81913618D01*
X90432247Y-81907902D01*
X90432250Y-81907898D01*
X90513248Y-81767603D01*
X90516551Y-81761882D01*
X90570694Y-81595249D01*
X90572788Y-81575332D01*
X90588318Y-81427565D01*
X90589008Y-81421000D01*
X90581536Y-81349908D01*
X90571385Y-81253321D01*
X90571384Y-81253317D01*
X90570694Y-81246751D01*
X90525979Y-81109134D01*
X90518591Y-81086395D01*
X90518589Y-81086391D01*
X90516551Y-81080118D01*
X90513253Y-81074405D01*
X90513250Y-81074399D01*
X90504359Y-81059000D01*
X90487621Y-80990004D01*
X90504359Y-80933000D01*
X90513250Y-80917601D01*
X90513253Y-80917595D01*
X90516551Y-80911882D01*
X90526698Y-80880655D01*
X90548259Y-80814297D01*
X90562002Y-80772000D01*
X96622496Y-80772000D01*
X96623186Y-80778565D01*
X96639418Y-80933000D01*
X96642458Y-80961928D01*
X96701473Y-81143556D01*
X96796960Y-81308944D01*
X96801378Y-81313851D01*
X96801379Y-81313852D01*
X96899412Y-81422729D01*
X96924747Y-81450866D01*
X97079248Y-81563118D01*
X97085276Y-81565802D01*
X97085278Y-81565803D01*
X97201361Y-81617486D01*
X97253712Y-81640794D01*
X97347112Y-81660647D01*
X97434056Y-81679128D01*
X97434061Y-81679128D01*
X97440513Y-81680500D01*
X97631487Y-81680500D01*
X97637939Y-81679128D01*
X97637944Y-81679128D01*
X97724888Y-81660647D01*
X97818288Y-81640794D01*
X97870639Y-81617486D01*
X97986722Y-81565803D01*
X97986724Y-81565802D01*
X97992752Y-81563118D01*
X98147253Y-81450866D01*
X98172588Y-81422729D01*
X98270621Y-81313852D01*
X98270622Y-81313851D01*
X98275040Y-81308944D01*
X98370527Y-81143556D01*
X98429542Y-80961928D01*
X98432583Y-80933000D01*
X98448814Y-80778565D01*
X98449504Y-80772000D01*
X98439513Y-80676937D01*
X98430232Y-80588635D01*
X98430232Y-80588633D01*
X98429542Y-80582072D01*
X98370527Y-80400444D01*
X98364768Y-80390468D01*
X98288015Y-80257530D01*
X98275040Y-80235056D01*
X98265445Y-80224399D01*
X98151675Y-80098045D01*
X98151674Y-80098044D01*
X98147253Y-80093134D01*
X98035303Y-80011797D01*
X97998094Y-79984763D01*
X97998093Y-79984762D01*
X97992752Y-79980882D01*
X97986724Y-79978198D01*
X97986722Y-79978197D01*
X97824319Y-79905891D01*
X97824318Y-79905891D01*
X97818288Y-79903206D01*
X97705721Y-79879279D01*
X97637944Y-79864872D01*
X97637939Y-79864872D01*
X97631487Y-79863500D01*
X97440513Y-79863500D01*
X97434061Y-79864872D01*
X97434056Y-79864872D01*
X97366279Y-79879279D01*
X97253712Y-79903206D01*
X97247682Y-79905891D01*
X97247681Y-79905891D01*
X97085278Y-79978197D01*
X97085276Y-79978198D01*
X97079248Y-79980882D01*
X97073907Y-79984762D01*
X97073906Y-79984763D01*
X97036697Y-80011797D01*
X96924747Y-80093134D01*
X96920326Y-80098044D01*
X96920325Y-80098045D01*
X96806556Y-80224399D01*
X96796960Y-80235056D01*
X96783985Y-80257530D01*
X96707233Y-80390468D01*
X96701473Y-80400444D01*
X96642458Y-80582072D01*
X96641768Y-80588633D01*
X96641768Y-80588635D01*
X96632487Y-80676937D01*
X96622496Y-80772000D01*
X90562002Y-80772000D01*
X90570694Y-80745249D01*
X90573905Y-80714704D01*
X90588318Y-80577565D01*
X90589008Y-80571000D01*
X90588186Y-80563181D01*
X90571385Y-80403321D01*
X90571384Y-80403317D01*
X90570694Y-80396751D01*
X90533750Y-80283051D01*
X90518591Y-80236395D01*
X90518589Y-80236391D01*
X90516551Y-80230118D01*
X90513253Y-80224405D01*
X90513250Y-80224399D01*
X90504359Y-80209000D01*
X90487621Y-80140004D01*
X90504359Y-80083000D01*
X90513250Y-80067601D01*
X90513253Y-80067595D01*
X90516551Y-80061882D01*
X90522410Y-80043852D01*
X90552542Y-79951114D01*
X90570694Y-79895249D01*
X90572373Y-79879279D01*
X90579849Y-79808143D01*
X108186816Y-79808143D01*
X108187506Y-79814708D01*
X108202689Y-79959162D01*
X108206778Y-79998071D01*
X108265793Y-80179699D01*
X108269096Y-80185421D01*
X108269097Y-80185422D01*
X108301055Y-80240774D01*
X108361280Y-80345087D01*
X108365698Y-80349994D01*
X108365699Y-80349995D01*
X108457659Y-80452127D01*
X108489067Y-80487009D01*
X108588163Y-80559007D01*
X108628943Y-80588635D01*
X108643568Y-80599261D01*
X108649596Y-80601945D01*
X108649598Y-80601946D01*
X108812001Y-80674252D01*
X108818032Y-80676937D01*
X108903524Y-80695109D01*
X108998376Y-80715271D01*
X108998381Y-80715271D01*
X109004833Y-80716643D01*
X109195807Y-80716643D01*
X109202260Y-80715271D01*
X109202273Y-80715270D01*
X109297119Y-80695109D01*
X109367909Y-80700510D01*
X109424542Y-80743327D01*
X109449036Y-80809964D01*
X109438478Y-80869290D01*
X109435543Y-80874374D01*
X109433503Y-80880654D01*
X109433502Y-80880655D01*
X109421422Y-80917834D01*
X109376528Y-81056002D01*
X109375838Y-81062563D01*
X109375838Y-81062565D01*
X109367986Y-81137271D01*
X109356566Y-81245930D01*
X109357256Y-81252495D01*
X109375635Y-81427358D01*
X109376528Y-81435858D01*
X109435543Y-81617486D01*
X109531030Y-81782874D01*
X109535448Y-81787781D01*
X109535449Y-81787782D01*
X109632439Y-81895500D01*
X109658817Y-81924796D01*
X109813318Y-82037048D01*
X109819346Y-82039732D01*
X109819348Y-82039733D01*
X109938881Y-82092952D01*
X109987782Y-82114724D01*
X110081182Y-82134577D01*
X110168126Y-82153058D01*
X110168131Y-82153058D01*
X110174583Y-82154430D01*
X110365557Y-82154430D01*
X110372009Y-82153058D01*
X110372014Y-82153058D01*
X110458958Y-82134577D01*
X110552358Y-82114724D01*
X110601259Y-82092952D01*
X110720792Y-82039733D01*
X110720794Y-82039732D01*
X110726822Y-82037048D01*
X110881323Y-81924796D01*
X110907701Y-81895500D01*
X111004495Y-81788000D01*
X111354496Y-81788000D01*
X111355186Y-81794565D01*
X111369824Y-81933834D01*
X111374458Y-81977928D01*
X111433473Y-82159556D01*
X111436776Y-82165278D01*
X111436777Y-82165279D01*
X111439033Y-82169187D01*
X111528960Y-82324944D01*
X111533378Y-82329851D01*
X111533379Y-82329852D01*
X111575808Y-82376974D01*
X111656747Y-82466866D01*
X111811248Y-82579118D01*
X111817276Y-82581802D01*
X111817278Y-82581803D01*
X111979681Y-82654109D01*
X111985712Y-82656794D01*
X112079112Y-82676647D01*
X112166056Y-82695128D01*
X112166061Y-82695128D01*
X112172513Y-82696500D01*
X112363487Y-82696500D01*
X112369939Y-82695128D01*
X112369944Y-82695128D01*
X112456888Y-82676647D01*
X112550288Y-82656794D01*
X112556319Y-82654109D01*
X112718722Y-82581803D01*
X112718724Y-82581802D01*
X112724752Y-82579118D01*
X112879253Y-82466866D01*
X112960192Y-82376974D01*
X113002621Y-82329852D01*
X113002622Y-82329851D01*
X113007040Y-82324944D01*
X113096967Y-82169187D01*
X113097075Y-82169000D01*
X125578496Y-82169000D01*
X125579186Y-82175565D01*
X125597715Y-82351854D01*
X125598458Y-82358928D01*
X125657473Y-82540556D01*
X125660776Y-82546278D01*
X125660777Y-82546279D01*
X125686055Y-82590062D01*
X125752960Y-82705944D01*
X125757378Y-82710851D01*
X125757379Y-82710852D01*
X125803331Y-82761887D01*
X125880747Y-82847866D01*
X125961196Y-82906316D01*
X126014088Y-82944744D01*
X126035248Y-82960118D01*
X126041276Y-82962802D01*
X126041278Y-82962803D01*
X126203681Y-83035109D01*
X126209712Y-83037794D01*
X126286336Y-83054081D01*
X126390056Y-83076128D01*
X126390061Y-83076128D01*
X126396513Y-83077500D01*
X126587487Y-83077500D01*
X126593939Y-83076128D01*
X126593944Y-83076128D01*
X126697664Y-83054081D01*
X126774288Y-83037794D01*
X126780319Y-83035109D01*
X126942722Y-82962803D01*
X126942724Y-82962802D01*
X126948752Y-82960118D01*
X126969913Y-82944744D01*
X127022804Y-82906316D01*
X127103253Y-82847866D01*
X127180669Y-82761887D01*
X127226621Y-82710852D01*
X127226622Y-82710851D01*
X127231040Y-82705944D01*
X127297945Y-82590062D01*
X127323223Y-82546279D01*
X127323224Y-82546278D01*
X127326527Y-82540556D01*
X127385542Y-82358928D01*
X127386286Y-82351854D01*
X127404814Y-82175565D01*
X127405504Y-82169000D01*
X127392954Y-82049593D01*
X127386232Y-81985635D01*
X127386232Y-81985633D01*
X127385542Y-81979072D01*
X127326527Y-81797444D01*
X127321075Y-81788000D01*
X127236085Y-81640794D01*
X127231040Y-81632056D01*
X127158397Y-81551377D01*
X127107675Y-81495045D01*
X127107674Y-81495044D01*
X127103253Y-81490134D01*
X126948752Y-81377882D01*
X126942724Y-81375198D01*
X126942722Y-81375197D01*
X126780319Y-81302891D01*
X126780318Y-81302891D01*
X126774288Y-81300206D01*
X126663448Y-81276646D01*
X126593944Y-81261872D01*
X126593939Y-81261872D01*
X126587487Y-81260500D01*
X126396513Y-81260500D01*
X126390061Y-81261872D01*
X126390056Y-81261872D01*
X126320552Y-81276646D01*
X126209712Y-81300206D01*
X126203682Y-81302891D01*
X126203681Y-81302891D01*
X126041278Y-81375197D01*
X126041276Y-81375198D01*
X126035248Y-81377882D01*
X125880747Y-81490134D01*
X125876326Y-81495044D01*
X125876325Y-81495045D01*
X125825604Y-81551377D01*
X125752960Y-81632056D01*
X125747915Y-81640794D01*
X125662926Y-81788000D01*
X125657473Y-81797444D01*
X125598458Y-81979072D01*
X125597768Y-81985633D01*
X125597768Y-81985635D01*
X125591046Y-82049593D01*
X125578496Y-82169000D01*
X113097075Y-82169000D01*
X113099223Y-82165279D01*
X113099224Y-82165278D01*
X113102527Y-82159556D01*
X113161542Y-81977928D01*
X113166177Y-81933834D01*
X113180814Y-81794565D01*
X113181504Y-81788000D01*
X113170426Y-81682596D01*
X113162232Y-81604635D01*
X113162232Y-81604633D01*
X113161542Y-81598072D01*
X113102527Y-81416444D01*
X113007040Y-81251056D01*
X112996514Y-81239365D01*
X112883675Y-81114045D01*
X112883674Y-81114044D01*
X112879253Y-81109134D01*
X112724752Y-80996882D01*
X112718724Y-80994198D01*
X112718722Y-80994197D01*
X112556319Y-80921891D01*
X112556318Y-80921891D01*
X112550288Y-80919206D01*
X112456888Y-80899353D01*
X112369944Y-80880872D01*
X112369939Y-80880872D01*
X112363487Y-80879500D01*
X112172513Y-80879500D01*
X112166061Y-80880872D01*
X112166056Y-80880872D01*
X112079112Y-80899353D01*
X111985712Y-80919206D01*
X111979682Y-80921891D01*
X111979681Y-80921891D01*
X111817278Y-80994197D01*
X111817276Y-80994198D01*
X111811248Y-80996882D01*
X111656747Y-81109134D01*
X111652326Y-81114044D01*
X111652325Y-81114045D01*
X111539487Y-81239365D01*
X111528960Y-81251056D01*
X111433473Y-81416444D01*
X111407934Y-81495045D01*
X111405956Y-81501132D01*
X111371599Y-81551377D01*
X111377896Y-81575332D01*
X111375594Y-81594574D01*
X111374458Y-81598072D01*
X111373769Y-81604629D01*
X111373768Y-81604633D01*
X111365044Y-81687639D01*
X111354496Y-81788000D01*
X111004495Y-81788000D01*
X111004691Y-81787782D01*
X111004692Y-81787781D01*
X111009110Y-81782874D01*
X111104597Y-81617486D01*
X111132114Y-81532798D01*
X111166471Y-81482553D01*
X111160174Y-81458598D01*
X111162476Y-81439356D01*
X111163612Y-81435858D01*
X111164506Y-81427358D01*
X111182884Y-81252495D01*
X111183574Y-81245930D01*
X111172154Y-81137271D01*
X111164302Y-81062565D01*
X111164302Y-81062563D01*
X111163612Y-81056002D01*
X111104597Y-80874374D01*
X111085157Y-80840702D01*
X111064319Y-80804610D01*
X111009110Y-80708986D01*
X110981489Y-80678309D01*
X110885745Y-80571975D01*
X110885744Y-80571974D01*
X110881323Y-80567064D01*
X110726822Y-80454812D01*
X110720794Y-80452128D01*
X110720792Y-80452127D01*
X110558389Y-80379821D01*
X110558388Y-80379821D01*
X110552358Y-80377136D01*
X110458957Y-80357283D01*
X110372014Y-80338802D01*
X110372009Y-80338802D01*
X110365557Y-80337430D01*
X110174583Y-80337430D01*
X110168130Y-80338802D01*
X110168117Y-80338803D01*
X110073271Y-80358964D01*
X110002481Y-80353563D01*
X109945848Y-80310746D01*
X109921354Y-80244109D01*
X109931912Y-80184783D01*
X109934847Y-80179699D01*
X109945609Y-80146579D01*
X109991822Y-80004349D01*
X109993862Y-79998071D01*
X109997952Y-79959162D01*
X110013134Y-79814708D01*
X110013824Y-79808143D01*
X110002269Y-79698206D01*
X109994552Y-79624778D01*
X109994552Y-79624776D01*
X109993862Y-79618215D01*
X109934847Y-79436587D01*
X109921781Y-79413955D01*
X109894394Y-79366520D01*
X109842370Y-79276413D01*
X112598648Y-79276413D01*
X112599338Y-79282978D01*
X112608119Y-79366520D01*
X112618610Y-79466341D01*
X112677625Y-79647969D01*
X112680928Y-79653691D01*
X112680929Y-79653692D01*
X112699216Y-79685365D01*
X112773112Y-79813357D01*
X112777530Y-79818264D01*
X112777531Y-79818265D01*
X112850654Y-79899476D01*
X112900899Y-79955279D01*
X112941480Y-79984763D01*
X113016054Y-80038944D01*
X113055400Y-80067531D01*
X113061428Y-80070215D01*
X113061430Y-80070216D01*
X113223833Y-80142522D01*
X113229864Y-80145207D01*
X113323265Y-80165060D01*
X113410208Y-80183541D01*
X113410213Y-80183541D01*
X113416665Y-80184913D01*
X113607639Y-80184913D01*
X113614091Y-80183541D01*
X113614096Y-80183541D01*
X113701039Y-80165060D01*
X113794440Y-80145207D01*
X113800471Y-80142522D01*
X113962874Y-80070216D01*
X113962876Y-80070215D01*
X113968904Y-80067531D01*
X114008251Y-80038944D01*
X114082824Y-79984763D01*
X114123405Y-79955279D01*
X114173650Y-79899476D01*
X114246773Y-79818265D01*
X114246774Y-79818264D01*
X114251192Y-79813357D01*
X114325088Y-79685365D01*
X114343375Y-79653692D01*
X114343376Y-79653691D01*
X114346679Y-79647969D01*
X114386455Y-79525552D01*
X114426529Y-79466947D01*
X114491926Y-79439310D01*
X114561882Y-79451417D01*
X114615406Y-79501489D01*
X114629665Y-79526185D01*
X114757452Y-79668107D01*
X114911953Y-79780359D01*
X114917981Y-79783043D01*
X114917983Y-79783044D01*
X115080386Y-79855350D01*
X115086417Y-79858035D01*
X115179818Y-79877888D01*
X115266761Y-79896369D01*
X115266766Y-79896369D01*
X115273218Y-79897741D01*
X115464192Y-79897741D01*
X115470644Y-79896369D01*
X115470649Y-79896369D01*
X115557592Y-79877888D01*
X115650993Y-79858035D01*
X115657024Y-79855350D01*
X115819427Y-79783044D01*
X115819429Y-79783043D01*
X115825457Y-79780359D01*
X115979958Y-79668107D01*
X116107745Y-79526185D01*
X116121708Y-79502000D01*
X121514496Y-79502000D01*
X121515186Y-79508565D01*
X121529894Y-79648500D01*
X121534458Y-79691928D01*
X121593473Y-79873556D01*
X121688960Y-80038944D01*
X121693378Y-80043851D01*
X121693379Y-80043852D01*
X121785875Y-80146579D01*
X121816747Y-80180866D01*
X121823018Y-80185422D01*
X121922266Y-80257530D01*
X121971248Y-80293118D01*
X121977276Y-80295802D01*
X121977278Y-80295803D01*
X122098996Y-80349995D01*
X122145712Y-80370794D01*
X122238270Y-80390468D01*
X122326056Y-80409128D01*
X122326061Y-80409128D01*
X122332513Y-80410500D01*
X122523487Y-80410500D01*
X122529939Y-80409128D01*
X122529944Y-80409128D01*
X122617730Y-80390468D01*
X122710288Y-80370794D01*
X122757004Y-80349995D01*
X122878722Y-80295803D01*
X122878724Y-80295802D01*
X122884752Y-80293118D01*
X122933735Y-80257530D01*
X123032982Y-80185422D01*
X123039253Y-80180866D01*
X123070125Y-80146579D01*
X123162621Y-80043852D01*
X123162622Y-80043851D01*
X123167040Y-80038944D01*
X123262527Y-79873556D01*
X123321542Y-79691928D01*
X123326107Y-79648500D01*
X123340814Y-79508565D01*
X123341504Y-79502000D01*
X123335647Y-79446277D01*
X123322232Y-79318635D01*
X123322232Y-79318633D01*
X123321542Y-79312072D01*
X123262527Y-79130444D01*
X123167040Y-78965056D01*
X123143894Y-78939349D01*
X123043675Y-78828045D01*
X123043674Y-78828044D01*
X123039253Y-78823134D01*
X122924829Y-78740000D01*
X122890094Y-78714763D01*
X122890093Y-78714762D01*
X122884752Y-78710882D01*
X122878724Y-78708198D01*
X122878722Y-78708197D01*
X122716319Y-78635891D01*
X122716318Y-78635891D01*
X122710288Y-78633206D01*
X122616887Y-78613353D01*
X122529944Y-78594872D01*
X122529939Y-78594872D01*
X122523487Y-78593500D01*
X122332513Y-78593500D01*
X122326061Y-78594872D01*
X122326056Y-78594872D01*
X122239113Y-78613353D01*
X122145712Y-78633206D01*
X122139682Y-78635891D01*
X122139681Y-78635891D01*
X121977278Y-78708197D01*
X121977276Y-78708198D01*
X121971248Y-78710882D01*
X121965907Y-78714762D01*
X121965906Y-78714763D01*
X121931171Y-78740000D01*
X121816747Y-78823134D01*
X121812326Y-78828044D01*
X121812325Y-78828045D01*
X121712107Y-78939349D01*
X121688960Y-78965056D01*
X121593473Y-79130444D01*
X121534458Y-79312072D01*
X121533768Y-79318633D01*
X121533768Y-79318635D01*
X121520353Y-79446277D01*
X121514496Y-79502000D01*
X116121708Y-79502000D01*
X116203232Y-79360797D01*
X116262247Y-79179169D01*
X116282209Y-78989241D01*
X116275953Y-78929715D01*
X116262937Y-78805876D01*
X116262937Y-78805874D01*
X116262247Y-78799313D01*
X116203232Y-78617685D01*
X116189364Y-78593664D01*
X116149373Y-78524399D01*
X116107745Y-78452297D01*
X116096677Y-78440004D01*
X115984380Y-78315286D01*
X115984379Y-78315285D01*
X115979958Y-78310375D01*
X115825457Y-78198123D01*
X115819429Y-78195439D01*
X115819427Y-78195438D01*
X115657024Y-78123132D01*
X115657023Y-78123132D01*
X115650993Y-78120447D01*
X115535227Y-78095840D01*
X115470649Y-78082113D01*
X115470644Y-78082113D01*
X115464192Y-78080741D01*
X115395263Y-78080741D01*
X115327142Y-78060739D01*
X115280649Y-78007083D01*
X115269953Y-77967911D01*
X115251747Y-77794687D01*
X115251747Y-77794685D01*
X115251057Y-77788124D01*
X115192042Y-77606496D01*
X115096555Y-77441108D01*
X115071482Y-77413261D01*
X114973190Y-77304097D01*
X114973189Y-77304096D01*
X114968768Y-77299186D01*
X114845237Y-77209435D01*
X114819609Y-77190815D01*
X114819608Y-77190814D01*
X114814267Y-77186934D01*
X114808239Y-77184250D01*
X114808237Y-77184249D01*
X114645834Y-77111943D01*
X114645833Y-77111943D01*
X114639803Y-77109258D01*
X114546402Y-77089405D01*
X114459459Y-77070924D01*
X114459454Y-77070924D01*
X114453002Y-77069552D01*
X114262028Y-77069552D01*
X114255576Y-77070924D01*
X114255571Y-77070924D01*
X114168628Y-77089405D01*
X114075227Y-77109258D01*
X114069197Y-77111943D01*
X114069196Y-77111943D01*
X113906793Y-77184249D01*
X113906791Y-77184250D01*
X113900763Y-77186934D01*
X113895422Y-77190814D01*
X113895421Y-77190815D01*
X113869793Y-77209435D01*
X113746262Y-77299186D01*
X113741841Y-77304096D01*
X113741840Y-77304097D01*
X113643549Y-77413261D01*
X113618475Y-77441108D01*
X113522988Y-77606496D01*
X113463973Y-77788124D01*
X113463283Y-77794685D01*
X113463283Y-77794687D01*
X113450888Y-77912617D01*
X113444011Y-77978052D01*
X113444701Y-77984617D01*
X113453820Y-78071375D01*
X113463973Y-78167980D01*
X113466013Y-78174258D01*
X113478439Y-78212502D01*
X113480466Y-78283470D01*
X113443804Y-78344268D01*
X113384803Y-78374684D01*
X113236330Y-78406244D01*
X113236325Y-78406246D01*
X113229864Y-78407619D01*
X113223834Y-78410304D01*
X113223833Y-78410304D01*
X113061430Y-78482610D01*
X113061428Y-78482611D01*
X113055400Y-78485295D01*
X112900899Y-78597547D01*
X112896478Y-78602457D01*
X112896477Y-78602458D01*
X112783676Y-78727737D01*
X112773112Y-78739469D01*
X112677625Y-78904857D01*
X112618610Y-79086485D01*
X112617920Y-79093046D01*
X112617920Y-79093048D01*
X112609558Y-79172606D01*
X112598648Y-79276413D01*
X109842370Y-79276413D01*
X109839360Y-79271199D01*
X109808439Y-79236857D01*
X109715995Y-79134188D01*
X109715994Y-79134187D01*
X109711573Y-79129277D01*
X109557072Y-79017025D01*
X109551044Y-79014341D01*
X109551042Y-79014340D01*
X109388639Y-78942034D01*
X109388638Y-78942034D01*
X109382608Y-78939349D01*
X109289208Y-78919496D01*
X109202264Y-78901015D01*
X109202259Y-78901015D01*
X109195807Y-78899643D01*
X109004833Y-78899643D01*
X108998381Y-78901015D01*
X108998376Y-78901015D01*
X108911432Y-78919496D01*
X108818032Y-78939349D01*
X108812002Y-78942034D01*
X108812001Y-78942034D01*
X108649598Y-79014340D01*
X108649596Y-79014341D01*
X108643568Y-79017025D01*
X108489067Y-79129277D01*
X108484646Y-79134187D01*
X108484645Y-79134188D01*
X108392202Y-79236857D01*
X108361280Y-79271199D01*
X108306246Y-79366520D01*
X108278860Y-79413955D01*
X108265793Y-79436587D01*
X108206778Y-79618215D01*
X108206088Y-79624776D01*
X108206088Y-79624778D01*
X108198371Y-79698206D01*
X108186816Y-79808143D01*
X90579849Y-79808143D01*
X90588318Y-79727565D01*
X90589008Y-79721000D01*
X90586612Y-79698206D01*
X90571385Y-79553321D01*
X90571384Y-79553317D01*
X90570694Y-79546751D01*
X90529141Y-79418866D01*
X90518591Y-79386395D01*
X90518589Y-79386391D01*
X90516551Y-79380118D01*
X90513253Y-79374405D01*
X90513250Y-79374399D01*
X90504359Y-79359000D01*
X90487621Y-79290004D01*
X90504359Y-79233000D01*
X90513250Y-79217601D01*
X90513253Y-79217595D01*
X90516551Y-79211882D01*
X90525141Y-79185447D01*
X90559335Y-79080207D01*
X90570694Y-79045249D01*
X90573661Y-79017025D01*
X90588318Y-78877565D01*
X90589008Y-78871000D01*
X90582523Y-78809294D01*
X90571385Y-78703321D01*
X90571384Y-78703317D01*
X90570694Y-78696751D01*
X90516551Y-78530118D01*
X90513253Y-78524405D01*
X90513250Y-78524399D01*
X90504359Y-78509000D01*
X90487621Y-78440004D01*
X90504359Y-78383000D01*
X90513250Y-78367601D01*
X90513253Y-78367595D01*
X90516551Y-78361882D01*
X90520540Y-78349608D01*
X90568499Y-78202004D01*
X90570694Y-78195249D01*
X90572901Y-78174258D01*
X90588318Y-78027565D01*
X90589008Y-78021000D01*
X90579857Y-77933935D01*
X90571385Y-77853321D01*
X90571384Y-77853317D01*
X90570694Y-77846751D01*
X90537403Y-77744294D01*
X90518591Y-77686395D01*
X90518589Y-77686391D01*
X90516551Y-77680118D01*
X90513253Y-77674405D01*
X90513250Y-77674399D01*
X90504359Y-77659000D01*
X90487621Y-77590004D01*
X90504359Y-77533000D01*
X90513250Y-77517601D01*
X90513253Y-77517595D01*
X90516551Y-77511882D01*
X90519188Y-77503768D01*
X90550978Y-77405928D01*
X90570694Y-77345249D01*
X90575020Y-77304097D01*
X90584279Y-77216000D01*
X109322496Y-77216000D01*
X109323186Y-77222565D01*
X109337453Y-77358304D01*
X109342458Y-77405928D01*
X109401473Y-77587556D01*
X109496960Y-77752944D01*
X109501378Y-77757851D01*
X109501379Y-77757852D01*
X109567692Y-77831500D01*
X109624747Y-77894866D01*
X109779248Y-78007118D01*
X109785276Y-78009802D01*
X109785278Y-78009803D01*
X109947681Y-78082109D01*
X109953712Y-78084794D01*
X110028026Y-78100590D01*
X110134056Y-78123128D01*
X110134061Y-78123128D01*
X110140513Y-78124500D01*
X110331487Y-78124500D01*
X110337939Y-78123128D01*
X110337944Y-78123128D01*
X110443974Y-78100590D01*
X110518288Y-78084794D01*
X110524319Y-78082109D01*
X110686722Y-78009803D01*
X110686724Y-78009802D01*
X110692752Y-78007118D01*
X110847253Y-77894866D01*
X110904308Y-77831500D01*
X110970621Y-77757852D01*
X110970622Y-77757851D01*
X110975040Y-77752944D01*
X111070527Y-77587556D01*
X111129542Y-77405928D01*
X111134548Y-77358304D01*
X111148814Y-77222565D01*
X111149504Y-77216000D01*
X111135040Y-77078384D01*
X111147812Y-77008546D01*
X111196314Y-76956699D01*
X111265147Y-76939305D01*
X111311598Y-76950107D01*
X111395412Y-76987423D01*
X111401867Y-76988795D01*
X111401876Y-76988798D01*
X111422812Y-76993248D01*
X111485285Y-77026976D01*
X111516446Y-77077557D01*
X111553929Y-77192916D01*
X111557232Y-77198638D01*
X111557233Y-77198639D01*
X111571047Y-77222565D01*
X111649416Y-77358304D01*
X111653834Y-77363211D01*
X111653835Y-77363212D01*
X111719554Y-77436200D01*
X111777203Y-77500226D01*
X111837048Y-77543706D01*
X111923471Y-77606496D01*
X111931704Y-77612478D01*
X111937732Y-77615162D01*
X111937734Y-77615163D01*
X112097725Y-77686395D01*
X112106168Y-77690154D01*
X112199569Y-77710007D01*
X112286512Y-77728488D01*
X112286517Y-77728488D01*
X112292969Y-77729860D01*
X112483943Y-77729860D01*
X112490395Y-77728488D01*
X112490400Y-77728488D01*
X112577343Y-77710007D01*
X112670744Y-77690154D01*
X112679187Y-77686395D01*
X112839178Y-77615163D01*
X112839180Y-77615162D01*
X112845208Y-77612478D01*
X112853442Y-77606496D01*
X112939864Y-77543706D01*
X112999709Y-77500226D01*
X113057358Y-77436200D01*
X113123077Y-77363212D01*
X113123078Y-77363211D01*
X113127496Y-77358304D01*
X113205865Y-77222565D01*
X113219679Y-77198639D01*
X113219680Y-77198638D01*
X113222983Y-77192916D01*
X113281998Y-77011288D01*
X113282836Y-77003321D01*
X113301270Y-76827925D01*
X113301960Y-76821360D01*
X113294670Y-76751996D01*
X113282688Y-76637995D01*
X113282688Y-76637993D01*
X113281998Y-76631432D01*
X113222983Y-76449804D01*
X113127496Y-76284416D01*
X112999709Y-76142494D01*
X112845208Y-76030242D01*
X112839180Y-76027558D01*
X112839178Y-76027557D01*
X112676775Y-75955251D01*
X112676774Y-75955251D01*
X112670744Y-75952566D01*
X112664289Y-75951194D01*
X112664280Y-75951191D01*
X112643344Y-75946741D01*
X112580871Y-75913013D01*
X112549709Y-75862431D01*
X112540147Y-75833000D01*
X112531245Y-75805605D01*
X112514268Y-75753353D01*
X112514266Y-75753349D01*
X112512227Y-75747073D01*
X112512260Y-75747062D01*
X112503169Y-75679244D01*
X112518591Y-75635366D01*
X112596596Y-75500258D01*
X112596597Y-75500257D01*
X112599900Y-75494535D01*
X112658915Y-75312907D01*
X112659717Y-75305283D01*
X112678187Y-75129544D01*
X112678877Y-75122979D01*
X112667334Y-75013154D01*
X112659605Y-74939614D01*
X112659605Y-74939612D01*
X112658915Y-74933051D01*
X112599900Y-74751423D01*
X112588282Y-74731299D01*
X112562687Y-74686969D01*
X112504413Y-74586035D01*
X112487378Y-74567115D01*
X112381048Y-74449024D01*
X112381047Y-74449023D01*
X112376626Y-74444113D01*
X112222125Y-74331861D01*
X112216097Y-74329177D01*
X112216095Y-74329176D01*
X112053692Y-74256870D01*
X112053691Y-74256870D01*
X112047661Y-74254185D01*
X111943628Y-74232072D01*
X111867317Y-74215851D01*
X111867312Y-74215851D01*
X111860860Y-74214479D01*
X111669886Y-74214479D01*
X111663434Y-74215851D01*
X111663429Y-74215851D01*
X111587118Y-74232072D01*
X111483085Y-74254185D01*
X111477055Y-74256870D01*
X111477054Y-74256870D01*
X111314651Y-74329176D01*
X111314649Y-74329177D01*
X111308621Y-74331861D01*
X111154120Y-74444113D01*
X111149699Y-74449023D01*
X111149698Y-74449024D01*
X111043369Y-74567115D01*
X111026333Y-74586035D01*
X110968059Y-74686969D01*
X110942465Y-74731299D01*
X110930846Y-74751423D01*
X110871831Y-74933051D01*
X110871141Y-74939612D01*
X110871141Y-74939614D01*
X110863412Y-75013154D01*
X110851869Y-75122979D01*
X110852559Y-75129544D01*
X110871030Y-75305283D01*
X110871831Y-75312907D01*
X110873871Y-75319185D01*
X110928804Y-75488250D01*
X110930787Y-75494353D01*
X110930787Y-75494354D01*
X110930846Y-75494535D01*
X110930813Y-75494546D01*
X110939904Y-75562364D01*
X110924482Y-75606242D01*
X110843173Y-75747073D01*
X110784158Y-75928701D01*
X110783468Y-75935262D01*
X110783468Y-75935264D01*
X110780973Y-75959000D01*
X110764196Y-76118629D01*
X110767221Y-76147405D01*
X110778660Y-76256244D01*
X110765888Y-76326083D01*
X110717386Y-76377930D01*
X110648553Y-76395324D01*
X110602102Y-76384522D01*
X110518288Y-76347206D01*
X110418913Y-76326083D01*
X110337944Y-76308872D01*
X110337939Y-76308872D01*
X110331487Y-76307500D01*
X110140513Y-76307500D01*
X110134061Y-76308872D01*
X110134056Y-76308872D01*
X110053087Y-76326083D01*
X109953712Y-76347206D01*
X109947682Y-76349891D01*
X109947681Y-76349891D01*
X109785278Y-76422197D01*
X109785276Y-76422198D01*
X109779248Y-76424882D01*
X109624747Y-76537134D01*
X109620326Y-76542044D01*
X109620325Y-76542045D01*
X109512424Y-76661882D01*
X109496960Y-76679056D01*
X109493659Y-76684774D01*
X109414801Y-76821360D01*
X109401473Y-76844444D01*
X109342458Y-77026072D01*
X109341768Y-77032633D01*
X109341768Y-77032635D01*
X109327916Y-77164435D01*
X109322496Y-77216000D01*
X90584279Y-77216000D01*
X90588318Y-77177565D01*
X90589008Y-77171000D01*
X90581350Y-77098134D01*
X90571385Y-77003321D01*
X90571384Y-77003317D01*
X90570694Y-76996751D01*
X90521206Y-76844444D01*
X90518591Y-76836395D01*
X90518589Y-76836391D01*
X90516551Y-76830118D01*
X90513253Y-76824405D01*
X90513250Y-76824399D01*
X90504359Y-76809000D01*
X90487621Y-76740004D01*
X90504359Y-76683000D01*
X90513250Y-76667601D01*
X90513253Y-76667595D01*
X90516551Y-76661882D01*
X90524313Y-76637995D01*
X90555489Y-76542045D01*
X90570694Y-76495249D01*
X90575471Y-76449804D01*
X90588318Y-76327565D01*
X90589008Y-76321000D01*
X90570694Y-76146751D01*
X90534099Y-76034123D01*
X90518591Y-75986395D01*
X90518589Y-75986391D01*
X90516551Y-75980118D01*
X90513253Y-75974405D01*
X90513250Y-75974399D01*
X90504359Y-75959000D01*
X90487621Y-75890004D01*
X90504359Y-75833000D01*
X90513250Y-75817601D01*
X90513253Y-75817595D01*
X90516551Y-75811882D01*
X90535569Y-75753353D01*
X90565926Y-75659923D01*
X90570694Y-75645249D01*
X90575723Y-75597408D01*
X90588318Y-75477565D01*
X90589008Y-75471000D01*
X90572392Y-75312907D01*
X90571385Y-75303321D01*
X90571384Y-75303317D01*
X90570694Y-75296751D01*
X90516551Y-75130118D01*
X90505919Y-75111703D01*
X90432250Y-74984102D01*
X90432247Y-74984098D01*
X90428947Y-74978382D01*
X90394040Y-74939614D01*
X90316124Y-74853080D01*
X90316122Y-74853079D01*
X90311709Y-74848177D01*
X90306371Y-74844299D01*
X90306368Y-74844296D01*
X90300000Y-74839669D01*
X96782001Y-74839669D01*
X96782371Y-74846490D01*
X96787895Y-74897352D01*
X96791521Y-74912604D01*
X96836676Y-75033054D01*
X96845214Y-75048649D01*
X96921715Y-75150724D01*
X96934276Y-75163285D01*
X97036351Y-75239786D01*
X97051946Y-75248324D01*
X97172394Y-75293478D01*
X97187649Y-75297105D01*
X97238514Y-75302631D01*
X97245328Y-75303000D01*
X97517885Y-75303000D01*
X97533124Y-75298525D01*
X97534329Y-75297135D01*
X97536000Y-75289452D01*
X97536000Y-75284884D01*
X98044000Y-75284884D01*
X98048475Y-75300123D01*
X98049865Y-75301328D01*
X98057548Y-75302999D01*
X98334669Y-75302999D01*
X98341490Y-75302629D01*
X98392352Y-75297105D01*
X98407604Y-75293479D01*
X98528054Y-75248324D01*
X98543649Y-75239786D01*
X98645724Y-75163285D01*
X98658285Y-75150724D01*
X98734786Y-75048649D01*
X98743324Y-75033054D01*
X98788478Y-74912606D01*
X98792105Y-74897351D01*
X98797631Y-74846486D01*
X98798000Y-74839672D01*
X98798000Y-74731299D01*
X101757795Y-74731299D01*
X101758485Y-74737864D01*
X101776851Y-74912604D01*
X101777757Y-74921227D01*
X101836772Y-75102855D01*
X101840075Y-75108577D01*
X101840076Y-75108578D01*
X101856139Y-75136399D01*
X101932259Y-75268243D01*
X101936677Y-75273150D01*
X101936678Y-75273151D01*
X101978127Y-75319185D01*
X102060046Y-75410165D01*
X102214547Y-75522417D01*
X102220575Y-75525101D01*
X102220577Y-75525102D01*
X102382980Y-75597408D01*
X102389011Y-75600093D01*
X102482412Y-75619946D01*
X102569355Y-75638427D01*
X102569360Y-75638427D01*
X102575812Y-75639799D01*
X102766786Y-75639799D01*
X102773238Y-75638427D01*
X102773243Y-75638427D01*
X102860186Y-75619946D01*
X102953587Y-75600093D01*
X102959618Y-75597408D01*
X103122021Y-75525102D01*
X103122023Y-75525101D01*
X103128051Y-75522417D01*
X103282552Y-75410165D01*
X103364471Y-75319185D01*
X103405920Y-75273151D01*
X103405921Y-75273150D01*
X103410339Y-75268243D01*
X103486459Y-75136399D01*
X103502522Y-75108578D01*
X103502523Y-75108577D01*
X103505826Y-75102855D01*
X103564841Y-74921227D01*
X103565748Y-74912604D01*
X103584113Y-74737864D01*
X103584803Y-74731299D01*
X103569535Y-74586035D01*
X103565531Y-74547934D01*
X103565531Y-74547932D01*
X103564841Y-74541371D01*
X103505826Y-74359743D01*
X103410339Y-74194355D01*
X103282552Y-74052433D01*
X103128051Y-73940181D01*
X103122023Y-73937497D01*
X103122021Y-73937496D01*
X102959618Y-73865190D01*
X102959617Y-73865190D01*
X102953587Y-73862505D01*
X102837920Y-73837919D01*
X102773243Y-73824171D01*
X102773238Y-73824171D01*
X102766786Y-73822799D01*
X102575812Y-73822799D01*
X102569360Y-73824171D01*
X102569355Y-73824171D01*
X102504678Y-73837919D01*
X102389011Y-73862505D01*
X102382981Y-73865190D01*
X102382980Y-73865190D01*
X102220577Y-73937496D01*
X102220575Y-73937497D01*
X102214547Y-73940181D01*
X102060046Y-74052433D01*
X101932259Y-74194355D01*
X101836772Y-74359743D01*
X101777757Y-74541371D01*
X101777067Y-74547932D01*
X101777067Y-74547934D01*
X101773063Y-74586035D01*
X101757795Y-74731299D01*
X98798000Y-74731299D01*
X98798000Y-74567115D01*
X98793525Y-74551876D01*
X98792135Y-74550671D01*
X98784452Y-74549000D01*
X98062115Y-74549000D01*
X98046876Y-74553475D01*
X98045671Y-74554865D01*
X98044000Y-74562548D01*
X98044000Y-75284884D01*
X97536000Y-75284884D01*
X97536000Y-74567115D01*
X97531525Y-74551876D01*
X97530135Y-74550671D01*
X97522452Y-74549000D01*
X96800116Y-74549000D01*
X96784877Y-74553475D01*
X96783672Y-74554865D01*
X96782001Y-74562548D01*
X96782001Y-74839669D01*
X90300000Y-74839669D01*
X90277419Y-74823263D01*
X90234066Y-74767040D01*
X90227991Y-74696304D01*
X90240645Y-74661399D01*
X90309136Y-74534728D01*
X90370752Y-74335679D01*
X90371396Y-74329553D01*
X90391888Y-74134582D01*
X90391888Y-74134580D01*
X90392532Y-74128453D01*
X90382924Y-74022885D01*
X96782000Y-74022885D01*
X96786475Y-74038124D01*
X96787865Y-74039329D01*
X96795548Y-74041000D01*
X97517885Y-74041000D01*
X97533124Y-74036525D01*
X97534329Y-74035135D01*
X97536000Y-74027452D01*
X97536000Y-74022885D01*
X98044000Y-74022885D01*
X98048475Y-74038124D01*
X98049865Y-74039329D01*
X98057548Y-74041000D01*
X98779884Y-74041000D01*
X98795123Y-74036525D01*
X98796328Y-74035135D01*
X98797999Y-74027452D01*
X98797999Y-73750331D01*
X98797629Y-73743510D01*
X98792105Y-73692648D01*
X98788479Y-73677396D01*
X98743324Y-73556946D01*
X98734786Y-73541351D01*
X98658285Y-73439276D01*
X98645724Y-73426715D01*
X98543649Y-73350214D01*
X98528054Y-73341676D01*
X98407606Y-73296522D01*
X98392351Y-73292895D01*
X98341486Y-73287369D01*
X98334672Y-73287000D01*
X98062115Y-73287000D01*
X98046876Y-73291475D01*
X98045671Y-73292865D01*
X98044000Y-73300548D01*
X98044000Y-74022885D01*
X97536000Y-74022885D01*
X97536000Y-73305116D01*
X97531525Y-73289877D01*
X97530135Y-73288672D01*
X97522452Y-73287001D01*
X97245331Y-73287001D01*
X97238510Y-73287371D01*
X97187648Y-73292895D01*
X97172396Y-73296521D01*
X97051946Y-73341676D01*
X97036351Y-73350214D01*
X96934276Y-73426715D01*
X96921715Y-73439276D01*
X96845214Y-73541351D01*
X96836676Y-73556946D01*
X96791522Y-73677394D01*
X96787895Y-73692649D01*
X96782369Y-73743514D01*
X96782000Y-73750328D01*
X96782000Y-74022885D01*
X90382924Y-74022885D01*
X90373647Y-73920944D01*
X90366400Y-73896319D01*
X90318683Y-73734194D01*
X90314816Y-73721055D01*
X90257585Y-73611581D01*
X90221135Y-73541858D01*
X90221134Y-73541857D01*
X90218281Y-73536399D01*
X90087717Y-73374011D01*
X89928099Y-73240075D01*
X89745506Y-73139693D01*
X89546892Y-73076690D01*
X89540775Y-73076004D01*
X89540771Y-73076003D01*
X89464540Y-73067452D01*
X89384729Y-73058500D01*
X88164485Y-73058500D01*
X88009544Y-73073692D01*
X87810071Y-73133917D01*
X87626093Y-73231739D01*
X87464621Y-73363433D01*
X87331802Y-73523983D01*
X87232698Y-73707272D01*
X87221479Y-73743514D01*
X87201328Y-73808612D01*
X87162077Y-73867772D01*
X87097072Y-73896319D01*
X87026953Y-73885190D01*
X86973982Y-73837919D01*
X86960090Y-73806928D01*
X86938683Y-73734194D01*
X86934816Y-73721055D01*
X86877585Y-73611581D01*
X86841135Y-73541858D01*
X86841134Y-73541857D01*
X86838281Y-73536399D01*
X86707717Y-73374011D01*
X86548099Y-73240075D01*
X86365506Y-73139693D01*
X86166892Y-73076690D01*
X86160775Y-73076004D01*
X86160771Y-73076003D01*
X86084540Y-73067452D01*
X86004729Y-73058500D01*
X84784485Y-73058500D01*
X84629544Y-73073692D01*
X84430071Y-73133917D01*
X84269065Y-73219525D01*
X84247946Y-73230754D01*
X84178409Y-73245073D01*
X84112168Y-73219525D01*
X84070255Y-73162220D01*
X84062793Y-73119509D01*
X84062783Y-72935500D01*
X104242496Y-72935500D01*
X104262458Y-73125428D01*
X104321473Y-73307056D01*
X104416960Y-73472444D01*
X104421378Y-73477351D01*
X104421379Y-73477352D01*
X104484549Y-73547509D01*
X104544747Y-73614366D01*
X104596306Y-73651826D01*
X104672621Y-73707272D01*
X104699248Y-73726618D01*
X104705276Y-73729302D01*
X104705278Y-73729303D01*
X104867681Y-73801609D01*
X104873712Y-73804294D01*
X104960771Y-73822799D01*
X105054056Y-73842628D01*
X105054061Y-73842628D01*
X105060513Y-73844000D01*
X105251487Y-73844000D01*
X105257939Y-73842628D01*
X105257944Y-73842628D01*
X105351229Y-73822799D01*
X105438288Y-73804294D01*
X105444319Y-73801609D01*
X105606722Y-73729303D01*
X105606724Y-73729302D01*
X105612752Y-73726618D01*
X105639380Y-73707272D01*
X105715694Y-73651826D01*
X105767253Y-73614366D01*
X105827451Y-73547509D01*
X105890621Y-73477352D01*
X105890622Y-73477351D01*
X105895040Y-73472444D01*
X105990527Y-73307056D01*
X106049542Y-73125428D01*
X106069504Y-72935500D01*
X106049542Y-72745572D01*
X105990527Y-72563944D01*
X105895040Y-72398556D01*
X105887859Y-72390580D01*
X105771675Y-72261545D01*
X105771674Y-72261544D01*
X105767253Y-72256634D01*
X105612752Y-72144382D01*
X105606724Y-72141698D01*
X105606722Y-72141697D01*
X105444319Y-72069391D01*
X105444318Y-72069391D01*
X105438288Y-72066706D01*
X105344887Y-72046853D01*
X105257944Y-72028372D01*
X105257939Y-72028372D01*
X105251487Y-72027000D01*
X105060513Y-72027000D01*
X105054061Y-72028372D01*
X105054056Y-72028372D01*
X104967113Y-72046853D01*
X104873712Y-72066706D01*
X104867682Y-72069391D01*
X104867681Y-72069391D01*
X104705278Y-72141697D01*
X104705276Y-72141698D01*
X104699248Y-72144382D01*
X104544747Y-72256634D01*
X104540326Y-72261544D01*
X104540325Y-72261545D01*
X104424142Y-72390580D01*
X104416960Y-72398556D01*
X104321473Y-72563944D01*
X104262458Y-72745572D01*
X104242496Y-72935500D01*
X84062783Y-72935500D01*
X84062743Y-72176134D01*
X91955500Y-72176134D01*
X91962255Y-72238316D01*
X92013385Y-72374705D01*
X92100739Y-72491261D01*
X92217295Y-72578615D01*
X92353684Y-72629745D01*
X92415866Y-72636500D01*
X93512134Y-72636500D01*
X93574316Y-72629745D01*
X93710705Y-72578615D01*
X93827261Y-72491261D01*
X93914615Y-72374705D01*
X93965745Y-72238316D01*
X93972500Y-72176134D01*
X93972500Y-71079866D01*
X93965745Y-71017684D01*
X93914615Y-70881295D01*
X93827261Y-70764739D01*
X93710705Y-70677385D01*
X93574316Y-70626255D01*
X93512134Y-70619500D01*
X92415866Y-70619500D01*
X92353684Y-70626255D01*
X92217295Y-70677385D01*
X92100739Y-70764739D01*
X92013385Y-70881295D01*
X91962255Y-71017684D01*
X91955500Y-71079866D01*
X91955500Y-72176134D01*
X84062743Y-72176134D01*
X84062590Y-69256461D01*
X84064090Y-69237072D01*
X84066397Y-69222255D01*
X84066397Y-69222248D01*
X84067778Y-69213379D01*
X84066614Y-69204474D01*
X84066598Y-69204350D01*
X84066327Y-69173911D01*
X84073320Y-69111841D01*
X84079598Y-69084334D01*
X84106571Y-69007245D01*
X84118814Y-68981822D01*
X84162265Y-68912670D01*
X84179856Y-68890611D01*
X84237605Y-68832861D01*
X84259663Y-68815270D01*
X84301048Y-68789265D01*
X84328815Y-68771817D01*
X84354236Y-68759575D01*
X84417910Y-68737294D01*
X84431326Y-68732600D01*
X84458820Y-68726323D01*
X84514246Y-68720077D01*
X84529956Y-68720417D01*
X84529970Y-68719307D01*
X84538945Y-68719416D01*
X84547818Y-68720798D01*
X84579375Y-68716671D01*
X84595714Y-68715607D01*
X95051715Y-68715607D01*
X95119836Y-68735609D01*
G37*
G04 #@! TD.AperFunction*
M02*
